<svg xmlns="http://www.w3.org/2000/svg" viewBox="0 0 214.02 44.59"><defs><style>.cls-1{fill:#211e1e;}.cls-2{fill:#201d1d;}.cls-3{fill:#211f1f;}.cls-4{fill:#0f6bb3;}.cls-5{fill:#23a1dd;}.cls-6{fill:#838383;}.cls-7{fill:#848484;}.cls-8{fill:#868686;}.cls-9{fill:#7fc9eb;}.cls-10{fill:#25a2dd;}</style></defs><g id="Calque_2" data-name="Calque 2"><g id="Calque_1-2" data-name="Calque 1"><path class="cls-1" d="M73.68,16.6c0,2,0,3.52,0,5a9.15,9.15,0,0,1-6.63,9,11.33,11.33,0,0,1-10-1.24,8.85,8.85,0,0,1-4-6.81c-.23-2.32-.06-4.67-.08-7,0-1.31-.07-2.62,0-3.92A9,9,0,0,1,59.9,3.43a11.91,11.91,0,0,1,9.24,1A8.66,8.66,0,0,1,73.54,11,46.25,46.25,0,0,1,73.68,16.6Zm-5.55.52c0-1.56,0-3.12,0-4.67A4.6,4.6,0,0,0,66.69,9a4.78,4.78,0,0,0-5.35-.93,4.4,4.4,0,0,0-2.85,4.32c-.07,3.1,0,6.2,0,9.3a4.83,4.83,0,0,0,9.66,0C68.12,20.17,68.13,18.64,68.13,17.12Z"/><path class="cls-1" d="M77.77,24.31V11.36c0-.67.12-.78.78-.78h4c.62,0,.74.12.74.73v.89c0,.1,0,.21.09.25s.17,0,.24-.12.3-.35.47-.51a6,6,0,0,1,5.75-1.38,7.54,7.54,0,0,1,5.82,5.48,15.05,15.05,0,0,1-.22,10.17,7.74,7.74,0,0,1-9.15,4.85,4.93,4.93,0,0,1-2.62-1.62c-.08-.09-.15-.25-.28-.21s-.11.24-.11.37v7.85c0,.7-.11.81-.82.81h-4c-.6,0-.74-.14-.74-.74Zm12.88-3.73a7.81,7.81,0,0,0-.79-3.76A3,3,0,0,0,87,15a2.88,2.88,0,0,0-2.88,1.77,9.27,9.27,0,0,0-.07,7.73,2.83,2.83,0,0,0,2.65,1.83,3.07,3.07,0,0,0,3-1.69A7.77,7.77,0,0,0,90.65,20.58Z"/><path class="cls-2" d="M100,17V4.13c0-.82.06-.87.89-.87h4c.56,0,.68.13.68.7v7.89a2.61,2.61,0,0,0,0,.28c0,.15-.08.35.11.41s.22-.14.3-.25A5.46,5.46,0,0,1,107.4,11a6.88,6.88,0,0,1,10,4.64,7.07,7.07,0,0,1,.12,1.3V30c0,.73-.07.8-.81.8h-3.84c-.82,0-.89-.07-.89-.87V18.39a3.23,3.23,0,1,0-6.46.05c0,3.85,0,7.69,0,11.54,0,.76-.06.82-.83.82h-4c-.64,0-.73-.1-.73-.73Q100,23.55,100,17Z"/><path class="cls-1" d="M153.44,23.29V30c0,.72-.09.8-.8.81h-4.08c-.55,0-.68-.13-.69-.69v-.93c0-.09,0-.21-.1-.23s-.14.06-.19.11a6,6,0,0,1-4.32,2,8.34,8.34,0,0,1-5.67-1.28,4.8,4.8,0,0,1-2.05-3.37A6,6,0,0,1,137,21a7.17,7.17,0,0,1,4.26-2,39.82,39.82,0,0,1,6.08-.18c.43,0,.6-.11.55-.55s0-.75-.06-1.12a2.49,2.49,0,0,0-2.19-2.06,4.93,4.93,0,0,0-2.76.29,2,2,0,0,0-1.17,1.19.64.64,0,0,1-.82.48c-1.48-.21-3-.4-4.45-.59-.38-.05-.53-.21-.47-.62a5.55,5.55,0,0,1,2.1-3.52,9.39,9.39,0,0,1,5.21-2,11.41,11.41,0,0,1,6.25,1A6.47,6.47,0,0,1,153.34,16a6.77,6.77,0,0,1,.1,1.35Zm-5.57,0c0-.25,0-.5,0-.75s-.11-.42-.43-.41h-3a4.57,4.57,0,0,0-2.31.65,2,2,0,0,0-1,1.38,2.18,2.18,0,0,0,1.6,2.71C144.71,27.55,148.21,26.26,147.87,23.31Z"/><path class="cls-1" d="M123.31,21.25c0-2.16,0-3.92,0-5.68,0-.45-.14-.56-.55-.53s-1.1,0-1.64,0-.73-.13-.73-.75v-3c0-.6.13-.72.75-.72a14.94,14.94,0,0,1,1.64,0c.46,0,.54-.16.53-.56,0-1.36,0-2.71,0-4.07,0-.58.14-.72.71-.72h4c.53,0,.67.14.67.67,0,1.4,0,2.8,0,4.2,0,.37.1.49.48.48,1.09,0,2.18,0,3.28,0,.57,0,.72.15.72.71v3.09c0,.5-.13.64-.64.64h-3.32c-.33,0-.47.06-.47.43,0,2.79,0,5.58,0,8.36a2.06,2.06,0,0,0,2.33,2.29,8.37,8.37,0,0,1,1.12,0,.47.47,0,0,1,.52.53v3.65a.48.48,0,0,1-.46.54,17.51,17.51,0,0,1-6-.4,3.83,3.83,0,0,1-2.84-3.55C123.19,24.87,123.38,22.86,123.31,21.25Z"/><path class="cls-3" d="M207.3,21.93h-6c-.58,0-.59,0-.55.6s.07,1.33.17,2a4.79,4.79,0,0,0,4.05,4,5.74,5.74,0,0,0,5.38-1.42,4.31,4.31,0,0,0,.89-1.19.49.49,0,0,1,.83-.21c.4.26.8.49,1.21.72s.42.43.21.8a7.35,7.35,0,0,1-4.64,3.51,9,9,0,0,1-7.11-.75,6.83,6.83,0,0,1-3.31-4.75,20.43,20.43,0,0,1,0-9.49,7.22,7.22,0,0,1,6.17-5.13,9.53,9.53,0,0,1,5.35.75,7,7,0,0,1,3.64,4.84A19.67,19.67,0,0,1,214,21.5c0,.42-.28.43-.58.43ZM206,19.55h4.87c.2,0,.43.05.41-.28a10.56,10.56,0,0,0-.37-2.91A5,5,0,0,0,205.28,13a4.64,4.64,0,0,0-4.17,3.41,13.54,13.54,0,0,0-.39,2.68c0,.33.08.43.41.42C202.74,19.54,204.35,19.55,206,19.55Z"/><path class="cls-1" d="M180.46,13.09c.21-.24.41-.49.64-.72a5.71,5.71,0,0,1,3.56-1.67A7.46,7.46,0,0,1,190,11.77a6,6,0,0,1,2.73,5.11c.06,4.45,0,8.91,0,13.36,0,.44-.18.58-.59.57s-1.1,0-1.64,0-.6-.17-.59-.61c0-4.18,0-8.35,0-12.53a4.34,4.34,0,0,0-2.77-4.23,4.77,4.77,0,0,0-6.72,3.44,4.34,4.34,0,0,0-.06.88V30.1c0,.66,0,.7-.68.7s-1.06,0-1.59,0c-.37,0-.54-.13-.54-.52q0-9.43,0-18.88c0-.36.14-.52.5-.52h1.82c.36,0,.5.18.49.53,0,.54,0,1.08,0,1.62Z"/><path class="cls-1" d="M158.45,17V4c0-.7,0-.72.7-.72.53,0,1.06,0,1.59,0,.35,0,.53.13.51.49V30c0,.78,0,.79-.78.79h-1.36c-.62,0-.66,0-.66-.65Z"/><path class="cls-3" d="M170.73,20.8v9.31c0,.63,0,.65-.67.66s-1.06,0-1.59,0-.57-.16-.55-.55a1.2,1.2,0,0,0,0-.19V11.61c0-.73,0-.76.77-.76h1.36c.65,0,.68,0,.68.7Z"/><path class="cls-4" d="M37.54,28a2.9,2.9,0,0,1,2.93,2.89,2.91,2.91,0,0,1-5.81,0A2.88,2.88,0,0,1,37.54,28Z"/><path class="cls-4" d="M18.45,2.89A2.89,2.89,0,0,1,21.32,0a2.93,2.93,0,0,1,2.93,2.9,2.94,2.94,0,0,1-2.89,2.89A2.9,2.9,0,0,1,18.45,2.89Z"/><path class="cls-4" d="M2.89,21.23a2.9,2.9,0,1,1,0-5.79,2.9,2.9,0,1,1,0,5.79Z"/><path class="cls-4" d="M12.19,7.26a2.9,2.9,0,0,1-2.86,2.91A2.94,2.94,0,0,1,6.4,7.25,2.91,2.91,0,0,1,9.31,4.38,2.87,2.87,0,0,1,12.19,7.26Z"/><path class="cls-4" d="M36.27,7.25a2.91,2.91,0,0,1-2.89,2.92,3,3,0,0,1-2.9-2.89,2.91,2.91,0,0,1,2.86-2.9A2.87,2.87,0,0,1,36.27,7.25Z"/><path class="cls-4" d="M2.24,30.93A2.87,2.87,0,0,1,5.15,28a2.9,2.9,0,1,1-2.91,2.89Z"/><path class="cls-4" d="M30.64,39.12a2.9,2.9,0,1,1-2.9-2.86A2.87,2.87,0,0,1,30.64,39.12Z"/><path class="cls-4" d="M14.91,36.26a2.86,2.86,0,0,1,2.91,2.85A2.89,2.89,0,0,1,14.93,42,2.93,2.93,0,0,1,12,39.15,2.9,2.9,0,0,1,14.91,36.26Z"/><path class="cls-4" d="M36.89,18.34a2.9,2.9,0,1,1,2.88,2.89A2.91,2.91,0,0,1,36.89,18.34Z"/><path class="cls-5" d="M19.61,33.23a2.36,2.36,0,0,1-2.36,2.29,2.38,2.38,0,0,1-2.31-2.4,2.34,2.34,0,0,1,4.67.11Z"/><path class="cls-5" d="M23.14,8.88A2.32,2.32,0,1,1,20.8,6.57,2.37,2.37,0,0,1,23.14,8.88Z"/><path class="cls-3" d="M169.42,7.3a2.23,2.23,0,0,1-2.23-2.23A2.23,2.23,0,0,1,171.65,5,2.25,2.25,0,0,1,169.42,7.3Z"/><path class="cls-6" d="M152.38,37.5c1.3-.87,2.29-.78,3.11.26a2,2,0,0,1,1.77-.84,1.57,1.57,0,0,1,1.64,1.56c0,1.22,0,2.43,0,3.65,0,.3-.17.31-.4.31s-.37,0-.37-.33c0-1.07,0-2.15,0-3.22a1.21,1.21,0,0,0-1.44-1.31,1.17,1.17,0,0,0-1.07,1.26c0,1,0,2.08,0,3.13,0,.26,0,.47-.36.48s-.4-.22-.4-.5c0-1.05,0-2.09,0-3.13a1.22,1.22,0,0,0-1.69-1.18,1,1,0,0,0-.77,1c0,.91,0,1.81,0,2.71,0,.22,0,.44,0,.66s0,.44-.36.44-.41-.13-.41-.44c0-1.51,0-3,0-4.54,0-.22-.1-.5.32-.53S152.42,37.1,152.38,37.5Z"/><path class="cls-7" d="M126.23,38.63c0,.45,0,.9,0,1.35a2.41,2.41,0,0,1-2.67,2.52,2.38,2.38,0,0,1-2.48-2.56c0-.89,0-1.77,0-2.66a2.42,2.42,0,0,1,2.6-2.5,2.39,2.39,0,0,1,2.55,2.5C126.23,37.73,126.23,38.18,126.23,38.63Zm-4.34,0c0,.5,0,1,0,1.5a1.78,1.78,0,0,0,3.56,0c0-1,0-2.06,0-3.08a1.78,1.78,0,0,0-3.56,0C121.88,37.66,121.89,38.17,121.89,38.68Z"/><path class="cls-6" d="M178.08,37.48c-.13-.64.23-.52.52-.53s.29.29.29.5c0,1.57,0,3.15,0,4.72a2.2,2.2,0,0,1-2.27,2.41h-.47c-.3,0-.37-.13-.37-.4s.13-.35.38-.33a2.39,2.39,0,0,0,.6,0c1-.16,1.4-.73,1.34-2a5.8,5.8,0,0,1-.82.5,2,2,0,0,1-2.65-1.58,7,7,0,0,1-.06-2.09,2,2,0,0,1,3.22-1.44Zm0,2.27a4.79,4.79,0,0,0,0-1.07,1.24,1.24,0,0,0-1.23-1.11,1.36,1.36,0,0,0-1.41,1.07,4.74,4.74,0,0,0,0,2.12,1.35,1.35,0,0,0,1.47,1,1.23,1.23,0,0,0,1.19-1.16A8.81,8.81,0,0,0,178.09,39.75Z"/><path class="cls-7" d="M186.65,37.49c.17-.17-.06-.49.29-.54s.54,0,.54.44q0,3.34,0,6.69c0,.28,0,.46-.39.47s-.42-.2-.41-.5c0-.67,0-1.34,0-2-.15-.08-.19,0-.26.08a2,2,0,0,1-3.12-1.1,5.57,5.57,0,0,1,0-2.6A2,2,0,0,1,186.65,37.49Zm0,2.23a3.35,3.35,0,0,0-.21-1.47,1.16,1.16,0,0,0-1.06-.73,1.15,1.15,0,0,0-1.17.61,3.48,3.48,0,0,0,0,3A1.24,1.24,0,0,0,186.5,41,3.3,3.3,0,0,0,186.67,39.72Z"/><path class="cls-7" d="M128.77,37.52a2,2,0,0,1,3.48,1.17,8.9,8.9,0,0,1,0,1.86A2,2,0,0,1,128.86,42c-.15.07-.09.21-.09.32,0,.59,0,1.18,0,1.77,0,.31-.06.44-.4.44s-.37-.16-.37-.43c0-2.19,0-4.38,0-6.58,0-.23-.13-.54.32-.57S128.8,37.12,128.77,37.52Zm0,2.2a3.34,3.34,0,0,0,.2,1.33,1.18,1.18,0,0,0,1.1.81,1.25,1.25,0,0,0,1.23-.77,3.73,3.73,0,0,0,0-2.86,1.19,1.19,0,0,0-1.18-.7,1.1,1.1,0,0,0-1.07.69A3.23,3.23,0,0,0,128.75,39.72Z"/><path class="cls-5" d="M15.48,11.17a2,2,0,1,1-2-2A2,2,0,0,1,15.48,11.17Z"/><path class="cls-5" d="M11.54,15.65a2,2,0,1,1-2-2A2,2,0,0,1,11.54,15.65Z"/><path class="cls-5" d="M14.72,29.84a2,2,0,0,1-4,0,2,2,0,0,1,2-2A2,2,0,0,1,14.72,29.84Z"/><path class="cls-6" d="M87.22,38.62c0-.45,0-.91,0-1.36a2.38,2.38,0,0,1,3-2.43,2.22,2.22,0,0,1,2.09,1.94c0,.17.15.44-.21.44s-.5.13-.56-.32a1.66,1.66,0,0,0-1.94-1.45A1.63,1.63,0,0,0,88,37.18c0,1,0,2,0,3a1.59,1.59,0,0,0,1.55,1.66,1.69,1.69,0,0,0,1.95-1.33c0-.17,0-.43.29-.44s.56.09.5.54a2.45,2.45,0,0,1-3,2,2.31,2.31,0,0,1-2.09-2.45Z"/><path class="cls-8" d="M146.79,41.89a2.48,2.48,0,0,1-2.4.55,1.35,1.35,0,0,1-1.12-1.17,1.59,1.59,0,0,1,.73-1.69,3.71,3.71,0,0,1,2-.39c.25,0,.59.17.76-.14a1.35,1.35,0,0,0-.34-1.25c-.48-.41-1.87-.34-2.1.37-.14.43-.5.18-.71.13s-.06-.32,0-.46a2.18,2.18,0,0,1,2.3-1,1.79,1.79,0,0,1,1.66,1.92c0,1.05,0,2.11,0,3.17,0,.2.08.47-.28.47S146.65,42.5,146.79,41.89Zm0-1.38c0-.7,0-.7-.61-.7h-.51a2,2,0,0,0-1.13.25.92.92,0,0,0-.12,1.56,1.72,1.72,0,0,0,1.74,0A1,1,0,0,0,146.75,40.51Z"/><path class="cls-8" d="M134.63,37.47a2,2,0,0,1,1.79-.56A1.73,1.73,0,0,1,138,38.68c0,1.12,0,2.24,0,3.36,0,.3-.08.41-.39.41s-.39-.14-.38-.42c0-1,0-2,0-2.94s-.5-1.53-1.37-1.51a1.22,1.22,0,0,0-1.24,1.25c0,1,0,2.09,0,3.13,0,.3,0,.5-.42.49s-.39-.19-.39-.47q0-3.31,0-6.63c0-.31,0-.49.42-.49s.39.19.39.47C134.62,36,134.63,36.68,134.63,37.47Z"/><path class="cls-8" d="M115.63,40h-1.5c-.23,0-.29.08-.3.3a1.38,1.38,0,0,0,.87,1.41,1.65,1.65,0,0,0,1.85-.39c.1-.12.13-.33.38-.27s.49.33.24.63a2.33,2.33,0,0,1-2.32.81A1.92,1.92,0,0,1,113.18,41a5.58,5.58,0,0,1-.08-2.37,2.05,2.05,0,0,1,2.18-1.71,2,2,0,0,1,2,1.73c.06.33.11.67.16,1s-.07.4-.37.4C116.62,40,116.13,40,115.63,40Zm-.36-.65h1.16c.15,0,.27,0,.28-.22a1.41,1.41,0,0,0-1.36-1.56,1.39,1.39,0,0,0-1.51,1.5c0,.23.1.29.31.28Z"/><path class="cls-7" d="M96.24,40c-.48,0-1,0-1.45,0-.3,0-.37.1-.35.38a1.38,1.38,0,0,0,.92,1.37,1.58,1.58,0,0,0,1.79-.45c.21-.28.39-.3.64-.1s0,.43-.1.57a2.33,2.33,0,0,1-2.3.71,1.94,1.94,0,0,1-1.62-1.6,5.8,5.8,0,0,1-.07-2.31,2.07,2.07,0,0,1,2.2-1.69,2,2,0,0,1,2,1.69C98.2,40,98.2,40,96.76,40Zm-.39-.66H97c.25,0,.31-.09.31-.33A1.36,1.36,0,0,0,96,37.57a1.34,1.34,0,0,0-1.56,1.29c0,.33,0,.54.42.5A8,8,0,0,1,95.85,39.35Z"/><path class="cls-7" d="M197.46,40H196c-.26,0-.32.09-.3.33a1.4,1.4,0,0,0,1,1.43,1.56,1.56,0,0,0,1.8-.54c.22-.29.38-.14.58,0s.11.31,0,.45a2.31,2.31,0,0,1-2.29.85,1.92,1.92,0,0,1-1.7-1.51,5.46,5.46,0,0,1-.07-2.54,2.07,2.07,0,0,1,2.25-1.58,2,2,0,0,1,2,1.77c.23,1.36.23,1.36-1.13,1.36Zm-.36-.65c.38,0,.75,0,1.13,0s.33-.11.32-.36a1.44,1.44,0,1,0-2.88.08c0,.25.12.28.31.28Z"/><path class="cls-5" d="M31.84,30a1.89,1.89,0,1,1,1.89-1.9A1.91,1.91,0,0,1,31.84,30Z"/><path class="cls-5" d="M23.7,35.07a1.88,1.88,0,0,1-1.9-1.89,1.9,1.9,0,1,1,1.9,1.89Z"/><path class="cls-9" d="M34,21a1.87,1.87,0,0,1,1.9,1.88A1.92,1.92,0,0,1,34,24.78a1.94,1.94,0,0,1-1.91-1.9A1.88,1.88,0,0,1,34,21Z"/><path class="cls-9" d="M9,26.67a1.88,1.88,0,1,1,.1-3.76,1.9,1.9,0,0,1,1.86,1.89A1.87,1.87,0,0,1,9,26.67Z"/><path class="cls-7" d="M168.68,39.67a3.62,3.62,0,0,1,.08-.93,2.11,2.11,0,0,1,2.15-1.87,2.08,2.08,0,0,1,2.2,1.8,5.38,5.38,0,0,1,0,2,2.08,2.08,0,0,1-2.2,1.81,2.12,2.12,0,0,1-2.15-1.88A3.94,3.94,0,0,1,168.68,39.67Zm.79-.12a6.77,6.77,0,0,0,.1,1.26,1.45,1.45,0,0,0,2.7.16,4.45,4.45,0,0,0,0-2.4,1.37,1.37,0,0,0-1.5-1,1.31,1.31,0,0,0-1.27,1.15C169.49,39,169.49,39.34,169.47,39.55Z"/><path class="cls-7" d="M192.57,41.9a2,2,0,0,1-1.63.64,1.79,1.79,0,0,1-1.75-1.87c0-1.09,0-2.18,0-3.27,0-.3,0-.45.4-.46s.37.21.37.48c0,1,0,2,0,3s.5,1.42,1.36,1.4a1.21,1.21,0,0,0,1.26-1.23c0-1.06,0-2.11,0-3.17,0-.29,0-.47.4-.47s.4.16.4.46c0,1.51,0,3,0,4.53,0,.21.11.49-.28.51S192.5,42.43,192.57,41.9Z"/><path class="cls-6" d="M160.31,39.74a4.73,4.73,0,0,1,.1-1.16,2.13,2.13,0,0,1,2.2-1.71,2.11,2.11,0,0,1,2.13,1.84,6.35,6.35,0,0,1,0,2,2.09,2.09,0,0,1-2,1.77,2.19,2.19,0,0,1-2.25-1.41A3.89,3.89,0,0,1,160.31,39.74Zm3.77,0a6.53,6.53,0,0,0-.11-1,1.41,1.41,0,0,0-1.38-1.22,1.47,1.47,0,0,0-1.41,1.15,5.45,5.45,0,0,0,0,2.13,1.35,1.35,0,0,0,1.46,1,1.32,1.32,0,0,0,1.32-1.1C164,40.39,164,40.05,164.08,39.71Z"/><path class="cls-10" d="M27.3,11.59a1.82,1.82,0,1,1,1.83-1.81A1.84,1.84,0,0,1,27.3,11.59Z"/><path class="cls-6" d="M100.36,37.58a1.93,1.93,0,0,1,1.89-.65,1.66,1.66,0,0,1,1.48,1.61c0,1.18,0,2.36,0,3.55,0,.3-.12.36-.39.36s-.38-.1-.38-.38c0-1,0-2,0-3s-.48-1.46-1.32-1.45-1.3.54-1.3,1.48,0,2,0,2.94c0,.29,0,.45-.39.45s-.38-.2-.38-.47c0-1.5,0-3,0-4.48,0-.23-.14-.54.33-.56S100.38,37.14,100.36,37.58Z"/><path class="cls-5" d="M33,14.47A1.56,1.56,0,0,1,34.5,16.1a1.58,1.58,0,0,1-1.61,1.57A1.61,1.61,0,0,1,31.3,16,1.58,1.58,0,0,1,33,14.47Z"/><path class="cls-8" d="M105.74,39.54c0-.51,0-1,0-1.54,0-.3-.08-.44-.39-.4s-.4,0-.4-.3.15-.38.4-.35.42-.1.39-.4,0-.38,0-.56,0-.46.4-.46.38.2.39.47c0,.92,0,.93,1,.94.26,0,.4.05.4.36s-.18.3-.39.3c-1,0-1,0-1,1v2.24c0,.64.23.88.86.91.26,0,.5,0,.48.38s-.26.31-.48.32c-1.18,0-1.63-.43-1.63-1.59Z"/><path class="cls-9" d="M29.4,34a1.53,1.53,0,0,1-1.56-1.52,1.54,1.54,0,1,1,3.08,0A1.52,1.52,0,0,1,29.4,34Z"/><path class="cls-7" d="M140,39.58c0-.55,0-1.09,0-1.64,0-.26-.07-.37-.34-.35s-.44.06-.44-.3.16-.37.41-.34.39-.13.37-.41,0-.37,0-.56,0-.45.41-.45.35.19.35.44c0,1,0,1,1,1,.24,0,.42,0,.43.34s-.21.31-.44.31c-1,0-1,0-1,1v2.15c0,.73.24,1,1,1,.26,0,.41.06.4.36s-.18.3-.4.31c-1.26,0-1.71-.4-1.71-1.65Z"/><path class="cls-9" d="M19.49,12.38A1.48,1.48,0,0,1,18,13.8,1.47,1.47,0,0,1,18,10.86,1.5,1.5,0,0,1,19.49,12.38Z"/><path class="cls-6" d="M110.16,37.67a1.63,1.63,0,0,1,1.77-.72c.25.07.35.2.26.48s-.11.38-.42.32a1.34,1.34,0,0,0-1.65,1.41c0,.94,0,1.87,0,2.8,0,.28,0,.47-.39.48s-.39-.2-.38-.48c0-1.47,0-3,0-4.43,0-.25-.13-.57.35-.59S110.2,37.19,110.16,37.67Z"/><path class="cls-10" d="M26.43,29.12a1.37,1.37,0,0,1-2.73,0,1.37,1.37,0,1,1,2.73,0Z"/><path class="cls-6" d="M166.4,38.67c0-1.14,0-2.28,0-3.41,0-.27.06-.4.36-.39s.41.06.41.39q0,3.38,0,6.77c0,.29-.07.41-.39.42s-.38-.14-.38-.42C166.4,40.91,166.4,39.79,166.4,38.67Z"/><path class="cls-6" d="M149.91,38.71c0,1.11,0,2.21,0,3.32,0,.29-.08.42-.39.42s-.39-.14-.39-.42q0-3.39,0-6.77c0-.27.06-.4.36-.39s.42.06.42.38C149.9,36.41,149.91,37.56,149.91,38.71Z"/><path class="cls-10" d="M29.9,14.57a1.29,1.29,0,1,1-2.58,0,1.29,1.29,0,0,1,2.58,0Z"/><path class="cls-10" d="M14.67,27.6a1.21,1.21,0,0,1-1.24-1.19,1.23,1.23,0,1,1,2.46,0A1.21,1.21,0,0,1,14.67,27.6Z"/><path class="cls-6" d="M181.4,39.69c0,.78,0,1.56,0,2.34,0,.3-.09.41-.4.41s-.36-.13-.36-.4c0-1.56,0-3.11,0-4.67,0-.27,0-.43.37-.43s.39.13.39.42C181.39,38.14,181.4,38.91,181.4,39.69Z"/><path class="cls-10" d="M12,20.7a1.13,1.13,0,1,1-2.26-.05A1.13,1.13,0,0,1,12,20.7Z"/><path class="cls-9" d="M19.73,30.49A1.08,1.08,0,1,1,20.8,29.4,1,1,0,0,1,19.73,30.49Z"/><path class="cls-9" d="M29,17.65a1,1,0,0,1-1,1.05,1.05,1.05,0,0,1-1.06-1.07,1.07,1.07,0,0,1,1-1.06A1,1,0,0,1,29,17.65Z"/><path class="cls-10" d="M24.65,12a1,1,0,0,1-1,1,1,1,0,0,1-1.05-1.07,1,1,0,0,1,1.06-1A1,1,0,0,1,24.65,12Z"/><path class="cls-10" d="M27.64,23.54a1,1,0,0,1,1-1,1,1,0,1,1,0,2A1,1,0,0,1,27.64,23.54Z"/><path class="cls-10" d="M15.41,15.11a1,1,0,0,1-.95,1,1,1,0,1,1,.95-1Z"/><path class="cls-10" d="M28.88,27a.95.95,0,1,1-.95-.95A1,1,0,0,1,28.88,27Z"/><path class="cls-9" d="M14.44,23.31a.94.94,0,0,1-1.88,0,1,1,0,0,1,1-.93A.91.91,0,0,1,14.44,23.31Z"/><path class="cls-9" d="M30.31,21.43a.88.88,0,0,1-.9-1,.91.91,0,0,1,1-.92,1,1,0,0,1,.92.93A.92.92,0,0,1,30.31,21.43Z"/><path class="cls-9" d="M13.14,20a.91.91,0,0,1-.85-.82.83.83,0,1,1,.85.82Z"/><path class="cls-9" d="M25.46,14.59a.85.85,0,0,1-.8-.77.79.79,0,1,1,1.57,0A.81.81,0,0,1,25.46,14.59Z"/><path class="cls-9" d="M17.5,15.87a.74.74,0,0,1-.73-.74.69.69,0,0,1,.71-.74.75.75,0,0,1,.78.69A.81.81,0,0,1,17.5,15.87Z"/><path class="cls-10" d="M18.37,27.31a.71.71,0,0,1-.73.74.74.74,0,0,1-.73-.7.76.76,0,0,1,.71-.77A.73.73,0,0,1,18.37,27.31Z"/><path class="cls-7" d="M180.46,35.34a.65.65,0,0,1,.62-.64.64.64,0,0,1,0,1.28A.66.66,0,0,1,180.46,35.34Z"/><path class="cls-9" d="M26.89,25.51a.56.56,0,0,1-.6.5.59.59,0,0,1-.61-.62.61.61,0,0,1,.6-.59C26.58,24.77,26.9,25.13,26.89,25.51Z"/><path class="cls-9" d="M24.19,15a.58.58,0,0,1-.6.62.61.61,0,0,1-.61-.63.56.56,0,0,1,.63-.55A.55.55,0,0,1,24.19,15Z"/><path class="cls-10" d="M21.37,14c-.05.34-.24.56-.58.54a.52.52,0,0,1-.52-.55.55.55,0,0,1,1.1,0Z"/><path class="cls-9" d="M26.15,16.19c0,.33-.18.54-.51.55a.55.55,0,0,1,0-1.09A.5.5,0,0,1,26.15,16.19Z"/><path class="cls-9" d="M28.1,21a.51.51,0,0,1-.53.47.5.5,0,0,1,0-1C27.9,20.51,28.06,20.73,28.1,21Z"/><path class="cls-9" d="M22.5,27.27c0,.32-.13.5-.44.51a.42.42,0,0,1-.51-.41.46.46,0,0,1,.47-.53A.42.42,0,0,1,22.5,27.27Z"/><path class="cls-9" d="M15.38,17.87c0,.28-.14.46-.44.46a.43.43,0,0,1-.47-.41.44.44,0,0,1,.43-.51A.43.43,0,0,1,15.38,17.87Z"/><path class="cls-9" d="M15.18,20.84c0,.33-.2.46-.45.46a.36.36,0,0,1-.39-.41.42.42,0,0,1,.84-.05Z"/></g></g></svg>