<svg width="169" height="29" viewBox="0 0 169 29" fill="none" xmlns="http://www.w3.org/2000/svg">
<path d="M14.6564 1.175C15.0389 0.496354 16.0161 0.496354 16.3987 1.175L20.4996 8.45075C20.6423 8.70392 20.8881 8.8825 21.1729 8.93998L29.3598 10.5918C30.1235 10.7459 30.4255 11.6754 29.8982 12.2489L24.2458 18.3974C24.0492 18.6114 23.9553 18.9003 23.9886 19.189L24.9475 27.4857C25.0369 28.2595 24.2463 28.834 23.538 28.5098L15.9437 25.034C15.6794 24.9131 15.3756 24.9131 15.1113 25.034L7.51705 28.5098C6.8087 28.834 6.01806 28.2595 6.1075 27.4857L7.06637 19.189C7.09974 18.9003 7.00585 18.6114 6.80917 18.3974L1.15677 12.2489C0.629545 11.6754 0.931539 10.7459 1.69517 10.5918L9.88207 8.93998C10.167 8.8825 10.4127 8.70392 10.5554 8.45075L14.6564 1.175Z" fill="#3B683E"/>
<path d="M49.358 1.175C49.7405 0.496354 50.7178 0.496354 51.1003 1.175L55.2012 8.45075C55.3439 8.70392 55.5897 8.8825 55.8746 8.93998L64.0615 10.5918C64.8251 10.7459 65.1271 11.6754 64.5999 12.2489L58.9475 18.3974C58.7508 18.6114 58.6569 18.9003 58.6903 19.189L59.6492 27.4857C59.7386 28.2595 58.948 28.834 58.2396 28.5098L50.6453 25.034C50.3811 24.9131 50.0773 24.9131 49.813 25.034L42.2187 28.5098C41.5104 28.834 40.7197 28.2595 40.8092 27.4857L41.768 19.189C41.8014 18.9003 41.7075 18.6114 41.5108 18.3974L35.8584 12.2489C35.3312 11.6754 35.6332 10.7459 36.3968 10.5918L44.5837 8.93998C44.8686 8.8825 45.1144 8.70392 45.2571 8.45075L49.358 1.175Z" fill="#3B683E"/>
<path d="M84.0597 1.175C84.4422 0.496354 85.4195 0.496354 85.802 1.175L89.9029 8.45075C90.0456 8.70392 90.2914 8.8825 90.5763 8.93998L98.7632 10.5918C99.5268 10.7459 99.8288 11.6754 99.3016 12.2489L93.6492 18.3974C93.4525 18.6114 93.3586 18.9003 93.392 19.189L94.3508 27.4857C94.4403 28.2595 93.6496 28.834 92.9413 28.5098L85.347 25.034C85.0827 24.9131 84.7789 24.9131 84.5147 25.034L76.9204 28.5098C76.212 28.834 75.4214 28.2595 75.5108 27.4857L76.4697 19.189C76.5031 18.9003 76.4092 18.6114 76.2125 18.3974L70.5601 12.2489C70.0329 11.6754 70.3349 10.7459 71.0985 10.5918L79.2854 8.93998C79.5703 8.8825 79.8161 8.70392 79.9588 8.45075L84.0597 1.175Z" fill="#3B683E"/>
<path d="M118.761 1.175C119.144 0.496354 120.121 0.496354 120.504 1.175L124.605 8.45075C124.747 8.70392 124.993 8.8825 125.278 8.93998L133.465 10.5918C134.228 10.7459 134.53 11.6754 134.003 12.2489L128.351 18.3974C128.154 18.6114 128.06 18.9003 128.094 19.189L129.052 27.4857C129.142 28.2595 128.351 28.834 127.643 28.5098L120.049 25.034C119.784 24.9131 119.481 24.9131 119.216 25.034L111.622 28.5098C110.914 28.834 110.123 28.2595 110.212 27.4857L111.171 19.189C111.205 18.9003 111.111 18.6114 110.914 18.3974L105.262 12.2489C104.735 11.6754 105.037 10.7459 105.8 10.5918L113.987 8.93998C114.272 8.8825 114.518 8.70392 114.66 8.45075L118.761 1.175Z" fill="#3B683E"/>
<path d="M153.463 1.175C153.846 0.496354 154.823 0.496354 155.206 1.175L159.307 8.45075C159.449 8.70392 159.695 8.8825 159.98 8.93998L168.167 10.5918C168.931 10.7459 169.233 11.6754 168.705 12.2489L163.053 18.3974C162.856 18.6114 162.762 18.9003 162.796 19.189L163.755 27.4857C163.844 28.2595 163.053 28.834 162.345 28.5098L154.751 25.034C154.487 24.9131 154.183 24.9131 153.918 25.034L146.324 28.5098C145.616 28.834 144.825 28.2595 144.915 27.4857L145.873 19.189C145.907 18.9003 145.813 18.6114 145.616 18.3974L139.964 12.2489C139.437 11.6754 139.739 10.7459 140.502 10.5918L148.689 8.93998C148.974 8.8825 149.22 8.70392 149.363 8.45075L153.463 1.175Z" fill="#3B683E"/>
</svg>
