<svg width="4234" height="4169" viewBox="0 0 4234 4169" fill="none" xmlns="http://www.w3.org/2000/svg">
<path d="M1686.37 4167.2C1686.37 4167.2 1121.87 3241.76 1880.66 3104.55C2940.44 2912.85 1954.3 1984.93 2596.57 1717.34C3070.1 1520.01 3949.5 2619.75 4231.33 257.769" stroke="#516C4A" stroke-opacity="0.2" stroke-width="5" stroke-miterlimit="10"/>
<path d="M1543.69 4093.73C1543.69 4093.73 984.377 3147.32 1709.61 3020.7C2319.59 2915.83 2294.31 2580.4 2226.19 2238.51C2176.85 1990.9 2172.65 1775.63 2432.47 1668.77C2736.05 1544.46 3229.78 1921.29 3561.85 1613.57C3785.39 1406.31 4027.49 1019.43 4132.53 232.434" stroke="#516C4A" stroke-opacity="0.2" stroke-width="5" stroke-miterlimit="10"/>
<path d="M1400.95 4020.21C1400.95 4020.21 846.607 3051.11 1538.55 2936.91C2137.16 2838.06 2167.8 2533.98 2076.94 2186.95C2009.44 1929.68 2014.57 1723.3 2268.31 1620.19C2575.54 1496.72 3095.55 1847.55 3392.56 1533.53C3625.77 1287.02 3926.76 916.488 4033.67 206.712" stroke="#516C4A" stroke-opacity="0.2" stroke-width="5" stroke-miterlimit="10"/>
<path d="M1258.26 3946.74C1258.26 3946.74 709.054 2956.07 1367.55 2853.07C1954.9 2761.22 2040.95 2487.11 1927.69 2135.51C1841.69 1868.63 1856.27 1670.2 2104.32 1571.73C2414.8 1448.42 2958.16 1769.45 3223.49 1453.83C3465.58 1165.81 3826.19 813.822 3934.98 181.267" stroke="#516C4A" stroke-opacity="0.2" stroke-width="5" stroke-miterlimit="10"/>
<path d="M1115.52 3873.22C1115.52 3873.22 571.504 2861.24 1196.5 2769.28C1772.7 2684.44 1913.62 2440.58 1778.44 2083.85C1673.56 1807.42 1698.18 1617.54 1940.06 1523.05C2253.96 1400.45 2817.68 1688.08 3054.04 1374.01C3303.47 1042.83 3725.23 711.101 3836.01 155.765" stroke="#516C4A" stroke-opacity="0.2" stroke-width="5" stroke-miterlimit="10"/>
<path d="M972.839 3800.03C972.839 3800.03 434.007 2766.91 1025.44 2685.71C1590.49 2608.16 1785.89 2394.49 1629.18 2032.62C1505.32 1746.65 1540.15 1565.27 1775.9 1474.8C2093.33 1352.93 2674.83 1605.12 2884.8 1294.31C3139.31 917.482 3624.44 608.435 3737.15 130.375" stroke="#516C4A" stroke-opacity="0.2" stroke-width="5" stroke-miterlimit="10"/>
<path d="M830.104 3726.23C830.104 3726.23 296.571 2672.24 854.39 2601.65C1408.35 2531.55 1657.89 2347.74 1479.94 1980.79C1336.76 1685.49 1382.07 1512.56 1611.8 1425.95C1932.72 1304.91 2530 1520.34 2715.74 1214.16C2972.57 790.308 3523.99 505.382 3638.57 104.708" stroke="#516C4A" stroke-opacity="0.2" stroke-width="5" stroke-miterlimit="10"/>
<path d="M687.417 3652.76C687.417 3652.76 159.128 2578.08 683.388 2517.8C1226.19 2455.43 1529.72 2301.87 1330.68 1929.24C1167.96 1624.72 1224.04 1460.07 1447.64 1377.27C1772.09 1257.16 2383.45 1435.17 2546.06 1134.41C2801.68 661.976 3422.81 402.716 3539.27 79.0973" stroke="#516C4A" stroke-opacity="0.2" stroke-width="5" stroke-miterlimit="10"/>
<path d="M544.681 3579.24C544.681 3579.24 21.7461 2484.19 512.336 2434.01C1044.1 2379.59 1401.34 2255.95 1181.38 1877.69C999.227 1564.11 1066.18 1408.18 1283.49 1328.81C1611.75 1210.3 2235.36 1350.11 2376.99 1054.48C2627.37 531.987 3322.3 299.829 3440.69 53.4852" stroke="#516C4A" stroke-opacity="0.2" stroke-width="5" stroke-miterlimit="10"/>
<path d="M401.996 3505.77C401.996 3505.77 -115.64 2390.8 341.28 2350.17C862.062 2304.14 1272.84 2210.19 1032.12 1826.19C830.047 1503.62 908.151 1355.69 1119.39 1280.24C1451.12 1162.56 2085.94 1265.17 2207.76 974.611C2448.25 400.95 3221.56 197.053 3341.84 27.9297" stroke="#516C4A" stroke-opacity="0.2" stroke-width="5" stroke-miterlimit="10"/>
<path d="M259.256 3432.25C259.256 3432.25 -253.025 2297.29 170.225 2266.38C679.967 2229.12 1144.23 2164.6 882.87 1774.63C298.115 902.192 1872.27 1356.02 2038.47 894.795C2263.95 269.029 3120.77 94.4412 3242.92 2.37292" stroke="#516C4A" stroke-opacity="0.2" stroke-width="5" stroke-miterlimit="10"/>
</svg>
