<svg width="919" height="951" viewBox="0 0 919 951" fill="none" xmlns="http://www.w3.org/2000/svg">
<g filter="url(#filter0_d)">
<path d="M318.873 90.3005C327.707 76.1168 349.418 80.5771 351.945 97.0946L364.241 177.476C365.035 182.669 368.059 187.256 372.518 190.034L441.542 233.023C455.726 241.856 451.266 263.568 434.748 266.095L354.366 278.391C349.173 279.185 344.587 282.209 341.809 286.668L298.82 355.692C289.986 369.876 268.275 365.415 265.748 348.898L253.452 268.516C252.658 263.323 249.634 258.736 245.175 255.959L176.151 212.97C161.967 204.136 166.427 182.425 182.945 179.898L263.327 167.602C268.52 166.807 273.106 163.784 275.884 159.325L318.873 90.3005Z" fill="white"/>
<path fill-rule="evenodd" clip-rule="evenodd" d="M275.884 159.325C273.107 163.784 268.52 166.807 263.327 167.602L182.945 179.898C166.427 182.425 161.967 204.136 176.151 212.97L245.175 255.959C249.634 258.736 252.658 263.323 253.452 268.516L265.748 348.898C268.275 365.415 289.986 369.876 298.82 355.692L341.809 286.668C344.587 282.209 349.174 279.185 354.367 278.391L434.748 266.095C451.266 263.568 455.726 241.856 441.542 233.023L372.518 190.034C368.059 187.256 365.035 182.669 364.241 177.476L351.945 97.0946C349.418 80.5772 327.707 76.1169 318.873 90.3005L275.884 159.325ZM405.927 159.005L395.439 90.4413C386.736 33.5478 311.952 18.1846 281.524 67.0393L244.856 125.916L176.292 136.404C119.398 145.107 104.035 219.891 152.89 250.319L211.766 286.987L222.254 355.551C230.957 412.445 305.741 427.808 336.169 378.953L372.838 320.077L441.402 309.589C498.295 300.886 513.658 226.101 464.804 195.674L405.927 159.005Z" fill="white"/>
<path d="M318.873 90.3005C327.707 76.1168 349.418 80.5771 351.945 97.0946L364.241 177.476C365.035 182.669 368.059 187.256 372.518 190.034L441.542 233.023C455.726 241.856 451.266 263.568 434.748 266.095L354.366 278.391C349.173 279.185 344.587 282.209 341.809 286.668L298.82 355.692C289.986 369.876 268.275 365.415 265.748 348.898L253.452 268.516C252.658 263.323 249.634 258.736 245.175 255.959L176.151 212.97C161.967 204.136 166.427 182.425 182.945 179.898L263.327 167.602C268.52 166.807 273.106 163.784 275.884 159.325L318.873 90.3005Z" fill="white"/>
<path fill-rule="evenodd" clip-rule="evenodd" d="M332.412 108.284L293.709 170.427C287.692 180.088 277.754 186.639 266.502 188.36L194.134 199.43L256.277 238.134C265.939 244.151 272.489 254.089 274.211 265.341L285.281 337.708L323.984 275.566C330.001 265.904 339.939 259.353 351.191 257.632L423.559 246.562L361.416 207.859C351.754 201.842 345.204 191.903 343.482 180.652L332.412 108.284ZM351.945 97.0946C349.418 80.5771 327.707 76.1168 318.873 90.3005L275.884 159.325C273.106 163.784 268.52 166.807 263.327 167.602L182.945 179.898C166.427 182.425 161.967 204.136 176.151 212.97L245.175 255.959C249.634 258.736 252.658 263.323 253.452 268.516L265.748 348.898C268.275 365.415 289.986 369.876 298.82 355.692L341.809 286.668C344.587 282.209 349.173 279.185 354.366 278.391L434.748 266.095C451.266 263.568 455.726 241.856 441.542 233.023L372.518 190.034C368.059 187.256 365.035 182.669 364.241 177.476L351.945 97.0946Z" fill="#4F6B49"/>
<path d="M759.359 186.443C768.022 171.478 790.747 176.146 792.809 193.314L795.89 218.972C796.515 224.172 799.372 228.842 803.718 231.764L828.014 248.099C841.371 257.079 837.127 277.736 821.312 280.724L792.544 286.158C787.398 287.13 782.931 290.295 780.307 294.827L767.36 317.192C758.697 332.157 735.972 327.488 733.91 310.32L730.829 284.662C730.204 279.463 727.347 274.793 723.001 271.871L698.705 255.536C685.348 246.556 689.592 225.899 705.407 222.911L734.175 217.477C739.321 216.505 743.788 213.34 746.412 208.808L759.359 186.443Z" fill="white"/>
<path fill-rule="evenodd" clip-rule="evenodd" d="M825.021 209.936L844.753 223.203C880.371 247.15 869.055 302.236 826.88 310.202L803.516 314.616L793.324 332.222C770.223 372.128 709.623 359.678 704.125 313.898L701.699 293.699L681.967 280.432C646.348 256.484 657.664 201.399 699.839 193.432L723.204 189.019L733.396 171.413C756.497 131.507 817.097 143.956 822.595 189.737L825.021 209.936ZM792.809 193.314C790.747 176.146 768.022 171.478 759.359 186.442L746.412 208.808C743.789 213.34 739.321 216.505 734.175 217.477L705.408 222.911C689.592 225.899 685.348 246.555 698.705 255.536L723.001 271.871C727.347 274.793 730.205 279.463 730.829 284.662L733.911 310.32C735.972 327.488 758.697 332.157 767.36 317.192L780.307 294.827C782.931 290.294 787.398 287.13 792.544 286.157L821.312 280.723C837.127 277.736 841.371 257.079 828.014 248.099L803.719 231.764C799.373 228.842 796.515 224.172 795.89 218.972L792.809 193.314Z" fill="white"/>
<path d="M768.366 170.885C774.141 160.908 789.291 164.021 790.666 175.466L796.218 221.702C796.635 225.169 798.54 228.282 801.437 230.23L840.151 256.259C849.056 262.246 846.227 276.017 835.683 278.009L789.843 286.668C786.412 287.316 783.434 289.426 781.685 292.448L758.354 332.75C752.579 342.727 737.429 339.614 736.054 328.169L730.501 281.933C730.085 278.466 728.18 275.353 725.283 273.405L686.568 247.376C677.664 241.389 680.493 227.618 691.037 225.626L736.877 216.967C740.307 216.319 743.286 214.209 745.035 211.187L768.366 170.885Z" fill="white"/>
<path fill-rule="evenodd" clip-rule="evenodd" d="M777.48 183.085L757.151 218.201C753.361 224.748 746.908 229.32 739.475 230.724L698.425 238.478L733.094 261.787C739.371 266.008 743.5 272.753 744.402 280.263L749.24 320.55L769.568 285.434C773.358 278.887 779.811 274.315 787.244 272.911L828.294 265.157L793.626 241.848C787.348 237.627 783.22 230.882 782.318 223.372L777.48 183.085ZM790.666 175.466C789.291 164.021 774.141 160.908 768.366 170.885L745.035 211.187C743.286 214.209 740.307 216.319 736.877 216.967L691.037 225.626C680.493 227.618 677.664 241.389 686.568 247.376L725.283 273.405C728.18 275.353 730.085 278.466 730.501 281.933L736.054 328.169C737.429 339.614 752.579 342.727 758.354 332.75L781.685 292.448C783.434 289.426 786.412 287.316 789.843 286.668L835.683 278.009C846.227 276.017 849.056 262.246 840.151 256.259L801.437 230.23C798.54 228.282 796.635 225.169 796.218 221.702L790.666 175.466Z" fill="#4F6B49"/>
<path d="M559.343 373.259C568.177 359.075 589.889 363.535 592.415 380.053L616.407 536.888C617.201 542.081 620.224 546.668 624.684 549.445L759.359 633.323C773.543 642.157 769.083 663.868 752.565 666.395L595.73 690.386C590.537 691.181 585.95 694.204 583.172 698.664L499.295 833.339C490.461 847.523 468.749 843.062 466.223 826.545L442.232 669.709C441.437 664.516 438.414 659.93 433.954 657.152L299.279 573.275C285.095 564.441 289.555 542.729 306.073 540.203L462.909 516.211C468.102 515.417 472.688 512.394 475.466 507.934L559.343 373.259Z" fill="white"/>
<path fill-rule="evenodd" clip-rule="evenodd" d="M475.465 507.934C472.688 512.393 468.101 515.417 462.908 516.211L306.073 540.203C289.555 542.729 285.095 564.441 299.278 573.275L433.954 657.152C438.413 659.93 441.437 664.516 442.231 669.709L466.222 826.545C468.749 843.062 490.461 847.523 499.294 833.339L583.172 698.663C585.949 694.204 590.536 691.181 595.729 690.386L752.565 666.395C769.082 663.868 773.543 642.157 759.359 633.323L624.683 549.445C620.224 546.668 617.201 542.081 616.406 536.888L592.415 380.053C589.888 363.535 568.177 359.075 559.343 373.259L475.465 507.934ZM661.768 515.994L639.863 372.795C630.599 312.231 550.989 295.876 518.599 347.883L442.014 470.849L298.814 492.754C238.25 502.019 221.896 581.628 273.903 614.018L396.869 690.603L418.774 833.803C428.039 894.367 507.648 910.722 540.038 858.715L616.623 735.749L759.823 713.843C820.387 704.579 836.742 624.97 784.735 592.579L661.768 515.994Z" fill="white"/>
<path d="M559.343 373.259C568.177 359.075 589.889 363.535 592.415 380.053L616.407 536.888C617.201 542.081 620.224 546.668 624.684 549.445L759.359 633.323C773.543 642.157 769.083 663.868 752.565 666.395L595.73 690.386C590.537 691.181 585.95 694.204 583.172 698.664L499.295 833.339C490.461 847.523 468.749 843.062 466.223 826.545L442.232 669.709C441.437 664.516 438.414 659.93 433.954 657.152L299.279 573.275C285.095 564.441 289.555 542.729 306.073 540.203L462.909 516.211C468.102 515.417 472.688 512.394 475.466 507.934L559.343 373.259Z" fill="white"/>
<path fill-rule="evenodd" clip-rule="evenodd" d="M569.983 405.355L497.535 521.679C490.746 532.58 479.534 539.971 466.84 541.912L331.375 562.634L447.7 635.083C458.6 641.872 465.991 653.084 467.933 665.778L488.655 801.242L561.103 684.918C567.892 674.018 579.104 666.627 591.798 664.685L727.263 643.963L610.938 571.515C600.038 564.726 592.647 553.514 590.706 540.82L569.983 405.355ZM592.415 380.053C589.889 363.535 568.177 359.075 559.343 373.259L475.466 507.934C472.688 512.394 468.102 515.417 462.909 516.211L306.073 540.203C289.555 542.729 285.095 564.441 299.279 573.275L433.954 657.152C438.414 659.93 441.437 664.516 442.232 669.709L466.223 826.545C468.749 843.063 490.461 847.523 499.295 833.339L583.172 698.664C585.95 694.204 590.537 691.181 595.73 690.386L752.565 666.395C769.083 663.868 773.543 642.157 759.359 633.323L624.684 549.445C620.224 546.668 617.201 542.081 616.407 536.888L592.415 380.053Z" fill="#4F6B49"/>
</g>
<defs>
<filter id="filter0_d" x="86.1533" y="0.302979" width="803.072" height="949.755" filterUnits="userSpaceOnUse" color-interpolation-filters="sRGB">
<feFlood flood-opacity="0" result="BackgroundImageFix"/>
<feColorMatrix in="SourceAlpha" type="matrix" values="0 0 0 0 0 0 0 0 0 0 0 0 0 0 0 0 0 0 127 0"/>
<feOffset dx="1" dy="1"/>
<feGaussianBlur stdDeviation="1"/>
<feColorMatrix type="matrix" values="0 0 0 0 0.6875 0 0 0 0 0.6875 0 0 0 0 0.6875 0 0 0 0.2 0"/>
<feBlend mode="normal" in2="BackgroundImageFix" result="effect1_dropShadow"/>
<feBlend mode="normal" in="SourceGraphic" in2="effect1_dropShadow" result="shape"/>
</filter>
</defs>
</svg>
