<svg width="96" height="96" viewBox="0 0 96 96" fill="none" xmlns="http://www.w3.org/2000/svg">
<g filter="url(#filter0_i_116_8)">
<rect x="0.41394" y="0.161255" width="95" height="95" rx="20" fill="#E2EAE1"/>
</g>
<path d="M78.7528 47.5423C78.7528 64.4129 65.0765 78.0891 48.206 78.0891C31.3354 78.0891 17.6591 64.4129 17.6591 47.5423C17.6591 30.6718 31.3354 16.9955 48.206 16.9955C65.0765 16.9955 78.7528 30.6718 78.7528 47.5423Z" fill="white"/>
<path fill-rule="evenodd" clip-rule="evenodd" d="M70.6267 57.5543C70.6981 57.5237 70.7695 57.4928 70.841 57.4618L70.7548 57.2629C72.0415 54.282 72.7545 50.9954 72.7545 47.5423C72.7545 44.2483 72.1057 41.1058 70.9289 38.2356L70.9361 38.222C70.9306 38.2191 70.9252 38.2162 70.9197 38.2133C67.2476 29.2822 58.4611 22.9938 48.206 22.9938C34.6482 22.9938 23.6574 33.9846 23.6574 47.5423C23.6574 61.1001 34.6482 72.0909 48.206 72.0909C58.1977 72.0909 66.7952 66.1214 70.6267 57.5543ZM54.1327 67.9196C52.2518 68.4657 50.263 68.7585 48.206 68.7585C45.9583 68.7585 43.7922 68.409 41.7592 67.7613C40.7471 65.638 39.9264 63.5298 39.2718 61.4528C44.1684 62.4203 49.9822 62.7938 56.6465 61.7122C55.9648 63.7791 55.1324 65.8557 54.1327 67.9196ZM57.6873 66.5273C60.9627 64.8883 63.7548 62.4266 65.7928 59.4132C63.6667 60.1342 61.6086 60.7038 59.6201 61.1426C59.0843 62.9317 58.4433 64.7309 57.6873 66.5273ZM65.8743 35.7928C64.0014 32.9822 61.4758 30.6438 58.5141 28.9943C59.1881 30.3978 59.7834 31.9936 60.2782 33.7435C62.0743 34.2885 63.9389 34.9657 65.8743 35.7928ZM54.3248 27.2219C55.4057 28.5752 56.4167 30.5201 57.2348 32.9284C51.9807 31.7112 47.3541 31.6374 43.2862 32.2073C41.8657 32.4064 40.5174 32.6838 39.2395 33.0157C39.9772 30.7047 40.8122 28.7924 41.5894 27.3783C43.6714 26.6955 45.8956 26.3262 48.206 26.3262C50.3332 26.3262 52.3874 26.6393 54.3248 27.2219ZM37.8666 29.0117C34.6334 30.8196 31.9221 33.449 30.0151 36.6174C31.8055 35.7156 33.8569 34.7619 36.1842 33.9476C36.6923 32.1043 37.2709 30.4475 37.8666 29.0117ZM28.158 40.5817C27.4957 42.4897 27.098 44.5214 27.0089 46.633C28.8912 46.3408 31.3932 46.0488 34.4311 45.8236C34.5166 42.6715 34.891 39.7296 35.435 37.0744C33.0235 38.0389 30.9256 39.1365 29.0812 40.1014C28.7663 40.2661 28.4589 40.427 28.1585 40.5826L28.158 40.5817ZM27.0635 49.3235C27.233 51.3631 27.6911 53.3208 28.3967 55.1556C30.3572 56.0044 32.7448 56.9714 35.5445 57.7947C34.8477 54.5777 34.5057 51.4594 34.4293 48.497C31.3487 48.7301 28.8615 49.0314 27.0635 49.3235ZM30.2103 58.7852C32.1664 61.9095 34.9134 64.4879 38.1709 66.2399C37.416 64.397 36.792 62.5692 36.2841 60.7661C34.0219 60.1733 31.9945 59.4766 30.2103 58.7852ZM67.9124 39.667C65.4911 38.4702 63.1895 37.5185 61.002 36.7759C61.4042 38.8114 61.6782 40.9983 61.7975 43.2906C61.8446 44.1952 61.8677 45.1186 61.865 46.0583C64.3007 46.2555 66.8188 46.5037 69.4097 46.8104C69.3244 44.2934 68.8006 41.8876 67.9124 39.667ZM69.3342 49.4862C69.1302 51.732 68.5763 53.8768 67.7273 55.8655C65.1888 56.8652 62.7477 57.6382 60.4061 58.2196C61.1819 54.9707 61.6227 51.7798 61.7885 48.7267C64.2225 48.9256 66.741 49.1761 69.3342 49.4862ZM43.6562 34.8475C47.7399 34.2752 52.5129 34.3936 58.0817 35.8877C58.6182 38.1448 58.9923 40.6824 59.1352 43.4291C59.1766 44.2245 59.1984 45.0355 59.1993 45.8601C50.533 45.2735 43.0123 45.3282 37.1039 45.6519C37.2173 42.107 37.7143 38.8557 38.3989 36.0236C40.0218 35.5238 41.7697 35.1118 43.6562 34.8475ZM37.0929 48.3224C42.9286 47.9964 50.4362 47.9341 59.1295 48.5274C58.9536 51.8344 58.4376 55.3153 57.4964 58.8556C50.03 60.2647 43.66 59.7404 38.4584 58.5554C37.5806 54.9984 37.1699 51.5589 37.0929 48.3224Z" fill="#4F6B49"/>
<defs>
<filter id="filter0_i_116_8" x="0.41394" y="0.161255" width="95" height="96" filterUnits="userSpaceOnUse" color-interpolation-filters="sRGB">
<feFlood flood-opacity="0" result="BackgroundImageFix"/>
<feBlend mode="normal" in="SourceGraphic" in2="BackgroundImageFix" result="shape"/>
<feColorMatrix in="SourceAlpha" type="matrix" values="0 0 0 0 0 0 0 0 0 0 0 0 0 0 0 0 0 0 127 0" result="hardAlpha"/>
<feOffset dy="1"/>
<feGaussianBlur stdDeviation="1"/>
<feComposite in2="hardAlpha" operator="arithmetic" k2="-1" k3="1"/>
<feColorMatrix type="matrix" values="0 0 0 0 0 0 0 0 0 0 0 0 0 0 0 0 0 0 0.25 0"/>
<feBlend mode="normal" in2="shape" result="effect1_innerShadow_116_8"/>
</filter>
</defs>
</svg>
