<svg width="96" height="96" viewBox="0 0 96 96" fill="none" xmlns="http://www.w3.org/2000/svg">
<g filter="url(#filter0_i_116_8)">
<rect x="0.41394" y="0.161255" width="95" height="95" rx="20" fill="#E2EAE1"/>
</g>
<g filter="url(#filter1_d_116_8)">
<path fill-rule="evenodd" clip-rule="evenodd" d="M56.6303 45.8002C59.3734 40.092 58.8469 33.0788 54.6837 27.7502C48.8363 20.2658 38.0287 18.9388 30.5443 24.7863C23.0599 30.6337 21.7329 41.4413 27.5803 48.9257C31.7435 54.2543 38.4209 56.4618 44.6233 55.1811L57.2765 71.3765C59.8669 74.6921 64.6548 75.28 67.9704 72.6895C71.286 70.0991 71.8739 65.3112 69.2835 61.9956L56.6303 45.8002ZM49.7428 54.3037L54.5404 50.5554L65.6788 64.8119C66.7138 66.1367 66.4789 68.0498 65.1541 69.0848C63.8293 70.1199 61.9162 69.885 60.8812 68.5602L49.7428 54.3037ZM51.079 30.5665C55.3711 36.0601 54.3971 43.9929 48.9035 48.285C43.4099 52.577 35.4771 51.603 31.185 46.1094C26.893 40.6158 27.867 32.683 33.3606 28.391C38.8542 24.0989 46.787 25.0729 51.079 30.5665Z" fill="white"/>
<path d="M50.8301 37.6347C50.8301 43.1687 46.3439 47.6549 40.8099 47.6549C35.2759 47.6549 30.7897 43.1687 30.7897 37.6347C30.7897 32.1007 35.2759 27.6145 40.8099 27.6145C46.3439 27.6145 50.8301 32.1007 50.8301 37.6347Z" fill="white"/>
<path fill-rule="evenodd" clip-rule="evenodd" d="M49.7428 54.3037L54.5404 50.5554L65.6788 64.8119C66.7138 66.1367 66.4789 68.0498 65.1541 69.0848C63.8293 70.1199 61.9162 69.885 60.8812 68.5602L49.7428 54.3037ZM46.0872 44.6803C49.5899 41.9436 50.211 36.8856 47.4743 33.3828C44.7377 29.8801 39.6796 29.259 36.1769 31.9957C32.6741 34.7323 32.0531 39.7904 34.7897 43.2931C37.5264 46.7959 42.5844 47.4169 46.0872 44.6803ZM51.079 30.5665C55.3711 36.0601 54.3971 43.9929 48.9035 48.285C43.4099 52.577 35.4771 51.603 31.185 46.1094C26.893 40.6158 27.867 32.683 33.3606 28.391C38.8542 24.0989 46.787 25.0729 51.079 30.5665Z" fill="#4F6B49"/>
</g>
<defs>
<filter id="filter0_i_116_8" x="0.41394" y="0.161255" width="95" height="96" filterUnits="userSpaceOnUse" color-interpolation-filters="sRGB">
<feFlood flood-opacity="0" result="BackgroundImageFix"/>
<feBlend mode="normal" in="SourceGraphic" in2="BackgroundImageFix" result="shape"/>
<feColorMatrix in="SourceAlpha" type="matrix" values="0 0 0 0 0 0 0 0 0 0 0 0 0 0 0 0 0 0 127 0" result="hardAlpha"/>
<feOffset dy="1"/>
<feGaussianBlur stdDeviation="1"/>
<feComposite in2="hardAlpha" operator="arithmetic" k2="-1" k3="1"/>
<feColorMatrix type="matrix" values="0 0 0 0 0 0 0 0 0 0 0 0 0 0 0 0 0 0 0.25 0"/>
<feBlend mode="normal" in2="shape" result="effect1_innerShadow_116_8"/>
</filter>
<filter id="filter1_d_116_8" x="22.9339" y="20.6398" width="48.9649" height="55.1651" filterUnits="userSpaceOnUse" color-interpolation-filters="sRGB">
<feFlood flood-opacity="0" result="BackgroundImageFix"/>
<feColorMatrix in="SourceAlpha" type="matrix" values="0 0 0 0 0 0 0 0 0 0 0 0 0 0 0 0 0 0 127 0" result="hardAlpha"/>
<feOffset dy="0.5"/>
<feGaussianBlur stdDeviation="0.5"/>
<feComposite in2="hardAlpha" operator="out"/>
<feColorMatrix type="matrix" values="0 0 0 0 0 0 0 0 0 0 0 0 0 0 0 0 0 0 0.25 0"/>
<feBlend mode="normal" in2="BackgroundImageFix" result="effect1_dropShadow_116_8"/>
<feBlend mode="normal" in="SourceGraphic" in2="effect1_dropShadow_116_8" result="shape"/>
</filter>
</defs>
</svg>
