<svg width="96" height="96" viewBox="0 0 96 96" fill="none" xmlns="http://www.w3.org/2000/svg">
<g filter="url(#filter0_i_272_51)">
<rect x="0.669067" y="0.28595" width="95" height="95" rx="20" fill="#E2EAE1"/>
</g>
<g filter="url(#filter1_d_272_51)">
<path d="M32.9746 25.2474C33.185 24.6787 33.9894 24.6787 34.1998 25.2474L36.1978 30.647C36.264 30.8258 36.405 30.9668 36.5837 31.0329L41.9834 33.031C42.5521 33.2414 42.5521 34.0457 41.9834 34.2562L36.5837 36.2542C36.405 36.3204 36.264 36.4614 36.1978 36.6401L34.1998 42.0398C33.9894 42.6085 33.185 42.6085 32.9746 42.0398L30.9765 36.6401C30.9104 36.4614 30.7694 36.3204 30.5906 36.2542L25.191 34.2562C24.6223 34.0457 24.6223 33.2414 25.191 33.031L30.5906 31.0329C30.7694 30.9668 30.9104 30.8258 30.9765 30.647L32.9746 25.2474Z" fill="white"/>
<path fill-rule="evenodd" clip-rule="evenodd" d="M30.9765 30.647C30.9104 30.8258 30.7694 30.9668 30.5906 31.0329L25.191 33.031C24.6223 33.2414 24.6223 34.0458 25.191 34.2562L30.5906 36.2542C30.7694 36.3204 30.9104 36.4614 30.9765 36.6402L32.9746 42.0398C33.185 42.6085 33.9894 42.6085 34.1998 42.0398L36.1978 36.6402C36.264 36.4614 36.405 36.3204 36.5837 36.2542L41.9834 34.2562C42.5521 34.0458 42.5521 33.2414 41.9834 33.031L36.5837 31.0329C36.405 30.9668 36.264 30.8258 36.1978 30.647L34.1998 25.2474C33.9894 24.6787 33.185 24.6787 32.9746 25.2474L30.9765 30.647ZM37.6577 29.5731L35.8334 24.6429C35.0618 22.5578 32.1126 22.5577 31.341 24.6429L29.5167 29.5731L24.5865 31.3974C22.5014 32.169 22.5013 35.1182 24.5865 35.8898L29.5167 37.7141L31.341 42.6443C32.1126 44.7294 35.0618 44.7294 35.8334 42.6443L37.6577 37.7141L42.5879 35.8898C44.673 35.1182 44.673 32.169 42.5879 31.3974L37.6577 29.5731Z" fill="white"/>
<path fill-rule="evenodd" clip-rule="evenodd" d="M33.5872 26.3106L31.8614 30.9745C31.6997 31.4115 31.3551 31.7561 30.9181 31.9178L26.2542 33.6436L30.9181 35.3694C31.3551 35.5311 31.6997 35.8757 31.8614 36.3127L33.5872 40.9766L35.313 36.3127C35.4747 35.8757 35.8193 35.5311 36.2563 35.3694L40.9202 33.6436L36.2563 31.9178C35.8193 31.7561 35.4747 31.4115 35.313 30.9745L33.5872 26.3106ZM34.1998 25.2474C33.9894 24.6787 33.185 24.6787 32.9746 25.2474L30.9765 30.647C30.9104 30.8258 30.7694 30.9668 30.5906 31.0329L25.191 33.031C24.6223 33.2414 24.6223 34.0457 25.191 34.2562L30.5906 36.2542C30.7694 36.3204 30.9104 36.4614 30.9765 36.6401L32.9746 42.0398C33.185 42.6085 33.9894 42.6085 34.1998 42.0398L36.1978 36.6401C36.264 36.4614 36.405 36.3204 36.5837 36.2542L41.9834 34.2562C42.5521 34.0457 42.5521 33.2414 41.9834 33.031L36.5837 31.0329C36.405 30.9668 36.264 30.8258 36.1978 30.647L34.1998 25.2474Z" fill="#4F6B49"/>
</g>
<g filter="url(#filter2_d_272_51)">
<path d="M57.6332 40.2233C58.03 39.1509 59.5469 39.1509 59.9437 40.2233L63.7118 50.4065C63.8366 50.7436 64.1024 51.0095 64.4396 51.1342L74.6227 54.9023C75.6951 55.2992 75.6951 56.816 74.6227 57.2129L64.4396 60.981C64.1024 61.1057 63.8366 61.3716 63.7118 61.7087L59.9437 71.8918C59.5469 72.9643 58.03 72.9643 57.6332 71.8918L53.8651 61.7087C53.7403 61.3716 53.4745 61.1057 53.1373 60.981L42.9542 57.2129C41.8817 56.816 41.8817 55.2992 42.9542 54.9023L53.1373 51.1342C53.4745 51.0095 53.7403 50.7436 53.8651 50.4065L57.6332 40.2233Z" fill="white"/>
<path fill-rule="evenodd" clip-rule="evenodd" d="M53.8651 50.4065C53.7403 50.7437 53.4745 51.0095 53.1373 51.1343L42.9542 54.9024C41.8817 55.2992 41.8817 56.8161 42.9542 57.2129L53.1373 60.981C53.4745 61.1058 53.7403 61.3716 53.8651 61.7088L57.6332 71.8919C58.03 72.9643 59.5469 72.9643 59.9437 71.8919L63.7118 61.7088C63.8366 61.3716 64.1024 61.1058 64.4396 60.981L74.6227 57.2129C75.6952 56.8161 75.6952 55.2992 74.6227 54.9024L64.4396 51.1343C64.1024 51.0095 63.8366 50.7437 63.7118 50.4065L59.9437 40.2234C59.5469 39.1509 58.03 39.1509 57.6332 40.2234L53.8651 50.4065ZM66.4649 48.3811L63.0245 39.0834C61.5694 35.1511 56.0075 35.1511 54.5524 39.0834L51.112 48.3811L41.8142 51.8216C37.8819 53.2767 37.8819 58.8385 41.8142 60.2936L51.112 63.7341L54.5524 73.0319C56.0075 76.9642 61.5694 76.9642 63.0244 73.0319L66.4649 63.7341L75.7627 60.2936C79.695 58.8385 79.695 53.2767 75.7627 51.8216L66.4649 48.3811Z" fill="white"/>
<path fill-rule="evenodd" clip-rule="evenodd" d="M58.7884 42.2284L55.5338 51.0239C55.2288 51.8481 54.579 52.498 53.7548 52.803L44.9593 56.0576L53.7548 59.3122C54.579 59.6172 55.2288 60.2671 55.5338 61.0913L58.7884 69.8868L62.0431 61.0913C62.3481 60.2671 62.9979 59.6172 63.8221 59.3122L72.6176 56.0576L63.8221 52.803C62.9979 52.498 62.3481 51.8481 62.0431 51.0239L58.7884 42.2284ZM59.9437 40.2233C59.5469 39.1509 58.03 39.1509 57.6332 40.2233L53.8651 50.4065C53.7403 50.7436 53.4745 51.0095 53.1373 51.1342L42.9542 54.9023C41.8817 55.2992 41.8817 56.816 42.9542 57.2129L53.1373 60.981C53.4745 61.1057 53.7403 61.3716 53.8651 61.7087L57.6332 71.8918C58.03 72.9643 59.5469 72.9643 59.9437 71.8918L63.7118 61.7087C63.8366 61.3716 64.1024 61.1057 64.4396 60.981L74.6227 57.2129C75.6951 56.816 75.6951 55.2992 74.6227 54.9023L64.4396 51.1342C64.1024 51.0095 63.8366 50.7436 63.7118 50.4065L59.9437 40.2233Z" fill="#4F6B49"/>
</g>
<defs>
<filter id="filter0_i_272_51" x="0.669067" y="0.28595" width="95" height="96" filterUnits="userSpaceOnUse" color-interpolation-filters="sRGB">
<feFlood flood-opacity="0" result="BackgroundImageFix"/>
<feBlend mode="normal" in="SourceGraphic" in2="BackgroundImageFix" result="shape"/>
<feColorMatrix in="SourceAlpha" type="matrix" values="0 0 0 0 0 0 0 0 0 0 0 0 0 0 0 0 0 0 127 0" result="hardAlpha"/>
<feOffset dy="1"/>
<feGaussianBlur stdDeviation="1"/>
<feComposite in2="hardAlpha" operator="arithmetic" k2="-1" k3="1"/>
<feColorMatrix type="matrix" values="0 0 0 0 0 0 0 0 0 0 0 0 0 0 0 0 0 0 0.25 0"/>
<feBlend mode="normal" in2="shape" result="effect1_innerShadow_272_51"/>
</filter>
<filter id="filter1_d_272_51" x="22.0226" y="22.079" width="25.1291" height="25.1291" filterUnits="userSpaceOnUse" color-interpolation-filters="sRGB">
<feFlood flood-opacity="0" result="BackgroundImageFix"/>
<feColorMatrix in="SourceAlpha" type="matrix" values="0 0 0 0 0 0 0 0 0 0 0 0 0 0 0 0 0 0 127 0" result="hardAlpha"/>
<feOffset dx="1" dy="1"/>
<feGaussianBlur stdDeviation="1"/>
<feColorMatrix type="matrix" values="0 0 0 0 0.6875 0 0 0 0 0.6875 0 0 0 0 0.6875 0 0 0 0.2 0"/>
<feBlend mode="normal" in2="BackgroundImageFix" result="effect1_dropShadow_272_51"/>
<feBlend mode="normal" in="SourceGraphic" in2="effect1_dropShadow_272_51" result="shape"/>
</filter>
<filter id="filter2_d_272_51" x="37.865" y="35.1342" width="43.847" height="43.8469" filterUnits="userSpaceOnUse" color-interpolation-filters="sRGB">
<feFlood flood-opacity="0" result="BackgroundImageFix"/>
<feColorMatrix in="SourceAlpha" type="matrix" values="0 0 0 0 0 0 0 0 0 0 0 0 0 0 0 0 0 0 127 0" result="hardAlpha"/>
<feOffset dx="1" dy="1"/>
<feGaussianBlur stdDeviation="1"/>
<feColorMatrix type="matrix" values="0 0 0 0 0.6875 0 0 0 0 0.6875 0 0 0 0 0.6875 0 0 0 0.2 0"/>
<feBlend mode="normal" in2="BackgroundImageFix" result="effect1_dropShadow_272_51"/>
<feBlend mode="normal" in="SourceGraphic" in2="effect1_dropShadow_272_51" result="shape"/>
</filter>
</defs>
</svg>
