<svg width="96" height="96" viewBox="0 0 96 96" fill="none" xmlns="http://www.w3.org/2000/svg">
<g filter="url(#filter0_i_272_52)">
<rect x="0.669106" y="0.285767" width="95" height="95" rx="20" fill="#E2EAE1"/>
</g>
<g filter="url(#filter1_d_272_52)">
<path d="M46.3772 16.9368C47.7983 15.7039 49.9098 15.7039 51.3308 16.9368L54.7879 19.9362C55.6648 20.6969 56.8426 21.0125 57.9823 20.7921L62.476 19.9232C64.3231 19.566 66.1517 20.6217 66.7659 22.4L68.2602 26.7261C68.6392 27.8233 69.5014 28.6855 70.5986 29.0645L74.9247 30.5588C76.703 31.173 77.7587 33.0016 77.4015 34.8487L76.5326 39.3424C76.3121 40.4821 76.6277 41.6599 77.3885 42.5368L80.3879 45.9939C81.6208 47.4149 81.6208 49.5264 80.3879 50.9475L77.3885 54.4046C76.6277 55.2814 76.3121 56.4592 76.5326 57.599L77.4015 62.0926C77.7587 63.9398 76.703 65.7684 74.9247 66.3826L70.5986 67.8768C69.5014 68.2558 68.6392 69.118 68.2602 70.2153L66.7659 74.5414C66.1517 76.3196 64.3231 77.3754 62.476 77.0182L57.9823 76.1492C56.8426 75.9288 55.6648 76.2444 54.7879 77.0051L51.3308 80.0045C49.9098 81.2374 47.7983 81.2374 46.3772 80.0045L42.9201 77.0051C42.0432 76.2444 40.8654 75.9288 39.7257 76.1492L35.2321 77.0182C33.3849 77.3754 31.5563 76.3196 30.9421 74.5414L29.4478 70.2153C29.0688 69.1181 28.2066 68.2558 27.1094 67.8768L22.7833 66.3826C21.005 65.7684 19.9493 63.9398 20.3065 62.0926L21.1755 57.599C21.3959 56.4592 21.0803 55.2814 20.3195 54.4046L17.3202 50.9475C16.0872 49.5264 16.0873 47.4149 17.3202 45.9939L20.3195 42.5368C21.0803 41.6599 21.3959 40.4821 21.1755 39.3424L20.3065 34.8487C19.9493 33.0016 21.005 31.173 22.7833 30.5588L27.1094 29.0645C28.2066 28.6855 29.0688 27.8233 29.4478 26.7261L30.9421 22.4C31.5563 20.6217 33.3849 19.566 35.2321 19.9232L39.7257 20.7921C40.8654 21.0125 42.0432 20.6969 42.9201 19.9362L46.3772 16.9368Z" fill="white"/>
</g>
<path d="M46.3772 23.3512C47.7983 22.1183 49.9098 22.1183 51.3308 23.3512L53.3934 25.1407C54.2702 25.9014 55.4481 26.217 56.5878 25.9966L59.2688 25.4782C61.1159 25.121 62.9445 26.1767 63.5587 27.955L64.4502 30.536C64.8292 31.6332 65.6915 32.4955 66.7887 32.8745L69.3697 33.766C71.148 34.3802 72.2037 36.2088 71.8465 38.0559L71.3281 40.7369C71.1077 41.8767 71.4233 43.0545 72.184 43.9313L73.9735 45.9939C75.2064 47.4149 75.2064 49.5264 73.9735 50.9475L72.184 53.0101C71.4233 53.8869 71.1077 55.0647 71.3281 56.2045L71.8465 58.8855C72.2037 60.7326 71.148 62.5612 69.3697 63.1754L66.7887 64.0669C65.6915 64.4459 64.8292 65.3081 64.4502 66.4054L63.5587 68.9864C62.9445 70.7647 61.1159 71.8204 59.2688 71.4632L56.5878 70.9448C55.4481 70.7244 54.2702 71.04 53.3934 71.8007L51.3308 73.5902C49.9098 74.8231 47.7983 74.8231 46.3772 73.5902L44.3146 71.8007C43.4378 71.04 42.26 70.7244 41.1202 70.9448L38.4392 71.4632C36.5921 71.8204 34.7635 70.7647 34.1493 68.9864L33.2578 66.4054C32.8788 65.3081 32.0166 64.4459 30.9193 64.0669L28.3383 63.1754C26.56 62.5612 25.5043 60.7326 25.8615 58.8855L26.3799 56.2045C26.6003 55.0647 26.2847 53.8869 25.524 53.0101L23.7345 50.9475C22.5016 49.5264 22.5016 47.4149 23.7345 45.9939L25.524 43.9313C26.2847 43.0545 26.6003 41.8767 26.3799 40.7369L25.8615 38.0559C25.5043 36.2088 26.56 34.3802 28.3383 33.766L30.9193 32.8745C32.0166 32.4955 32.8788 31.6332 33.2578 30.536L34.1493 27.955C34.7635 26.1767 36.5921 25.121 38.4392 25.4782L41.1202 25.9966C42.26 26.217 43.4378 25.9014 44.3146 25.1407L46.3772 23.3512Z" fill="white"/>
<path fill-rule="evenodd" clip-rule="evenodd" d="M51.6596 27.139L49.5971 25.3496C49.1707 24.9797 48.5373 24.9797 48.111 25.3496L46.0484 27.139C44.5578 28.4323 42.5555 28.9688 40.6179 28.5941L37.9369 28.0757C37.3828 27.9685 36.8342 28.2852 36.6499 28.8187L35.7584 31.3997C35.1142 33.2651 33.6484 34.7308 31.7831 35.3751L29.202 36.2666C28.6686 36.4509 28.3518 36.9995 28.459 37.5536L28.9774 40.2346C29.3521 42.1722 28.8156 44.1744 27.5224 45.6651L25.7329 47.7276C25.363 48.154 25.363 48.7874 25.7329 49.2137L27.5224 51.2763C28.8156 52.7669 29.3521 54.7692 28.9774 56.7068L28.459 59.3878C28.3518 59.9419 28.6686 60.4905 29.202 60.6748L31.7831 61.5663C33.6484 62.2106 35.1142 63.6763 35.7584 65.5416L36.6499 68.1227C36.8342 68.6561 37.3828 68.9729 37.9369 68.8657L40.6179 68.3473C42.5555 67.9726 44.5578 68.5091 46.0484 69.8024L48.111 71.5918C48.5373 71.9617 49.1707 71.9617 49.5971 71.5918L51.6596 69.8024C53.1503 68.5091 55.1525 67.9726 57.0901 68.3473L59.7711 68.8657C60.3252 68.9729 60.8738 68.6561 61.0581 68.1227L61.9496 65.5416C62.5939 63.6763 64.0596 62.2106 65.925 61.5663L68.506 60.6748C69.0395 60.4905 69.3562 59.9419 69.249 59.3878L68.7306 56.7068C68.3559 54.7692 68.8924 52.7669 70.1857 51.2763L71.9752 49.2137C72.345 48.7874 72.345 48.154 71.9752 47.7276L70.1857 45.6651C68.8924 44.1744 68.3559 42.1722 68.7306 40.2346L69.249 37.5536C69.3562 36.9995 69.0395 36.4509 68.506 36.2666L65.925 35.3751C64.0596 34.7308 62.5939 33.2651 61.9496 31.3997L61.0581 28.8187C60.8738 28.2852 60.3252 27.9685 59.7711 28.0757L57.0901 28.5941C55.1525 28.9688 53.1503 28.4323 51.6596 27.139ZM51.3308 23.3512C49.9098 22.1183 47.7983 22.1183 46.3772 23.3512L44.3146 25.1407C43.4378 25.9014 42.26 26.217 41.1202 25.9966L38.4392 25.4782C36.5921 25.121 34.7635 26.1767 34.1493 27.955L33.2578 30.536C32.8788 31.6332 32.0166 32.4955 30.9193 32.8745L28.3383 33.766C26.56 34.3802 25.5043 36.2088 25.8615 38.0559L26.3799 40.7369C26.6003 41.8767 26.2847 43.0545 25.524 43.9313L23.7345 45.9939C22.5016 47.4149 22.5016 49.5264 23.7345 50.9475L25.524 53.0101C26.2847 53.8869 26.6003 55.0647 26.3799 56.2045L25.8615 58.8855C25.5043 60.7326 26.56 62.5612 28.3383 63.1754L30.9193 64.0669C32.0166 64.4459 32.8788 65.3081 33.2578 66.4054L34.1493 68.9864C34.7635 70.7647 36.5921 71.8204 38.4392 71.4632L41.1202 70.9448C42.26 70.7244 43.4378 71.04 44.3146 71.8007L46.3772 73.5902C47.7983 74.8231 49.9098 74.8231 51.3308 73.5902L53.3934 71.8007C54.2702 71.04 55.4481 70.7244 56.5878 70.9448L59.2688 71.4632C61.1159 71.8204 62.9445 70.7647 63.5587 68.9864L64.4502 66.4054C64.8292 65.3081 65.6915 64.4459 66.7887 64.0669L69.3697 63.1754C71.148 62.5612 72.2037 60.7326 71.8465 58.8855L71.3281 56.2045C71.1077 55.0647 71.4233 53.8869 72.184 53.0101L73.9735 50.9475C75.2064 49.5264 75.2064 47.4149 73.9735 45.9939L72.184 43.9313C71.4233 43.0545 71.1077 41.8767 71.3281 40.7369L71.8465 38.0559C72.2037 36.2088 71.148 34.3802 69.3697 33.766L66.7887 32.8745C65.6915 32.4955 64.8292 31.6332 64.4502 30.536L63.5587 27.955C62.9445 26.1767 61.1159 25.121 59.2688 25.4782L56.5878 25.9966C55.4481 26.217 54.2702 25.9014 53.3934 25.1407L51.3308 23.3512Z" fill="#4F6B49"/>
<path d="M46.3772 30.6614C47.7983 29.4285 49.9098 29.4285 51.3308 30.6614L51.8041 31.072C52.6809 31.8328 53.8588 32.1484 54.9985 31.928L55.6137 31.809C57.4608 31.4518 59.2894 32.5076 59.9036 34.2858L60.1082 34.8781C60.4872 35.9753 61.3494 36.8375 62.4467 37.2165L63.0389 37.4211C64.8172 38.0353 65.8729 39.8639 65.5157 41.7111L65.3967 42.3262C65.1763 43.466 65.4919 44.6438 66.2527 45.5206L66.6633 45.9939C67.8962 47.415 67.8962 49.5265 66.6633 50.9475L66.2527 51.4208C65.4919 52.2976 65.1763 53.4754 65.3967 54.6152L65.5157 55.2304C65.8729 57.0775 64.8172 58.9061 63.0389 59.5203L62.4467 59.7249C61.3494 60.1039 60.4872 60.9661 60.1082 62.0633L59.9036 62.6556C59.2894 64.4338 57.4608 65.4896 55.6137 65.1324L54.9985 65.0134C53.8588 64.793 52.6809 65.1086 51.8041 65.8694L51.3308 66.28C49.9098 67.5129 47.7983 67.5129 46.3772 66.28L45.9039 65.8694C45.0271 65.1086 43.8493 64.793 42.7095 65.0134L42.0944 65.1324C40.2472 65.4896 38.4186 64.4338 37.8044 62.6556L37.5998 62.0633C37.2208 60.9661 36.3586 60.1039 35.2614 59.7249L34.6691 59.5203C32.8909 58.9061 31.8351 57.0775 32.1923 55.2304L32.3113 54.6152C32.5317 53.4754 32.2161 52.2976 31.4554 51.4208L31.0447 50.9475C29.8118 49.5265 29.8118 47.415 31.0447 45.9939L31.4554 45.5206C32.2161 44.6438 32.5317 43.466 32.3113 42.3262L32.1923 41.7111C31.8351 39.8639 32.8909 38.0353 34.6691 37.4211L35.2614 37.2165C36.3586 36.8375 37.2208 35.9753 37.5998 34.8781L37.8044 34.2858C38.4186 32.5076 40.2472 31.4518 42.0944 31.809L42.7095 31.928C43.8493 32.1484 45.0271 31.8328 45.9039 31.072L46.3772 30.6614Z" fill="white"/>
<path fill-rule="evenodd" clip-rule="evenodd" d="M50.0703 33.0704L49.5971 32.6598C49.1707 32.2899 48.5373 32.2899 48.111 32.6598L47.6377 33.0704C46.1471 34.3637 44.1448 34.9002 42.2072 34.5255L41.5921 34.4065C41.0379 34.2994 40.4893 34.6161 40.3051 35.1496L40.1005 35.7418C39.4562 37.6071 37.9904 39.0729 36.1251 39.7172L35.5329 39.9218C34.9994 40.106 34.6827 40.6546 34.7898 41.2087L34.9088 41.8239C35.2835 43.7615 34.747 45.7638 33.4537 47.2544L33.0431 47.7277C32.6732 48.154 32.6732 48.7874 33.0431 49.2138L33.4537 49.687C34.747 51.1777 35.2835 53.1799 34.9088 55.1175L34.7898 55.7327C34.6827 56.2868 34.9994 56.8354 35.5329 57.0197L36.1251 57.2242C37.9904 57.8685 39.4562 59.3343 40.1005 61.1996L40.3051 61.7918C40.4893 62.3253 41.0379 62.642 41.5921 62.5349L42.2072 62.4159C44.1448 62.0412 46.1471 62.5777 47.6377 63.871L48.111 64.2816C48.5373 64.6515 49.1707 64.6515 49.5971 64.2816L50.0703 63.871C51.561 62.5777 53.5632 62.0412 55.5008 62.4159L56.116 62.5349C56.6701 62.642 57.2187 62.3253 57.403 61.7918L57.6075 61.1996C58.2518 59.3343 59.7176 57.8685 61.5829 57.2242L62.1751 57.0197C62.7086 56.8354 63.0253 56.2868 62.9182 55.7327L62.7992 55.1175C62.4245 53.1799 62.961 51.1777 64.2543 49.687L64.6649 49.2138C65.0348 48.7874 65.0348 48.154 64.6649 47.7277L64.2543 47.2544C62.961 45.7638 62.4245 43.7615 62.7992 41.8239L62.9182 41.2087C63.0253 40.6546 62.7086 40.106 62.1751 39.9218L61.5829 39.7172C59.7176 39.0729 58.2518 37.6071 57.6075 35.7418L57.403 35.1496C57.2187 34.6161 56.6701 34.2994 56.116 34.4065L55.5008 34.5255C53.5632 34.9002 51.561 34.3637 50.0703 33.0704ZM51.3308 30.6614C49.9098 29.4285 47.7983 29.4285 46.3772 30.6614L45.9039 31.072C45.0271 31.8328 43.8493 32.1484 42.7095 31.928L42.0944 31.809C40.2472 31.4518 38.4186 32.5076 37.8044 34.2858L37.5998 34.8781C37.2208 35.9753 36.3586 36.8375 35.2614 37.2165L34.6691 37.4211C32.8909 38.0353 31.8351 39.8639 32.1923 41.7111L32.3113 42.3262C32.5317 43.466 32.2161 44.6438 31.4554 45.5206L31.0447 45.9939C29.8118 47.415 29.8118 49.5265 31.0447 50.9475L31.4554 51.4208C32.2161 52.2976 32.5317 53.4754 32.3113 54.6152L32.1923 55.2304C31.8351 57.0775 32.8909 58.9061 34.6691 59.5203L35.2614 59.7249C36.3586 60.1039 37.2208 60.9661 37.5998 62.0633L37.8044 62.6556C38.4186 64.4338 40.2472 65.4896 42.0944 65.1324L42.7095 65.0134C43.8493 64.793 45.0271 65.1086 45.9039 65.8694L46.3772 66.28C47.7983 67.5129 49.9098 67.5129 51.3308 66.28L51.8041 65.8694C52.6809 65.1086 53.8588 64.793 54.9985 65.0134L55.6137 65.1324C57.4608 65.4896 59.2894 64.4338 59.9036 62.6556L60.1082 62.0633C60.4872 60.9661 61.3494 60.1039 62.4467 59.7249L63.0389 59.5203C64.8172 58.9061 65.8729 57.0775 65.5157 55.2304L65.3967 54.6152C65.1763 53.4754 65.4919 52.2976 66.2527 51.4208L66.6633 50.9475C67.8962 49.5265 67.8962 47.415 66.6633 45.9939L66.2527 45.5206C65.4919 44.6438 65.1763 43.466 65.3967 42.3262L65.5157 41.7111C65.8729 39.8639 64.8172 38.0353 63.0389 37.4211L62.4467 37.2165C61.3494 36.8375 60.4872 35.9753 60.1082 34.8781L59.9036 34.2858C59.2894 32.5076 57.4608 31.4518 55.6137 31.809L54.9985 31.928C53.8588 32.1484 52.6809 31.8328 51.8041 31.072L51.3308 30.6614Z" fill="#4F6B49"/>
<path d="M47.2049 38.062C48.1511 37.2411 49.557 37.2411 50.5032 38.062C51.087 38.5686 51.8712 38.7787 52.6301 38.632C53.86 38.3941 55.0776 39.0971 55.4866 40.2811C55.7389 41.0117 56.313 41.5858 57.0436 41.8382C58.2276 42.2471 58.9306 43.4647 58.6928 44.6946C58.546 45.4535 58.7561 46.2377 59.2627 46.8215C60.0836 47.7677 60.0836 49.1736 59.2627 50.1198C58.7561 50.7037 58.546 51.4879 58.6928 52.2468C58.9306 53.4767 58.2276 54.6943 57.0436 55.1032C56.313 55.3556 55.7389 55.9297 55.4866 56.6603C55.0776 57.8443 53.86 58.5473 52.6301 58.3094C51.8712 58.1627 51.087 58.3728 50.5032 58.8793C49.557 59.7003 48.1511 59.7003 47.2049 58.8793C46.621 58.3728 45.8368 58.1627 45.0779 58.3094C43.848 58.5473 42.6305 57.8443 42.2215 56.6603C41.9691 55.9297 41.395 55.3556 40.6644 55.1032C39.4804 54.6943 38.7774 53.4767 39.0153 52.2468C39.162 51.4879 38.9519 50.7037 38.4454 50.1198C37.6245 49.1736 37.6245 47.7677 38.4454 46.8215C38.9519 46.2377 39.162 45.4535 39.0153 44.6946C38.7774 43.4647 39.4804 42.2471 40.6644 41.8382C41.395 41.5858 41.9691 41.0117 42.2215 40.2811C42.6305 39.0971 43.848 38.3941 45.0779 38.632C45.8368 38.7787 46.621 38.5686 47.2049 38.062Z" fill="white"/>
<path fill-rule="evenodd" clip-rule="evenodd" d="M44.6848 41.2494C44.1621 42.6635 43.0469 43.7788 41.6327 44.3015C41.8871 45.7875 41.4789 47.311 40.5156 48.4707C41.4789 49.6304 41.8871 51.1539 41.6327 52.6399C43.0469 53.1626 44.1621 54.2778 44.6848 55.692C46.1708 55.4376 47.6943 55.8458 48.854 56.8091C50.0138 55.8458 51.5372 55.4376 53.0232 55.692C53.5459 54.2778 54.6612 53.1626 56.0753 52.6399C55.8209 51.1539 56.2291 49.6304 57.1925 48.4707C56.2291 47.311 55.8209 45.7875 56.0753 44.3015C54.6612 43.7788 53.5459 42.6635 53.0232 41.2494C51.5372 41.5038 50.0138 41.0956 48.854 40.1322C47.6943 41.0956 46.1708 41.5038 44.6848 41.2494ZM50.5032 38.062C49.557 37.2411 48.1511 37.2411 47.2049 38.062C46.621 38.5686 45.8368 38.7787 45.0779 38.632C43.848 38.3941 42.6305 39.0971 42.2215 40.2811C41.9691 41.0117 41.395 41.5858 40.6644 41.8382C39.4804 42.2471 38.7774 43.4647 39.0153 44.6946C39.162 45.4535 38.9519 46.2377 38.4454 46.8215C37.6245 47.7677 37.6245 49.1736 38.4454 50.1198C38.9519 50.7037 39.162 51.4879 39.0153 52.2468C38.7774 53.4767 39.4804 54.6943 40.6644 55.1032C41.395 55.3556 41.9691 55.9297 42.2215 56.6603C42.6305 57.8443 43.848 58.5473 45.0779 58.3094C45.8368 58.1627 46.621 58.3728 47.2049 58.8793C48.1511 59.7003 49.557 59.7003 50.5032 58.8793C51.087 58.3728 51.8712 58.1627 52.6301 58.3094C53.86 58.5473 55.0776 57.8443 55.4866 56.6603C55.7389 55.9297 56.313 55.3556 57.0436 55.1032C58.2276 54.6943 58.9306 53.4767 58.6928 52.2468C58.546 51.4879 58.7561 50.7037 59.2627 50.1198C60.0836 49.1736 60.0836 47.7677 59.2627 46.8215C58.7561 46.2377 58.546 45.4535 58.6928 44.6946C58.9306 43.4647 58.2276 42.2471 57.0436 41.8382C56.313 41.5858 55.7389 41.0117 55.4866 40.2811C55.0776 39.0971 53.86 38.3941 52.6301 38.632C51.8712 38.7787 51.087 38.5686 50.5032 38.062Z" fill="#4F6B49"/>
<defs>
<filter id="filter0_i_272_52" x="0.669106" y="0.285767" width="95" height="96" filterUnits="userSpaceOnUse" color-interpolation-filters="sRGB">
<feFlood flood-opacity="0" result="BackgroundImageFix"/>
<feBlend mode="normal" in="SourceGraphic" in2="BackgroundImageFix" result="shape"/>
<feColorMatrix in="SourceAlpha" type="matrix" values="0 0 0 0 0 0 0 0 0 0 0 0 0 0 0 0 0 0 127 0" result="hardAlpha"/>
<feOffset dy="1"/>
<feGaussianBlur stdDeviation="1"/>
<feComposite in2="hardAlpha" operator="arithmetic" k2="-1" k3="1"/>
<feColorMatrix type="matrix" values="0 0 0 0 0 0 0 0 0 0 0 0 0 0 0 0 0 0 0.25 0"/>
<feBlend mode="normal" in2="shape" result="effect1_innerShadow_272_52"/>
</filter>
<filter id="filter1_d_272_52" x="15.3955" y="15.0121" width="68.9171" height="68.9171" filterUnits="userSpaceOnUse" color-interpolation-filters="sRGB">
<feFlood flood-opacity="0" result="BackgroundImageFix"/>
<feColorMatrix in="SourceAlpha" type="matrix" values="0 0 0 0 0 0 0 0 0 0 0 0 0 0 0 0 0 0 127 0" result="hardAlpha"/>
<feOffset dx="1" dy="1"/>
<feGaussianBlur stdDeviation="1"/>
<feColorMatrix type="matrix" values="0 0 0 0 0.6875 0 0 0 0 0.6875 0 0 0 0 0.6875 0 0 0 0.2 0"/>
<feBlend mode="normal" in2="BackgroundImageFix" result="effect1_dropShadow_272_52"/>
<feBlend mode="normal" in="SourceGraphic" in2="effect1_dropShadow_272_52" result="shape"/>
</filter>
</defs>
</svg>
