<svg xmlns="http://www.w3.org/2000/svg" viewBox="0 0 335.21 299.67"><defs><style>.cls-1{fill:#4f6b49;}</style></defs><g id="Calque_2" data-name="Calque 2"><g id="Calque_1-2" data-name="Calque 1"><path class="cls-1" d="M55.92,197.35l21.19,2.05c3.24.59,4.42,2,4.42,5V207H0v-2.63c0-2.93,1.17-4.39,4.41-5l21.2-2.05,0-187.68-21.2-2C1.19,7,0,5.57,0,2.63V0H81.55V2.63c0,2.94-1.18,4.4-4.42,5L56,9.67ZM25.61,9.67l-21.2-2C1.17,7,0,5.57,0,2.63V0H81.52V2.63c0,2.94-1.17,4.4-4.41,5L55.91,9.67v80H146c2.94,5.27,0,10.53-5.31,10.53H55.91v97.19l21.2,2.05c3.24.59,4.41,2,4.41,5V207H0v-2.63c0-2.93,1.17-4.39,4.41-5l21.2-2.05Z"/><path class="cls-1" d="M189.48,289.38,212,291.56c3.45.62,4.7,2.18,4.7,5.31v2.8H129.92v-2.8c0-3.13,1.26-4.69,4.7-5.31l22.57-2.18V10.29L134.62,8.1c-3.44-.63-4.7-2.18-4.7-5.3V0h86.82V2.8c0,3.12-1.25,4.67-4.7,5.3l-22.56,2.19Z"/><path class="cls-1" d="M207.76,192.24c-6.47,6.43-6.47,10.24,0,17.85l68.58,79.63-15.59,2c-3.25.28-4.42,2.05-4.42,5v2.93h78.88V297c0-2.93-1.17-4.68-4.42-5l-17.07-2.63L226.31,189,296.6,102.8l19.72-5.57c2.94-.87,4.12-2.63,4.12-5.55V89.33H260.68V92c0,2.94,1.19,4.69,4.13,5.57l17.36,5Z"/></g></g></svg>