<?xml version="1.0" encoding="utf-8"?>
<!-- Generator: Adobe Illustrator 27.1.1, SVG Export Plug-In . SVG Version: 6.00 Build 0)  -->
<svg version="1.1" id="Calque_1" xmlns="http://www.w3.org/2000/svg" xmlns:xlink="http://www.w3.org/1999/xlink" x="0px" y="0px"
	 viewBox="0 0 335.2 299.7" style="enable-background:new 0 0 335.2 299.7;" xml:space="preserve">
<style type="text/css">
	.st0{fill:#FFFFFF;}
</style>
<g id="Calque_2_00000103979471938088826160000012639270446540425912_">
	<g id="Calque_1-2">
		<path class="st0" d="M55.9,197.3l21.2,2.1c3.2,0.6,4.4,2,4.4,5v2.6H0v-2.6c0-2.9,1.2-4.4,4.4-5l21.2-2.1V9.6l-21.2-2
			C1.2,7,0,5.6,0,2.6V0h81.6v2.6c0,2.9-1.2,4.4-4.4,5L56,9.7L55.9,197.3z M25.6,9.7l-21.2-2C1.2,7,0,5.6,0,2.6V0h81.5v2.6
			c0,2.9-1.2,4.4-4.4,5l-21.2,2v80H146c2.9,5.3,0,10.5-5.3,10.5H55.9v97.2l21.2,2.1c3.2,0.6,4.4,2,4.4,5v2.6H0v-2.6
			c0-2.9,1.2-4.4,4.4-5l21.2-2.1V9.7z"/>
		<path class="st0" d="M189.5,289.4l22.5,2.2c3.4,0.6,4.7,2.2,4.7,5.3v2.8h-86.8v-2.8c0-3.1,1.3-4.7,4.7-5.3l22.6-2.2V10.3
			l-22.6-2.2c-3.4-0.6-4.7-2.2-4.7-5.3V0h86.8v2.8c0,3.1-1.2,4.7-4.7,5.3l-22.6,2.2V289.4z"/>
		<path class="st0" d="M207.8,192.2c-6.5,6.4-6.5,10.2,0,17.9l68.6,79.6l-15.6,2c-3.2,0.3-4.4,2-4.4,5v2.9h78.9V297
			c0-2.9-1.2-4.7-4.4-5l-17.1-2.6L226.3,189l70.3-86.2l19.7-5.6c2.9-0.9,4.1-2.6,4.1-5.6v-2.3h-59.8V92c0,2.9,1.2,4.7,4.1,5.6
			l17.4,5L207.8,192.2z"/>
	</g>
</g>
</svg>
