<svg width="16" height="15" viewBox="0 0 16 15" fill="none" xmlns="http://www.w3.org/2000/svg">
<path d="M14.7617 14.8246C13.0673 14.8246 11.3832 14.4146 9.70964 13.5945C8.03602 12.7745 6.53255 11.7085 5.19922 10.3965C3.86589 9.08441 2.78255 7.60495 1.94922 5.95807C1.11589 4.31119 0.699219 2.65406 0.699219 0.986676C0.699219 0.727002 0.789497 0.508329 0.970052 0.330657C1.15061 0.152985 1.37283 0.0641489 1.63672 0.0641489H4.55339C4.74783 0.0641489 4.91797 0.129067 5.0638 0.258905C5.20964 0.388742 5.30339 0.562997 5.34505 0.78167L5.90755 3.36475C5.93533 3.55608 5.93186 3.73034 5.89714 3.88751C5.86241 4.04468 5.7895 4.17794 5.67839 4.28727L3.59505 6.35783C4.37283 7.62887 5.24436 8.7359 6.20964 9.67893C7.17491 10.622 8.26866 11.4215 9.49088 12.0775L11.4701 10.0684C11.6089 9.9181 11.7687 9.81218 11.9492 9.75068C12.1298 9.68918 12.3103 9.67893 12.4909 9.71993L14.9701 10.2529C15.1784 10.2939 15.352 10.3965 15.4909 10.5605C15.6298 10.7245 15.6992 10.9158 15.6992 11.1345V13.9021C15.6992 14.1617 15.6089 14.3804 15.4284 14.5581C15.2478 14.7357 15.0256 14.8246 14.7617 14.8246Z" fill="white"/>
</svg>
