<svg width="36" height="37" viewBox="0 0 36 37" fill="none" xmlns="http://www.w3.org/2000/svg">
<path d="M32.6464 18.3576C32.5156 14.373 31.0374 10.9679 28.2118 8.14225C25.3861 5.31662 21.981 3.83842 17.9964 3.70765V0.788452C20.3758 0.847419 22.6181 1.35767 24.7233 2.3192C26.8284 3.28074 28.6662 4.54677 30.2367 6.1173C31.8072 7.6878 33.0732 9.5256 34.0348 11.6307C34.9963 13.7358 35.5066 15.9781 35.5655 18.3576H32.6464ZM24.181 18.3576C24.004 16.7217 23.338 15.3249 22.1829 14.1673C21.0278 13.0096 19.6323 12.3551 17.9964 12.2038V9.2846C20.4271 9.43587 22.5079 10.3782 24.2386 12.1115C25.9694 13.8448 26.9232 15.9269 27.1002 18.3576H24.181ZM33.5502 36.6845C29.563 36.6845 25.5861 35.696 21.6194 33.7191C17.6528 31.7422 14.0861 29.1736 10.9195 26.0134C7.75284 22.8531 5.18105 19.2846 3.20412 15.3077C1.22722 11.3308 0.23877 7.34872 0.23877 3.36155C0.23877 2.70772 0.443886 2.17567 0.85412 1.7654C1.26439 1.35514 1.79644 1.15 2.45027 1.15H9.11172C9.62969 1.15 10.0848 1.32309 10.4771 1.66925C10.8694 2.01542 11.122 2.45132 11.2348 2.97695L12.531 9.1038C12.6105 9.5961 12.5906 10.0435 12.4714 10.4461C12.3521 10.8487 12.1797 11.15 11.954 11.35L6.99252 16.2077C8.84382 19.2641 10.9374 21.9487 13.2733 24.2615C15.6092 26.5743 18.2015 28.5294 21.0502 30.1269L25.9695 25.1385C26.2695 24.8051 26.5932 24.575 26.9406 24.4481C27.2881 24.3211 27.6515 24.3077 28.031 24.4077L33.8848 25.7269C34.4232 25.8269 34.8707 26.0916 35.2271 26.5211C35.5835 26.9506 35.7617 27.4346 35.7617 27.9731V34.473C35.7617 35.1268 35.5566 35.6588 35.1463 36.0691C34.7361 36.4794 34.204 36.6845 33.5502 36.6845Z" fill="#4F6B49"/>
</svg>
