<svg width="28" height="42" viewBox="0 0 28 42" fill="none" xmlns="http://www.w3.org/2000/svg">
<path d="M14 33.723C9.42823 30.3128 6.04618 27.0397 3.85388 23.9038C1.66158 20.7679 0.56543 17.6944 0.56543 14.6832C0.56543 12.4088 0.971996 10.4208 1.78513 8.71907C2.59823 7.01737 3.63986 5.58799 4.91003 4.43092C6.1802 3.27382 7.61958 2.39606 9.22818 1.79762C10.8368 1.19922 12.4232 0.900024 13.9873 0.900024C15.5515 0.900024 17.1399 1.19922 18.7525 1.79762C20.3652 2.39606 21.8079 3.27382 23.0808 4.43092C24.3537 5.58799 25.4059 7.01794 26.2374 8.72077C27.0689 10.4236 27.4846 12.4145 27.4846 14.6937C27.4846 17.7112 26.3801 20.7845 24.1712 23.9138C21.9622 27.043 18.5718 30.3128 14 33.723ZM14.0141 17.8192C14.9779 17.8192 15.7972 17.4819 16.4722 16.8074C17.1471 16.1329 17.4846 15.3206 17.4846 14.3706C17.4846 13.4067 17.1471 12.5874 16.4721 11.9124C15.7972 11.2375 14.9778 10.9 14.0142 10.9C13.0619 10.9 12.249 11.2375 11.5756 11.9125C10.9021 12.5874 10.5654 13.4068 10.5654 14.3704C10.5654 15.3227 10.9027 16.1356 11.5772 16.809C12.2517 17.4825 13.064 17.8192 14.0141 17.8192ZM0.56543 41.0499V38.1308H27.4846V41.0499H0.56543Z" fill="#4F6B49"/>
</svg>
