<svg width="555" height="1449" viewBox="0 0 555 1449" fill="none" xmlns="http://www.w3.org/2000/svg">
<path d="M234.713 442.347L230.619 446.734L234.713 442.347ZM510.352 476.119L507.438 470.874L507.438 470.874L510.352 476.119ZM554.656 451.506L507.551 438.048L494.093 485.153L541.197 498.611L554.656 451.506ZM185.185 404.329L230.619 446.734L238.807 437.961L193.373 395.556L185.185 404.329ZM513.266 481.364L527.288 473.574L521.46 463.084L507.438 470.874L513.266 481.364ZM230.619 446.734C307.354 518.353 421.51 532.34 513.266 481.364L507.438 470.874C420.233 519.322 311.737 506.029 238.807 437.961L230.619 446.734Z" fill="#AAA8A8"/>
<path d="M298.337 841.898L298.907 835.925L298.907 835.925L298.337 841.898ZM154.288 874.564L151.197 869.422L151.197 869.422L154.288 874.564ZM69.843 925.331L117.38 937.171L129.221 889.634L81.6836 877.793L69.843 925.331ZM454.304 850.776L298.907 835.925L297.766 847.87L453.163 862.722L454.304 850.776ZM151.197 869.422L96.4406 902.34L102.623 912.625L157.379 879.706L151.197 869.422ZM298.907 835.925C247.355 830.998 195.581 842.739 151.197 869.422L157.379 879.706C199.563 854.347 248.769 843.188 297.766 847.87L298.907 835.925Z" fill="#AAA8A8"/>
<path d="M76.3534 96.3487L102.813 0.19464L0.510174 18.4763L58.6341 99.5152L76.3534 96.3487ZM204.392 426.495L196.923 431.517L196.923 431.517L204.392 426.495ZM485.482 821.219L477.697 816.704L477.697 816.704L485.482 821.219ZM463.071 1448.74L477.915 1345.89L381.416 1384.46L463.071 1448.74ZM57.0967 90.8915C75.2043 177.799 111.953 305.151 196.923 431.517L211.861 421.473C128.655 297.732 92.5586 172.845 74.7183 87.22L57.0967 90.8915ZM196.923 431.517C270.747 541.307 365.93 601.242 428.682 652.117C460.48 677.897 483.096 700.633 492.781 725.774C502.135 750.055 499.983 778.279 477.697 816.704L493.268 825.735C517.36 784.195 521.471 750.177 509.578 719.304C498.016 689.292 471.877 663.964 440.017 638.135C375.453 585.791 283.712 528.329 211.861 421.473L196.923 431.517ZM477.697 816.704C458.901 849.111 428.791 875.984 393.253 900.569C357.632 925.211 317.613 946.881 278.976 969.64C240.703 992.184 203.892 1015.75 176.423 1043.66C148.762 1071.77 130.11 1104.76 129.105 1145.97L147.1 1146.41C147.962 1111.04 163.783 1082.17 189.253 1056.29C214.913 1030.21 249.889 1007.66 288.111 985.149C325.969 962.849 367.153 940.512 403.494 915.372C439.919 890.173 472.531 861.488 493.268 825.735L477.697 816.704ZM129.105 1145.97C128.262 1180.52 142.675 1206.93 165.307 1228.17C187.609 1249.1 218.118 1265.25 250.203 1279.96C282.902 1294.95 316.589 1308.19 348.208 1324.04C379.56 1339.76 407.062 1357.23 426.194 1379.42L439.828 1367.67C418.357 1342.76 388.31 1324.01 356.275 1307.95C324.505 1292.02 288.964 1277.93 257.703 1263.6C225.827 1248.98 197.642 1233.83 177.626 1215.04C157.939 1196.57 146.406 1174.84 147.1 1146.41L129.105 1145.97Z" fill="white"/>
<path d="M221.851 570.647L235.649 633.591L286.678 594.242L256.788 651.329L321.171 653.986L261.579 678.504L309.192 721.925L247.782 702.402L256.345 766.269L221.851 711.84L187.358 766.269L195.921 702.402L134.511 721.925L182.123 678.504L122.531 653.986L186.915 651.329L157.025 594.242L208.054 633.591L221.851 570.647Z" fill="white"/>
<ellipse cx="364.825" cy="1102.34" rx="118.731" ry="83.0068" transform="rotate(-25.6775 364.825 1102.34)" fill="white"/>
<rect x="221.851" y="232.667" width="173.885" height="54.7093" transform="rotate(45.9012 221.851 232.667)" fill="white"/>
<circle cx="56.1679" cy="260.547" r="7.5" transform="rotate(3.82625 56.1679 260.547)" fill="#CFCFCF"/>
<circle cx="68.3777" cy="321.497" r="17.5" transform="rotate(3.82625 68.3777 321.497)" fill="#EEEEEE"/>
<circle cx="86.4028" cy="407.893" r="32.5" transform="rotate(3.82625 86.4028 407.893)" fill="white"/>
</svg>
