<svg width="226" height="305" viewBox="0 0 226 305" fill="none" xmlns="http://www.w3.org/2000/svg">
<g filter="url(#filter0_d_1647_88)">
<g filter="url(#filter1_d_1647_88)">
<g filter="url(#filter2_d_1647_88)">
<path d="M71.5815 80.838C68.0968 70.3564 73.769 59.0345 84.2506 55.5498L144.834 35.4087C155.316 31.924 166.637 37.5962 170.122 48.0778L190.263 108.661C193.748 119.143 188.076 130.465 177.594 133.949L117.011 154.09C106.529 157.575 95.2073 151.903 91.7226 141.421L71.5815 80.838Z" fill="#4F6B49"/>
</g>
<g filter="url(#filter3_d_1647_88)">
<path fill-rule="evenodd" clip-rule="evenodd" d="M76.9947 33.7245L137.578 13.5834C160.113 6.0914 184.456 18.2865 191.948 40.822L212.089 101.405C219.581 123.941 207.386 148.283 184.85 155.775L124.267 175.916C101.731 183.408 77.3892 171.213 69.8972 148.677L49.756 88.0942C42.264 65.5587 54.4592 41.2166 76.9947 33.7245ZM84.2506 55.55C73.769 59.0347 68.0969 70.3566 71.5815 80.8382L91.7227 141.421C95.2073 151.903 106.529 157.575 117.011 154.091L177.594 133.949C188.076 130.465 193.748 119.143 190.263 108.661L170.122 48.078C166.637 37.5964 155.316 31.9242 144.834 35.4089L84.2506 55.55Z" fill="white"/>
</g>
<path d="M104.213 109.381C105.002 106.735 107.787 105.23 110.433 106.019L133.209 112.813C135.855 113.603 137.36 116.388 136.571 119.034L136.339 119.813C135.549 122.459 132.764 123.964 130.118 123.175L107.342 116.381C104.696 115.591 103.191 112.806 103.98 110.16L104.213 109.381Z" fill="white"/>
<path d="M128.912 122.715C126.266 121.926 124.761 119.141 125.55 116.495L141.37 63.4639C142.159 60.8178 144.944 59.3125 147.59 60.1019L150.459 60.9578C153.106 61.7472 154.611 64.5323 153.821 67.1785L138.002 120.209C137.212 122.856 134.427 124.361 131.781 123.571L128.912 122.715Z" fill="white"/>
</g>
<g filter="url(#filter4_d_1647_88)">
<g filter="url(#filter5_d_1647_88)">
<path d="M53.4708 165.807C56.6818 155.239 67.8524 149.274 78.4211 152.485L139.507 171.044C150.076 174.255 156.041 185.426 152.83 195.995L134.27 257.081C131.059 267.65 119.889 273.614 109.32 270.403L48.2337 251.844C37.665 248.633 31.7004 237.462 34.9114 226.894L53.4708 165.807Z" fill="#4F6B49"/>
</g>
<g filter="url(#filter6_d_1647_88)">
<path fill-rule="evenodd" clip-rule="evenodd" d="M85.1072 130.479L146.194 149.038C168.916 155.942 181.74 179.958 174.836 202.681L156.277 263.768C149.373 286.49 125.357 299.314 102.634 292.41L41.5476 273.851C18.825 266.947 6.0011 242.931 12.9047 220.208L31.4641 159.122C38.3677 136.399 62.3846 123.575 85.1072 130.479ZM78.4211 152.485C67.8524 149.274 56.6818 155.239 53.4708 165.808L34.9115 226.894C31.7005 237.463 37.6651 248.633 48.2337 251.844L109.32 270.404C119.889 273.615 131.059 267.65 134.27 257.081L152.83 195.995C156.041 185.426 150.076 174.256 139.507 171.045L78.4211 152.485Z" fill="white"/>
</g>
<path d="M79.1379 175.726C81.612 174.499 84.612 175.511 85.8385 177.985L115.638 238.096C116.865 240.57 115.854 243.57 113.379 244.797L108.603 247.165C106.129 248.391 103.129 247.38 101.902 244.906L72.1024 184.794C70.8759 182.32 71.8872 179.32 74.3613 178.094L79.1379 175.726Z" fill="white"/>
<path d="M59.5708 229.235C58.1333 226.877 58.8794 223.801 61.2372 222.363L118.523 187.437C120.881 186 123.957 186.746 125.395 189.104L128.17 193.656C129.608 196.014 128.861 199.09 126.504 200.528L69.218 235.453C66.8602 236.891 63.7835 236.145 62.3461 233.787L59.5708 229.235Z" fill="white"/>
</g>
</g>
<defs>
<filter id="filter0_d_1647_88" x="10.0364" y="10.376" width="207.26" height="286.902" filterUnits="userSpaceOnUse" color-interpolation-filters="sRGB">
<feFlood flood-opacity="0" result="BackgroundImageFix"/>
<feColorMatrix in="SourceAlpha" type="matrix" values="0 0 0 0 0 0 0 0 0 0 0 0 0 0 0 0 0 0 127 0" result="hardAlpha"/>
<feOffset dx="1" dy="1"/>
<feGaussianBlur stdDeviation="1"/>
<feColorMatrix type="matrix" values="0 0 0 0 0.6875 0 0 0 0 0.6875 0 0 0 0 0.6875 0 0 0 0.2 0"/>
<feBlend mode="normal" in2="BackgroundImageFix" result="effect1_dropShadow_1647_88"/>
<feBlend mode="normal" in="SourceGraphic" in2="effect1_dropShadow_1647_88" result="shape"/>
</filter>
<filter id="filter1_d_1647_88" x="46.5485" y="10.376" width="170.748" height="170.748" filterUnits="userSpaceOnUse" color-interpolation-filters="sRGB">
<feFlood flood-opacity="0" result="BackgroundImageFix"/>
<feColorMatrix in="SourceAlpha" type="matrix" values="0 0 0 0 0 0 0 0 0 0 0 0 0 0 0 0 0 0 127 0" result="hardAlpha"/>
<feOffset dx="1" dy="1"/>
<feGaussianBlur stdDeviation="1"/>
<feColorMatrix type="matrix" values="0 0 0 0 0.6875 0 0 0 0 0.6875 0 0 0 0 0.6875 0 0 0 0.2 0"/>
<feBlend mode="normal" in2="BackgroundImageFix" result="effect1_dropShadow_1647_88"/>
<feBlend mode="normal" in="SourceGraphic" in2="effect1_dropShadow_1647_88" result="shape"/>
</filter>
<filter id="filter2_d_1647_88" x="69.5548" y="33.3818" width="124.735" height="124.735" filterUnits="userSpaceOnUse" color-interpolation-filters="sRGB">
<feFlood flood-opacity="0" result="BackgroundImageFix"/>
<feColorMatrix in="SourceAlpha" type="matrix" values="0 0 0 0 0 0 0 0 0 0 0 0 0 0 0 0 0 0 127 0" result="hardAlpha"/>
<feOffset dx="1" dy="1"/>
<feGaussianBlur stdDeviation="1"/>
<feColorMatrix type="matrix" values="0 0 0 0 0.6875 0 0 0 0 0.6875 0 0 0 0 0.6875 0 0 0 0.2 0"/>
<feBlend mode="normal" in2="BackgroundImageFix" result="effect1_dropShadow_1647_88"/>
<feBlend mode="normal" in="SourceGraphic" in2="effect1_dropShadow_1647_88" result="shape"/>
</filter>
<filter id="filter3_d_1647_88" x="46.5485" y="10.376" width="170.748" height="170.748" filterUnits="userSpaceOnUse" color-interpolation-filters="sRGB">
<feFlood flood-opacity="0" result="BackgroundImageFix"/>
<feColorMatrix in="SourceAlpha" type="matrix" values="0 0 0 0 0 0 0 0 0 0 0 0 0 0 0 0 0 0 127 0" result="hardAlpha"/>
<feOffset dx="1" dy="1"/>
<feGaussianBlur stdDeviation="1"/>
<feColorMatrix type="matrix" values="0 0 0 0 0.6875 0 0 0 0 0.6875 0 0 0 0 0.6875 0 0 0 0.2 0"/>
<feBlend mode="normal" in2="BackgroundImageFix" result="effect1_dropShadow_1647_88"/>
<feBlend mode="normal" in="SourceGraphic" in2="effect1_dropShadow_1647_88" result="shape"/>
</filter>
<filter id="filter4_d_1647_88" x="10.0364" y="127.61" width="169.668" height="169.668" filterUnits="userSpaceOnUse" color-interpolation-filters="sRGB">
<feFlood flood-opacity="0" result="BackgroundImageFix"/>
<feColorMatrix in="SourceAlpha" type="matrix" values="0 0 0 0 0 0 0 0 0 0 0 0 0 0 0 0 0 0 127 0" result="hardAlpha"/>
<feOffset dx="1" dy="1"/>
<feGaussianBlur stdDeviation="1"/>
<feColorMatrix type="matrix" values="0 0 0 0 0.6875 0 0 0 0 0.6875 0 0 0 0 0.6875 0 0 0 0.2 0"/>
<feBlend mode="normal" in2="BackgroundImageFix" result="effect1_dropShadow_1647_88"/>
<feBlend mode="normal" in="SourceGraphic" in2="effect1_dropShadow_1647_88" result="shape"/>
</filter>
<filter id="filter5_d_1647_88" x="33.0424" y="150.616" width="123.656" height="123.656" filterUnits="userSpaceOnUse" color-interpolation-filters="sRGB">
<feFlood flood-opacity="0" result="BackgroundImageFix"/>
<feColorMatrix in="SourceAlpha" type="matrix" values="0 0 0 0 0 0 0 0 0 0 0 0 0 0 0 0 0 0 127 0" result="hardAlpha"/>
<feOffset dx="1" dy="1"/>
<feGaussianBlur stdDeviation="1"/>
<feColorMatrix type="matrix" values="0 0 0 0 0.6875 0 0 0 0 0.6875 0 0 0 0 0.6875 0 0 0 0.2 0"/>
<feBlend mode="normal" in2="BackgroundImageFix" result="effect1_dropShadow_1647_88"/>
<feBlend mode="normal" in="SourceGraphic" in2="effect1_dropShadow_1647_88" result="shape"/>
</filter>
<filter id="filter6_d_1647_88" x="10.0364" y="127.61" width="169.668" height="169.668" filterUnits="userSpaceOnUse" color-interpolation-filters="sRGB">
<feFlood flood-opacity="0" result="BackgroundImageFix"/>
<feColorMatrix in="SourceAlpha" type="matrix" values="0 0 0 0 0 0 0 0 0 0 0 0 0 0 0 0 0 0 127 0" result="hardAlpha"/>
<feOffset dx="1" dy="1"/>
<feGaussianBlur stdDeviation="1"/>
<feColorMatrix type="matrix" values="0 0 0 0 0.6875 0 0 0 0 0.6875 0 0 0 0 0.6875 0 0 0 0.2 0"/>
<feBlend mode="normal" in2="BackgroundImageFix" result="effect1_dropShadow_1647_88"/>
<feBlend mode="normal" in="SourceGraphic" in2="effect1_dropShadow_1647_88" result="shape"/>
</filter>
</defs>
</svg>
