<svg width="766" height="1020" viewBox="0 0 766 1020" fill="none" xmlns="http://www.w3.org/2000/svg">
<g filter="url(#filter0_d)">
<g filter="url(#filter1_d)">
<path d="M384.311 247.623C397.872 235.857 418.023 235.857 431.585 247.623L464.577 276.247C472.945 283.507 484.186 286.519 495.062 284.415L537.947 276.122C555.575 272.713 573.026 282.789 578.887 299.759L593.148 341.045C596.765 351.516 604.993 359.745 615.464 363.361L656.75 377.622C673.72 383.483 683.796 400.934 680.387 418.562L672.094 461.447C669.99 472.324 673.002 483.564 680.262 491.932L708.886 524.924C720.653 538.486 720.653 558.637 708.886 572.198L680.262 605.191C673.002 613.559 669.99 624.799 672.094 635.676L680.387 678.56C683.796 696.188 673.72 713.639 656.75 719.501L615.464 733.761C604.993 737.378 596.765 745.606 593.148 756.078L578.887 797.363C573.026 814.334 555.575 824.409 537.947 821L495.062 812.707C484.186 810.604 472.945 813.616 464.577 820.876L431.585 849.5C418.023 861.266 397.872 861.266 384.311 849.5L351.318 820.876C342.95 813.616 331.71 810.604 320.833 812.707L277.949 821C260.321 824.409 242.87 814.334 237.008 797.363L222.748 756.078C219.131 745.606 210.903 737.378 200.431 733.761L159.146 719.501C142.175 713.639 132.1 696.188 135.509 678.56L143.802 635.676C145.905 624.799 142.893 613.559 135.633 605.191L107.009 572.198C95.243 558.637 95.2431 538.486 107.009 524.924L135.633 491.932C142.893 483.564 145.905 472.324 143.802 461.447L135.509 418.562C132.1 400.934 142.175 383.483 159.146 377.622L200.431 363.361C210.903 359.745 219.131 351.516 222.748 341.045L237.008 299.759C242.87 282.789 260.321 272.713 277.949 276.122L320.833 284.415C331.71 286.519 342.95 283.507 351.318 276.247L384.311 247.623Z" fill="white"/>
</g>
<path d="M384.311 308.837C397.873 297.071 418.023 297.071 431.585 308.837L451.269 325.915C459.637 333.175 470.877 336.187 481.754 334.083L507.34 329.135C524.968 325.727 542.419 335.802 548.28 352.773L556.788 377.404C560.405 387.876 568.634 396.104 579.105 399.721L603.737 408.229C620.707 414.091 630.783 431.542 627.374 449.169L622.426 474.755C620.323 485.632 623.334 496.872 630.595 505.24L647.672 524.924C659.438 538.486 659.438 558.637 647.672 572.198L630.595 591.882C623.334 600.25 620.323 611.49 622.426 622.367L627.374 647.953C630.783 665.581 620.707 683.032 603.737 688.894L579.105 697.402C568.634 701.018 560.405 709.247 556.788 719.718L548.28 744.35C542.419 761.321 524.968 771.396 507.34 767.987L481.754 763.039C470.877 760.936 459.637 763.948 451.269 771.208L431.585 788.286C418.023 800.052 397.873 800.052 384.311 788.286L364.627 771.208C356.259 763.948 345.019 760.936 334.142 763.039L308.556 767.987C290.928 771.396 273.477 761.321 267.616 744.35L259.108 719.718C255.491 709.247 247.262 701.018 236.791 697.402L212.159 688.894C195.189 683.032 185.113 665.581 188.522 647.953L193.47 622.367C195.573 611.491 192.561 600.25 185.301 591.882L168.224 572.198C156.458 558.637 156.458 538.486 168.224 524.924L185.301 505.24C192.561 496.872 195.573 485.632 193.47 474.755L188.522 449.169C185.113 431.542 195.189 414.091 212.159 408.229L236.791 399.721C247.262 396.104 255.491 387.876 259.108 377.404L267.616 352.773C273.477 335.802 290.928 325.727 308.556 329.135L334.142 334.083C345.019 336.187 356.259 333.175 364.627 325.915L384.311 308.837Z" fill="white"/>
<path fill-rule="evenodd" clip-rule="evenodd" d="M434.723 344.986L415.039 327.908C410.971 324.378 404.925 324.378 400.857 327.908L381.173 344.986C366.947 357.328 347.839 362.448 329.348 358.872L303.762 353.924C298.474 352.902 293.239 355.924 291.48 361.016L282.972 385.647C276.824 403.449 262.835 417.437 245.034 423.586L220.402 432.094C215.311 433.852 212.288 439.087 213.311 444.376L218.259 469.961C221.835 488.452 216.715 507.561 204.372 521.786L187.295 541.47C183.765 545.539 183.765 551.584 187.295 555.652L204.372 575.336C216.715 589.562 221.835 608.67 218.259 627.161L213.311 652.747C212.288 658.035 215.311 663.27 220.402 665.029L245.034 673.537C262.835 679.686 276.824 693.674 282.972 711.475L291.48 736.107C293.239 741.198 298.474 744.221 303.762 743.198L329.348 738.25C347.839 734.675 366.947 739.795 381.173 752.137L400.857 769.214C404.925 772.744 410.971 772.744 415.039 769.214L434.723 752.137C448.949 739.795 468.057 734.675 486.548 738.25L512.133 743.198C517.422 744.221 522.657 741.198 524.416 736.107L532.924 711.475C539.072 693.674 553.061 679.686 570.862 673.537L595.494 665.029C600.585 663.27 603.607 658.035 602.585 652.747L597.637 627.161C594.061 608.67 599.181 589.562 611.524 575.336L628.601 555.652C632.131 551.584 632.131 545.539 628.601 541.47L611.524 521.786C599.181 507.561 594.061 488.452 597.637 469.961L602.585 444.376C603.607 439.087 600.585 433.852 595.494 432.094L570.862 423.586C553.061 417.437 539.072 403.449 532.924 385.647L524.416 361.016C522.657 355.924 517.422 352.902 512.133 353.924L486.548 358.872C468.057 362.448 448.949 357.328 434.723 344.986ZM431.585 308.837C418.023 297.071 397.873 297.071 384.311 308.837L364.627 325.915C356.259 333.175 345.019 336.187 334.142 334.083L308.556 329.135C290.928 325.727 273.477 335.802 267.616 352.773L259.108 377.404C255.491 387.876 247.262 396.104 236.791 399.721L212.159 408.229C195.189 414.091 185.113 431.542 188.522 449.169L193.47 474.755C195.573 485.632 192.561 496.872 185.301 505.24L168.224 524.924C156.458 538.486 156.458 558.637 168.224 572.198L185.301 591.882C192.561 600.25 195.573 611.49 193.47 622.367L188.522 647.953C185.113 665.581 195.189 683.032 212.159 688.894L236.791 697.402C247.262 701.018 255.491 709.247 259.108 719.718L267.616 744.35C273.477 761.321 290.928 771.396 308.556 767.987L334.142 763.039C345.019 760.936 356.259 763.948 364.627 771.208L384.311 788.286C397.873 800.052 418.023 800.052 431.585 788.286L451.269 771.208C459.637 763.948 470.877 760.936 481.754 763.039L507.34 767.987C524.968 771.396 542.419 761.321 548.28 744.35L556.788 719.718C560.405 709.247 568.634 701.018 579.105 697.402L603.737 688.894C620.707 683.032 630.783 665.581 627.374 647.953L622.426 622.367C620.323 611.49 623.334 600.25 630.595 591.882L647.672 572.198C659.438 558.637 659.438 538.486 647.672 524.924L630.595 505.24C623.334 496.872 620.323 485.632 622.426 474.755L627.374 449.169C630.783 431.542 620.707 414.091 603.737 408.229L579.105 399.721C568.634 396.104 560.405 387.876 556.788 377.404L548.28 352.773C542.419 335.802 524.968 325.727 507.34 329.135L481.754 334.083C470.877 336.187 459.637 333.175 451.269 325.915L431.585 308.837Z" fill="#4F6B49"/>
<path d="M384.311 378.601C397.872 366.835 418.023 366.835 431.585 378.601L436.102 382.52C444.47 389.78 455.71 392.792 466.587 390.688L472.458 389.553C490.085 386.144 507.536 396.219 513.398 413.19L515.35 418.842C518.967 429.313 527.196 437.542 537.667 441.159L543.319 443.111C560.29 448.973 570.365 466.424 566.956 484.052L565.821 489.922C563.717 500.799 566.729 512.04 573.989 520.408L577.908 524.924C589.674 538.486 589.674 558.637 577.908 572.198L573.989 576.715C566.729 585.083 563.717 596.323 565.821 607.2L566.956 613.071C570.365 630.699 560.29 648.15 543.319 654.012L537.667 655.964C527.196 659.581 518.967 667.809 515.35 678.281L513.398 683.933C507.536 700.903 490.085 710.979 472.458 707.57L466.587 706.434C455.71 704.331 444.47 707.343 436.101 714.603L431.585 718.521C418.023 730.288 397.872 730.288 384.311 718.521L379.794 714.603C371.426 707.343 360.186 704.331 349.309 706.434L343.438 707.57C325.81 710.979 308.359 700.903 302.497 683.933L300.545 678.281C296.928 667.809 288.7 659.581 278.228 655.964L272.577 654.012C255.606 648.15 245.531 630.699 248.939 613.071L250.075 607.2C252.178 596.323 249.166 585.083 241.906 576.715L237.988 572.198C226.222 558.637 226.222 538.486 237.988 524.924L241.906 520.408C249.166 512.04 252.178 500.799 250.075 489.922L248.939 484.052C245.531 466.424 255.606 448.973 272.577 443.111L278.228 441.159C288.7 437.542 296.928 429.313 300.545 418.842L302.497 413.19C308.359 396.219 325.81 386.144 343.438 389.553L349.309 390.688C360.186 392.792 371.426 389.78 379.794 382.52L384.311 378.601Z" fill="white"/>
<path fill-rule="evenodd" clip-rule="evenodd" d="M419.556 401.591L415.039 397.672C410.97 394.142 404.925 394.142 400.857 397.672L396.34 401.591C382.114 413.933 363.006 419.053 344.515 415.477L338.644 414.342C333.356 413.319 328.121 416.342 326.362 421.433L324.41 427.085C318.261 444.886 304.273 458.875 286.471 465.023L280.82 466.976C275.728 468.734 272.706 473.97 273.728 479.258L274.864 485.129C278.44 503.619 273.319 522.728 260.977 536.954L257.059 541.47C253.529 545.539 253.529 551.584 257.059 555.652L260.977 560.169C273.319 574.395 278.44 593.503 274.864 611.994L273.728 617.865C272.706 623.153 275.728 628.388 280.82 630.147L286.471 632.099C304.273 638.248 318.261 652.236 324.41 670.038L326.362 675.69C328.121 680.781 333.356 683.803 338.644 682.781L344.515 681.645C363.006 678.07 382.114 683.19 396.34 695.532L400.857 699.45C404.925 702.98 410.97 702.98 415.039 699.45L419.556 695.532C433.781 683.19 452.89 678.07 471.38 681.645L477.251 682.781C482.54 683.803 487.775 680.781 489.533 675.69L491.486 670.038C497.634 652.236 511.623 638.248 529.424 632.099L535.076 630.147C540.167 628.388 543.19 623.153 542.167 617.865L541.032 611.994C537.456 593.503 542.576 574.395 554.918 560.169L558.837 555.652C562.367 551.584 562.367 545.539 558.837 541.47L554.918 536.954C542.576 522.728 537.456 503.62 541.032 485.129L542.167 479.258C543.19 473.97 540.167 468.734 535.076 466.976L529.424 465.023C511.623 458.875 497.634 444.886 491.486 427.085L489.533 421.433C487.775 416.342 482.54 413.319 477.251 414.342L471.38 415.477C452.89 419.053 433.781 413.933 419.556 401.591ZM431.585 378.601C418.023 366.835 397.872 366.835 384.311 378.601L379.794 382.52C371.426 389.78 360.186 392.792 349.309 390.688L343.438 389.553C325.81 386.144 308.359 396.219 302.497 413.19L300.545 418.842C296.928 429.313 288.7 437.542 278.228 441.159L272.577 443.111C255.606 448.973 245.531 466.424 248.939 484.052L250.075 489.922C252.178 500.799 249.166 512.04 241.906 520.408L237.988 524.924C226.222 538.486 226.222 558.637 237.988 572.198L241.906 576.715C249.166 585.083 252.178 596.323 250.075 607.2L248.939 613.071C245.531 630.699 255.606 648.15 272.577 654.012L278.228 655.964C288.7 659.581 296.928 667.809 300.545 678.281L302.497 683.933C308.359 700.903 325.81 710.979 343.438 707.57L349.309 706.434C360.186 704.331 371.426 707.343 379.794 714.603L384.311 718.521C397.872 730.288 418.023 730.288 431.585 718.521L436.101 714.603C444.47 707.343 455.71 704.331 466.587 706.434L472.458 707.57C490.085 710.979 507.536 700.903 513.398 683.933L515.35 678.281C518.967 667.809 527.196 659.581 537.667 655.964L543.319 654.012C560.29 648.15 570.365 630.699 566.956 613.071L565.821 607.2C563.717 596.323 566.729 585.083 573.989 576.715L577.908 572.198C589.674 558.637 589.674 538.486 577.908 524.924L573.989 520.408C566.729 512.04 563.717 500.799 565.821 489.922L566.956 484.052C570.365 466.424 560.29 448.973 543.319 443.111L537.667 441.159C527.196 437.542 518.967 429.313 515.35 418.842L513.398 413.19C507.536 396.219 490.085 386.144 472.458 389.553L466.587 390.688C455.71 392.792 444.47 389.78 436.102 382.52L431.585 378.601Z" fill="#4F6B49"/>
<path d="M392.209 449.228C401.239 441.393 414.656 441.393 423.686 449.228V449.228C429.258 454.062 436.742 456.067 443.985 454.667V454.667C455.722 452.397 467.342 459.106 471.245 470.405V470.405C473.653 477.377 479.132 482.856 486.104 485.265V485.265C497.404 489.168 504.112 500.787 501.842 512.524V512.524C500.442 519.767 502.447 527.251 507.281 532.823V532.823C515.116 541.853 515.116 555.27 507.281 564.3V564.3C502.447 569.871 500.442 577.356 501.842 584.598V584.598C504.112 596.335 497.404 607.955 486.104 611.858V611.858C479.132 614.266 473.653 619.745 471.245 626.717V626.717C467.342 638.017 455.722 644.725 443.985 642.456V642.456C436.742 641.055 429.258 643.061 423.686 647.895V647.895C414.656 655.729 401.239 655.729 392.209 647.895V647.895C386.638 643.061 379.153 641.055 371.911 642.456V642.456C360.174 644.725 348.554 638.017 344.651 626.717V626.717C342.243 619.745 336.764 614.266 329.792 611.858V611.858C318.492 607.955 311.784 596.335 314.053 584.598V584.598C315.454 577.356 313.449 569.871 308.615 564.3V564.3C300.78 555.27 300.78 541.853 308.615 532.823V532.823C313.449 527.251 315.454 519.767 314.053 512.524V512.524C311.784 500.787 318.492 489.168 329.792 485.265V485.265C336.764 482.856 342.243 477.377 344.651 470.405V470.405C348.554 459.106 360.174 452.397 371.911 454.667V454.667C379.153 456.067 386.638 454.062 392.209 449.228V449.228Z" fill="white"/>
<path fill-rule="evenodd" clip-rule="evenodd" d="M368.159 479.646C363.171 493.141 352.528 503.785 339.032 508.773C341.46 522.955 337.565 537.493 328.371 548.561C337.565 559.629 341.46 574.168 339.032 588.35C352.528 593.338 363.171 603.981 368.159 617.477C382.341 615.049 396.88 618.944 407.948 628.138C419.016 618.944 433.555 615.049 447.736 617.477C452.724 603.981 463.368 593.338 476.863 588.35C474.435 574.168 478.331 559.629 487.525 548.561C478.331 537.493 474.435 522.955 476.863 508.773C463.368 503.785 452.724 493.141 447.736 479.646C433.555 482.074 419.016 478.178 407.948 468.984C396.88 478.178 382.341 482.074 368.159 479.646ZM423.686 449.228C414.656 441.393 401.239 441.393 392.209 449.228C386.638 454.062 379.153 456.067 371.911 454.667C360.174 452.397 348.554 459.106 344.651 470.405C342.243 477.377 336.764 482.856 329.792 485.265C318.492 489.168 311.784 500.787 314.053 512.524C315.454 519.767 313.449 527.251 308.615 532.823C300.78 541.853 300.78 555.27 308.615 564.3C313.449 569.871 315.454 577.356 314.053 584.598C311.784 596.335 318.492 607.955 329.792 611.858C336.764 614.266 342.243 619.745 344.651 626.717C348.554 638.017 360.174 644.725 371.911 642.456C379.153 641.055 386.638 643.061 392.209 647.895C401.239 655.729 414.656 655.729 423.686 647.895C429.258 643.061 436.742 641.055 443.985 642.456C455.722 644.725 467.342 638.017 471.245 626.717C473.653 619.745 479.132 614.266 486.104 611.858C497.404 607.955 504.112 596.335 501.842 584.598C500.442 577.356 502.447 569.871 507.281 564.3C515.116 555.27 515.116 541.853 507.281 532.823C502.447 527.251 500.442 519.767 501.842 512.524C504.112 500.787 497.404 489.168 486.104 485.265C479.132 482.856 473.653 477.377 471.245 470.405C467.342 459.106 455.722 452.397 443.985 454.667C436.742 456.067 429.258 454.062 423.686 449.228Z" fill="#4F6B49"/>
</g>
<g filter="url(#filter2_d)">
<path d="M542.489 584.205H494.033C486.418 584.205 480.188 590.435 480.188 598.05C480.188 728.053 585.547 833.412 715.55 833.412C723.164 833.412 729.395 827.182 729.395 819.567V771.249C729.395 763.634 723.164 757.404 715.55 757.404C698.382 757.404 681.63 754.635 666.124 749.513C664.739 748.959 663.216 748.82 661.832 748.82C658.232 748.82 654.771 750.205 652.002 752.835L621.543 783.294C582.363 763.219 550.243 731.237 530.306 692.056L560.765 661.598C564.641 657.721 565.749 652.322 564.226 647.476C559.103 631.97 556.334 615.356 556.334 598.05C556.334 590.435 550.104 584.205 542.489 584.205Z" fill="#4F6B49"/>
</g>
<g filter="url(#filter3_d)">
<path fill-rule="evenodd" clip-rule="evenodd" d="M628.713 728.941L629.023 728.647C637.782 720.325 649.394 715.457 661.832 715.457C664.788 715.457 670.581 715.663 677.122 718.007C689.113 721.906 702.145 724.04 715.55 724.04C741.591 724.04 762.758 745.208 762.758 771.249V819.567C762.758 845.608 741.591 866.776 715.55 866.776C567.121 866.776 446.824 746.479 446.824 598.05C446.824 572.009 467.992 550.842 494.033 550.842H542.489C568.53 550.842 589.698 572.009 589.698 598.05C589.698 611.777 591.891 624.859 595.906 637.01L595.982 637.241L596.055 637.473C601.139 653.649 597.407 672.139 584.356 685.19L572.243 697.303C584.165 714.432 599.121 729.36 616.323 741.331L628.713 728.941ZM560.765 661.598C564.641 657.721 565.749 652.322 564.226 647.476C559.103 631.97 556.334 615.356 556.334 598.05C556.334 590.435 550.104 584.205 542.489 584.205H494.033C486.418 584.205 480.188 590.435 480.188 598.05C480.188 626.963 485.399 654.658 494.934 680.245C498.049 688.602 501.624 696.735 505.63 704.612C528.223 749.037 564.502 785.328 608.918 807.934C616.817 811.955 624.973 815.542 633.355 818.666C658.942 828.201 686.637 833.412 715.55 833.412C723.164 833.412 729.395 827.182 729.395 819.567V771.249C729.395 763.634 723.164 757.404 715.55 757.404C698.382 757.404 681.63 754.635 666.124 749.512C664.739 748.959 663.216 748.82 661.832 748.82C658.232 748.82 654.771 750.205 652.002 752.835L621.543 783.294C582.363 763.219 550.243 731.237 530.306 692.056L560.765 661.598Z" fill="white"/>
</g>
<path d="M291.569 831.61C291.569 884.186 248.947 926.807 196.371 926.807C143.795 926.807 101.174 884.186 101.174 831.61C101.174 779.034 143.795 736.412 196.371 736.412C248.947 736.412 291.569 779.034 291.569 831.61Z" fill="white"/>
<path fill-rule="evenodd" clip-rule="evenodd" d="M320.424 831.61C320.424 900.122 264.883 955.663 196.371 955.663C127.859 955.663 72.3186 900.122 72.3186 831.61C72.3186 763.098 127.859 707.558 196.371 707.558C264.883 707.558 320.424 763.098 320.424 831.61ZM196.371 926.808C248.947 926.808 291.569 884.186 291.569 831.61C291.569 779.034 248.947 736.413 196.371 736.413C143.795 736.413 101.174 779.034 101.174 831.61C101.174 884.186 143.795 926.808 196.371 926.808Z" fill="#4F6B49"/>
<g filter="url(#filter4_d)">
<path fill-rule="evenodd" clip-rule="evenodd" d="M324.226 831.871C324.226 902.339 267.1 959.465 196.632 959.465C126.164 959.465 69.0386 902.339 69.0386 831.871C69.0386 761.403 126.164 704.277 196.632 704.277C267.1 704.277 324.226 761.403 324.226 831.871ZM196.632 943.234C258.136 943.234 307.995 893.375 307.995 831.871C307.995 770.367 258.136 720.508 196.632 720.508C135.128 720.508 85.2696 770.367 85.2696 831.871C85.2696 893.375 135.128 943.234 196.632 943.234Z" fill="white"/>
</g>
<path d="M176.842 767.398L194.991 771.923L181.868 824.555L163.719 820.03L176.842 767.398Z" fill="#4F6B49"/>
<path d="M224.03 779.163L242.179 783.688L229.056 836.32L210.907 831.795L224.03 779.163Z" fill="#4F6B49"/>
<path fill-rule="evenodd" clip-rule="evenodd" d="M128.516 827.813C122.258 828.636 122.258 828.639 122.259 828.642L122.26 828.65L122.262 828.668L122.269 828.717C122.274 828.755 122.281 828.805 122.29 828.866C122.308 828.989 122.334 829.156 122.368 829.365C122.436 829.783 122.538 830.37 122.684 831.105C122.976 832.575 123.441 834.643 124.151 837.143C125.568 842.129 127.978 848.904 131.974 856.09C139.998 870.522 154.524 886.746 180.056 893.112C205.589 899.478 226.032 891.972 239.892 882.997C246.793 878.528 252.102 873.678 255.694 869.94C257.494 868.066 258.876 866.459 259.823 865.298C260.297 864.717 260.664 864.247 260.92 863.91C261.048 863.741 261.149 863.606 261.222 863.506C261.259 863.456 261.289 863.416 261.312 863.384L261.341 863.344L261.351 863.329L261.356 863.323C261.357 863.32 261.359 863.318 256.22 859.653L261.359 863.318L265.024 858.178L254.744 850.85L251.089 855.977L251.089 855.977L251.087 855.979L251.08 855.989L251.055 856.024C251.02 856.071 250.959 856.153 250.872 856.268C250.698 856.496 250.421 856.853 250.043 857.316C249.286 858.243 248.13 859.592 246.591 861.193C243.505 864.404 238.935 868.577 233.03 872.401C221.278 880.011 204.402 886.172 183.11 880.863C161.818 875.555 149.811 862.192 143.007 849.955C139.589 843.807 137.512 837.977 136.295 833.693C135.688 831.557 135.3 829.823 135.067 828.649C134.951 828.063 134.874 827.618 134.827 827.335C134.804 827.193 134.789 827.092 134.781 827.034L134.773 826.979L133.952 820.733L121.435 822.378L122.258 828.636L128.516 827.813Z" fill="#4F6B49"/>
<g filter="url(#filter5_d)">
<g filter="url(#filter6_d)">
<path fill-rule="evenodd" clip-rule="evenodd" d="M237.103 308.305C270.411 341.396 320.536 355.282 368.379 340.076C436.895 318.298 474.784 245.101 453.007 176.585C431.229 108.069 358.032 70.1798 289.516 91.9573C241.673 107.164 208.763 147.442 200.674 193.691L60.0372 238.392C28.3875 248.452 10.8855 282.264 20.9452 313.914C31.0048 345.563 64.8169 363.065 96.4665 353.006L237.103 308.305ZM197.586 234.412L211.071 276.84L84.9945 316.913C73.2785 320.636 60.7621 314.158 57.0382 302.442C53.3143 290.726 59.7932 278.209 71.5092 274.485L197.586 234.412ZM356.907 303.983C308.325 319.424 256.423 292.558 240.981 243.976C225.54 195.394 252.405 143.492 300.988 128.05C349.57 112.609 401.472 139.475 416.914 188.057C432.355 236.639 405.49 288.541 356.907 303.983Z" fill="white"/>
</g>
<path d="M309.087 284.288C271.151 270.204 251.815 228.033 265.898 190.097C279.982 152.16 322.153 132.824 360.089 146.908C398.026 160.992 417.362 203.162 403.278 241.099C389.194 279.035 347.024 298.372 309.087 284.288Z" fill="white"/>
<path fill-rule="evenodd" clip-rule="evenodd" d="M197.586 234.412L211.071 276.84L84.9946 316.912C73.2786 320.636 60.7621 314.157 57.0382 302.441C53.3144 290.726 59.7933 278.209 71.5092 274.485L197.586 234.412ZM277.074 232.504C286.18 261.153 316.786 276.995 345.435 267.889C374.084 258.784 389.926 228.178 380.821 199.529C371.715 170.88 341.109 155.037 312.46 164.143C283.811 173.249 267.969 203.855 277.074 232.504ZM356.907 303.983C308.325 319.424 256.423 292.558 240.981 243.976C225.54 195.394 252.406 143.492 300.988 128.05C349.57 112.609 401.472 139.474 416.914 188.057C432.355 236.639 405.49 288.541 356.907 303.983Z" fill="#4F6B49"/>
</g>
<defs>
<filter id="filter0_d" x="97.1846" y="237.798" width="623.526" height="623.526" filterUnits="userSpaceOnUse" color-interpolation-filters="sRGB">
<feFlood flood-opacity="0" result="BackgroundImageFix"/>
<feColorMatrix in="SourceAlpha" type="matrix" values="0 0 0 0 0 0 0 0 0 0 0 0 0 0 0 0 0 0 127 0" result="hardAlpha"/>
<feOffset dx="1" dy="1"/>
<feGaussianBlur stdDeviation="1"/>
<feColorMatrix type="matrix" values="0 0 0 0 0.6875 0 0 0 0 0.6875 0 0 0 0 0.6875 0 0 0 0.2 0"/>
<feBlend mode="normal" in2="BackgroundImageFix" result="effect1_dropShadow"/>
<feBlend mode="normal" in="SourceGraphic" in2="effect1_dropShadow" result="shape"/>
</filter>
<filter id="filter1_d" x="97.1846" y="237.798" width="623.526" height="623.526" filterUnits="userSpaceOnUse" color-interpolation-filters="sRGB">
<feFlood flood-opacity="0" result="BackgroundImageFix"/>
<feColorMatrix in="SourceAlpha" type="matrix" values="0 0 0 0 0 0 0 0 0 0 0 0 0 0 0 0 0 0 127 0" result="hardAlpha"/>
<feOffset dx="1" dy="1"/>
<feGaussianBlur stdDeviation="1"/>
<feColorMatrix type="matrix" values="0 0 0 0 0.6875 0 0 0 0 0.6875 0 0 0 0 0.6875 0 0 0 0.2 0"/>
<feBlend mode="normal" in2="BackgroundImageFix" result="effect1_dropShadow"/>
<feBlend mode="normal" in="SourceGraphic" in2="effect1_dropShadow" result="shape"/>
</filter>
<filter id="filter2_d" x="479.188" y="583.205" width="253.207" height="253.207" filterUnits="userSpaceOnUse" color-interpolation-filters="sRGB">
<feFlood flood-opacity="0" result="BackgroundImageFix"/>
<feColorMatrix in="SourceAlpha" type="matrix" values="0 0 0 0 0 0 0 0 0 0 0 0 0 0 0 0 0 0 127 0" result="hardAlpha"/>
<feOffset dx="1" dy="1"/>
<feGaussianBlur stdDeviation="1"/>
<feColorMatrix type="matrix" values="0 0 0 0 0.6875 0 0 0 0 0.6875 0 0 0 0 0.6875 0 0 0 0.2 0"/>
<feBlend mode="normal" in2="BackgroundImageFix" result="effect1_dropShadow"/>
<feBlend mode="normal" in="SourceGraphic" in2="effect1_dropShadow" result="shape"/>
</filter>
<filter id="filter3_d" x="445.824" y="549.842" width="319.934" height="319.934" filterUnits="userSpaceOnUse" color-interpolation-filters="sRGB">
<feFlood flood-opacity="0" result="BackgroundImageFix"/>
<feColorMatrix in="SourceAlpha" type="matrix" values="0 0 0 0 0 0 0 0 0 0 0 0 0 0 0 0 0 0 127 0" result="hardAlpha"/>
<feOffset dx="1" dy="1"/>
<feGaussianBlur stdDeviation="1"/>
<feColorMatrix type="matrix" values="0 0 0 0 0.6875 0 0 0 0 0.6875 0 0 0 0 0.6875 0 0 0 0.2 0"/>
<feBlend mode="normal" in2="BackgroundImageFix" result="effect1_dropShadow"/>
<feBlend mode="normal" in="SourceGraphic" in2="effect1_dropShadow" result="shape"/>
</filter>
<filter id="filter4_d" x="68.0386" y="703.277" width="259.188" height="259.188" filterUnits="userSpaceOnUse" color-interpolation-filters="sRGB">
<feFlood flood-opacity="0" result="BackgroundImageFix"/>
<feColorMatrix in="SourceAlpha" type="matrix" values="0 0 0 0 0 0 0 0 0 0 0 0 0 0 0 0 0 0 127 0" result="hardAlpha"/>
<feOffset dx="1" dy="1"/>
<feGaussianBlur stdDeviation="1"/>
<feColorMatrix type="matrix" values="0 0 0 0 0.6875 0 0 0 0 0.6875 0 0 0 0 0.6875 0 0 0 0.2 0"/>
<feBlend mode="normal" in2="BackgroundImageFix" result="effect1_dropShadow"/>
<feBlend mode="normal" in="SourceGraphic" in2="effect1_dropShadow" result="shape"/>
</filter>
<filter id="filter5_d" x="17.104" y="84.8064" width="445.054" height="274.04" filterUnits="userSpaceOnUse" color-interpolation-filters="sRGB">
<feFlood flood-opacity="0" result="BackgroundImageFix"/>
<feColorMatrix in="SourceAlpha" type="matrix" values="0 0 0 0 0 0 0 0 0 0 0 0 0 0 0 0 0 0 127 0" result="hardAlpha"/>
<feOffset dx="1" dy="1"/>
<feGaussianBlur stdDeviation="1"/>
<feColorMatrix type="matrix" values="0 0 0 0 0.6875 0 0 0 0 0.6875 0 0 0 0 0.6875 0 0 0 0.2 0"/>
<feBlend mode="normal" in2="BackgroundImageFix" result="effect1_dropShadow"/>
<feBlend mode="normal" in="SourceGraphic" in2="effect1_dropShadow" result="shape"/>
</filter>
<filter id="filter6_d" x="17.104" y="84.8064" width="445.054" height="274.04" filterUnits="userSpaceOnUse" color-interpolation-filters="sRGB">
<feFlood flood-opacity="0" result="BackgroundImageFix"/>
<feColorMatrix in="SourceAlpha" type="matrix" values="0 0 0 0 0 0 0 0 0 0 0 0 0 0 0 0 0 0 127 0" result="hardAlpha"/>
<feOffset dx="1" dy="1"/>
<feGaussianBlur stdDeviation="1"/>
<feColorMatrix type="matrix" values="0 0 0 0 0.6875 0 0 0 0 0.6875 0 0 0 0 0.6875 0 0 0 0.2 0"/>
<feBlend mode="normal" in2="BackgroundImageFix" result="effect1_dropShadow"/>
<feBlend mode="normal" in="SourceGraphic" in2="effect1_dropShadow" result="shape"/>
</filter>
</defs>
</svg>
