<svg width="271" height="184" viewBox="0 0 271 184" fill="none" xmlns="http://www.w3.org/2000/svg">
<g filter="url(#filter0_d_1647_119)">
<g filter="url(#filter1_d_1647_119)">
<path fill-rule="evenodd" clip-rule="evenodd" d="M175.154 101.095C176.931 106.387 176.073 112.211 172.846 116.767L135.359 169.686C132.141 174.229 126.952 176.967 121.386 177.061C115.82 177.155 110.542 174.593 107.173 170.161L100.365 161.207C82.6255 137.875 58.1587 120.543 30.2631 111.548L19.5574 108.096C14.259 106.388 10.0909 102.259 8.33293 96.9765C6.57501 91.6944 7.43745 85.8908 10.6554 81.3482L48.1423 28.429C51.3697 23.873 56.5788 21.1323 62.1614 21.0529C67.7441 20.9735 73.0291 23.565 76.3847 28.0274L82.6452 36.3527C100.572 60.1917 125.49 77.8431 153.925 86.8462L163.856 89.9904C169.179 91.6757 173.377 95.8017 175.154 101.095ZM158.578 106.66L148.648 103.516C146.138 102.721 143.653 101.866 141.194 100.953C114.851 91.1685 91.5297 74.6479 73.5608 53.0432C71.8835 51.0264 70.2528 48.9654 68.6706 46.8614L62.4101 38.536L24.9231 91.4552L35.6289 94.9071C37.8637 95.6277 40.0789 96.396 42.2731 97.211C68.6155 106.996 91.9369 123.516 109.906 145.121C111.403 146.92 112.862 148.755 114.284 150.625L121.091 159.579L158.578 106.66Z" fill="white"/>
<path d="M158.578 106.66L121.091 159.579L114.284 150.625C94.38 124.446 66.928 105 35.6289 94.9075L24.9232 91.4556L62.4101 38.5364L68.6706 46.8618C88.7842 73.6092 116.742 93.4143 148.648 103.516L158.578 106.66Z" fill="white"/>
<path fill-rule="evenodd" clip-rule="evenodd" d="M167.354 103.714C168.294 106.516 167.841 109.599 166.132 112.011L128.645 164.93C126.941 167.335 124.194 168.785 121.248 168.834C118.301 168.884 115.506 167.528 113.723 165.181L106.915 156.227C88.1571 131.555 62.2854 113.228 32.7882 103.717L22.0825 100.265C19.2775 99.3608 17.0708 97.1747 16.1401 94.3783C15.2095 91.5819 15.6661 88.5094 17.3697 86.1045L54.8566 33.1853C56.5652 30.7733 59.323 29.3224 62.2785 29.2803C65.234 29.2383 68.0319 30.6103 69.8084 32.9727L76.0689 41.2981C95.0246 66.5057 121.373 85.1706 151.442 94.6907L161.372 97.8349C164.19 98.7271 166.413 100.911 167.354 103.714ZM158.578 106.66L148.648 103.516C116.742 93.414 88.7842 73.6089 68.6706 46.8614L62.4101 38.5361L24.9232 91.4553L35.6289 94.9072C66.928 104.999 94.38 124.446 114.284 150.625L121.091 159.579L158.578 106.66Z" fill="#4F6B49"/>
<path fill-rule="evenodd" clip-rule="evenodd" d="M141.881 138.07C129.771 129.366 102.812 110.094 91.7076 102.527C84.7829 97.8087 71.3615 89.1431 59.3874 81.459C55.3822 78.8887 51.5261 76.4203 48.1323 74.2477C41.448 69.9687 36.5569 66.8376 35.8515 66.3379C34.6927 65.5171 34.4187 63.9122 35.2396 62.7534C36.0605 61.5946 37.6653 61.3207 38.8241 62.1415C39.4289 62.57 43.9771 65.4815 50.3692 69.5733C53.8642 71.8106 57.9105 74.4008 62.1648 77.1309C74.1198 84.8028 87.6076 93.5105 94.6035 98.2776C105.772 105.888 132.789 125.202 144.883 133.894C146.036 134.723 146.299 136.33 145.47 137.483C144.641 138.636 143.035 138.899 141.881 138.07Z" fill="#4F6B49"/>
<path fill-rule="evenodd" clip-rule="evenodd" d="M108.891 77.1305C109.818 77.7872 110.037 79.071 109.38 79.9981L78.7573 123.228C78.1006 124.155 76.8167 124.374 75.8897 123.717C74.9626 123.061 74.7435 121.777 75.4002 120.85L106.023 77.62C106.68 76.6929 107.964 76.4738 108.891 77.1305Z" fill="#4F6B49"/>
<path fill-rule="evenodd" clip-rule="evenodd" d="M80.7537 51.6894C81.9125 52.5103 82.1865 54.1152 81.3656 55.274L47.2022 103.501C46.3813 104.66 44.7765 104.934 43.6177 104.113C42.4589 103.292 42.1849 101.688 43.0058 100.529L77.1692 52.3013C77.9901 51.1425 79.5949 50.8686 80.7537 51.6894ZM139.195 94.214C140.354 95.0349 140.628 96.6398 139.807 97.7986L105.998 145.526C105.177 146.685 103.572 146.959 102.413 146.138C101.254 145.317 100.98 143.712 101.801 142.554L135.611 94.8259C136.431 93.6671 138.036 93.3932 139.195 94.214Z" fill="#4F6B49"/>
</g>
<path fill-rule="evenodd" clip-rule="evenodd" d="M123.066 90.0184C120.344 97.771 124.422 106.263 132.174 108.985L186.188 127.952C189.91 129.259 193.998 129.034 197.554 127.328L234.069 109.805C237.628 108.097 240.362 105.045 241.67 101.321L260.58 47.4684C263.296 39.7336 259.244 31.2592 251.518 28.5179L197.61 9.39032C193.877 8.06571 189.769 8.28456 186.198 9.99837L149.623 27.5499C146.065 29.2577 143.331 32.3096 142.023 36.0339L123.066 90.0184Z" fill="white"/>
<path fill-rule="evenodd" clip-rule="evenodd" d="M190.909 19.8154C191.867 19.356 192.967 19.2974 193.968 19.6524L247.876 38.78C249.947 39.5147 251.033 41.7862 250.305 43.8594L231.395 97.7119C231.044 98.7102 230.311 99.5282 229.357 99.9859L192.842 117.509C191.889 117.966 190.793 118.027 189.796 117.676L135.782 98.7092C133.704 97.9795 132.611 95.7034 133.341 93.6254L152.298 39.6409C152.648 38.6427 153.381 37.8247 154.335 37.3669L155.416 39.6208L154.335 37.3669L190.909 19.8154L191.991 22.0693L192.23 22.5682M190.909 19.8154L191.991 22.0693ZM236.627 43.064L192.869 27.7212L166.468 40.3906L209.977 55.6687L236.627 43.064ZM198.098 106.14L224.417 93.5104L239.592 50.2971L213.416 62.8584L198.098 106.14ZM158.501 46.0459L142.187 92.5053L188.685 108.833L205.113 62.4137L158.501 46.0459Z" fill="#4F6B49"/>
</g>
<defs>
<filter id="filter0_d_1647_119" x="6.43811" y="7.53418" width="257.986" height="172.529" filterUnits="userSpaceOnUse" color-interpolation-filters="sRGB">
<feFlood flood-opacity="0" result="BackgroundImageFix"/>
<feColorMatrix in="SourceAlpha" type="matrix" values="0 0 0 0 0 0 0 0 0 0 0 0 0 0 0 0 0 0 127 0" result="hardAlpha"/>
<feOffset dx="1" dy="1"/>
<feGaussianBlur stdDeviation="1"/>
<feColorMatrix type="matrix" values="0 0 0 0 0.6875 0 0 0 0 0.6875 0 0 0 0 0.6875 0 0 0 0.2 0"/>
<feBlend mode="normal" in2="BackgroundImageFix" result="effect1_dropShadow_1647_119"/>
<feBlend mode="normal" in="SourceGraphic" in2="effect1_dropShadow_1647_119" result="shape"/>
</filter>
<filter id="filter1_d_1647_119" x="6.43811" y="20.0508" width="172.625" height="160.013" filterUnits="userSpaceOnUse" color-interpolation-filters="sRGB">
<feFlood flood-opacity="0" result="BackgroundImageFix"/>
<feColorMatrix in="SourceAlpha" type="matrix" values="0 0 0 0 0 0 0 0 0 0 0 0 0 0 0 0 0 0 127 0" result="hardAlpha"/>
<feOffset dx="1" dy="1"/>
<feGaussianBlur stdDeviation="1"/>
<feColorMatrix type="matrix" values="0 0 0 0 0.6875 0 0 0 0 0.6875 0 0 0 0 0.6875 0 0 0 0.2 0"/>
<feBlend mode="normal" in2="BackgroundImageFix" result="effect1_dropShadow_1647_119"/>
<feBlend mode="normal" in="SourceGraphic" in2="effect1_dropShadow_1647_119" result="shape"/>
</filter>
</defs>
</svg>
