<svg width="828" height="680" viewBox="0 0 828 680" fill="none" xmlns="http://www.w3.org/2000/svg">
<path fill-rule="evenodd" clip-rule="evenodd" d="M429.925 552.277C402.138 614.048 352.713 664.575 284.569 676.892C216.426 689.21 152.44 659.183 104.786 611.049C56.9534 562.734 21.6662 492.998 7.34661 413.779C-6.97294 334.56 1.66796 256.883 29.5597 194.88C57.3474 133.109 106.773 82.5826 174.916 70.2651C243.059 57.9476 307.045 87.9739 354.699 136.108C364.867 146.379 374.469 157.618 383.422 169.71C387.576 155.249 392.635 141.36 398.564 128.179C426.352 66.4081 475.777 15.8816 543.92 3.56408C612.064 -8.75344 676.05 21.2729 723.704 69.4074C771.536 117.722 806.824 187.459 821.143 266.678C835.463 345.896 826.822 423.573 798.93 485.576C771.142 547.347 721.717 597.874 653.574 610.191C585.431 622.509 521.445 592.482 473.791 544.348C463.622 534.077 454.021 522.838 445.068 510.746C440.914 525.208 435.855 539.097 429.925 552.277ZM410.176 452.536C398.119 546.162 347.733 618.729 276.387 631.626C178.561 649.309 78.374 548.112 52.613 405.596C26.852 263.081 85.2722 133.214 183.098 115.532C254.444 102.635 327.046 152.971 371.116 236.452C387.473 267.435 399.899 302.984 406.872 341.561C413.845 380.137 414.65 417.787 410.176 452.536ZM457.373 444.005C501.444 527.485 574.045 577.821 645.392 564.925C743.218 547.242 801.638 417.375 775.877 274.86C750.116 132.344 649.929 31.1476 552.103 48.8305C480.757 61.727 430.371 134.294 418.314 227.92C413.839 262.669 414.645 300.319 421.618 338.895C428.591 377.472 441.017 413.021 457.373 444.005Z" fill="white"/>
<path d="M406.872 341.561C432.633 484.076 374.213 613.943 276.387 631.626C178.561 649.309 78.374 548.112 52.613 405.596C26.852 263.081 85.2722 133.214 183.098 115.532C280.924 97.8486 381.111 199.045 406.872 341.561Z" fill="white"/>
<path fill-rule="evenodd" clip-rule="evenodd" d="M363.351 522.329C384.453 475.42 392.338 412.948 380.303 346.364C368.267 279.779 339.01 224.021 302.822 187.468C266.529 150.809 225.526 135.3 187.901 142.101C150.275 148.902 117.297 177.784 96.1338 224.829C75.032 271.737 67.1466 334.209 79.1825 400.794C91.2183 467.379 120.475 523.137 156.663 559.69C192.956 596.349 233.959 611.858 271.584 605.056C309.21 598.255 342.188 569.373 363.351 522.329ZM276.387 631.626C374.213 613.943 432.633 484.076 406.872 341.561C381.111 199.045 280.924 97.8486 183.098 115.532C85.2722 133.214 26.852 263.081 52.613 405.596C78.374 548.112 178.561 649.309 276.387 631.626Z" fill="#4F6B49"/>
<path fill-rule="evenodd" clip-rule="evenodd" d="M177.727 319.631C135.273 331.006 117.244 401.387 137.459 476.83C157.674 552.273 208.477 604.21 250.932 592.834C285.569 583.553 303.947 534.998 298.564 476.462L228.644 442.002L280.61 404.455C256.444 346.475 214.033 309.903 177.727 319.631Z" fill="#4F6B49"/>
<path d="M775.877 274.86C801.638 417.375 743.218 547.242 645.392 564.925C547.566 582.608 447.379 481.411 421.618 338.895C395.857 196.38 454.277 66.5135 552.103 48.8305C649.929 31.1476 750.116 132.344 775.877 274.86Z" fill="white"/>
<path fill-rule="evenodd" clip-rule="evenodd" d="M732.356 455.628C753.458 408.719 761.343 346.247 749.307 279.663C737.271 213.078 708.015 157.32 671.827 120.767C635.534 84.1078 594.531 68.5988 556.905 75.3999C519.28 82.2011 486.301 111.083 465.138 158.128C444.037 205.036 436.151 267.508 448.187 334.093C460.223 400.678 489.479 456.436 525.668 492.989C561.961 529.648 602.963 545.157 640.589 538.355C678.215 531.554 711.193 502.672 732.356 455.628ZM645.392 564.925C743.218 547.242 801.638 417.375 775.877 274.86C750.116 132.344 649.929 31.1476 552.103 48.8305C454.277 66.5135 395.857 196.38 421.618 338.895C447.379 481.411 547.566 582.608 645.392 564.925Z" fill="#4F6B49"/>
<path fill-rule="evenodd" clip-rule="evenodd" d="M533.871 236.685C489.492 248.576 469.904 319.374 490.119 394.817C510.334 470.26 562.697 521.779 607.075 509.888C643.281 500.187 662.987 451.276 658.039 392.623L585.553 358.85L640.142 320.601C615.611 262.719 571.821 226.516 533.871 236.685Z" fill="#4F6B49"/>
</svg>
