<svg width="426" height="386" viewBox="0 0 426 386" fill="none" xmlns="http://www.w3.org/2000/svg">
<path fill-rule="evenodd" clip-rule="evenodd" d="M177.868 296.452C183.716 330.774 201.781 362.295 234.093 377.224C266.406 392.152 302.119 385.477 332.044 367.683C362.082 349.822 388.644 319.683 406 282.119C423.355 244.555 429.087 204.792 423.217 170.342C417.37 136.02 399.305 104.499 366.992 89.5703C334.68 74.6417 298.967 81.3172 269.041 99.1112C262.656 102.908 256.428 107.26 250.411 112.12C250.212 104.388 249.489 96.8247 248.241 89.5013C242.393 55.1797 224.328 23.6583 192.016 8.72958C159.703 -6.1991 123.991 0.476454 94.0649 18.2704C64.0272 36.1311 37.4646 66.2699 20.1095 103.834C2.75443 141.399 -2.97809 181.161 2.89154 215.611C8.73928 249.933 26.8045 281.454 59.117 296.383C91.4295 311.312 127.142 304.636 157.068 286.842C163.453 283.045 169.682 278.694 175.698 273.834C175.897 281.565 176.62 289.129 177.868 296.452ZM200.575 249.379C194.482 297.517 210.179 340.129 244.01 355.759C290.398 377.191 353.313 339.781 384.535 272.202C415.757 204.624 403.463 132.466 357.075 111.035C323.244 95.4046 280.622 111.072 247.914 146.915C235.775 160.218 225.002 176.299 216.551 194.592C208.099 212.884 202.836 231.512 200.575 249.379ZM178.195 239.039C145.487 274.881 102.865 290.549 69.0339 274.918C22.6463 253.487 10.3522 181.33 41.5742 113.751C72.7962 46.1724 135.711 8.76274 182.099 30.1942C215.93 45.8246 231.627 88.436 225.534 136.575C223.273 154.441 218.01 173.069 209.558 191.361C201.107 209.654 190.334 225.736 178.195 239.039Z" fill="white"/>
<path d="M216.551 194.592C185.329 262.171 197.623 334.328 244.01 355.759C290.398 377.191 353.313 339.781 384.535 272.202C415.757 204.624 403.463 132.466 357.075 111.035C310.688 89.6035 247.773 127.013 216.551 194.592Z" fill="white"/>
<path fill-rule="evenodd" clip-rule="evenodd" d="M214.858 290.15C210.417 264.086 214.562 231.986 229.149 200.413C243.737 168.839 265.493 144.876 288.219 131.364C311.01 117.812 333.413 115.391 351.254 123.634C369.096 131.877 381.774 150.505 386.227 176.644C390.668 202.708 386.523 234.808 371.936 266.381C357.349 297.955 335.592 321.918 312.867 335.431C290.075 348.982 267.673 351.403 249.831 343.16C231.99 334.917 219.312 316.289 214.858 290.15ZM244.01 355.759C197.623 334.328 185.329 262.171 216.551 194.592C247.773 127.013 310.688 89.6035 357.075 111.035C403.463 132.466 415.757 204.624 384.535 272.202C353.313 339.781 290.398 377.191 244.01 355.759Z" fill="#4F6B49"/>
<path fill-rule="evenodd" clip-rule="evenodd" d="M331.667 202.941C351.32 214.084 351.201 251.428 331.4 286.353C311.6 321.277 279.616 340.556 259.963 329.414C243.928 320.323 241.055 293.792 251.293 265.364L290.531 257.249L269.525 231.857C289.036 206.131 314.86 193.413 331.667 202.941Z" fill="#4F6B49"/>
<path d="M41.5742 113.751C10.3522 181.33 22.6463 253.487 69.0339 274.918C115.421 296.35 178.336 258.94 209.558 191.361C240.78 123.783 228.486 51.6257 182.099 30.1942C135.711 8.76274 72.7962 46.1724 41.5742 113.751Z" fill="white"/>
<path fill-rule="evenodd" clip-rule="evenodd" d="M39.8817 209.309C35.441 183.245 39.5857 151.145 54.173 119.572C68.7603 87.9984 90.517 64.0355 113.242 50.5228C136.034 36.971 158.436 34.5501 176.278 42.7931C194.119 51.036 206.797 69.6645 211.251 95.8037C215.692 121.867 211.547 153.967 196.96 185.541C182.372 217.114 160.616 241.077 137.89 254.59C115.099 268.142 92.6962 270.562 74.8547 262.32C57.0132 254.077 44.3353 235.448 39.8817 209.309ZM69.0339 274.918C22.6463 253.487 10.3522 181.33 41.5742 113.751C72.7962 46.1724 135.711 8.76274 182.099 30.1942C228.486 51.6257 240.78 123.783 209.558 191.361C178.336 258.94 115.421 296.35 69.0339 274.918Z" fill="#4F6B49"/>
<path fill-rule="evenodd" clip-rule="evenodd" d="M165.621 119.778C186.165 131.426 186.767 169.18 166.966 204.104C147.166 239.029 114.46 257.898 93.9165 246.251C77.1559 236.749 73.6684 209.869 83.7048 181.327L124.13 173.885L101.91 147.805C121.59 122.175 148.052 109.818 165.621 119.778Z" fill="#4F6B49"/>
</svg>
