<svg width="848" height="622" viewBox="0 0 848 622" fill="none" xmlns="http://www.w3.org/2000/svg">
<g filter="url(#filter0_d)">
<g filter="url(#filter1_d)">
<mask id="path-1-outside-1" maskUnits="userSpaceOnUse" x="1.00874" y="76.0544" width="561.908" height="517.252" fill="black">
<rect fill="white" x="1.00874" y="76.0544" width="561.908" height="517.252"/>
<path fill-rule="evenodd" clip-rule="evenodd" d="M208.434 134.035C192.172 124.646 171.378 130.218 161.99 146.48L59.198 324.52C49.8091 340.782 55.3809 361.576 71.6428 370.965L354.985 534.553C371.247 543.942 392.041 538.37 401.43 522.108L504.222 344.068C513.61 327.806 508.039 307.012 491.777 297.623L208.434 134.035Z"/>
</mask>
<path d="M161.99 146.48L136.009 131.48L161.99 146.48ZM187.97 161.48C189.075 159.567 191.521 158.911 193.434 160.016L223.434 108.054C192.824 90.3813 153.682 100.869 136.009 131.48L187.97 161.48ZM85.1787 339.52L187.97 161.48L136.009 131.48L33.2172 309.52L85.1787 339.52ZM86.6428 344.984C84.7297 343.88 84.0741 341.433 85.1787 339.52L33.2172 309.52C15.5441 340.131 26.032 379.273 56.6428 396.946L86.6428 344.984ZM369.985 508.572L86.6428 344.984L56.6428 396.946L339.985 560.534L369.985 508.572ZM375.449 507.108C374.345 509.021 371.898 509.677 369.985 508.572L339.985 560.534C370.596 578.207 409.738 567.719 427.411 537.108L375.449 507.108ZM478.241 329.068L375.449 507.108L427.411 537.108L530.202 359.068L478.241 329.068ZM476.777 323.604C478.69 324.708 479.345 327.155 478.241 329.068L530.202 359.068C547.875 328.457 537.387 289.315 506.777 271.642L476.777 323.604ZM193.434 160.016L476.777 323.604L506.777 271.642L223.434 108.054L193.434 160.016Z" fill="white" mask="url(#path-1-outside-1)"/>
</g>
<rect x="182.65" y="130.695" width="375.176" height="253.583" rx="24" transform="rotate(30 182.65 130.695)" fill="white" stroke="#4F6B49" stroke-width="20"/>
<path d="M269.632 354.017L194.705 145.894C193.6 142.825 196.924 140.047 199.748 141.678L492.378 310.627C495.202 312.258 494.458 316.525 491.248 317.103L273.544 356.276C271.864 356.579 270.21 355.624 269.632 354.017Z" stroke="#4F6B49" stroke-width="17"/>
</g>
<g filter="url(#filter2_d)">
<path d="M520.009 87.9715L448.549 58.2646C437.319 53.5963 424.312 58.9646 419.644 70.194C339.944 261.911 430.727 481.877 622.444 561.577C633.674 566.245 646.681 560.877 651.349 549.647L680.971 478.391C685.639 467.162 680.271 454.155 669.042 449.486C643.724 438.962 620.717 424.608 600.991 407.548C599.288 405.882 597.127 404.744 595.086 403.896C589.777 401.689 583.824 401.608 578.128 403.79L514.537 430.035C469.064 376.41 441.303 309.555 435.922 239.552L499.513 213.307C507.606 209.967 512.55 202.683 513.275 194.604C515.227 168.596 521.328 142.398 531.938 116.876C536.606 105.647 531.238 92.6398 520.009 87.9715Z" fill="#4F6B49"/>
<path d="M571.511 386.514L571.289 386.599L571.07 386.689L520.207 407.681C484.968 362.388 462.514 308.225 455.677 251.413L506.571 230.408C521.314 224.323 530.387 210.896 531.701 196.257L531.713 196.122L531.723 195.988C533.528 171.934 539.173 147.667 549.021 123.978C557.611 103.314 547.774 79.4792 527.11 70.8889L455.65 41.1819C434.986 32.5916 411.151 42.4285 402.561 63.0925C318.939 264.244 414.191 495.038 615.343 578.659C636.007 587.25 659.841 577.413 668.432 556.749L698.054 485.493C706.644 464.829 696.807 440.994 676.143 432.404C652.79 422.695 631.583 409.486 613.416 393.834C609.407 390.089 605.019 387.99 602.187 386.813C592.354 382.725 581.486 382.694 571.511 386.514Z" stroke="white" stroke-width="37"/>
</g>
<defs>
<filter id="filter0_d" x="0.217163" y="75.0544" width="564.985" height="520.479" filterUnits="userSpaceOnUse" color-interpolation-filters="sRGB">
<feFlood flood-opacity="0" result="BackgroundImageFix"/>
<feColorMatrix in="SourceAlpha" type="matrix" values="0 0 0 0 0 0 0 0 0 0 0 0 0 0 0 0 0 0 127 0"/>
<feOffset dx="1" dy="1"/>
<feGaussianBlur stdDeviation="1"/>
<feColorMatrix type="matrix" values="0 0 0 0 0.6875 0 0 0 0 0.6875 0 0 0 0 0.6875 0 0 0 0.43 0"/>
<feBlend mode="normal" in2="BackgroundImageFix" result="effect1_dropShadow"/>
<feBlend mode="normal" in="SourceGraphic" in2="effect1_dropShadow" result="shape"/>
</filter>
<filter id="filter1_d" x="0.217163" y="75.0544" width="564.985" height="520.479" filterUnits="userSpaceOnUse" color-interpolation-filters="sRGB">
<feFlood flood-opacity="0" result="BackgroundImageFix"/>
<feColorMatrix in="SourceAlpha" type="matrix" values="0 0 0 0 0 0 0 0 0 0 0 0 0 0 0 0 0 0 127 0"/>
<feOffset dx="1" dy="1"/>
<feGaussianBlur stdDeviation="1"/>
<feColorMatrix type="matrix" values="0 0 0 0 0.6875 0 0 0 0 0.6875 0 0 0 0 0.6875 0 0 0 0.43 0"/>
<feBlend mode="normal" in2="BackgroundImageFix" result="effect1_dropShadow"/>
<feBlend mode="normal" in="SourceGraphic" in2="effect1_dropShadow" result="shape"/>
</filter>
<filter id="filter2_d" x="225.984" y="0.408447" width="621.024" height="621.024" filterUnits="userSpaceOnUse" color-interpolation-filters="sRGB">
<feFlood flood-opacity="0" result="BackgroundImageFix"/>
<feColorMatrix in="SourceAlpha" type="matrix" values="0 0 0 0 0 0 0 0 0 0 0 0 0 0 0 0 0 0 127 0"/>
<feOffset dx="1" dy="1"/>
<feGaussianBlur stdDeviation="1"/>
<feColorMatrix type="matrix" values="0 0 0 0 0.6875 0 0 0 0 0.6875 0 0 0 0 0.6875 0 0 0 0.43 0"/>
<feBlend mode="normal" in2="BackgroundImageFix" result="effect1_dropShadow"/>
<feBlend mode="normal" in="SourceGraphic" in2="effect1_dropShadow" result="shape"/>
</filter>
</defs>
</svg>
