<svg width="223" height="275" viewBox="0 0 223 275" fill="none" xmlns="http://www.w3.org/2000/svg">
<g filter="url(#filter0_d)">
<path d="M106.326 77.7146C109.141 74.4632 113.919 73.7772 117.535 76.1051L126.332 81.7684C128.563 83.2048 131.33 83.5362 133.838 82.6672L143.723 79.2409C147.786 77.8325 152.267 79.6272 154.234 83.4512L159.021 92.7542C160.235 95.1138 162.466 96.7845 165.072 97.2855L175.346 99.2609C179.569 100.073 182.552 103.867 182.344 108.163L181.838 118.613C181.71 121.263 182.806 123.826 184.813 125.563L192.722 132.41C195.974 135.225 196.66 140.003 194.332 143.619L188.669 152.416C187.232 154.647 186.901 157.414 187.77 159.921L191.196 169.807C192.604 173.87 190.81 178.351 186.986 180.318L177.683 185.105C175.323 186.319 173.652 188.55 173.151 191.156L171.176 201.43C170.364 205.653 166.57 208.636 162.274 208.428L151.824 207.922C149.174 207.793 146.611 208.89 144.874 210.896L138.027 218.806C135.212 222.058 130.434 222.744 126.818 220.416L118.021 214.752C115.79 213.316 113.023 212.985 110.516 213.854L100.63 217.28C96.5669 218.688 92.0863 216.894 90.1187 213.07L85.3321 203.767C84.1181 201.407 81.887 199.736 79.2812 199.235L69.0071 197.26C64.784 196.448 61.801 192.653 62.0091 188.358L62.5152 177.908C62.6436 175.258 61.5468 172.695 59.5406 170.958L51.6307 164.111C48.3793 161.296 47.6933 156.518 50.0212 152.902L55.6845 144.105C57.1209 141.874 57.4523 139.107 56.5833 136.599L53.157 126.714C51.7486 122.651 53.5433 118.17 57.3673 116.203L66.6703 111.416C69.0299 110.202 70.7006 107.971 71.2016 105.365L73.177 95.091C73.989 90.8679 77.7835 87.8849 82.079 88.093L92.5289 88.5991C95.1794 88.7275 97.7418 87.6307 99.4787 85.6245L106.326 77.7146Z" fill="white"/>
<path d="M108.411 92.2282C111.225 88.9768 116.003 88.2908 119.619 90.6187L124.867 93.9975C127.099 95.4339 129.866 95.7653 132.373 94.8963L138.271 92.8521C142.334 91.4437 146.815 93.2384 148.783 97.0624L151.638 102.613C152.852 104.972 155.083 106.643 157.689 107.144L163.819 108.323C168.042 109.135 171.025 112.929 170.817 117.225L170.515 123.459C170.387 126.11 171.483 128.672 173.49 130.409L178.209 134.494C181.46 137.309 182.146 142.087 179.818 145.703L176.44 150.951C175.003 153.182 174.672 155.95 175.541 158.457L177.585 164.355C178.993 168.418 177.199 172.899 173.375 174.866L167.824 177.722C165.465 178.936 163.794 181.167 163.293 183.773L162.114 189.903C161.302 194.126 157.508 197.109 153.212 196.901L146.978 196.599C144.327 196.471 141.765 197.567 140.028 199.574L135.943 204.293C133.128 207.544 128.35 208.23 124.734 205.902L119.486 202.523C117.255 201.087 114.487 200.756 111.98 201.625L106.082 203.669C102.019 205.077 97.5382 203.283 95.5706 199.459L92.7148 193.908C91.5008 191.549 89.2697 189.878 86.6639 189.377L80.5342 188.198C76.311 187.386 73.3281 183.592 73.5361 179.296L73.8381 173.062C73.9665 170.411 72.8697 167.849 70.8635 166.112L66.1443 162.027C62.8929 159.212 62.2068 154.434 64.5348 150.818L67.9136 145.57C69.35 143.339 69.6814 140.571 68.8124 138.064L66.7682 132.166C65.3598 128.103 67.1545 123.622 70.9785 121.655L76.5288 118.799C78.8884 117.585 80.5592 115.354 81.0602 112.748L82.2387 106.618C83.0507 102.395 86.8452 99.412 91.1407 99.62L97.3753 99.922C100.026 100.05 102.588 98.9536 104.325 96.9474L108.411 92.2282Z" fill="white"/>
<path fill-rule="evenodd" clip-rule="evenodd" d="M121.594 99.0825L116.345 95.7036C115.261 95.0053 113.827 95.2111 112.983 96.1865L108.897 100.906C105.945 104.316 101.589 106.181 97.0828 105.963L90.8481 105.661C89.5595 105.598 88.4211 106.493 88.1775 107.76L86.999 113.89C86.1473 118.32 83.307 122.112 79.2957 124.176L73.7454 127.032C72.5982 127.622 72.0598 128.967 72.4823 130.186L74.5265 136.083C76.0038 140.346 75.4405 145.05 72.9986 148.843L69.6197 154.092C68.9213 155.177 69.1272 156.61 70.1026 157.454L74.8218 161.54C78.2323 164.492 80.0968 168.849 79.8786 173.354L79.5766 179.589C79.5142 180.878 80.4091 182.016 81.6761 182.26L87.8057 183.438C92.2357 184.29 96.0285 187.13 98.0924 191.141L100.948 196.692C101.538 197.839 102.883 198.377 104.102 197.955L109.999 195.911C114.262 194.433 118.966 194.997 122.759 197.439L128.008 200.817C129.093 201.516 130.526 201.31 131.37 200.334L135.456 195.615C138.408 192.205 142.765 190.34 147.27 190.558L153.505 190.86C154.794 190.923 155.932 190.028 156.176 188.761L157.354 182.631C158.206 178.201 161.046 174.409 165.057 172.345L170.608 169.489C171.755 168.899 172.293 167.554 171.871 166.335L169.827 160.438C168.349 156.175 168.913 151.471 171.355 147.678L174.733 142.429C175.432 141.344 175.226 139.911 174.251 139.067L169.531 134.981C166.121 132.029 164.256 127.672 164.475 123.167L164.777 116.932C164.839 115.643 163.944 114.505 162.677 114.261L156.547 113.083C152.117 112.231 148.325 109.391 146.261 105.38L143.405 99.8293C142.815 98.6821 141.471 98.1437 140.252 98.5662L134.354 100.61C130.092 102.088 125.387 101.524 121.594 99.0825ZM119.619 90.6187C116.003 88.2908 111.225 88.9768 108.411 92.2282L104.325 96.9474C102.588 98.9536 100.026 100.05 97.3753 99.922L91.1407 99.62C86.8452 99.412 83.0507 102.395 82.2387 106.618L81.0602 112.748C80.5592 115.354 78.8884 117.585 76.5288 118.799L70.9785 121.655C67.1545 123.622 65.3598 128.103 66.7682 132.166L68.8124 138.064C69.6814 140.571 69.35 143.339 67.9136 145.57L64.5348 150.818C62.2068 154.434 62.8929 159.212 66.1443 162.027L70.8635 166.112C72.8697 167.849 73.9665 170.411 73.8381 173.062L73.5361 179.296C73.3281 183.592 76.311 187.386 80.5342 188.198L86.6639 189.377C89.2697 189.878 91.5008 191.549 92.7148 193.908L95.5706 199.459C97.5382 203.283 102.019 205.077 106.082 203.669L111.98 201.625C114.487 200.756 117.255 201.087 119.486 202.523L124.734 205.902C128.35 208.23 133.128 207.544 135.943 204.293L140.028 199.574C141.765 197.567 144.327 196.471 146.978 196.599L153.212 196.901C157.508 197.109 161.302 194.126 162.114 189.903L163.293 183.773C163.794 181.167 165.465 178.936 167.824 177.722L173.375 174.866C177.199 172.899 178.993 168.418 177.585 164.355L175.541 158.457C174.672 155.95 175.003 153.182 176.44 150.951L179.818 145.703C182.146 142.087 181.46 137.309 178.209 134.494L173.49 130.409C171.483 128.672 170.387 126.11 170.515 123.459L170.817 117.225C171.025 112.929 168.042 109.135 163.819 108.323L157.689 107.144C155.083 106.643 152.852 104.972 151.638 102.613L148.783 97.0624C146.815 93.2384 142.334 91.4437 138.271 92.8521L132.373 94.8963C129.866 95.7653 127.099 95.4339 124.867 93.9975L119.619 90.6187Z" fill="#4F6B49"/>
<path d="M110.786 108.769C113.601 105.517 118.378 104.831 121.994 107.159L123.198 107.935C125.43 109.371 128.197 109.702 130.704 108.833L132.058 108.364C136.121 106.956 140.602 108.75 142.569 112.575L143.225 113.848C144.439 116.208 146.67 117.878 149.275 118.379L150.682 118.65C154.905 119.462 157.888 123.256 157.68 127.552L157.611 128.982C157.482 131.633 158.579 134.195 160.585 135.932L161.668 136.87C164.92 139.684 165.606 144.462 163.278 148.078L162.502 149.282C161.066 151.513 160.735 154.281 161.604 156.788L162.073 158.142C163.481 162.205 161.686 166.685 157.862 168.653L156.589 169.308C154.229 170.522 152.559 172.753 152.058 175.359L151.787 176.766C150.975 180.989 147.181 183.972 142.885 183.764L141.455 183.695C138.804 183.566 136.242 184.663 134.505 186.669L133.567 187.752C130.753 191.003 125.975 191.69 122.359 189.362L121.155 188.586C118.923 187.15 116.156 186.818 113.649 187.688L112.295 188.157C108.232 189.565 103.751 187.77 101.784 183.946L101.129 182.673C99.9146 180.313 97.6835 178.642 95.0777 178.141L93.6712 177.871C89.448 177.059 86.465 173.264 86.6731 168.969L86.7424 167.538C86.8707 164.888 85.774 162.325 83.7677 160.589L82.6849 159.651C79.4335 156.836 78.7474 152.059 81.0754 148.443L81.8507 147.238C83.2871 145.007 83.6185 142.24 82.7494 139.733L82.2804 138.379C80.872 134.316 82.6667 129.835 86.4907 127.868L87.7643 127.212C90.1238 125.998 91.7946 123.767 92.2956 121.161L92.566 119.755C93.378 115.532 97.1725 112.549 101.468 112.757L102.899 112.826C105.549 112.955 108.112 111.858 109.848 109.852L110.786 108.769Z" fill="white"/>
<path fill-rule="evenodd" clip-rule="evenodd" d="M119.925 113.019L118.721 112.244C117.636 111.546 116.202 111.752 115.358 112.727L114.421 113.81C111.468 117.22 107.112 119.085 102.606 118.867L101.175 118.797C99.8868 118.735 98.7485 119.63 98.5049 120.897L98.2344 122.303C97.3827 126.733 94.5424 130.526 90.5311 132.59L89.2576 133.245C88.1104 133.836 87.572 135.18 87.9945 136.399L88.4635 137.752C89.9409 142.014 89.3775 146.719 86.9356 150.512L86.1603 151.716C85.4619 152.801 85.6678 154.234 86.6432 155.079L87.726 156.016C91.1366 158.969 93.0011 163.325 92.7829 167.831L92.7136 169.262C92.6512 170.55 93.5461 171.689 94.813 171.932L96.2195 172.203C100.649 173.054 104.442 175.895 106.506 179.906L107.161 181.179C107.752 182.327 109.096 182.865 110.315 182.442L111.668 181.973C115.93 180.496 120.635 181.059 124.428 183.501L125.633 184.277C126.717 184.975 128.151 184.769 128.995 183.794L129.933 182.711C132.885 179.3 137.241 177.436 141.747 177.654L143.178 177.723C144.466 177.786 145.605 176.891 145.848 175.624L146.119 174.217C146.97 169.788 149.811 165.995 153.822 163.931L155.096 163.276C156.243 162.685 156.781 161.341 156.359 160.122L155.89 158.769C154.412 154.506 154.976 149.802 157.418 146.009L158.193 144.804C158.891 143.72 158.685 142.286 157.71 141.442L156.627 140.504C153.217 137.552 151.352 133.196 151.57 128.69L151.64 127.259C151.702 125.971 150.807 124.832 149.54 124.589L148.134 124.318C143.704 123.467 139.911 120.626 137.847 116.615L137.192 115.341C136.601 114.194 135.257 113.656 134.038 114.078L132.685 114.547C128.423 116.025 123.718 115.461 119.925 113.019ZM121.994 107.159C118.378 104.831 113.601 105.517 110.786 108.769L109.848 109.852C108.112 111.858 105.549 112.955 102.899 112.826L101.468 112.757C97.1725 112.549 93.378 115.532 92.566 119.755L92.2956 121.161C91.7946 123.767 90.1238 125.998 87.7643 127.212L86.4907 127.868C82.6667 129.835 80.872 134.316 82.2804 138.379L82.7494 139.733C83.6185 142.24 83.2871 145.007 81.8507 147.238L81.0754 148.443C78.7474 152.059 79.4335 156.836 82.6849 159.651L83.7677 160.589C85.774 162.325 86.8707 164.888 86.7424 167.538L86.6731 168.969C86.465 173.264 89.448 177.059 93.6712 177.871L95.0777 178.141C97.6835 178.642 99.9146 180.313 101.129 182.673L101.784 183.946C103.751 187.77 108.232 189.565 112.295 188.157L113.649 187.688C116.156 186.818 118.923 187.15 121.155 188.586L122.359 189.362C125.975 191.69 130.753 191.003 133.567 187.752L134.505 186.669C136.242 184.663 138.804 183.566 141.455 183.695L142.885 183.764C147.181 183.972 150.975 180.989 151.787 176.766L152.058 175.359C152.559 172.753 154.229 170.522 156.589 169.308L157.862 168.653C161.686 166.685 163.481 162.205 162.073 158.142L161.604 156.788C160.735 154.281 161.066 151.513 162.502 149.282L163.278 148.078C165.606 144.462 164.92 139.684 161.668 136.87L160.585 135.932C158.579 134.195 157.482 131.633 157.611 128.982L157.68 127.552C157.888 123.256 154.905 119.462 150.682 118.65L149.275 118.379C146.67 117.878 144.439 116.208 143.225 113.848L142.569 112.575C140.602 108.75 136.121 106.956 132.058 108.364L130.704 108.833C128.197 109.702 125.43 109.371 123.198 107.935L121.994 107.159Z" fill="#4F6B49"/>
<path d="M115.063 125.245C116.937 123.08 120.118 122.623 122.526 124.173V124.173C124.012 125.13 125.854 125.351 127.524 124.772V124.772C130.229 123.834 133.213 125.029 134.523 127.575V127.575C135.331 129.146 136.817 130.259 138.552 130.592V130.592C141.364 131.133 143.35 133.66 143.211 136.52V136.52C143.126 138.284 143.856 139.991 145.192 141.147V141.147C147.357 143.021 147.814 146.202 146.264 148.61V148.61C145.307 150.096 145.087 151.938 145.665 153.608V153.608C146.603 156.313 145.408 159.297 142.862 160.607V160.607C141.291 161.415 140.178 162.901 139.845 164.636V164.636C139.304 167.448 136.778 169.434 133.917 169.295V169.295C132.153 169.21 130.446 169.94 129.29 171.276V171.276C127.416 173.441 124.235 173.898 121.827 172.348V172.348C120.341 171.391 118.499 171.171 116.829 171.749V171.749C114.124 172.687 111.14 171.492 109.83 168.946V168.946C109.022 167.375 107.536 166.262 105.801 165.929V165.929C102.989 165.388 101.003 162.862 101.142 160.001V160.001C101.227 158.237 100.497 156.53 99.1611 155.374V155.374C96.9962 153.5 96.5394 150.319 98.0894 147.911V147.911C99.0458 146.425 99.2665 144.583 98.6879 142.913V142.913C97.7501 140.208 98.9451 137.224 101.491 135.914V135.914C103.062 135.106 104.175 133.62 104.508 131.885V131.885C105.049 129.073 107.576 127.087 110.436 127.226V127.226C112.2 127.311 113.907 126.581 115.063 125.245V125.245Z" fill="white"/>
<path fill-rule="evenodd" clip-rule="evenodd" d="M110.397 133.276C109.673 136.645 107.512 139.531 104.482 141.173C105.541 144.453 105.112 148.033 103.309 150.97C105.866 153.281 107.285 156.595 107.192 160.04C110.561 160.764 113.447 162.925 115.089 165.955C118.369 164.896 121.949 165.325 124.886 167.128C127.197 164.571 130.511 163.153 133.956 163.245C134.68 159.876 136.841 156.99 139.871 155.348C138.812 152.068 139.241 148.488 141.044 145.551C138.487 143.24 137.068 139.926 137.161 136.481C133.792 135.757 130.906 133.596 129.264 130.566C125.984 131.625 122.404 131.196 119.467 129.393C117.156 131.95 113.842 133.369 110.397 133.276ZM122.526 124.173C120.118 122.623 116.937 123.08 115.063 125.245C113.907 126.581 112.2 127.311 110.436 127.226C107.576 127.087 105.049 129.073 104.508 131.885C104.175 133.62 103.062 135.106 101.491 135.914C98.9451 137.224 97.7501 140.208 98.6879 142.913C99.2665 144.583 99.0458 146.425 98.0894 147.911C96.5394 150.319 96.9962 153.5 99.1611 155.374C100.497 156.53 101.227 158.237 101.142 160.001C101.003 162.862 102.989 165.388 105.801 165.929C107.536 166.262 109.022 167.375 109.83 168.946C111.14 171.492 114.124 172.687 116.829 171.749C118.499 171.171 120.341 171.391 121.827 172.348C124.235 173.898 127.416 173.441 129.29 171.276C130.446 169.94 132.153 169.21 133.917 169.295C136.778 169.434 139.304 167.448 139.845 164.636C140.178 162.901 141.291 161.415 142.862 160.607C145.408 159.297 146.603 156.313 145.665 153.608C145.087 151.938 145.307 150.096 146.264 148.61C147.814 146.202 147.357 143.021 145.192 141.147C143.856 139.991 143.126 138.284 143.211 136.52C143.35 133.66 141.364 131.133 138.552 130.592C136.817 130.259 135.331 129.146 134.523 127.575C133.213 125.029 130.229 123.834 127.524 124.772C125.854 125.351 124.012 125.13 122.526 124.173Z" fill="#4F6B49"/>
</g>
<g filter="url(#filter1_d)">
<path d="M155.289 152.131L143.8 153.781C141.995 154.04 140.73 155.729 140.989 157.534C145.415 188.357 173.982 209.75 204.805 205.324C206.611 205.065 207.876 203.375 207.616 201.57L205.971 190.114C205.712 188.309 204.023 187.044 202.217 187.303C198.147 187.887 194.081 187.801 190.23 187.115C189.883 187.031 189.517 187.05 189.189 187.097C188.336 187.219 187.562 187.665 186.995 188.383L180.811 196.642C170.838 193.216 162.133 186.727 156.072 178.116L162.257 169.858C163.044 168.807 163.123 167.489 162.597 166.392C160.854 162.89 159.632 159.045 159.043 154.942C158.784 153.137 157.094 151.872 155.289 152.131Z" fill="#4F6B49"/>
<path fill-rule="evenodd" clip-rule="evenodd" d="M180.66 183.511L180.723 183.431C182.517 181.159 185.104 179.61 188.053 179.186C188.754 179.086 190.135 178.938 191.765 179.271C194.741 179.787 197.903 179.849 201.081 179.393C207.256 178.506 212.995 182.804 213.882 188.978L215.527 200.434C216.413 206.608 212.115 212.348 205.941 213.234C170.75 218.288 138.132 193.862 133.079 158.67C132.192 152.496 136.49 146.757 142.664 145.87L154.153 144.22C160.327 143.334 166.067 147.632 166.953 153.806C167.421 157.061 168.386 160.088 169.752 162.832L169.777 162.884L169.803 162.936C171.559 166.599 171.303 171.11 168.654 174.648L166.194 177.932C169.604 181.588 173.658 184.618 178.144 186.87L180.66 183.511ZM162.257 169.858C163.044 168.807 163.123 167.489 162.597 166.392C160.854 162.89 159.632 159.045 159.043 154.942C158.784 153.137 157.094 151.872 155.289 152.131L143.8 153.781C141.995 154.04 140.73 155.729 140.989 157.534C141.974 164.39 144.152 170.778 147.284 176.52C148.307 178.396 149.431 180.202 150.649 181.933C157.519 191.697 167.356 199.066 178.656 202.914C180.666 203.598 182.722 204.171 184.815 204.626C191.206 206.016 197.95 206.308 204.805 205.324C206.611 205.065 207.876 203.375 207.616 201.57L205.971 190.114C205.712 188.309 204.023 187.044 202.217 187.303C198.147 187.887 194.081 187.801 190.23 187.115C189.883 187.031 189.517 187.05 189.189 187.097C188.336 187.219 187.562 187.665 186.995 188.383L180.811 196.642C170.838 193.216 162.133 186.727 156.072 178.116L162.257 169.858Z" fill="white"/>
</g>
<g filter="url(#filter2_d)">
<path d="M104.221 219.332C106.011 231.797 97.3566 243.354 84.8911 245.144C72.4257 246.934 60.8693 238.28 59.0793 225.814C57.2892 213.349 65.9434 201.792 78.4088 200.002C90.8743 198.212 102.431 206.866 104.221 219.332Z" fill="white"/>
<path fill-rule="evenodd" clip-rule="evenodd" d="M111.062 218.349C113.395 234.593 102.117 249.652 85.8735 251.985C69.6297 254.318 54.5705 243.04 52.2379 226.797C49.9053 210.553 61.1826 195.494 77.4264 193.161C93.6702 190.828 108.729 202.106 111.062 218.349ZM84.8911 245.144C97.3566 243.354 106.011 231.797 104.221 219.332C102.431 206.866 90.8743 198.212 78.4088 200.002C65.9434 201.792 57.2892 213.349 59.0793 225.814C60.8693 238.28 72.4257 246.934 84.8911 245.144Z" fill="#4F6B49"/>
<path fill-rule="evenodd" clip-rule="evenodd" d="M111.972 218.282C114.372 234.989 102.772 250.478 86.0649 252.878C69.3574 255.277 53.8683 243.678 51.4691 226.97C49.0699 210.263 60.6691 194.774 77.3766 192.374C94.0842 189.975 109.573 201.574 111.972 218.282ZM85.5123 249.029C100.094 246.935 110.218 233.417 108.124 218.834C106.03 204.252 92.5114 194.129 77.9293 196.223C63.3471 198.317 53.2234 211.835 55.3174 226.418C57.4114 241 70.9301 251.123 85.5123 249.029Z" fill="white"/>
<path d="M74.8336 208.014L79.2906 208.469L77.9713 221.394L73.5142 220.939L74.8336 208.014Z" fill="#4F6B49"/>
<path d="M86.422 209.197L90.8791 209.651L89.5597 222.577L85.1026 222.122L86.422 209.197Z" fill="#4F6B49"/>
<path fill-rule="evenodd" clip-rule="evenodd" d="M65.4327 223.983C63.9769 224.391 63.9771 224.392 63.9774 224.393L63.9778 224.394L63.979 224.399L63.9823 224.41C63.9849 224.419 63.9883 224.431 63.9925 224.445C64.0009 224.473 64.0126 224.512 64.0278 224.56C64.0582 224.657 64.1025 224.793 64.1621 224.962C64.2813 225.301 64.462 225.775 64.7155 226.344C65.2211 227.478 66.0234 229.002 67.2152 230.57C69.609 233.718 73.6054 237.07 79.8758 237.71C86.1462 238.35 90.7374 235.875 93.718 233.275C95.202 231.98 96.2957 230.649 97.02 229.641C97.3831 229.135 97.656 228.707 97.8411 228.4C97.9337 228.246 98.0045 228.122 98.0538 228.033C98.0785 227.989 98.0978 227.953 98.1118 227.927C98.1188 227.914 98.1244 227.904 98.1288 227.895L98.1343 227.885L98.1363 227.881L98.1371 227.879C98.1375 227.879 98.1378 227.878 96.7945 227.184L98.1378 227.878L98.8316 226.535L96.145 225.147L95.4529 226.487L95.4528 226.487L95.4525 226.488L95.4512 226.49L95.4463 226.5C95.4396 226.512 95.428 226.534 95.4113 226.564C95.3778 226.624 95.3243 226.718 95.2504 226.84C95.1026 227.086 94.8743 227.445 94.564 227.877C93.9417 228.744 93.0001 229.888 91.7303 230.996C89.2031 233.201 85.4118 235.236 80.1829 234.702C74.9539 234.168 71.652 231.409 69.6223 228.739C68.6025 227.398 67.9117 226.087 67.4772 225.112C67.2606 224.626 67.1096 224.229 67.0144 223.958C66.9669 223.823 66.9334 223.72 66.9128 223.655C66.9025 223.622 66.8955 223.598 66.8915 223.585L66.8877 223.572L66.4804 222.119L63.5689 222.935L63.9769 224.391L65.4327 223.983Z" fill="#4F6B49"/>
</g>
<g filter="url(#filter3_d)">
<path fill-rule="evenodd" clip-rule="evenodd" d="M73.7681 97.948C83.6833 105.656 97.4975 107.574 109.57 101.737C126.527 93.5378 133.626 73.1452 125.428 56.1885C117.229 39.2318 96.8363 32.1321 79.8795 40.3309C67.807 46.1682 60.7309 58.1864 60.615 70.7449L23.9227 88.4862C16.4107 92.1183 13.2655 101.152 16.8976 108.664C20.5298 116.176 29.5638 119.321 37.0757 115.689L73.7681 97.948ZM60.171 81.0357L65.4266 91.9051L33.127 107.522C30.1255 108.974 26.5158 107.717 25.0645 104.716C23.6132 101.714 24.8699 98.1043 27.8714 96.653L60.171 81.0357ZM105.621 93.5697C93.175 99.5877 78.2068 94.3765 72.1888 81.9302C66.1708 69.4839 71.382 54.5157 83.8283 48.4977C96.2746 42.4798 111.243 47.691 117.261 60.1373C123.279 72.5835 118.068 87.5518 105.621 93.5697Z" fill="white"/>
<path d="M92.0252 90.1261C81.2986 87.8078 74.4823 77.2328 76.8006 66.5062C79.1189 55.7796 89.6939 48.9633 100.421 51.2816C111.147 53.5999 117.963 64.1749 115.645 74.9015C113.327 85.6282 102.752 92.4445 92.0252 90.1261Z" fill="white"/>
<path fill-rule="evenodd" clip-rule="evenodd" d="M60.171 81.0357L65.4265 91.9052L33.1269 107.522C30.1254 108.974 26.5157 107.717 25.0645 104.716C23.6132 101.714 24.8699 98.1043 27.8714 96.653L60.171 81.0357ZM80.3556 77.9815C84.1927 85.9173 93.7366 89.24 101.672 85.4029C109.608 81.5658 112.931 72.0219 109.094 64.0861C105.257 56.1502 95.7129 52.8275 87.7771 56.6646C79.8412 60.5017 76.5185 70.0456 80.3556 77.9815ZM105.621 93.5698C93.175 99.5877 78.2067 94.3765 72.1888 81.9302C66.1708 69.484 71.382 54.5157 83.8283 48.4978C96.2746 42.4798 111.243 47.691 117.261 60.1373C123.279 72.5836 118.068 87.5518 105.621 93.5698Z" fill="#4F6B49"/>
</g>
<defs>
<filter id="filter0_d" x="37.1873" y="63.2712" width="171.978" height="171.978" filterUnits="userSpaceOnUse" color-interpolation-filters="sRGB">
<feFlood flood-opacity="0" result="BackgroundImageFix"/>
<feColorMatrix in="SourceAlpha" type="matrix" values="0 0 0 0 0 0 0 0 0 0 0 0 0 0 0 0 0 0 127 0"/>
<feOffset dx="1" dy="1"/>
<feGaussianBlur stdDeviation="1"/>
<feColorMatrix type="matrix" values="0 0 0 0 0.6875 0 0 0 0 0.6875 0 0 0 0 0.6875 0 0 0 0.43 0"/>
<feBlend mode="normal" in2="BackgroundImageFix" result="effect1_dropShadow"/>
<feBlend mode="normal" in="SourceGraphic" in2="effect1_dropShadow" result="shape"/>
</filter>
<filter id="filter1_d" x="130.471" y="135.721" width="89.6625" height="89.6625" filterUnits="userSpaceOnUse" color-interpolation-filters="sRGB">
<feFlood flood-opacity="0" result="BackgroundImageFix"/>
<feColorMatrix in="SourceAlpha" type="matrix" values="0 0 0 0 0 0 0 0 0 0 0 0 0 0 0 0 0 0 127 0"/>
<feOffset dx="1" dy="1"/>
<feGaussianBlur stdDeviation="1"/>
<feColorMatrix type="matrix" values="0 0 0 0 0.6875 0 0 0 0 0.6875 0 0 0 0 0.6875 0 0 0 0.43 0"/>
<feBlend mode="normal" in2="BackgroundImageFix" result="effect1_dropShadow"/>
<feBlend mode="normal" in="SourceGraphic" in2="effect1_dropShadow" result="shape"/>
</filter>
<filter id="filter2_d" x="46.125" y="187.03" width="73.1916" height="73.1916" filterUnits="userSpaceOnUse" color-interpolation-filters="sRGB">
<feFlood flood-opacity="0" result="BackgroundImageFix"/>
<feColorMatrix in="SourceAlpha" type="matrix" values="0 0 0 0 0 0 0 0 0 0 0 0 0 0 0 0 0 0 127 0"/>
<feOffset dx="1" dy="1"/>
<feGaussianBlur stdDeviation="1"/>
<feColorMatrix type="matrix" values="0 0 0 0 0.6875 0 0 0 0 0.6875 0 0 0 0 0.6875 0 0 0 0.43 0"/>
<feBlend mode="normal" in2="BackgroundImageFix" result="effect1_dropShadow"/>
<feBlend mode="normal" in="SourceGraphic" in2="effect1_dropShadow" result="shape"/>
</filter>
<filter id="filter3_d" x="11.5397" y="21.6311" width="126.725" height="117.305" filterUnits="userSpaceOnUse" color-interpolation-filters="sRGB">
<feFlood flood-opacity="0" result="BackgroundImageFix"/>
<feColorMatrix in="SourceAlpha" type="matrix" values="0 0 0 0 0 0 0 0 0 0 0 0 0 0 0 0 0 0 127 0"/>
<feOffset dx="1" dy="1"/>
<feGaussianBlur stdDeviation="1"/>
<feColorMatrix type="matrix" values="0 0 0 0 0.6875 0 0 0 0 0.6875 0 0 0 0 0.6875 0 0 0 0.43 0"/>
<feBlend mode="normal" in2="BackgroundImageFix" result="effect1_dropShadow"/>
<feBlend mode="normal" in="SourceGraphic" in2="effect1_dropShadow" result="shape"/>
</filter>
</defs>
</svg>
