<svg width="180" height="199" viewBox="0 0 180 199" fill="none" xmlns="http://www.w3.org/2000/svg">
<g filter="url(#filter0_d)">
<path d="M144.607 109.964C131.115 142.629 93.6968 158.172 61.0314 144.68C28.366 131.188 12.8231 93.7696 26.3154 61.1042C39.8077 28.4388 77.2258 12.8959 109.891 26.3882C142.557 39.8804 158.1 77.2986 144.607 109.964Z" fill="white"/>
<path fill-rule="evenodd" clip-rule="evenodd" d="M68.4936 126.614C91.1812 135.985 117.17 125.189 126.541 102.502C135.912 79.8143 125.117 53.8257 102.429 44.4547C79.7414 35.0837 53.7528 45.8789 44.3818 68.5665C35.0108 91.2541 45.806 117.243 68.4936 126.614ZM65.8286 133.066C92.0797 143.909 122.15 131.418 132.993 105.167C143.836 78.9159 131.345 48.8453 105.094 38.0024C78.843 27.1595 48.7724 39.6503 37.9295 65.9014C27.0866 92.1525 39.5775 122.223 65.8286 133.066Z" fill="#4F6B49"/>
<path fill-rule="evenodd" clip-rule="evenodd" d="M114.631 64.4589C114.978 59.067 114.559 54.439 113.517 50.9364L118.87 49.344C120.377 54.4088 120.741 61.0169 119.872 68.4712C125.485 73.0692 131.19 78.726 136.926 85.6663L132.622 89.2245C127.971 83.598 123.368 78.8775 118.848 74.9216C117.999 79.1844 116.78 83.6379 115.178 88.1716C114.546 89.9609 113.852 91.7674 113.095 93.5846C118.276 96.2324 123.61 99.0927 129.061 102.176L126.311 107.037C121.019 104.044 115.841 101.265 110.813 98.6902C108.05 104.469 104.645 110.295 100.545 115.965C106.878 116.911 113.766 117.39 121.258 117.259L121.355 122.843C112.33 123.001 104.131 122.309 96.6851 120.996C93.0285 125.493 88.907 129.849 84.2926 133.955L80.5798 129.783C84.1898 126.57 87.4823 123.197 90.4718 119.721C76.7032 116.485 65.745 111.113 57.0378 105.323C56.632 110.008 56.5415 114.899 56.834 119.982L51.2584 120.303C50.882 113.761 51.1059 107.521 51.8021 101.604C45.3305 96.7048 40.3348 91.7693 36.4929 87.7885L40.5114 83.9101C43.7154 87.2299 47.723 91.2159 52.7463 95.2593C53.97 88.473 55.8018 82.1619 58.0229 76.3648C50.1197 73.7792 44.0229 72.1949 40.2579 71.4569L41.3322 65.9763C45.388 66.7714 51.8506 68.4557 60.1645 71.1899C62.851 65.1549 65.9288 59.7582 69.1055 55.0521C63.6649 54.9911 58.725 55.4384 54.382 55.8317C53.6407 55.8988 52.9168 55.9644 52.2108 56.0255L51.7287 50.4616C52.435 50.4004 53.1675 50.3336 53.9252 50.2645C59.2019 49.7835 65.6989 49.1912 73.0569 49.5971C77.7586 43.5469 82.4147 39.0255 86.1054 36.1974L89.5023 40.6303C86.728 42.7562 83.301 45.988 79.7178 50.2363C82.4577 50.6156 85.2902 51.1568 88.1998 51.9074C96.532 54.0571 105.431 57.9001 114.631 64.4589ZM113.904 70.8661C104.316 63.5196 95.1694 59.4732 86.8047 57.3152C82.9407 56.3183 79.2268 55.7183 75.6847 55.388C72.0943 60.3241 68.5316 66.2219 65.4771 72.9949C77.1759 77.0933 91.7816 83.0024 108.092 91.069C108.75 89.4717 109.357 87.8839 109.913 86.3106C111.833 80.878 113.138 75.6656 113.904 70.8661ZM105.824 96.1776C89.4663 88.0763 74.88 82.1928 63.32 78.157C60.8805 84.4852 58.9252 91.4732 57.7801 99.0625C66.9038 105.517 78.8183 111.627 94.402 114.869C99.0559 108.767 102.839 102.44 105.824 96.1776Z" fill="#4F6B49"/>
</g>
<g filter="url(#filter1_d)">
<mask id="path-4-outside-1" maskUnits="userSpaceOnUse" x="43.7621" y="90.9728" width="146.988" height="127.56" fill="black">
<rect fill="white" x="43.7621" y="90.9728" width="146.988" height="127.56"/>
<path fill-rule="evenodd" clip-rule="evenodd" d="M103.111 172.604L138.753 140.135L134.235 137.732L98.5932 170.201L103.111 172.604ZM110.159 138.63L113.709 131.955L78.4796 128.634L74.7163 135.71L97.1652 163.064L100.715 156.388L83.6388 136.002L83.7098 135.869L110.159 138.63ZM160.517 172.262L138.068 144.909L134.517 151.584L151.594 171.97L151.523 172.104L125.074 169.342L121.523 176.018L156.753 179.338L160.517 172.262Z"/>
</mask>
<path fill-rule="evenodd" clip-rule="evenodd" d="M103.111 172.604L138.753 140.135L134.235 137.732L98.5932 170.201L103.111 172.604ZM110.159 138.63L113.709 131.955L78.4796 128.634L74.7163 135.71L97.1652 163.064L100.715 156.388L83.6388 136.002L83.7098 135.869L110.159 138.63ZM160.517 172.262L138.068 144.909L134.517 151.584L151.594 171.97L151.523 172.104L125.074 169.342L121.523 176.018L156.753 179.338L160.517 172.262Z" fill="#4F6B49"/>
<path d="M138.753 140.135L149.528 151.963C153.375 148.459 155.278 143.302 154.629 138.139C153.98 132.977 150.86 128.452 146.266 126.008L138.753 140.135ZM103.111 172.604L95.5988 186.731C101.568 189.905 108.888 188.985 113.886 184.432L103.111 172.604ZM134.235 137.732L141.748 123.606C135.779 120.431 128.458 121.351 123.46 125.904L134.235 137.732ZM98.5932 170.201L87.8182 158.373C83.9715 161.878 82.0692 167.034 82.7182 172.197C83.3671 177.36 86.4863 181.885 91.0806 184.328L98.5932 170.201ZM113.709 131.955L127.836 139.467C130.348 134.744 130.333 129.078 127.796 124.368C125.26 119.658 120.537 116.527 115.211 116.025L113.709 131.955ZM110.159 138.63L108.497 154.544C114.98 155.221 121.225 151.898 124.286 146.143L110.159 138.63ZM78.4796 128.634L79.9811 112.705C73.5504 112.098 67.3859 115.418 64.353 121.121L78.4796 128.634ZM74.7163 135.71L60.5898 128.198C57.5569 133.9 58.2505 140.868 62.3483 145.861L74.7163 135.71ZM97.1652 163.064L84.7972 173.214C88.191 177.349 93.427 179.515 98.7503 178.985C104.074 178.455 108.78 175.3 111.292 170.576L97.1652 163.064ZM100.715 156.388L114.842 163.901C117.902 158.146 117.166 151.11 112.981 146.114L100.715 156.388ZM83.6388 136.002L69.5122 128.489C66.4518 134.244 67.1881 141.28 71.3735 146.276L83.6388 136.002ZM83.7098 135.869L85.3714 119.955C78.8889 119.278 72.6436 122.601 69.5832 128.356L83.7098 135.869ZM138.068 144.909L150.436 134.758C147.042 130.623 141.806 128.457 136.483 128.987C131.159 129.517 126.453 132.673 123.941 137.396L138.068 144.909ZM160.517 172.262L174.643 179.775C177.676 174.072 176.982 167.105 172.885 162.112L160.517 172.262ZM134.517 151.584L120.391 144.072C117.33 149.826 118.067 156.862 122.252 161.859L134.517 151.584ZM151.594 171.97L165.721 179.483C168.781 173.728 168.045 166.692 163.859 161.696L151.594 171.97ZM151.523 172.104L149.861 188.017C156.344 188.694 162.589 185.371 165.65 179.616L151.523 172.104ZM125.074 169.342L126.735 153.428C120.253 152.752 114.008 156.075 110.947 161.829L125.074 169.342ZM121.523 176.018L107.397 168.505C104.885 173.228 104.9 178.894 107.437 183.604C109.973 188.314 114.696 191.445 120.022 191.947L121.523 176.018ZM156.753 179.338L155.252 195.268C161.683 195.874 167.847 192.554 170.88 186.851L156.753 179.338ZM127.978 128.307L92.3364 160.776L113.886 184.432L149.528 151.963L127.978 128.307ZM126.723 151.859L131.241 154.261L146.266 126.008L141.748 123.606L126.723 151.859ZM109.368 182.029L145.01 149.56L123.46 125.904L87.8182 158.373L109.368 182.029ZM110.624 158.478L106.106 156.075L91.0806 184.328L95.5988 186.731L110.624 158.478ZM99.5828 124.442L96.0326 131.118L124.286 146.143L127.836 139.467L99.5828 124.442ZM76.9781 144.563L112.208 147.884L115.211 116.025L79.9811 112.705L76.9781 144.563ZM88.8429 143.223L92.6062 136.147L64.353 121.121L60.5898 128.198L88.8429 143.223ZM109.533 152.913L87.0844 125.56L62.3483 145.861L84.7972 173.214L109.533 152.913ZM86.5889 148.875L83.0387 155.551L111.292 170.576L114.842 163.901L86.5889 148.875ZM71.3735 146.276L88.4502 166.662L112.981 146.114L95.9041 125.728L71.3735 146.276ZM69.5832 128.356L69.5122 128.489L97.7654 143.515L97.8364 143.381L69.5832 128.356ZM111.821 122.717L85.3714 119.955L82.0481 151.782L108.497 154.544L111.821 122.717ZM125.7 155.059L148.148 182.412L172.885 162.112L150.436 134.758L125.7 155.059ZM148.644 159.097L152.194 152.421L123.941 137.396L120.391 144.072L148.644 159.097ZM163.859 161.696L146.783 141.31L122.252 161.859L139.329 182.245L163.859 161.696ZM165.65 179.616L165.721 179.483L137.468 164.458L137.397 164.591L165.65 179.616ZM123.412 185.255L149.861 188.017L153.185 156.19L126.735 153.428L123.412 185.255ZM135.65 183.53L139.2 176.855L110.947 161.829L107.397 168.505L135.65 183.53ZM158.255 163.409L123.025 160.088L120.022 191.947L155.252 195.268L158.255 163.409ZM146.39 164.749L142.627 171.826L170.88 186.851L174.643 179.775L146.39 164.749Z" fill="#FDFDFD" mask="url(#path-4-outside-1)"/>
</g>
<defs>
<filter id="filter0_d" x="0.885498" y="0.958252" width="171.152" height="171.152" filterUnits="userSpaceOnUse" color-interpolation-filters="sRGB">
<feFlood flood-opacity="0" result="BackgroundImageFix"/>
<feColorMatrix in="SourceAlpha" type="matrix" values="0 0 0 0 0 0 0 0 0 0 0 0 0 0 0 0 0 0 127 0"/>
<feOffset dx="1" dy="1"/>
<feGaussianBlur stdDeviation="1"/>
<feColorMatrix type="matrix" values="0 0 0 0 0.6875 0 0 0 0 0.6875 0 0 0 0 0.6875 0 0 0 0.43 0"/>
<feBlend mode="normal" in2="BackgroundImageFix" result="effect1_dropShadow"/>
<feBlend mode="normal" in="SourceGraphic" in2="effect1_dropShadow" result="shape"/>
</filter>
<filter id="filter1_d" x="57.7162" y="111.634" width="121.801" height="86.7051" filterUnits="userSpaceOnUse" color-interpolation-filters="sRGB">
<feFlood flood-opacity="0" result="BackgroundImageFix"/>
<feColorMatrix in="SourceAlpha" type="matrix" values="0 0 0 0 0 0 0 0 0 0 0 0 0 0 0 0 0 0 127 0"/>
<feOffset dx="1" dy="1"/>
<feGaussianBlur stdDeviation="1"/>
<feColorMatrix type="matrix" values="0 0 0 0 0.6875 0 0 0 0 0.6875 0 0 0 0 0.6875 0 0 0 0.43 0"/>
<feBlend mode="normal" in2="BackgroundImageFix" result="effect1_dropShadow"/>
<feBlend mode="normal" in="SourceGraphic" in2="effect1_dropShadow" result="shape"/>
</filter>
</defs>
</svg>
