<svg width="297" height="225" viewBox="0 0 297 225" fill="none" xmlns="http://www.w3.org/2000/svg">
<g filter="url(#filter0_d)">
<path fill-rule="evenodd" clip-rule="evenodd" d="M193.514 119.178C195.291 124.471 194.433 130.294 191.206 134.85L153.719 187.769C150.501 192.312 145.312 195.051 139.746 195.145C134.18 195.239 128.902 192.676 125.532 188.245L118.725 179.29C100.985 155.958 76.5185 138.626 48.623 129.632L37.9172 126.18C32.6189 124.471 28.4507 120.342 26.6928 115.06C24.9349 109.778 25.7973 103.974 29.0153 99.4317L66.5022 46.5125C69.7295 41.9565 74.9386 39.2158 80.5213 39.1364C86.104 39.057 91.3889 41.6485 94.7445 46.1109L101.005 54.4362C118.931 78.2751 143.849 95.9266 172.285 104.93L182.216 108.074C187.539 109.759 191.737 113.885 193.514 119.178ZM176.938 124.743L167.007 121.599C164.498 120.804 162.012 119.95 159.553 119.036C133.211 109.252 109.89 92.7314 91.9207 71.1267C90.2433 69.1099 88.6126 67.0489 87.0304 64.9449L80.7699 56.6195L43.283 109.539L53.9887 112.991C56.2236 113.711 58.4388 114.48 60.633 115.295C86.9754 125.079 110.297 141.599 128.266 163.204C129.763 165.004 131.222 166.839 132.643 168.708L139.451 177.662L176.938 124.743Z" fill="white"/>
<path d="M176.938 124.744L139.451 177.663L132.643 168.708C112.74 142.53 85.2878 123.083 53.9887 112.991L43.283 109.539L80.7699 56.6199L87.0304 64.9453C107.144 91.6927 135.102 111.498 167.007 121.599L176.938 124.744Z" fill="white"/>
<path fill-rule="evenodd" clip-rule="evenodd" d="M185.713 121.797C186.654 124.599 186.2 127.682 184.492 130.094L147.005 183.013C145.301 185.418 142.554 186.868 139.607 186.918C136.661 186.968 133.866 185.611 132.082 183.265L125.275 174.311C106.517 149.639 80.6452 131.312 51.148 121.801L40.4423 118.349C37.6373 117.444 35.4306 115.258 34.4999 112.462C33.5693 109.665 34.0258 106.593 35.7295 104.188L73.2164 51.2688C74.925 48.8568 77.6827 47.4059 80.6383 47.3638C83.5938 47.3218 86.3917 48.6938 88.1682 51.0562L94.4287 59.3816C113.384 84.5892 139.733 103.254 169.802 112.774L179.732 115.918C182.55 116.811 184.773 118.995 185.713 121.797ZM176.938 124.743L167.007 121.599C135.102 111.498 107.144 91.6924 87.0304 64.9449L80.7699 56.6196L43.283 109.539L53.9887 112.991C85.2878 123.083 112.74 142.529 132.643 168.708L139.451 177.663L176.938 124.743Z" fill="#4F6B49"/>
<path fill-rule="evenodd" clip-rule="evenodd" d="M160.241 156.153C148.131 147.45 121.172 128.178 110.067 120.611C103.143 115.892 89.7213 107.227 77.7472 99.5425C73.742 96.9722 69.8859 94.5037 66.4921 92.3312C59.8078 88.0522 54.9167 84.9211 54.2113 84.4214C53.0525 83.6006 52.7785 81.9957 53.5994 80.8369C54.4203 79.6781 56.0251 79.4042 57.1839 80.225C57.7887 80.6535 62.3369 83.565 68.729 87.6568C72.224 89.8941 76.2703 92.4843 80.5246 95.2144C92.4796 102.886 105.967 111.594 112.963 116.361C124.132 123.972 151.149 143.286 163.243 151.978C164.396 152.806 164.659 154.413 163.83 155.566C163.001 156.719 161.394 156.982 160.241 156.153Z" fill="#4F6B49"/>
<path fill-rule="evenodd" clip-rule="evenodd" d="M127.251 95.2135C128.178 95.8702 128.397 97.154 127.74 98.0811L97.1171 141.311C96.4604 142.238 95.1765 142.457 94.2495 141.8C93.3224 141.144 93.1033 139.86 93.76 138.933L124.383 95.703C125.04 94.7759 126.324 94.5568 127.251 95.2135Z" fill="#4F6B49"/>
<path fill-rule="evenodd" clip-rule="evenodd" d="M99.1135 69.7729C100.272 70.5938 100.546 72.1987 99.7254 73.3575L65.562 121.585C64.7411 122.744 63.1362 123.018 61.9774 122.197C60.8186 121.376 60.5447 119.771 61.3656 118.612L95.529 70.3848C96.3498 69.226 97.9547 68.9521 99.1135 69.7729ZM157.555 112.298C158.714 113.118 158.988 114.723 158.167 115.882L124.357 163.61C123.537 164.769 121.932 165.043 120.773 164.222C119.614 163.401 119.34 161.796 120.161 160.637L153.97 112.909C154.791 111.751 156.396 111.477 157.555 112.298Z" fill="#4F6B49"/>
</g>
<g filter="url(#filter1_d)">
<path d="M5.86818 51.0325C5.53528 49.3528 6.62705 47.7213 8.30671 47.3884L50.8848 38.9497C52.5645 38.6168 54.196 39.7085 54.5289 41.3882L62.9677 83.9663C63.3006 85.646 62.2088 87.2775 60.5291 87.6104L17.951 96.0492C16.2714 96.3821 14.6399 95.2903 14.307 93.6106L5.86818 51.0325Z" fill="#4F6B49"/>
<path fill-rule="evenodd" clip-rule="evenodd" d="M7.61352 43.8911L50.1916 35.4523C53.8029 34.7365 57.3106 37.0838 58.0264 40.6951L66.4652 83.2732C67.1809 86.8845 64.8336 90.3922 61.2223 91.108L18.6442 99.5468C15.0329 100.262 11.5252 97.9152 10.8095 94.3039L2.37069 51.7258C1.65496 48.1145 4.00225 44.6068 7.61352 43.8911ZM8.30671 47.3885C6.62705 47.7214 5.53528 49.3529 5.86818 51.0326L14.307 93.6107C14.6399 95.2904 16.2714 96.3822 17.951 96.0493L60.5291 87.6105C62.2088 87.2776 63.3006 85.6461 62.9677 83.9664L54.5289 41.3883C54.196 39.7086 52.5645 38.6169 50.8848 38.9498L8.30671 47.3885Z" fill="white"/>
<path d="M21.5358 71.3636C21.7085 70.9718 22.166 70.7943 22.5577 70.967L35.8996 76.8485C36.2913 77.0212 36.4689 77.4787 36.2962 77.8704L34.8379 81.1784C34.6653 81.5701 34.2077 81.7477 33.816 81.575L20.4741 75.6934C20.0824 75.5207 19.9049 75.0632 20.0776 74.6715L21.5358 71.3636Z" fill="white"/>
<path d="M30.3191 79.9836C29.9274 79.8109 29.7499 79.3534 29.9226 78.9616L41.8882 51.8185C42.0608 51.4268 42.5184 51.2493 42.9101 51.422L47.1716 53.3006C47.5633 53.4733 47.7409 53.9308 47.5682 54.3225L35.6026 81.4656C35.4299 81.8573 34.9724 82.0349 34.5807 81.8622L30.3191 79.9836Z" fill="white"/>
</g>
<g filter="url(#filter2_d)">
<path d="M136.801 166.401C137.188 164.543 135.995 162.722 134.136 162.335L87.0149 152.525C85.1561 152.138 83.3354 153.331 82.9484 155.19L73.1383 202.311C72.7513 204.17 73.9445 205.991 75.8034 206.378L122.925 216.188C124.783 216.575 126.604 215.381 126.991 213.523L136.801 166.401Z" fill="#4F6B49"/>
<path fill-rule="evenodd" clip-rule="evenodd" d="M134.942 158.464L87.8208 148.654C83.8242 147.822 79.9099 150.387 79.0778 154.384L69.2677 201.505C68.4356 205.502 71.001 209.416 74.9976 210.248L122.119 220.058C126.115 220.89 130.03 218.325 130.862 214.328L140.672 167.207C141.504 163.211 138.939 159.296 134.942 158.464ZM134.136 162.335C135.995 162.722 137.188 164.542 136.801 166.401L126.991 213.522C126.604 215.381 124.783 216.575 122.925 216.188L75.8034 206.377C73.9445 205.99 72.7513 204.17 73.1383 202.311L82.9485 155.19C83.3355 153.331 85.1561 152.138 87.015 152.525L134.136 162.335Z" fill="white"/>
<path d="M119.867 170.031C119.595 169.642 119.059 169.547 118.67 169.819L86.6145 192.24C86.2255 192.512 86.1308 193.048 86.4028 193.437L90.0723 198.683C90.3443 199.072 90.8802 199.167 91.2692 198.895L123.325 176.474C123.714 176.202 123.808 175.666 123.536 175.277L119.867 170.031Z" fill="white"/>
<path d="M117.943 200.446C118.354 200.209 118.495 199.684 118.258 199.273L98.7165 165.385C98.4794 164.974 97.9538 164.833 97.5426 165.07L91.9964 168.268C91.5852 168.505 91.444 169.031 91.6812 169.442L111.223 203.329C111.46 203.741 111.985 203.882 112.397 203.645L117.943 200.446Z" fill="white"/>
</g>
<g filter="url(#filter3_d)">
<path fill-rule="evenodd" clip-rule="evenodd" d="M264.903 60.6234L210.995 41.4959L174.42 59.0474L155.463 113.032L209.477 131.999L245.992 114.476L264.903 60.6234ZM150.534 127.069C142.781 124.347 138.704 115.855 141.426 108.103L160.383 54.1181C161.69 50.3938 164.425 47.3419 167.983 45.6342L204.558 28.0826C208.129 26.3688 212.236 26.15 215.97 27.4746L269.878 46.6022C277.603 49.3434 281.656 57.8179 278.94 65.5527L260.03 119.405C258.722 123.129 255.988 126.181 252.429 127.889L215.914 145.412C212.358 147.119 208.27 147.343 204.548 146.036L150.534 127.069Z" fill="white"/>
</g>
<path d="M168.553 53.1073L187.202 46.9711L215.632 36.2031L251.202 45.2549L275.922 60.7914L258.233 106.887L248.669 123.989L215.554 138.772L200.974 135.797L159.085 127.942L147.195 115.161L158.01 76.3611L168.553 53.1073Z" fill="white"/>
<path fill-rule="evenodd" clip-rule="evenodd" d="M210.351 40.1539C210.708 39.9825 211.119 39.9606 211.492 40.093L265.4 59.2206C266.173 59.4947 266.578 60.3422 266.306 61.1157L247.396 114.968C247.265 115.341 246.992 115.646 246.636 115.817L210.121 133.34C209.765 133.51 209.356 133.533 208.984 133.402L154.97 114.435C154.195 114.163 153.787 113.314 154.059 112.538L173.016 58.5538C173.147 58.1813 173.42 57.8762 173.776 57.7054L210.351 40.1539ZM211.08 43.1042L178.303 58.8334L228.478 76.4523L261.034 60.8289L211.08 43.1042ZM262.309 63.5175L229.763 79.1356L212.082 129.098L244.793 113.401L262.309 63.5175ZM208.57 130.103L226.666 78.9697L175.331 60.9434L157.36 112.12L208.57 130.103Z" stroke="#4F6B49" stroke-width="5" stroke-linejoin="round"/>
<defs>
<filter id="filter0_d" x="17.9082" y="31.2446" width="186.405" height="173.793" filterUnits="userSpaceOnUse" color-interpolation-filters="sRGB">
<feFlood flood-opacity="0" result="BackgroundImageFix"/>
<feColorMatrix in="SourceAlpha" type="matrix" values="0 0 0 0 0 0 0 0 0 0 0 0 0 0 0 0 0 0 127 0"/>
<feOffset dx="1" dy="1"/>
<feGaussianBlur stdDeviation="1"/>
<feColorMatrix type="matrix" values="0 0 0 0 0.6875 0 0 0 0 0.6875 0 0 0 0 0.6875 0 0 0 0.43 0"/>
<feBlend mode="normal" in2="BackgroundImageFix" result="effect1_dropShadow"/>
<feBlend mode="normal" in="SourceGraphic" in2="effect1_dropShadow" result="shape"/>
</filter>
<filter id="filter1_d" x="0.0747375" y="33.1562" width="70.6864" height="70.6864" filterUnits="userSpaceOnUse" color-interpolation-filters="sRGB">
<feFlood flood-opacity="0" result="BackgroundImageFix"/>
<feColorMatrix in="SourceAlpha" type="matrix" values="0 0 0 0 0 0 0 0 0 0 0 0 0 0 0 0 0 0 127 0"/>
<feOffset dx="1" dy="1"/>
<feGaussianBlur stdDeviation="1"/>
<feColorMatrix type="matrix" values="0 0 0 0 0.6875 0 0 0 0 0.6875 0 0 0 0 0.6875 0 0 0 0.43 0"/>
<feBlend mode="normal" in2="BackgroundImageFix" result="effect1_dropShadow"/>
<feBlend mode="normal" in="SourceGraphic" in2="effect1_dropShadow" result="shape"/>
</filter>
<filter id="filter2_d" x="66.7611" y="146.147" width="78.4173" height="78.4173" filterUnits="userSpaceOnUse" color-interpolation-filters="sRGB">
<feFlood flood-opacity="0" result="BackgroundImageFix"/>
<feColorMatrix in="SourceAlpha" type="matrix" values="0 0 0 0 0 0 0 0 0 0 0 0 0 0 0 0 0 0 127 0"/>
<feOffset dx="1" dy="1"/>
<feGaussianBlur stdDeviation="1"/>
<feColorMatrix type="matrix" values="0 0 0 0 0.6875 0 0 0 0 0.6875 0 0 0 0 0.6875 0 0 0 0.43 0"/>
<feBlend mode="normal" in2="BackgroundImageFix" result="effect1_dropShadow"/>
<feBlend mode="normal" in="SourceGraphic" in2="effect1_dropShadow" result="shape"/>
</filter>
<filter id="filter3_d" x="135.497" y="12.0225" width="151.434" height="151.434" filterUnits="userSpaceOnUse" color-interpolation-filters="sRGB">
<feFlood flood-opacity="0" result="BackgroundImageFix"/>
<feColorMatrix in="SourceAlpha" type="matrix" values="0 0 0 0 0 0 0 0 0 0 0 0 0 0 0 0 0 0 127 0"/>
<feOffset dx="1" dy="1"/>
<feGaussianBlur stdDeviation="1"/>
<feColorMatrix type="matrix" values="0 0 0 0 0.6875 0 0 0 0 0.6875 0 0 0 0 0.6875 0 0 0 0.43 0"/>
<feBlend mode="normal" in2="BackgroundImageFix" result="effect1_dropShadow"/>
<feBlend mode="normal" in="SourceGraphic" in2="effect1_dropShadow" result="shape"/>
</filter>
</defs>
</svg>
