<svg width="658" height="658" viewBox="0 0 658 658" fill="none" xmlns="http://www.w3.org/2000/svg">
<g filter="url(#filter0_d)">
<g filter="url(#filter1_d)">
<path d="M83.6964 48.2768C85.7194 37.4179 96.1622 30.255 107.021 32.2781L382.285 83.56C393.144 85.5831 400.307 96.0259 398.284 106.885L347.002 382.149C344.979 393.007 334.536 400.17 323.677 398.147L48.4131 346.865C37.5542 344.842 30.3914 334.399 32.4144 323.541L83.6964 48.2768Z" fill="#4F6B49"/>
</g>
<g filter="url(#filter2_d)">
<path fill-rule="evenodd" clip-rule="evenodd" d="M111.234 9.66708L386.497 60.9491C409.844 65.2986 425.244 87.7506 420.895 111.097L369.613 386.361C365.263 409.707 342.811 425.108 319.464 420.758L44.2007 369.476C20.8542 365.127 5.45401 342.675 9.80349 319.328L61.0855 44.0643C65.435 20.7177 87.8871 5.31758 111.234 9.66708ZM107.021 32.278C96.1623 30.255 85.7195 37.4179 83.6964 48.2767L32.4144 323.541C30.3914 334.399 37.5543 344.842 48.4131 346.865L323.677 398.147C334.536 400.17 344.979 393.007 347.002 382.149L398.284 106.885C400.307 96.0259 393.144 85.583 382.285 83.56L107.021 32.278Z" fill="white"/>
</g>
<path d="M166.816 105.213C169.14 103.72 172.233 104.394 173.726 106.717L296.72 298.182C298.213 300.505 297.539 303.599 295.216 305.091L263.88 325.221C261.556 326.713 258.463 326.04 256.971 323.717L133.976 132.252C132.484 129.929 133.157 126.835 135.48 125.343L166.816 105.213Z" fill="white"/>
<path d="M109.993 273.151C108.304 270.967 108.705 267.827 110.889 266.137L290.906 126.924C293.09 125.234 296.23 125.636 297.92 127.82L320.704 157.282C322.393 159.467 321.992 162.607 319.808 164.296L139.791 303.51C137.607 305.2 134.466 304.798 132.777 302.614L109.993 273.151Z" fill="white"/>
</g>
<g filter="url(#filter3_d)">
<g filter="url(#filter4_d)">
<path d="M232.244 338.985C229.022 328.42 234.976 317.243 245.541 314.021L513.366 232.353C523.932 229.131 535.108 235.085 538.33 245.65L619.998 513.475C623.22 524.041 617.267 535.217 606.701 538.439L338.876 620.107C328.311 623.329 317.134 617.376 313.912 606.81L232.244 338.985Z" fill="#4F6B49"/>
</g>
<g filter="url(#filter5_d)">
<path fill-rule="evenodd" clip-rule="evenodd" d="M238.832 292.021L506.658 210.353C529.373 203.426 553.403 216.226 560.33 238.941L641.998 506.767C648.925 529.482 636.125 553.512 613.41 560.439L345.584 642.107C322.869 649.034 298.839 636.234 291.912 613.519L210.244 345.694C203.317 322.978 216.117 298.948 238.832 292.021ZM245.541 314.021C234.975 317.243 229.022 328.42 232.244 338.985L313.912 606.81C317.134 617.376 328.311 623.329 338.876 620.107L606.701 538.439C617.267 535.217 623.22 524.04 619.998 513.475L538.33 245.65C535.108 235.085 523.931 229.131 513.366 232.353L245.541 314.021Z" fill="white"/>
</g>
<path d="M345.937 459.353C346.792 456.727 349.614 455.292 352.239 456.147L441.67 485.277C444.296 486.133 445.731 488.954 444.876 491.58L437.653 513.753C436.798 516.379 433.976 517.814 431.351 516.959L341.92 487.829C339.294 486.973 337.859 484.152 338.714 481.526L345.937 459.353Z" fill="white"/>
<path d="M407.878 509.002C405.253 508.147 403.818 505.325 404.673 502.699L463.936 320.759C464.791 318.133 467.613 316.698 470.239 317.553L498.804 326.857C501.43 327.713 502.865 330.534 502.009 333.16L442.746 515.101C441.891 517.727 439.069 519.162 436.443 518.307L407.878 509.002Z" fill="white"/>
</g>
<defs>
<filter id="filter0_d" x="0.927979" y="0.791626" width="430.842" height="430.842" filterUnits="userSpaceOnUse" color-interpolation-filters="sRGB">
<feFlood flood-opacity="0" result="BackgroundImageFix"/>
<feColorMatrix in="SourceAlpha" type="matrix" values="0 0 0 0 0 0 0 0 0 0 0 0 0 0 0 0 0 0 127 0"/>
<feOffset dx="1" dy="1"/>
<feGaussianBlur stdDeviation="1"/>
<feColorMatrix type="matrix" values="0 0 0 0 0.6875 0 0 0 0 0.6875 0 0 0 0 0.6875 0 0 0 0.2 0"/>
<feBlend mode="normal" in2="BackgroundImageFix" result="effect1_dropShadow"/>
<feBlend mode="normal" in="SourceGraphic" in2="effect1_dropShadow" result="shape"/>
</filter>
<filter id="filter1_d" x="27.7515" y="27.6151" width="377.195" height="377.195" filterUnits="userSpaceOnUse" color-interpolation-filters="sRGB">
<feFlood flood-opacity="0" result="BackgroundImageFix"/>
<feColorMatrix in="SourceAlpha" type="matrix" values="0 0 0 0 0 0 0 0 0 0 0 0 0 0 0 0 0 0 127 0"/>
<feOffset dx="1" dy="1"/>
<feGaussianBlur stdDeviation="1"/>
<feColorMatrix type="matrix" values="0 0 0 0 0.6875 0 0 0 0 0.6875 0 0 0 0 0.6875 0 0 0 0.2 0"/>
<feBlend mode="normal" in2="BackgroundImageFix" result="effect1_dropShadow"/>
<feBlend mode="normal" in="SourceGraphic" in2="effect1_dropShadow" result="shape"/>
</filter>
<filter id="filter2_d" x="0.927979" y="0.791626" width="430.842" height="430.842" filterUnits="userSpaceOnUse" color-interpolation-filters="sRGB">
<feFlood flood-opacity="0" result="BackgroundImageFix"/>
<feColorMatrix in="SourceAlpha" type="matrix" values="0 0 0 0 0 0 0 0 0 0 0 0 0 0 0 0 0 0 127 0"/>
<feOffset dx="1" dy="1"/>
<feGaussianBlur stdDeviation="1"/>
<feColorMatrix type="matrix" values="0 0 0 0 0.6875 0 0 0 0 0.6875 0 0 0 0 0.6875 0 0 0 0.2 0"/>
<feBlend mode="normal" in2="BackgroundImageFix" result="effect1_dropShadow"/>
<feBlend mode="normal" in="SourceGraphic" in2="effect1_dropShadow" result="shape"/>
</filter>
<filter id="filter3_d" x="196.702" y="196.811" width="460.838" height="460.838" filterUnits="userSpaceOnUse" color-interpolation-filters="sRGB">
<feFlood flood-opacity="0" result="BackgroundImageFix"/>
<feColorMatrix in="SourceAlpha" type="matrix" values="0 0 0 0 0 0 0 0 0 0 0 0 0 0 0 0 0 0 127 0"/>
<feOffset dx="1" dy="1"/>
<feGaussianBlur stdDeviation="1"/>
<feColorMatrix type="matrix" values="0 0 0 0 0.6875 0 0 0 0 0.6875 0 0 0 0 0.6875 0 0 0 0.2 0"/>
<feBlend mode="normal" in2="BackgroundImageFix" result="effect1_dropShadow"/>
<feBlend mode="normal" in="SourceGraphic" in2="effect1_dropShadow" result="shape"/>
</filter>
<filter id="filter4_d" x="225.411" y="225.52" width="403.421" height="403.421" filterUnits="userSpaceOnUse" color-interpolation-filters="sRGB">
<feFlood flood-opacity="0" result="BackgroundImageFix"/>
<feColorMatrix in="SourceAlpha" type="matrix" values="0 0 0 0 0 0 0 0 0 0 0 0 0 0 0 0 0 0 127 0"/>
<feOffset dx="1" dy="1"/>
<feGaussianBlur stdDeviation="1"/>
<feColorMatrix type="matrix" values="0 0 0 0 0.6875 0 0 0 0 0.6875 0 0 0 0 0.6875 0 0 0 0.2 0"/>
<feBlend mode="normal" in2="BackgroundImageFix" result="effect1_dropShadow"/>
<feBlend mode="normal" in="SourceGraphic" in2="effect1_dropShadow" result="shape"/>
</filter>
<filter id="filter5_d" x="196.702" y="196.811" width="460.838" height="460.838" filterUnits="userSpaceOnUse" color-interpolation-filters="sRGB">
<feFlood flood-opacity="0" result="BackgroundImageFix"/>
<feColorMatrix in="SourceAlpha" type="matrix" values="0 0 0 0 0 0 0 0 0 0 0 0 0 0 0 0 0 0 127 0"/>
<feOffset dx="1" dy="1"/>
<feGaussianBlur stdDeviation="1"/>
<feColorMatrix type="matrix" values="0 0 0 0 0.6875 0 0 0 0 0.6875 0 0 0 0 0.6875 0 0 0 0.2 0"/>
<feBlend mode="normal" in2="BackgroundImageFix" result="effect1_dropShadow"/>
<feBlend mode="normal" in="SourceGraphic" in2="effect1_dropShadow" result="shape"/>
</filter>
</defs>
</svg>
