<svg width="476" height="412" viewBox="0 0 476 412" fill="none" xmlns="http://www.w3.org/2000/svg">
<g filter="url(#filter0_d)">
<path d="M297.198 256.837C289.3 264.721 289.3 269.393 297.198 278.724L380.917 376.365L361.885 378.818C357.918 379.161 356.49 381.332 356.49 384.949V388.542H452.782V385.292C452.782 381.699 451.354 379.554 447.386 379.161L426.548 375.936L319.843 252.864L405.649 147.167L429.722 140.337C433.311 139.27 434.752 137.112 434.752 133.532V130.65H361.8V133.924C361.8 137.529 363.252 139.675 366.841 140.754L388.034 146.885L297.198 256.837Z" fill="#608259"/>
<path fill-rule="evenodd" clip-rule="evenodd" d="M297.198 278.724C289.3 269.393 289.3 264.721 297.198 256.837L388.034 146.885L366.841 140.754C363.252 139.675 361.8 137.529 361.8 133.924V130.65H434.752V133.532C434.752 137.112 433.311 139.27 429.722 140.337L405.649 147.167L319.843 252.864L426.548 375.936L447.386 379.161C451.354 379.554 452.782 381.699 452.782 385.292V388.542H356.49V384.949C356.49 382.951 356.925 381.395 357.983 380.344C358.841 379.492 360.108 378.972 361.885 378.818L380.917 376.365L297.198 278.724ZM344.955 365.149L282.015 291.743C281.987 291.71 281.96 291.678 281.932 291.646C277.822 286.789 271.274 278.386 271.274 267.238C271.274 255.97 277.825 248.039 282.349 243.409L353.969 156.717C351.411 155.118 348.899 152.95 346.771 150.01C342.679 144.355 341.8 138.3 341.8 133.924V130.65C341.8 119.605 350.754 110.65 361.8 110.65H434.752C445.797 110.65 454.752 119.605 454.752 130.65V133.532C454.752 137.886 453.879 143.931 449.799 149.583C445.653 155.328 440.025 158.14 435.42 159.508C435.341 159.532 435.261 159.555 435.181 159.578L417.191 164.682L345.947 252.441L436.855 357.293L450.046 359.335C455.181 359.962 461.911 362.127 467.003 368.304C472.04 374.412 472.782 381.248 472.782 385.292V388.542C472.782 399.587 463.828 408.542 452.782 408.542H356.49C345.444 408.542 336.49 399.587 336.49 388.542V384.949C336.49 380.938 337.213 374.082 342.25 367.955C343.109 366.909 344.016 365.978 344.955 365.149Z" fill="white"/>
<path d="M52.8388 32.9724L26.959 30.5201C23.0038 29.6985 21.5755 27.9451 21.5755 24.3401V21.1152H121.091V24.3401C121.091 27.9451 119.662 29.7353 115.707 30.471L89.8274 32.9724V131.067H199.805C203.393 137.529 199.805 143.979 193.322 143.979H89.8274V263.152L115.707 265.665C119.662 266.389 121.091 268.118 121.091 271.796V274.935H21.5755V271.711C21.5755 268.118 23.0038 266.328 26.959 265.58L52.8388 263.066V32.9724Z" fill="#608259"/>
<path fill-rule="evenodd" clip-rule="evenodd" d="M109.827 245L117.641 245.759C118.199 245.813 118.754 245.891 119.306 245.992C123.178 246.7 129.811 248.542 134.996 254.524C140.342 260.693 141.091 267.696 141.091 271.796V274.935C141.091 285.981 132.136 294.935 121.091 294.935H21.5755C10.5298 294.935 1.5755 285.981 1.5755 274.935V271.711C1.5755 267.535 2.37382 260.639 7.61994 254.538C12.7129 248.616 19.2374 246.685 23.2427 245.928C23.8328 245.816 24.4277 245.731 25.0255 245.673L32.8388 244.914V51.1668L25.0722 50.4309C24.3399 50.3615 23.6119 50.2517 22.8916 50.1021C19.042 49.3025 12.6282 47.3472 7.60997 41.5026C2.3804 35.4119 1.5755 28.5372 1.5755 24.3401V21.1152C1.5755 10.0695 10.5298 1.11523 21.5755 1.11523H121.091C132.136 1.11523 141.091 10.0695 141.091 21.1152V24.3401C141.091 28.5015 140.301 35.4113 135.046 41.5218C129.934 47.4667 123.381 49.3868 119.365 50.1338C118.791 50.2405 118.212 50.3221 117.631 50.3783L109.827 51.1325V111.067H199.805C207.069 111.067 213.762 115.006 217.289 121.356C221.882 129.626 222.855 140.002 218.083 149.176C213.224 158.518 203.676 163.979 193.322 163.979H109.827V245ZM89.8274 143.979H193.322C196.154 143.979 198.434 142.748 199.805 140.822C201.57 138.341 201.825 134.706 199.805 131.067H89.8274V32.9724L115.707 30.471C115.715 30.4696 115.723 30.4681 115.731 30.4666C115.731 30.4666 115.731 30.4666 115.731 30.4666C119.668 29.7281 121.091 27.9378 121.091 24.3401V21.1152H21.5755V24.3401C21.5755 27.9429 23.0021 29.6964 26.9519 30.5186C26.9532 30.5189 26.9544 30.5191 26.9556 30.5194C26.9567 30.5196 26.9579 30.5198 26.959 30.5201L52.8388 32.9724V263.066L26.959 265.58C23.0038 266.328 21.5755 268.118 21.5755 271.711V274.935H121.091V271.796C121.091 271.78 121.091 271.764 121.091 271.747C121.078 268.102 119.645 266.386 115.707 265.665L89.8274 263.152V143.979Z" fill="white"/>
<path d="M262.883 375.949L290.374 378.622C294.585 379.382 296.111 381.295 296.111 385.133V388.566H190.175V385.133C190.175 381.295 191.713 379.382 195.912 378.622L223.465 375.949V33.7327L195.912 31.0473C191.713 30.2748 190.175 28.3742 190.175 24.5486V21.1152H296.16V24.5486C296.16 28.3742 294.634 30.2748 290.423 31.0473L262.883 33.7327V375.949Z" fill="#608259"/>
<path fill-rule="evenodd" clip-rule="evenodd" d="M190.175 388.566V385.133C190.175 381.295 191.713 379.382 195.912 378.622L223.465 375.949V33.7327L195.912 31.0473C191.713 30.2748 190.175 28.3742 190.175 24.5486V21.1152H296.16V24.5486C296.16 28.3742 294.634 30.2748 290.423 31.0473L262.883 33.7327V375.949L290.374 378.622C294.585 379.382 296.111 381.295 296.111 385.133V388.566H190.175ZM282.883 357.799L292.309 358.715C292.851 358.768 293.391 358.843 293.927 358.94C298.104 359.694 304.775 361.64 309.969 367.663C315.295 373.84 316.111 380.85 316.111 385.133V388.566C316.111 399.612 307.157 408.566 296.111 408.566H190.175C179.129 408.566 170.175 399.612 170.175 388.566V385.133C170.175 380.817 171.008 373.815 176.333 367.65C181.519 361.646 188.172 359.698 192.35 358.941C192.89 358.844 193.434 358.768 193.981 358.715L203.465 357.795V51.8782L193.972 50.953C193.41 50.8982 192.85 50.8195 192.294 50.7173C188.155 49.9559 181.527 48.0124 176.352 42.0376C171.016 35.8783 170.175 28.8766 170.175 24.5486V21.1152C170.175 10.0695 179.129 1.11523 190.175 1.11523H296.16C307.206 1.11523 316.16 10.0695 316.16 21.1152V24.5486C316.16 28.8438 315.336 35.8534 309.999 42.0251C304.816 48.0187 298.169 49.9601 294.031 50.7192C293.479 50.8204 292.922 50.8984 292.363 50.9529L282.883 51.8774V357.799Z" fill="white"/>
</g>
<defs>
<filter id="filter0_d" x="0.5755" y="0.115234" width="475.206" height="411.451" filterUnits="userSpaceOnUse" color-interpolation-filters="sRGB">
<feFlood flood-opacity="0" result="BackgroundImageFix"/>
<feColorMatrix in="SourceAlpha" type="matrix" values="0 0 0 0 0 0 0 0 0 0 0 0 0 0 0 0 0 0 127 0"/>
<feOffset dx="1" dy="1"/>
<feGaussianBlur stdDeviation="1"/>
<feColorMatrix type="matrix" values="0 0 0 0 0.6875 0 0 0 0 0.6875 0 0 0 0 0.6875 0 0 0 0.2 0"/>
<feBlend mode="normal" in2="BackgroundImageFix" result="effect1_dropShadow"/>
<feBlend mode="normal" in="SourceGraphic" in2="effect1_dropShadow" result="shape"/>
</filter>
</defs>
</svg>
