<svg width="400" height="548" viewBox="0 0 400 548" fill="none" xmlns="http://www.w3.org/2000/svg">
<g filter="url(#filter0_d)">
<path d="M346.154 514.87C347.541 514.069 348.766 513.045 349.788 511.852C351.332 511.564 352.832 511.015 354.219 510.214L375.117 498.148C379.883 495.397 382.595 490.108 382.048 484.631L381.377 477.922C377.053 434.674 368.188 369.402 358.492 311.605C353.643 282.704 348.538 255.377 343.631 233.449C341.182 222.503 338.723 212.633 336.303 204.46C334.052 196.855 331.306 188.833 327.843 182.834C313.315 157.671 286.171 153.486 267.523 154.163C256.992 154.544 246.563 156.463 237.348 158.934L231.754 149.244C237.551 137.441 237.56 123.05 230.478 110.785L187.226 35.8698C175.947 16.3333 150.965 9.6396 131.429 20.919L35.8474 76.103C16.3109 87.3824 9.6172 112.364 20.8966 131.9L64.1489 206.815C69.7821 216.572 78.8366 223.118 88.8932 225.83L97.049 239.956C90.3336 246.684 83.4943 254.736 77.93 263.644C68.0478 279.463 58.1914 305.019 72.6964 330.143C76.1546 336.133 81.7175 342.517 87.1722 348.273L97.3337 338.643L87.1722 348.273C93.033 354.457 100.341 361.526 108.585 369.126C125.1 384.35 146.184 402.45 168.757 421.118C213.898 458.449 265.915 498.807 301.151 524.207L306.628 528.155C311.098 531.377 317.043 531.678 321.815 528.922L346.154 514.87ZM230.072 280.289L230.818 267.733L230.072 280.289ZM222.572 295.593C221.409 295.535 220.227 295.622 219.05 295.865L212.088 297.298C212.042 297.297 211.975 297.294 211.889 297.286C211.559 297.254 211.103 297.162 210.595 296.957C209.762 296.621 208.464 295.863 207.208 293.786C208.168 292.522 210.59 289.986 216.063 286.826C222.82 282.925 227.076 281.929 229.041 281.74C229.975 283.619 229.973 284.969 229.855 285.801C229.777 286.345 229.627 286.791 229.485 287.099C229.445 287.187 229.41 287.253 229.386 287.296L224.546 292.729C223.759 293.613 223.1 294.576 222.572 295.593Z" fill="white" stroke="white" stroke-width="28" stroke-linejoin="round"/>
<path fill-rule="evenodd" clip-rule="evenodd" d="M347.219 498.09L368.117 486.024L367.446 479.315C363.16 436.435 354.34 371.476 344.685 313.921C339.857 285.143 334.799 258.09 329.969 236.506C327.556 225.722 325.175 216.188 322.879 208.434C320.656 200.926 318.29 194.289 315.718 189.834C305.156 171.539 284.988 167.538 268.03 168.153C254.759 168.635 241.316 171.929 230.795 175.583L215.356 148.843C222.679 140.434 224.241 127.981 218.354 117.785L175.102 42.8698C167.688 30.0294 151.269 25.6299 138.429 33.0433L42.8474 88.2274C30.007 95.6408 25.6075 112.06 33.0209 124.9L76.2733 199.815C80.9252 207.873 89.123 212.606 97.7575 213.183L114.739 242.595C106.347 249.862 96.8184 259.831 89.8037 271.061C80.8286 285.429 74.2676 304.864 84.8208 323.143C87.3903 327.593 91.9488 332.961 97.3337 338.643C102.895 344.511 109.952 351.344 118.074 358.832C134.331 373.818 155.202 391.741 177.679 410.329C222.631 447.504 274.4 487.666 309.337 512.85L314.815 516.798L339.154 502.746L221.874 309.577L214.664 311.062C210.288 311.963 200.786 310.668 194.953 300.565C192.294 295.96 192.339 292.286 193.942 288.784C195.808 284.706 200.372 279.72 209.063 274.702C218.485 269.262 225.796 267.435 230.818 267.733C235.156 267.99 238.34 269.801 240.814 274.087C246.635 284.169 242.999 293.062 239.998 296.431L235 302.041L347.219 498.09ZM118.104 206.664L141.928 247.928L134.482 253.477C126.274 259.593 114.904 270.291 107.513 282.123C99.94 294.246 98.2158 304.583 102.904 312.703C104.145 314.852 107.198 318.697 112.489 324.279C117.604 329.676 124.286 336.159 132.227 343.479C148.098 358.11 168.652 375.768 190.986 394.238C227.744 424.637 269.058 457.017 301.758 481.387L211.148 332.145C199.851 331.819 185.721 326.335 176.87 311.005C171.094 301.001 170.328 290.206 174.956 280.094C179.32 270.558 187.939 262.787 198.623 256.619C209.867 250.127 221.345 246.253 232.055 246.889C243.448 247.565 252.937 253.323 258.897 263.647C267.722 278.931 265.422 293.87 260.078 303.822L343.046 448.769C338.338 409.57 331.464 361.319 324.092 317.376C319.295 288.781 314.307 262.136 309.593 241.066C307.234 230.523 304.968 221.491 302.857 214.361C300.674 206.984 298.874 202.419 297.635 200.274C292.957 192.171 283.13 188.5 268.787 189.02C254.798 189.527 239.792 194.055 230.354 198.126L221.823 201.805L197.997 160.537L118.104 206.664ZM196.596 133.791L101.014 188.975C99.5876 189.799 97.7632 189.31 96.9395 187.884L53.6872 112.968C52.8635 111.542 53.3523 109.717 54.779 108.894L150.361 53.7096C151.787 52.8859 153.612 53.3747 154.435 54.8014L197.688 129.717C198.511 131.143 198.023 132.968 196.596 133.791Z" fill="#4F6B49"/>
</g>
<defs>
<filter id="filter0_d" x="0.415039" y="0.4375" width="398.703" height="547.361" filterUnits="userSpaceOnUse" color-interpolation-filters="sRGB">
<feFlood flood-opacity="0" result="BackgroundImageFix"/>
<feColorMatrix in="SourceAlpha" type="matrix" values="0 0 0 0 0 0 0 0 0 0 0 0 0 0 0 0 0 0 127 0"/>
<feOffset dx="1" dy="1"/>
<feGaussianBlur stdDeviation="1"/>
<feColorMatrix type="matrix" values="0 0 0 0 0.6875 0 0 0 0 0.6875 0 0 0 0 0.6875 0 0 0 0.43 0"/>
<feBlend mode="normal" in2="BackgroundImageFix" result="effect1_dropShadow"/>
<feBlend mode="normal" in="SourceGraphic" in2="effect1_dropShadow" result="shape"/>
</filter>
</defs>
</svg>
