<svg width="1050" height="789" viewBox="0 0 1050 789" fill="none" xmlns="http://www.w3.org/2000/svg">
<g filter="url(#filter0_d)">
<g filter="url(#filter1_d)">
<rect x="15.3801" y="15.3779" width="1016.89" height="755.848" rx="19" stroke="white" stroke-width="28"/>
</g>
<mask id="path-2-inside-1" fill="white">
<rect x="29.3801" y="29.3779" width="988.891" height="727.848" rx="5"/>
</mask>
<rect x="29.3801" y="29.3779" width="988.891" height="727.848" rx="5" fill="white" stroke="#4F6B49" stroke-width="48" mask="url(#path-2-inside-1)"/>
<circle cx="797.375" cy="110.915" r="22.1854" fill="#4F6B49"/>
<circle cx="865.516" cy="110.915" r="22.1854" fill="#4F6B49"/>
<circle cx="933.657" cy="110.915" r="22.1854" fill="#4F6B49"/>
<path d="M680.11 282.076C747.3 166.712 922.564 208.653 1001.8 244.044L1000.21 741.631L348.914 747.969C350.498 733.179 365.711 687.118 413.885 621.196C474.103 538.793 494.703 557.809 589.783 500.761C684.864 443.713 596.122 426.281 680.11 282.076Z" fill="#4F6B49"/>
<path d="M836.129 456.285C869.354 388.699 956.02 413.27 995.2 434.004L994.417 725.516L672.356 729.23C673.139 720.565 680.662 693.58 704.483 654.959C734.26 606.683 664.319 558.405 711.335 524.983C758.351 491.561 794.598 540.768 836.129 456.285Z" fill="white"/>
<rect x="138.152" y="288.415" width="385.673" height="63.3868" fill="#4F6B49"/>
<rect x="138.152" y="123.845" width="96.4183" height="28.288" fill="#4F6B49"/>
<rect x="138.152" y="412.019" width="192.837" height="49.1248" fill="#4F6B49"/>
</g>
<defs>
<filter id="filter0_d" x="0.380127" y="0.37793" width="1048.89" height="787.848" filterUnits="userSpaceOnUse" color-interpolation-filters="sRGB">
<feFlood flood-opacity="0" result="BackgroundImageFix"/>
<feColorMatrix in="SourceAlpha" type="matrix" values="0 0 0 0 0 0 0 0 0 0 0 0 0 0 0 0 0 0 127 0"/>
<feOffset dx="1" dy="1"/>
<feGaussianBlur stdDeviation="1"/>
<feColorMatrix type="matrix" values="0 0 0 0 0.6875 0 0 0 0 0.6875 0 0 0 0 0.6875 0 0 0 0.43 0"/>
<feBlend mode="normal" in2="BackgroundImageFix" result="effect1_dropShadow"/>
<feBlend mode="normal" in="SourceGraphic" in2="effect1_dropShadow" result="shape"/>
</filter>
<filter id="filter1_d" x="0.380127" y="0.37793" width="1048.89" height="787.848" filterUnits="userSpaceOnUse" color-interpolation-filters="sRGB">
<feFlood flood-opacity="0" result="BackgroundImageFix"/>
<feColorMatrix in="SourceAlpha" type="matrix" values="0 0 0 0 0 0 0 0 0 0 0 0 0 0 0 0 0 0 127 0"/>
<feOffset dx="1" dy="1"/>
<feGaussianBlur stdDeviation="1"/>
<feColorMatrix type="matrix" values="0 0 0 0 0.6875 0 0 0 0 0.6875 0 0 0 0 0.6875 0 0 0 0.43 0"/>
<feBlend mode="normal" in2="BackgroundImageFix" result="effect1_dropShadow"/>
<feBlend mode="normal" in="SourceGraphic" in2="effect1_dropShadow" result="shape"/>
</filter>
</defs>
</svg>
