<svg width="288" height="545" viewBox="0 0 288 545" fill="none" xmlns="http://www.w3.org/2000/svg">
<g filter="url(#filter0_d)">
<mask id="path-1-outside-1" maskUnits="userSpaceOnUse" x="1.95837" y="1.7906" width="283" height="541" fill="black">
<rect fill="white" x="1.95837" y="1.7906" width="283" height="541"/>
<path fill-rule="evenodd" clip-rule="evenodd" d="M161.436 40.9149L161.441 40.913L158.743 32.8526C156.055 24.7887 156.053 24.7896 156.05 24.7906L156.043 24.7929L156.026 24.7986L155.978 24.8147C155.941 24.8275 155.891 24.8444 155.83 24.8655C155.707 24.9077 155.539 24.9665 155.327 25.0422C154.904 25.1934 154.307 25.4119 153.561 25.6985C152.071 26.2712 149.979 27.119 147.481 28.2487C142.509 30.4976 135.816 33.9163 129.044 38.5804C115.865 47.6567 100.401 62.8759 99.9922 84.9304C99.8103 94.7523 102.765 103.291 106.725 110.906C109.866 116.947 113.896 122.84 117.659 128.344C118.507 129.585 119.342 130.806 120.15 132.004C129.199 145.425 136.3 157.993 134.458 175.106C73.2419 181.578 24.9584 255.947 24.9584 346.737C24.9584 441.779 77.87 518.826 143.14 518.826C208.41 518.826 261.321 441.779 261.321 346.737C261.321 255.805 212.887 181.346 151.535 175.076C153.353 152.477 143.349 136.003 134.245 122.501C133.292 121.087 132.359 119.721 131.452 118.391L131.451 118.39L131.451 118.39C127.735 112.947 124.431 108.108 121.807 103.062C118.652 96.9956 116.877 91.3093 116.989 85.2452C117.242 71.5946 126.904 60.6962 138.686 52.5811C144.395 48.6496 150.14 45.7041 154.487 43.7379C156.649 42.76 158.436 42.0374 159.661 41.5666C160.272 41.3315 160.742 41.16 161.045 41.0517C161.197 40.9975 161.307 40.9592 161.372 40.9366L161.431 40.9164L158.743 32.8526C161.431 40.9164 161.433 40.9156 161.436 40.9149Z"/>
</mask>
<path d="M161.441 40.913L168.737 62.7254C174.522 60.7902 179.303 56.6356 182.025 51.1756C184.747 45.7156 185.188 39.3977 183.252 33.6123L161.441 40.913ZM161.436 40.9149L168.715 62.7327C168.72 62.7309 168.725 62.7291 168.731 62.7273L161.436 40.9149ZM156.05 24.7906L163.332 46.6073L163.338 46.6053L156.05 24.7906ZM156.043 24.7929L148.76 2.97623C148.748 2.98044 148.735 2.98465 148.723 2.98888L156.043 24.7929ZM156.026 24.7986L148.706 2.99459C148.693 2.99869 148.681 3.00281 148.669 3.00694L156.026 24.7986ZM155.978 24.8147L148.621 3.02301C148.612 3.02608 148.603 3.02916 148.594 3.03224L155.978 24.8147ZM155.83 24.8655L163.328 46.6089L163.329 46.6086L155.83 24.8655ZM155.327 25.0422L163.063 46.7021L163.063 46.7021L155.327 25.0422ZM153.561 25.6985L161.814 47.1671L161.814 47.1671L153.561 25.6985ZM147.481 28.2487L156.96 49.2047L156.96 49.2046L147.481 28.2487ZM129.044 38.5804L142.09 57.5225L142.09 57.5225L129.044 38.5804ZM99.9922 84.9304L122.988 85.3563V85.3563L99.9922 84.9304ZM106.725 110.906L127.13 100.294L127.13 100.294L106.725 110.906ZM117.659 128.344L98.6722 141.325L98.6723 141.326L117.659 128.344ZM120.15 132.004L139.22 119.146L139.22 119.146L120.15 132.004ZM134.458 175.106L136.876 197.978C147.649 196.839 156.167 188.338 157.326 177.567L134.458 175.106ZM151.535 175.076L128.609 173.231C127.605 185.7 136.752 196.685 149.196 197.957L151.535 175.076ZM134.245 122.501L153.315 109.642V109.642L134.245 122.501ZM131.452 118.391L112.394 131.268C112.415 131.299 112.436 131.329 112.456 131.36L131.452 118.391ZM131.451 118.39L150.509 105.514C150.297 105.2 150.078 104.893 149.851 104.59L131.451 118.39ZM131.451 118.39L112.456 131.359C112.648 131.64 112.846 131.918 113.051 132.19L131.451 118.39ZM121.807 103.062L101.401 113.674L121.807 103.062ZM116.989 85.2452L93.9932 84.8193V84.8194L116.989 85.2452ZM138.686 52.5811L125.64 33.639L138.686 52.5811ZM154.487 43.7379L163.966 64.6938L163.966 64.6938L154.487 43.7379ZM159.661 41.5666L151.409 20.098L151.409 20.098L159.661 41.5666ZM161.045 41.0517L168.781 62.7116L168.782 62.7115L161.045 41.0517ZM161.372 40.9366L153.899 19.1846C153.891 19.1874 153.883 19.1902 153.874 19.1931L161.372 40.9366ZM161.431 40.9164L168.904 62.6684C180.84 58.5679 187.242 45.6158 183.251 33.6433L161.431 40.9164ZM154.146 19.1006L154.14 19.1025L168.731 62.7273L168.737 62.7254L154.146 19.1006ZM136.933 40.1533L139.631 48.2137L183.252 33.6123L180.554 25.5518L136.933 40.1533ZM163.338 46.6053C163.338 46.6053 163.223 46.6435 163.107 46.681C162.992 46.718 162.644 46.8251 162.411 46.8934C161.809 47.0667 160.83 47.3228 159.6 47.5149C156.918 47.934 153.536 47.9704 149.853 46.9401C142.951 45.0092 139.191 40.5352 138.091 39.1598C136.739 37.4705 135.943 35.9722 135.688 35.485C135.342 34.8269 135.101 34.29 134.985 34.0236C134.749 33.4868 134.588 33.0592 134.544 32.9435C134.478 32.7689 134.428 32.6314 134.405 32.5672C134.334 32.3681 134.283 32.2166 134.313 32.3043C134.337 32.3766 134.407 32.583 134.577 33.0931C134.91 34.0876 135.579 36.0922 136.924 40.1257L180.563 25.5794C179.22 21.5491 178.543 19.5222 178.202 18.5015C178.035 18.004 177.936 17.7068 177.875 17.5275C177.862 17.4895 177.79 17.2751 177.707 17.0448C177.681 16.9728 177.629 16.8294 177.562 16.6505C177.516 16.5304 177.353 16.0999 177.117 15.5612C177 15.2939 176.759 14.7563 176.413 14.0976C176.157 13.6099 175.361 12.1113 174.009 10.4217C172.909 9.0461 169.149 4.57209 162.247 2.6411C158.564 1.61079 155.182 1.64715 152.499 2.06626C151.269 2.25843 150.291 2.51449 149.689 2.68777C149.456 2.75611 149.108 2.86323 148.992 2.90018C148.877 2.93773 148.762 2.9759 148.761 2.9759L163.338 46.6053ZM163.325 46.6095L163.332 46.6073L148.767 2.97396L148.76 2.97623L163.325 46.6095ZM163.346 46.6026L163.363 46.5969L148.723 2.98888L148.706 2.99459L163.346 46.6026ZM163.335 46.6063L163.383 46.5903L148.669 3.00694L148.621 3.02301L163.335 46.6063ZM163.329 46.6086C163.351 46.6009 163.363 46.5971 163.362 46.5971L148.594 3.03224C148.519 3.05785 148.431 3.08789 148.331 3.12237L163.329 46.6086ZM163.063 46.7021C163.194 46.6554 163.283 46.6244 163.328 46.6089L148.332 3.12206C148.132 3.19098 147.884 3.27768 147.591 3.38229L163.063 46.7021ZM161.814 47.1671C162.378 46.9502 162.802 46.7953 163.063 46.7021L147.591 3.38228C147.005 3.59146 146.236 3.87363 145.309 4.22997L161.814 47.1671ZM156.96 49.2046C159.004 48.2803 160.682 47.6019 161.814 47.1671L145.309 4.22995C143.46 4.94057 140.954 5.95764 138.002 7.29274L156.96 49.2046ZM142.09 57.5225C147.423 53.8494 152.834 51.0711 156.96 49.2047L138.002 7.29272C132.185 9.92414 124.209 13.9831 115.998 19.6383L142.09 57.5225ZM122.988 85.3563C123.186 74.6936 130.769 65.3194 142.09 57.5225L115.998 19.6383C100.962 29.994 77.6155 51.0583 76.9961 84.5046L122.988 85.3563ZM127.13 100.294C124.259 94.772 122.901 90.0927 122.988 85.3563L76.9961 84.5046C76.7201 99.412 81.2704 111.809 86.3188 121.517L127.13 100.294ZM136.645 115.363C132.736 109.645 129.523 104.895 127.13 100.294L86.3188 121.517C90.2092 128.998 95.0552 136.035 98.6722 141.325L136.645 115.363ZM139.22 119.146C138.363 117.875 137.486 116.592 136.645 115.363L98.6723 141.326C99.5285 142.578 100.321 143.737 101.08 144.863L139.22 119.146ZM157.326 177.567C160.108 151.725 148.658 133.144 139.22 119.146L101.08 144.863C109.74 157.707 112.492 164.262 111.59 172.644L157.326 177.567ZM47.9584 346.737C47.9584 305.235 59.0267 268.358 76.1122 241.72C93.3035 214.916 115.206 200.269 136.876 197.978L132.04 152.233C92.4943 156.414 59.6467 182.188 37.3922 216.885C15.0319 251.747 1.95837 297.449 1.95837 346.737H47.9584ZM143.14 495.826C120.271 495.826 97.0377 482.348 78.5325 455.402C60.0986 428.56 47.9584 390.211 47.9584 346.737H1.95837C1.95837 398.306 16.2739 446.001 40.6133 481.443C64.8814 516.781 100.739 541.826 143.14 541.826V495.826ZM238.321 346.737C238.321 390.211 226.181 428.56 207.747 455.402C189.242 482.348 166.009 495.826 143.14 495.826V541.826C185.541 541.826 221.398 516.781 245.666 481.443C270.006 446.001 284.321 398.306 284.321 346.737H238.321ZM149.196 197.957C170.905 200.175 192.852 214.785 210.088 241.596C227.218 268.242 238.321 305.169 238.321 346.737H284.321C284.321 297.373 271.207 251.604 248.782 216.721C226.462 182.001 193.516 156.246 153.873 152.195L149.196 197.957ZM115.175 135.359C123.911 148.315 129.751 159.04 128.609 173.231L174.46 176.921C176.956 145.915 162.787 123.69 153.315 109.642L115.175 135.359ZM112.456 131.36C113.369 132.697 114.265 134.009 115.175 135.359L153.315 109.642C152.319 108.165 151.349 106.745 150.447 105.423L112.456 131.36ZM112.393 131.267L112.394 131.268L150.509 105.514L150.509 105.514L112.393 131.267ZM113.051 132.19L113.051 132.19L149.851 104.59L149.851 104.59L113.051 132.19ZM101.401 113.674C104.777 120.165 108.911 126.166 112.456 131.359L150.446 105.422C146.559 99.7275 144.085 96.0518 142.213 92.4508L101.401 113.674ZM93.9932 84.8194C93.7868 95.9654 97.1557 105.51 101.401 113.674L142.213 92.4508C140.149 88.4814 139.967 86.6533 139.985 85.671L93.9932 84.8194ZM125.64 33.639C111.926 43.0844 94.456 59.8298 93.9932 84.8193L139.985 85.6711C140.008 84.4496 140.396 82.7535 142.181 80.2745C144.087 77.6259 147.238 74.6186 151.732 71.5232L125.64 33.639ZM145.009 22.7819C139.816 25.1305 132.788 28.7162 125.64 33.639L151.732 71.5232C156.001 68.583 160.464 66.2778 163.966 64.6938L145.009 22.7819ZM151.409 20.098C149.825 20.7067 147.625 21.5986 145.008 22.7819L163.966 64.6938C165.674 63.9213 167.047 63.3681 167.913 63.0352L151.409 20.098ZM153.309 19.3917C152.843 19.5581 152.201 19.7933 151.409 20.098L167.913 63.0352C168.344 62.8697 168.64 62.7619 168.781 62.7116L153.309 19.3917ZM153.874 19.1931C153.731 19.2425 153.541 19.3087 153.309 19.3918L168.782 62.7115C168.852 62.6863 168.883 62.6759 168.87 62.6802L153.874 19.1931ZM153.958 19.1643L153.899 19.1846L168.845 62.6887L168.904 62.6684L153.958 19.1643ZM183.251 33.6433L180.563 25.5795L136.923 40.1257L139.611 48.1895L183.251 33.6433ZM136.923 40.1257C138.267 44.1565 138.943 46.1812 139.283 47.1996C139.45 47.699 139.546 47.986 139.603 48.1534C139.618 48.1984 139.675 48.3685 139.738 48.5477C139.758 48.6034 139.797 48.7126 139.847 48.8486C139.881 48.9403 140 49.2657 140.169 49.6753C140.253 49.8779 140.424 50.2881 140.666 50.7957C140.838 51.1563 141.405 52.3425 142.341 53.7368C142.789 54.4033 145.849 59.1851 152.174 61.9678C160.933 65.821 168.657 62.752 168.715 62.7327L154.157 19.0971C153.783 19.2219 156.189 18.3226 159.164 18.0273C162.846 17.6619 166.846 18.1677 170.697 19.862C177.022 22.6446 180.082 27.4263 180.53 28.0926C181.466 29.4867 182.033 30.6725 182.204 31.0326C182.445 31.5396 182.617 31.9492 182.7 32.1508C182.868 32.5584 182.987 32.881 183.019 32.9682C183.067 33.0999 183.104 33.2032 183.121 33.2511C183.173 33.3989 183.209 33.5063 183.181 33.4255C183.153 33.3412 183.08 33.1245 182.91 32.6162C182.577 31.6192 181.907 29.6124 180.563 25.5795L136.923 40.1257Z" fill="white" mask="url(#path-1-outside-1)"/>
</g>
<path d="M250.821 346.737C250.821 392.411 238.09 433.299 218.051 462.478C197.98 491.705 171.316 508.326 143.14 508.326C114.963 508.326 88.2995 491.705 68.2284 462.478C48.1898 433.299 35.4584 392.411 35.4584 346.737C35.4584 301.064 48.1898 260.175 68.2284 230.996C88.2995 201.77 114.963 185.149 143.14 185.149C171.316 185.149 197.98 201.77 218.051 230.996C238.09 260.175 250.821 301.064 250.821 346.737Z" fill="white" stroke="#4F6B49" stroke-width="21"/>
<path d="M157.145 50.3417L145.571 18.3068L159.418 9.62641L176.159 18.9269L181.119 30.5007L157.145 50.3417Z" fill="white"/>
<rect x="126.279" y="233.859" width="33.7214" height="60.8309" rx="10" fill="#4F6B49"/>
<rect x="140.362" y="188.236" width="5.55597" height="106.454" fill="#4F6B49"/>
<path d="M142.874 176.334C147.503 135.339 107.902 116.86 108.491 85.0878C109.152 49.3827 158.743 32.8526 158.743 32.8526" stroke="#4F6B49" stroke-width="17" stroke-linecap="round" stroke-linejoin="round"/>
<defs>
<filter id="filter0_d" x="0.958374" y="0.790807" width="286.363" height="544.035" filterUnits="userSpaceOnUse" color-interpolation-filters="sRGB">
<feFlood flood-opacity="0" result="BackgroundImageFix"/>
<feColorMatrix in="SourceAlpha" type="matrix" values="0 0 0 0 0 0 0 0 0 0 0 0 0 0 0 0 0 0 127 0"/>
<feOffset dx="1" dy="1"/>
<feGaussianBlur stdDeviation="1"/>
<feColorMatrix type="matrix" values="0 0 0 0 0.6875 0 0 0 0 0.6875 0 0 0 0 0.6875 0 0 0 0.2 0"/>
<feBlend mode="normal" in2="BackgroundImageFix" result="effect1_dropShadow"/>
<feBlend mode="normal" in="SourceGraphic" in2="effect1_dropShadow" result="shape"/>
</filter>
</defs>
</svg>
