<svg width="714" height="714" viewBox="0 0 714 714" fill="none" xmlns="http://www.w3.org/2000/svg">
<g filter="url(#filter0_d)">
<path d="M330.83 23.6087C345.87 10.5603 368.217 10.5603 383.256 23.6087L419.845 55.3525C429.125 63.4038 441.59 66.7439 453.652 64.4113L501.211 55.2144C520.76 51.434 540.113 62.6075 546.613 81.4277L562.428 127.213C566.439 138.825 575.564 147.951 587.177 151.962L632.962 167.776C651.782 174.277 662.955 193.63 659.175 213.179L649.978 260.737C647.646 272.799 650.986 285.265 659.037 294.545L690.781 331.133C703.829 346.173 703.829 368.52 690.781 383.559L659.037 420.148C650.986 429.428 647.646 441.893 649.978 453.955L659.175 501.514C662.955 521.063 651.782 540.416 632.962 546.916L587.177 562.731C575.564 566.742 566.439 575.867 562.428 587.48L546.613 633.265C540.113 652.085 520.76 663.258 501.211 659.478L453.652 650.281C441.59 647.948 429.125 651.289 419.845 659.34L383.256 691.084C368.217 704.132 345.87 704.132 330.83 691.084L294.242 659.34C284.962 651.289 272.496 647.948 260.434 650.281L212.876 659.478C193.327 663.258 173.974 652.085 167.473 633.265L151.659 587.48C147.648 575.867 138.522 566.742 126.91 562.731L81.1247 546.916C62.3045 540.416 51.1311 521.063 54.9115 501.514L64.1083 453.955C66.4409 441.893 63.1008 429.428 55.0495 420.148L23.3057 383.559C10.2573 368.52 10.2573 346.173 23.3058 331.133L55.0495 294.545C63.1009 285.265 66.4409 272.799 64.1083 260.737L54.9115 213.179C51.1311 193.63 62.3045 174.277 81.1247 167.776L126.91 151.962C138.522 147.951 147.648 138.825 151.659 127.213L167.473 81.4277C173.974 62.6075 193.327 51.434 212.876 55.2144L260.434 64.4113C272.496 66.7439 284.962 63.4038 294.242 55.3525L330.83 23.6087Z" fill="white"/>
</g>
<path d="M340.005 102.07C349.78 93.5883 364.306 93.5882 374.082 102.07L395.911 121.009C408.439 131.878 425.267 136.387 441.552 133.238L469.926 127.751C482.633 125.294 495.212 132.556 499.437 144.79L508.873 172.106C514.288 187.783 526.607 200.102 542.284 205.517L569.6 214.952C581.833 219.178 589.096 231.757 586.639 244.464L581.152 272.838C578.003 289.122 582.512 305.95 593.381 318.479L612.32 340.308C620.801 350.084 620.801 364.609 612.32 374.385L593.381 396.214C582.512 408.742 578.003 425.57 581.152 441.855L586.639 470.229C589.096 482.936 581.833 495.515 569.6 499.741L542.284 509.176C526.607 514.591 514.288 526.91 508.873 542.587L499.437 569.903C495.212 582.136 482.633 589.399 469.926 586.942L441.552 581.455C425.267 578.306 408.439 582.815 395.911 593.684L374.082 612.623C364.306 621.104 349.78 621.104 340.005 612.623L318.175 593.684C305.647 582.815 288.819 578.306 272.535 581.455L244.161 586.942C231.454 589.399 218.874 582.136 214.649 569.903L205.214 542.587C199.799 526.91 187.48 514.591 171.803 509.176L167.232 522.409L171.803 509.176L144.487 499.741C132.253 495.515 124.991 482.936 127.448 470.229L132.935 441.855C136.084 425.57 131.575 408.742 120.706 396.214L101.767 374.385C93.2852 364.609 93.2851 350.084 101.767 340.308L120.706 318.479C131.575 305.95 136.084 289.122 132.935 272.838L127.448 244.464C124.991 231.757 132.253 219.178 144.487 214.952L171.803 205.517C187.48 200.102 199.799 187.783 205.214 172.106L214.649 144.79C218.874 132.557 231.454 125.294 244.161 127.751L272.535 133.238C288.819 136.387 305.647 131.878 318.175 121.009L340.005 102.07Z" fill="white" stroke="#4F6B49" stroke-width="28"/>
<path d="M462.919 496.633L476.151 501.204L462.919 496.633L460.754 502.901C456.528 515.134 443.949 522.397 431.242 519.939L424.731 518.68C408.447 515.531 391.619 520.04 379.091 530.91L374.082 535.255C364.306 543.737 349.78 543.737 340.005 535.255L334.996 530.91C322.468 520.04 305.64 515.531 289.355 518.68L282.845 519.939C270.138 522.397 257.558 515.134 253.333 502.901L251.168 496.633C245.753 480.956 233.434 468.637 217.757 463.222L213.186 476.455L217.757 463.222L211.489 461.057C199.256 456.831 191.993 444.252 194.45 431.545L195.709 425.034C198.858 408.75 194.349 391.922 183.48 379.394L173.557 388.003L183.48 379.394L179.134 374.385C170.653 364.609 170.653 350.084 179.134 340.308L183.48 335.299C194.349 322.771 198.858 305.943 195.709 289.658L194.45 283.148C191.993 270.441 199.256 257.861 211.489 253.636L217.757 251.471C233.434 246.056 245.753 233.737 251.168 218.06L253.333 211.792C257.558 199.559 270.138 192.296 282.845 194.753L289.355 196.012C305.64 199.161 322.468 194.652 334.996 183.783L326.113 173.545L334.996 183.783L340.005 179.437C349.78 170.956 364.306 170.956 374.082 179.437L379.091 183.783C391.619 194.652 408.447 199.161 424.731 196.012L431.242 194.753C443.949 192.296 456.528 199.559 460.754 211.792L462.919 218.06C468.334 233.737 480.653 246.056 496.33 251.471L502.598 253.636C514.831 257.861 522.094 270.441 519.636 283.148L518.377 289.658C515.228 305.943 519.737 322.771 530.607 335.299L534.952 340.308C543.434 350.084 543.434 364.609 534.952 374.385L530.607 379.394C519.737 391.922 515.228 408.75 518.377 425.034L519.636 431.545C522.094 444.252 514.831 456.831 502.598 461.057L496.33 463.222C480.653 468.637 468.334 480.956 462.919 496.633Z" fill="white" stroke="#4F6B49" stroke-width="28"/>
<path d="M348.764 257.762C353.514 253.64 360.572 253.64 365.322 257.762C374.749 265.94 387.412 269.333 399.666 266.964C405.84 265.77 411.952 269.299 414.006 275.243C418.08 287.04 427.35 296.309 439.147 300.384C445.091 302.437 448.62 308.55 447.426 314.724C445.056 326.977 448.449 339.64 456.628 349.067C460.749 353.817 460.749 360.875 456.628 365.626C448.449 375.053 445.056 387.715 447.426 399.969C448.62 406.143 445.091 412.256 439.147 414.309C427.35 418.383 418.08 427.653 414.006 439.45C411.952 445.394 405.84 448.923 399.666 447.729C387.412 445.359 374.749 448.752 365.322 456.931C360.572 461.052 353.514 461.052 348.764 456.931C339.337 448.752 326.674 445.359 314.421 447.729C308.246 448.923 302.134 445.394 300.081 439.45C296.006 427.653 286.737 418.383 274.94 414.309C268.996 412.256 265.467 406.143 266.661 399.969C269.03 387.715 265.637 375.053 257.458 365.626C253.337 360.875 253.337 353.817 257.458 349.067C265.637 339.64 269.03 326.977 266.661 314.724C265.467 308.55 268.996 302.437 274.94 300.384C286.737 296.309 296.006 287.04 300.081 275.243C302.134 269.299 308.246 265.77 314.421 266.964C326.674 269.333 339.337 265.94 348.764 257.762Z" fill="white" stroke="#4F6B49" stroke-width="28"/>
<defs>
<filter id="filter0_d" x="12.5194" y="12.8225" width="691.048" height="691.048" filterUnits="userSpaceOnUse" color-interpolation-filters="sRGB">
<feFlood flood-opacity="0" result="BackgroundImageFix"/>
<feColorMatrix in="SourceAlpha" type="matrix" values="0 0 0 0 0 0 0 0 0 0 0 0 0 0 0 0 0 0 127 0"/>
<feOffset dx="1" dy="1"/>
<feGaussianBlur stdDeviation="1"/>
<feColorMatrix type="matrix" values="0 0 0 0 0.6875 0 0 0 0 0.6875 0 0 0 0 0.6875 0 0 0 0.43 0"/>
<feBlend mode="normal" in2="BackgroundImageFix" result="effect1_dropShadow"/>
<feBlend mode="normal" in="SourceGraphic" in2="effect1_dropShadow" result="shape"/>
</filter>
</defs>
</svg>
