<svg width="140" height="116" viewBox="0 0 140 116" fill="none" xmlns="http://www.w3.org/2000/svg">
<g filter="url(#filter0_d)">
<path fill-rule="evenodd" clip-rule="evenodd" d="M66.5459 87.8468C70.4319 96.8907 77.4896 104.354 87.361 106.311C97.2323 108.268 106.603 104.062 113.646 97.1848C120.715 90.2819 126.014 80.2355 128.289 68.7597C130.564 57.2839 129.499 45.9759 125.598 36.8981C121.712 27.8542 114.655 20.3911 104.783 18.434C94.9121 16.4769 85.5409 20.6828 78.4984 27.56C76.9956 29.0275 75.5729 30.6369 74.2423 32.372C73.6742 30.2605 72.9732 28.23 72.144 26.3002C68.2579 17.2563 61.2003 9.79322 51.3289 7.83613C41.4576 5.87904 32.0864 10.0849 25.0439 16.9621C17.9749 23.8651 12.6763 33.9115 10.4011 45.3873C8.12593 56.863 9.1908 68.1711 13.0914 77.2489C16.9774 86.2928 24.0351 93.7559 33.9065 95.7129C43.7778 97.67 53.149 93.4641 60.1915 86.5869C61.6942 85.1195 63.1169 83.51 64.4476 81.775C65.0157 83.8865 65.7167 85.917 66.5459 87.8468ZM69.6605 73.4024C71.1825 87.0363 78.3257 97.7044 88.661 99.7535C102.832 102.563 117.638 88.1046 121.731 67.4596C125.824 46.8146 117.655 27.801 103.483 24.9914C93.1481 22.9423 82.4751 30.0781 75.8665 42.1001C73.4138 46.562 71.5209 51.697 70.413 57.2852C69.305 62.8735 69.0956 68.3422 69.6605 73.4024ZM62.8234 72.0469C56.2148 84.0688 45.5418 91.2047 35.2065 89.1556C21.0353 86.346 12.8654 67.3323 16.9585 46.6873C21.0515 26.0423 35.8577 11.5839 50.0289 14.3935C60.3642 16.4426 67.5074 27.1106 69.0294 40.7446C69.5943 45.8048 69.3848 51.2735 68.2769 56.8617C67.169 62.45 65.2761 67.585 62.8234 72.0469Z" fill="white"/>
<path d="M70.4129 57.2853C66.3198 77.9303 74.4897 96.9439 88.6609 99.7535C102.832 102.563 117.638 88.1047 121.731 67.4597C125.824 46.8147 117.654 27.801 103.483 24.9914C89.312 22.1818 74.5059 36.6403 70.4129 57.2853Z" fill="white"/>
<path fill-rule="evenodd" clip-rule="evenodd" d="M76.2929 83.6586C73.3418 76.7907 72.3494 67.6939 74.2617 58.0483C76.1741 48.4028 80.5621 40.3727 85.9101 35.1502C91.2737 29.9126 97.2697 27.7597 102.72 28.8403C108.171 29.9209 112.892 34.1985 115.851 41.0863C118.802 47.9542 119.795 57.051 117.882 66.6966C115.97 76.3422 111.582 84.3723 106.234 89.5948C100.87 94.8324 94.8745 96.9853 89.424 95.9046C83.9735 94.824 79.2524 90.5464 76.2929 83.6586ZM88.6609 99.7535C74.4897 96.9439 66.3198 77.9303 70.4129 57.2853C74.5059 36.6403 89.312 22.1818 103.483 24.9914C117.654 27.801 125.824 46.8147 121.731 67.4597C117.638 88.1047 102.832 102.563 88.6609 99.7535Z" fill="#4F6B49"/>
<path fill-rule="evenodd" clip-rule="evenodd" d="M84.8024 89.6434C78.5369 88.4012 75.2472 78.3684 77.4546 67.2345C79.662 56.1007 86.5306 48.0819 92.7961 49.3241C97.9077 50.3375 101.039 57.202 100.82 65.742L91.0114 71.4099L98.9073 76.3559C95.9594 84.9953 90.1604 90.7056 84.8024 89.6434Z" fill="#4F6B49"/>
<path d="M16.9584 46.6871C12.8654 67.3321 21.0353 86.3458 35.2065 89.1554C49.3777 91.965 64.1838 77.5065 68.2769 56.8615C72.37 36.2165 64.2 17.2029 50.0288 14.3933C35.8576 11.5837 21.0515 26.0421 16.9584 46.6871Z" fill="white"/>
<path fill-rule="evenodd" clip-rule="evenodd" d="M22.8384 73.0605C19.8874 66.1926 18.895 57.0958 20.8073 47.4502C22.7197 37.8046 27.1077 29.7745 32.4557 24.552C37.8193 19.3144 43.8153 17.1615 49.2658 18.2422C54.7163 19.3228 59.4373 23.6004 62.3969 30.4882C65.3479 37.3561 66.3403 46.4529 64.428 56.0984C62.5157 65.744 58.1277 73.7741 52.7796 78.9966C47.416 84.2342 41.4201 86.3871 35.9696 85.3065C30.5191 84.2259 25.798 79.9482 22.8384 73.0605ZM35.2065 89.1554C21.0353 86.3458 12.8654 67.3321 16.9584 46.6871C21.0515 26.0421 35.8576 11.5837 50.0288 14.3933C64.2 17.2029 72.37 36.2165 68.2769 56.8615C64.1838 77.5065 49.3777 91.965 35.2065 89.1554Z" fill="#4F6B49"/>
<path fill-rule="evenodd" clip-rule="evenodd" d="M30.8981 78.9563C24.3487 77.6578 20.8289 67.5794 23.0363 56.4456C25.2437 45.3117 32.3425 37.3385 38.8918 38.637C44.2351 39.6964 47.5619 46.5997 47.4072 55.1524L37.2202 60.7453L45.5031 65.768C42.5014 74.3967 36.4988 80.0667 30.8981 78.9563Z" fill="#4F6B49"/>
</g>
<defs>
<filter id="filter0_d" x="0.68988" y="0.44873" width="139.31" height="115.249" filterUnits="userSpaceOnUse" color-interpolation-filters="sRGB">
<feFlood flood-opacity="0" result="BackgroundImageFix"/>
<feColorMatrix in="SourceAlpha" type="matrix" values="0 0 0 0 0 0 0 0 0 0 0 0 0 0 0 0 0 0 127 0"/>
<feOffset dx="1" dy="1"/>
<feGaussianBlur stdDeviation="1"/>
<feColorMatrix type="matrix" values="0 0 0 0 0.6875 0 0 0 0 0.6875 0 0 0 0 0.6875 0 0 0 0.2 0"/>
<feBlend mode="normal" in2="BackgroundImageFix" result="effect1_dropShadow"/>
<feBlend mode="normal" in="SourceGraphic" in2="effect1_dropShadow" result="shape"/>
</filter>
</defs>
</svg>
