<svg xmlns="http://www.w3.org/2000/svg" viewBox="0 0 808.54 218.53"><defs><style>.cls-1{fill:#eb5c5f;}.cls-2{fill:#22366c;}</style></defs><g id="Calque_2" data-name="Calque 2"><g id="Calque_1-2" data-name="Calque 1"><path class="cls-1" d="M182,123.1c.64-1.9,1.59-3.41,1.67-5.26,0-1.15-1.06-4.57-2-5.15s-1.25-1.39-2.15-1.91c-1.73-1-3.13-2.56-4.83-3.6a9.1,9.1,0,0,1-3.72-5,16.37,16.37,0,0,1-.51-9.46c.08-.32-.13-.6-.12-.8,0-1-1-2,.2-3a4.86,4.86,0,0,0,.08-2.3c-.43-1.93.4-3.81-.07-5.67-.58-2.33-.08-4.72-.25-7.08-.26-3.63-.87-7.36.09-11a6.4,6.4,0,0,0-.29-2.6,3.36,3.36,0,0,1,.12-2.05c.33-.78-.41-1.54-.1-2.44.5-1.43-.34-2.92-.12-4.36.32-2.1.08-4.23,1.48-6.23.71-1,.26-2.88-.12-4.32a1.59,1.59,0,0,1,.15-1.57.77.77,0,0,0,.11-1,11.13,11.13,0,0,1-.93-5,8.88,8.88,0,0,0-.49-2.21c-.81-2.92-.73-5.95-1.3-8.87-.21-1.08.45-2.48-.91-3.28-.25-.16-.09-.56.18-.78s.4-.56.06-.74c-1.63-.88-1.16-2.73-1.87-4-.28-.52,0-1,.82-1a19.89,19.89,0,0,0,6.14-1.13c1.22-.36,2.5.08,3.82-.17a16.65,16.65,0,0,1,4.76-.55,14.91,14.91,0,0,1,4.85,1.07,1.55,1.55,0,0,0,1.28,0,1.06,1.06,0,0,1,1.55,1,4,4,0,0,0,.94,2.81c.18.3.47.68.41,1-.43,2.07,1,3.85.69,6.06-.2,1.48,0,3.16-.25,4.78-.2,1.24,1.17,2.2.92,3.58-.41,2.2.73,4.33.39,6.58-.11.78.57,1.66.47,2.61-.24,2.3.8,4.57.41,6.84-.36,2,.49,4.11-.37,6.09-.08.17.16.46.17.7.1,2,0,4.07,0,6,0,2.57-.78,5.09-.12,7.76a20.39,20.39,0,0,1,.71,7.36c-.05.42-.45.68-.53,1.17-.47,2.83-1.21,5.61-1,8.55.09,1,.61,2.37-.79,3.1.69,1.08-.55,2.31.25,3.36a.89.89,0,0,1,.26.82c-.71,1.92.25,4-.38,5.83-.24.71.36.94.37,1.5a10.22,10.22,0,0,1-1.06,4.66c-1.32,2.7-1.57,5.6-1.9,8.48a105.34,105.34,0,0,1-1.61,10.42c-.63,2.9-1.53,5.86-.9,9,.49,2.39-.42,4.73-.51,7.1-.12,3.25-.78,6.43-1.1,9.65-.09,1,.18,2.09-.53,3-.53.66.37,1,.35,1.64-.05,2.45.09,4.89.14,7.33a33,33,0,0,0,.1,3.71,6.08,6.08,0,0,1-.44,3.94c-.17.3.15,1.08.48,1.41a1.75,1.75,0,0,1,.41,2,3.23,3.23,0,0,0,.28,2.74,1.48,1.48,0,0,1,.22.86c-.23,1.79.47,3.56.39,5.21-.06,1.49.49,3-.08,4.63-.21.62.41,1.93.19,2.89-.48,2.14.64,4.14.26,6.34-.23,1.29.88,2.75.86,4.29s.52,2.91.15,4.52a7.42,7.42,0,0,0,.73,3.3c.42,1.14-.41,1.25-.88,1.22-2.24-.11-4.4.51-6.76-.25a25,25,0,0,0-5.54-.53c-1.77-.1-3.53.64-5.29.07-.5-.16-.76.16-1.05.42-.72.66-1.46.33-2.26.13-1.16-.29,0-.87-.22-1.3a9.51,9.51,0,0,1-.71-4.69c0-2.31-.89-4.28-1.3-6.4-.2-1.07-1.2-2.05-1.34-3.24-.21-1.72-.17-3.47-.46-5.18s.1-3.32-.42-4.94a3.6,3.6,0,0,1,0-2.7,1.3,1.3,0,0,0-.11-1.26c-.32-.66-.39-1.27.33-1.72a.49.49,0,0,0,.28-.61c-.43-1.57-.05-3.2-.23-4.69s.34-3-.72-4.35c-.24-.31-.75-1,.1-1.35.15-.06.29-.18.18-.34-1.85-2.72-1-5.58,0-8.2.6-1.62.46-3.26,1-4.83s-.6-3.12.3-4.61c-1.31-1.67.36-3.58-.42-5.29a.2.2,0,0,1,0-.15c1.54-2.05-.23-4.26.3-6.42a2.91,2.91,0,0,1,2.89-2.48c1,.05,1.29-.64,1.88-1.07a8.24,8.24,0,0,1,2.44-1.23,31.33,31.33,0,0,1,5.31-1.11c2-.18,3.37-1.63,5.18-2.07a3.56,3.56,0,0,0,2.52-1.9c.2-.39,1.12-.89.48-1.15S183.45,121.79,182,123.1Z"/><path class="cls-1" d="M157.58,89.73a49.83,49.83,0,0,1-9-5.51,1.47,1.47,0,0,0-.85-.24,9.37,9.37,0,0,1-3.78-1.59,19.33,19.33,0,0,0-6.17-2.71c-1.75-.49-3.24-1.58-5-2.05-.19,0-.44,0-.45-.3q-.08-3.19-.12-6.37a30.49,30.49,0,0,1-.18-4.17c.41-3.31.88-6.61,1.11-9.92a37.87,37.87,0,0,1,.63-6.44c.19-.82-.3-2.08-.15-3.18.49-3.34-.29-6.82,1.13-10.07a3.13,3.13,0,0,0,0-1.72c-.34-1.44.47-2.87-.15-4.26-.43-.95.2-1.91.42-2.67a20.43,20.43,0,0,0,.35-4.83c.06-1.24,1.19-2.73-.1-4a1.51,1.51,0,0,1-.05-1.32c.64-1.45.27-3,.57-4.52a12,12,0,0,0-.32-3.3c-.2-1.28.1-2.65-.26-3.8a6.76,6.76,0,0,1-.37-4.18c.14-.48-.63-.6-.73-1a.51.51,0,0,1,.63-.33c1.74.3,3.47-.17,5.16-.16s3.33-.36,5-.21c1.09.1,2.11.48,3.27.48a24.84,24.84,0,0,0,6.27-.36,7,7,0,0,1,2.9.1c.87.16.58,1.6.25,2.39-.18.44-.3.48,0,1a3.15,3.15,0,0,1,.49,2.52c-.3,1.12.47,2.11.55,3.2a5.23,5.23,0,0,1,0,1.31c-.07.41-.53.85.27,1.17.23.09.4,1.07.19,1.35-.49.7-1,1.23.08,1.8-.75,2.12,1.09,4.09.27,6.34a6.25,6.25,0,0,0,.09,3.28c.58,2.11-.52,4.1-.74,6.16-.19,1.78-.81,3.66-.73,5.33.08,1.39-.62,2.71-.17,4.06a.86.86,0,0,1-.28,1.09c-.23.16-.55.35-.43.7a5.6,5.6,0,0,1-.66,5,.46.46,0,0,0,0,.29,25,25,0,0,1-.39,9.56,22.74,22.74,0,0,0-.48,3.75c-.17,4.26.66,8.54-.07,12.77a31.75,31.75,0,0,0-.11,5.59,15.73,15.73,0,0,0,.81,4.95c.11.31.23.58,0,.84-.41.52-.25.63.27,1.06C157.48,87.24,157.23,88.52,157.58,89.73Z"/><path class="cls-1" d="M133.35,213.08c1.3-.82-.07-1.45.38-2.11-.93-.32-.51-1.12-.46-1.66s.07-1-.42-1.31a.39.39,0,0,1-.15-.26c-.23-2.63-1-5.25-.3-7.89.13-.51.32-.88,0-1.37a1.07,1.07,0,0,1-.13-.71c.46-1.82.1-3.7.44-5.51a3.42,3.42,0,0,0,0-1.71c-.47-1.57.05-3.18,0-4.78,0-.46,0-.65-.35-.91a1,1,0,0,1-.2-1.38c.55-.55.36-1,.21-1.6-.44-1.69.29-3.16.89-4.64.42-1-.28-2.06.2-3.14.75-1.7,0-3.72.92-5.43.24-.43-.23-.73-.19-1.15a91.8,91.8,0,0,0,.6-9.52,6,6,0,0,1,.31-2.07c.59-1.5-.69-2.86-.2-4.33a1.6,1.6,0,0,1,1-1.16c1.2-.57,2.67.16,3.63-1,1.47.87,2.6-.71,4.07-.5,2,.28,3.08-1.43,4.41-2.52a3.71,3.71,0,0,1,2-.82c1.93-.33,3.72-1.31,5.72-1.46a.26.26,0,0,0,.13-.06c.32-.68.88-1.26,1.57-.88s.29,1.34.37,2.05c.33,2.54-.11,5.07.24,7.63s1.12,5.12.35,7.52c-.45,1.43.14,2.94-.76,4.26a2.67,2.67,0,0,0-.1,1.86c.37,1.48-.24,2.87-.41,4.17-.19,1.49.8,3.07-.27,4.45,1.38,2.15-1,4.21-.16,6.36,0,.11-.05.3-.12.42-.88,1.62-.6,3.31-.52,5s-.31,3.3-.11,5a20.78,20.78,0,0,1-.09,5.73c-.48,2.78,1,5.47.38,8.35-.22,1,.55,2.31,0,3.56-.33.76.85,1,.82,1.83s.33,1-.92,1.15c-1.85.21-3.74-.62-5.57.33a1.84,1.84,0,0,1-2.22-.32c-.54-.58-1.46-.06-2.12-.12a10,10,0,0,0-3.57-.11,4.77,4.77,0,0,1-2.06.33C138.38,212.35,136.14,213,133.35,213.08Z"/><path class="cls-1" d="M108.31,153.93a11.08,11.08,0,0,0,6-.38,8.53,8.53,0,0,0,2.48-1.45,17.79,17.79,0,0,1,3.44-1.54,1.83,1.83,0,0,1,2.35.32c.22.24.59.46.79.22,1.3-1.64,2,.47,3,.49.07,0,.2.18.19.19-.8,1,.61,2.09-.14,3a3.13,3.13,0,0,0-.49,3.35c.9,2-.13,4,.09,5.92s-.79,3.85-.27,5.87c.37,1.43-.21,2.88-.48,4.28-.37,1.94,0,3.88-.28,5.8,0,.2.25.52.06.7-.83.85-.48,1.86-.48,2.83,0,3.7.15,7.41-.08,11.1-.11,2,0,3.94-.17,5.91a29.12,29.12,0,0,0,.24,2.94c0,.81-.25.77-.66.69-3.4-.68-6.84-.16-10.24-.35-1.79-.11-3.59,0-5.38-.14a15.25,15.25,0,0,0-3.59.36c-1.21.22-2.49-.36-3.78-.15-.47.07-.52-.55-.38-.81.62-1.18,0-2.35.11-3.47.08-1.51-.29-3-.11-4.46a17.65,17.65,0,0,0,0-4,66.57,66.57,0,0,1,.07-7.06c0-2.09.68-4.22.6-6.16-.15-3.18.45-6.26.46-9.39a14.92,14.92,0,0,1,.53-4.41,1.09,1.09,0,0,0,0-.87c-1.06-1.39-.28-2.93-.29-4.35,0-.64-.39-1.27,0-2,.5-1,.78-1.76,2.24-2S107,154.25,108.31,153.93Z"/><path class="cls-1" d="M124.5,63.65l-3.64-1c-2.42-.67-4.71-.19-7.11.17s-4.64,1.79-7.14,2c-.94.1-1,.27-.48,1.12.3.5-.15.5-.29.61A6.45,6.45,0,0,1,100.91,68a3.76,3.76,0,0,0,.26-2.83c-.31-.76.64-1.92-.67-2.34a1.14,1.14,0,0,1,0-.85,4.42,4.42,0,0,0,.24-3.72,8.81,8.81,0,0,1,.23-2.67c.08-1.19-.19-2.36-.1-3.42.15-1.79-.42-3.77.5-5.35.74-1.28-.4-2.37.16-3.56a10.79,10.79,0,0,1,.7-1.8c.12-.16.31-.47.27-.5-1.21-1.16,0-2.56-.41-3.79-.55-1.66.36-3.27.24-5a39.91,39.91,0,0,0-.44-5.64c-.38-1.8-.65-3.62-1.14-5.4-.19-.73.27-1.22,1-1.08.55.11,1.21-.15,1.57,0,1.92.93,3.94-.68,5.87.35.37.2,1.1-.5,1.8-.42,2.06.22,4.12.51,6.18.55a38.5,38.5,0,0,0,5.25-.37c1.93-.22,2.77.53,2.9,2.4a29.22,29.22,0,0,0,.41,4.88,9.08,9.08,0,0,1-.1,5.08,3.67,3.67,0,0,0-.07,1.86,2.23,2.23,0,0,1-.36,2c-.52.63.06,1.54,0,2.28a18,18,0,0,1-.5,3.67c-.38,1.61-.19,3.23-.56,4.8-.77,3.26-.29,6.56-.36,9.84,0,.6.11,1.22-.38,1.73-.27.29-.36.76-.12,1C124.6,60.8,123.28,62.52,124.5,63.65Z"/><path class="cls-1" d="M69.4,3.59c2.06.69,4.5-.19,6.83.4.81.21,1.25-.44,2-.44,3.57,0,7.14-.25,10.71-.17a7.48,7.48,0,0,1,2.43.55c.92.37.89,1.28.39,2-.31.44-.52.52.16.75.51.17.47.79.41,1.28a11.84,11.84,0,0,0,.45,4.35c.32,1.31-.57,2.8.59,4-.79.77.07,1.62,0,2.23-.61,3.57.54,7.15-.2,10.69a5.05,5.05,0,0,1-.15.88,2.25,2.25,0,0,0,0,2.28c.55,1.12.29,2.75.08,4.11a23.66,23.66,0,0,0-.29,6.83,11.13,11.13,0,0,1-.46,3.91,32.08,32.08,0,0,0-.7,5,53.4,53.4,0,0,1-.29,5.64c-.44,2.3-.44,4.65-.79,6.95a39.79,39.79,0,0,0-.07,4.5C90.3,73,90.38,73,87,73.92c-1.79.49-3.46,1.29-5.18,1.87s-3.37,1.73-5.19,2.28c-2,.6-3.42,2.17-5.16,3.2a10.68,10.68,0,0,1-3.11.78c-.77.2-1.5-1.63-1-2.6.26-.54.48-.71-.06-1.41a2.88,2.88,0,0,1-.4-3.08c.47-.83-.68-1.08-.51-2,.3-1.61-.73-3.34.1-5-1.25-2.2.17-4.45,0-6.72a44.19,44.19,0,0,1,.09-5.62c.12-2.66,1.11-5.19,1.11-7.75A32.67,32.67,0,0,1,68.55,41c.5-2.34.4-4.73,1.19-7.08.46-1.38.28-3.29.38-5a16.82,16.82,0,0,1,.33-3.67c.19-.69-.85-1.28-.42-2.15a4.61,4.61,0,0,0,.16-2.76c-.48-3.31-.66-6.65-1.08-10a25.39,25.39,0,0,0-1.14-5C67.45,3.87,67.61,3.59,69.4,3.59Z"/><path class="cls-1" d="M90.22,208.45c-1.32.33-2.67-.07-3.89,0a37.41,37.41,0,0,1-4.38.15c-1.87-.17-3.66.67-5.56.27-.74-.15-1.65.41-2.36.2a11.31,11.31,0,0,0-5.08,0c-.72.12-1.35-.19-1.07-1,.72-2,.07-4.11.22-6.16s-.69-4.12-1.21-6.18a27.13,27.13,0,0,1-.45-7.05c0-1.73.53-3.41.34-5.09a9.21,9.21,0,0,1,.55-3.19c.59-2.73.52-5.52,1-8.21.55-3.4.16-6.81.73-10.19a29.63,29.63,0,0,0,.47-5.25c0-2.38-.38-4.76-.43-7.15,0-1.64.27-3.32.19-4.93s.36-3.15,0-4.73c-.48-2.48.92-3.66,3.4-3.46A15.34,15.34,0,0,1,80.26,139,91,91,0,0,1,88.2,145a8.12,8.12,0,0,0,4.19,2c.94.12.28,1.27.9,1.66-.64.68-.45,1.95-1.69,2.25A2.25,2.25,0,0,0,90.1,152c-.22.43-.56.76.14,1.05s.44.68.16,1.1c-1,1.55-.81,2.2.87,2.79s2.67,2.63,2.57,4.57a8.09,8.09,0,0,1-1.12,4.4c-.73,1-1,2.28-1.7,3.3s.29,2.15.29,3.24c0,1.63.16,3.25,0,4.89-.08.95.47,1.89,0,2.92a4.88,4.88,0,0,0-.13,3.23,5.25,5.25,0,0,1-.25,3.28,5.06,5.06,0,0,0-.22,2.58c.19,2.19.19,4.4.29,6.6a6.51,6.51,0,0,0,.08,1.81,3.35,3.35,0,0,1,.24,1.77c-.82,2.77.07,5.58-.26,8.35C91.05,208.28,91.05,209.05,90.22,208.45Z"/><path class="cls-1" d="M59.57,217.79a34.32,34.32,0,0,0-4,.42c-1.33.12-2.62-.23-4,.22s-2.79-.53-4.11-.37-2.64-.9-3.93,0a1.2,1.2,0,0,1-.43.13c-1.86.42-3.61-.56-5.53-.35S35,216.21,35,214.7c0-2.25-.73-4.39-.86-6.59-.12-1.93,0-3.87,0-5.78a26.87,26.87,0,0,0-.54-4.38,12.21,12.21,0,0,1,0-5.14,8.08,8.08,0,0,0,.19-3.71,3.68,3.68,0,0,1,.13-1.31c.17-1.06.86-2,.19-3.28a3,3,0,0,1,0-3c.18-.3.67-1.28-.18-1.81a.59.59,0,0,1-.15-.54c1-1.15.13-2.66.82-3.89a9,9,0,0,0,.59-2.52c.25-1.15-.06-2.46.74-3.5a1.32,1.32,0,0,0,.18-1.25c-1.07-1.29-.27-2.64.15-3.67.55-1.35.25-2.65.42-4a2.12,2.12,0,0,1,.32-1.13c.16-.23.34-.63.24-.82-1.39-2.79-1-5.67-.57-8.59.27-1.72.29-3.47.42-5.21.31-4,.89-8,1-12a2.16,2.16,0,0,1,.44-1c1.71-2.83,3.59-5.56,6.57-7.13,1.37-.72,3-1.5,4.68-.28.17.12.59,0,.84-.12,1.1-.5,2.14.46,3.27.1a.8.8,0,0,1,.66,1.09c-.58,1-.44,2.2-.87,3.3-.55,1.42-1.77,3-1.18,4.9a6.58,6.58,0,0,1-.43,2.16,13.13,13.13,0,0,0-.33,5.48,7.19,7.19,0,0,0,1.44,2.57,6.62,6.62,0,0,0,3.13,2.36c.83.37,1.41.32,1.64-.47.43-1.43,1.82-1.61,2.77-2.34.65-.51.72.1.75.59.12,1.59-.3,3.14-.21,4.74A44.8,44.8,0,0,1,60,160.42a24.32,24.32,0,0,0-.16,2.64c-.17,2-.33,4-.35,6,0,4.58-.82,9.06-1.23,13.57a44.15,44.15,0,0,1-.84,5,10.87,10.87,0,0,0,0,3.55c.22,2-.94,4.07.29,6a2,2,0,0,1,0,1.49c-.54,1.5-.17,3,0,4.47.16,1.26.57,2.41-.15,3.63-.39.64.37,1.1.58,1.58.69,1.56-.07,3.16.38,4.73a10.53,10.53,0,0,0,.47,1.26c.26.63.94,1.23.26,2S60.25,216.88,59.57,217.79Z"/><path class="cls-1" d="M59,92.68a24.2,24.2,0,0,1-8,3.82,9.48,9.48,0,0,1-6.69-.22,16.15,16.15,0,0,0-3.82-.71c-.62-.11-1.63.29-1.45-1,0,0-.25-.18-.36-.17-2.79.43-3.15-1.84-3.84-3.58-1.35-3.39-1.3-7.07-1.56-10.61A18.34,18.34,0,0,1,34,74.66a6.51,6.51,0,0,0,.08-2.88,1.62,1.62,0,0,1,.28-1.45,2.29,2.29,0,0,0,.41-2c-.6-2-.13-3.8.3-5.73.22-.94-.46-2.09-.44-3.22A7,7,0,0,1,35.29,57a5.64,5.64,0,0,0-.16-2.82A5.88,5.88,0,0,1,35.81,51c.37-.76-.08-1.37,0-2.06a27.16,27.16,0,0,1,1.6-7,4.75,4.75,0,0,0,.16-2.22c-.49-2.63.27-5.23-.33-7.91a34.72,34.72,0,0,1-.83-7.69c0-1.51.64-3.14-.18-4.68-.26-.49.28-.72.72-.66,1.44.17,2.73-.57,4.08-.68a18.62,18.62,0,0,1,5.81.23c1.88.44,3.69,1.4,5.74.82a1.2,1.2,0,0,1,.84.21,2.79,2.79,0,0,0,3.14,0c.49-.26,1.36,0,2.08-.22.87-.25,1.38,0,1.3,1.15-.25,3.7.66,7.28,1.33,10.89a23.28,23.28,0,0,1,.22,6.56,6.33,6.33,0,0,1-.64,2.86c-.13.21-.31.37,0,.73a3.09,3.09,0,0,1,.36,3.17c-.22.67-.7,1.27.06,1.9a.77.77,0,0,1,.13.72c-.77,1.62-.49,3.43-.72,5.11s-.3,3.58-.54,5.39c-.18,1.27-.33,2.59-.44,3.89-.09,1.09-.78,2.11-.4,3.25a1,1,0,0,1,0,.6c-1.11,2.37-.25,5-.86,7.4-.64,2.61.09,5.3,0,8,0,1,.7,2.07-.34,2.92a.66.66,0,0,0-.15.38c1.46,1.07.6,2.77,1.12,4.07s-.37,1.63-1.22,1.93c-.42.15-.83.18-1.14.59s-.47.48,0,.63A17,17,0,0,1,59,92.68Z"/><path class="cls-1" d="M30.55,83.21c-1-3.25-3.69-5-5.56-7.35-.43-.55-1.23-.14-1.49-.5-1.16-1.57-3.07-1-4.5-1.78-1.07-.53-1.49.1-1.48.94A7.68,7.68,0,0,1,16.7,78a5.87,5.87,0,0,0-.58,2.5,11,11,0,0,1-.74,4.73c-.73,1.87-.36,3.83-.92,5.66-.24.81.36,1.38.47,2.11.21,1.46-.47,3,.56,4.39a.75.75,0,0,1-.12,1c-1.39,1.69-2.13,7.31-.71,9.41.5.74,1,1.92,2.31,1.13.13-.07.38.06.56.13a.3.3,0,0,1,0,.28c-.17.27-.4.17-.65.09-1.54-.52-2.34.23-2.8,1.63a6.53,6.53,0,0,1-1.25,2.35c-.46.52-.26,1.54-.29,2.29-.1,2.1-1,4-1.25,6-.13,1-.85,2-.44,3a.93.93,0,0,1,0,.75c-1,1.34-.73,3.14-1.75,4.62-.64.93-.82,2.56-1.41,3.73-1.28,2.58-1.36,5.32-1.48,8.06,0,.65.54,1.35.92,2a4.23,4.23,0,0,1,.48.92,2.37,2.37,0,0,0,3.54,1.63,18.66,18.66,0,0,1,5.72-1.68c.88-.08,1.2-1,1.92-1.35a19,19,0,0,0,6.06-3.58c.52-.51,1,0,.89.61-.31,1.61-.23,3.31-1.07,4.79a3,3,0,0,0-.4,2.19c.6,2.49.06,5,.26,7.5.07.91.34,1.94-.53,2.71a.14.14,0,0,0,0,.14c.71,1.52.23,3,.19,4.58,0,.95.12,2,.13,3a57.54,57.54,0,0,0,.54,7.18c.07.54.44.85.65,1.27.9,1.86,1.88,3.65,1.07,5.9a6.36,6.36,0,0,0,.17,3.07,42.29,42.29,0,0,0,2.54,9.3c.79,1.79-1.41,4.57-3.31,4.12-1.06-.26-2.32-.37-3-1.54-.5-.86-1.46-.28-2.2-.6a6.18,6.18,0,0,0-4.34.33c-1.21.44-2.5,1.21-3.72,1.13-1.55-.1-2.91.62-4.43.5-2.35-.17-5.47-2.35-5.89-4.53A19.79,19.79,0,0,1,2,185.66c.15-1.54-.11-3.17.53-4.62a27.42,27.42,0,0,0,.77-2.66c.4-1.24-.62-2.2-.42-3.3.29-1.56-.9-2.52-1.3-3.79-.31-1-1-2-.44-3.16.07-.13.2-.36.16-.4C-.23,166.27.94,164.58.86,163s.44-2.91.18-4.43c-.21-1.26.1-2.51-.23-3.88a30.75,30.75,0,0,1-.31-3.78c-.3-3,0-6-.44-9.06-.24-1.56.31-3.35.24-5-.11-2.81,1-5.39,1.2-8.11a6.81,6.81,0,0,1,.63-3.39c.38-.64.06-1.94,0-2.92a18.44,18.44,0,0,1,.59-4.22c.22-1.36,0-2.83,0-4.27a9.86,9.86,0,0,1,.07-1.88c.54-2.2,0-4.45.42-6.64a23.27,23.27,0,0,0,.28-5.83A2.37,2.37,0,0,1,4,98a1.65,1.65,0,0,0,.34-1.21,33,33,0,0,1,.53-8.6c.26-1.3-.12-2.89,1.17-3.91.7-.55-.71-.57-.25-1.38A9.43,9.43,0,0,0,7.25,78C7,75.62,8.35,73.78,8.3,71.48c-.07-3.34-.2-6.71-.18-10.07,0-2.38,0-4.77.17-7.14A11.37,11.37,0,0,0,8,51.59c-.47-3,.3-6,0-9a17.08,17.08,0,0,1-.19-3.79c.33-2.25-1-4.49.15-6.65-.94-1.37.34-3-.24-4.15-1.24-2.45-.55-5-.94-7.5a50.32,50.32,0,0,1-.61-5.74c-.07-2.17-.68-4.29-.53-6.49A9.86,9.86,0,0,0,5,4.7c-.42-1.36.15-2.85-.62-4.13C5.06.58,5.53-.1,6.24,0a8.44,8.44,0,0,0,.87.2c2.92.24,5.85,0,8.77,0C19,.2,22.1,0,25.21,0c.88,0,1.7.69,2.72.49.31-.06.8.49.88,1,.4,2.5,1.45,5,.57,7.56-.09.29-.32.53-.13.84,1.2,1.91.72,4.1.85,6.14.07,1.15.86,1.95.82,2.93-.12,2.91,1,5.6,1.79,8.24.84,3-.54,5.34-.59,8,0,1.65-.94,3.69.88,5.13.36.29.24.84.2,1.27-.22,2.66.28,5.31-.25,8a10.77,10.77,0,0,0,0,5.41c.37,1.06-.33,1.86-.27,2.86.1,1.79.4,3.69-.52,5.4-.31.6,0,1.13,0,1.71.12,1.43-.54,2.87,0,4.32-1.47.75-.41,2.07-.42,3a61.4,61.4,0,0,1-.74,7.2C30.83,80.56,31.12,81.79,30.55,83.21Z"/><path class="cls-2" d="M164.2,112.27c0,1-1,2.2-1.83,2.18-1.12,0-2.48-1.13-2.48-2,0-1.69.72-2.69,1.87-2.65A2.2,2.2,0,0,1,164.2,112.27Z"/><path class="cls-2" d="M252.89,116l-1.23-.19-1.6-.28-2.55-.38-2.83-.94-1.89-.66L239.2,112l-2.55-1.42-1.13-.85-1.6-1.13-2.65-2.36-2.07-1.79-1.14-1.8-.85-1.6V99.15l.85-1.6,1-1.33,1.61-.85.94-.28.94-.38h1.23l1.23.29.94.56,2.27,2.08.38.66.37.38,2.74,2.17,1.13.85,1,.47,1.89,1,2.08.75,1.51.76,1.32.38.94.19h.76l.75-.1.85.19.57-.09,1.41.09,2.27.09,1.42-.37h1.41l1.13-.19,1.23-.1,1-.28.75-.38,1.23-.37,1.61-1,2.07-1.7,1.32-1.6.29-.76.56-1.41.19-1.8-.28-2.36-1.6-2.54-1.89-1.14-1-.47-1.42-.47L265,88.2,263.56,88l-1.42-.38-1.32-.18-1.23-.29-1.32-.09-2-.38-2-.19-1-.28-2-.19-3.77-.66-1.32-.28-1.14-.38-1.88-.47-1.89-.66L240,83l-1.51-.57-2.08-1-1.51-.94-.38-.19-1-.85-1.22-1.13-.66-.57L231,77l-.76-1.14-.47-.84-.94-1.51-.95-3.69V67.06l.19-1.61.29-2.17.37-1.41.38-.95.47-.94.38-.85.66-1,1-1.42,2.93-2.92.94-.47,1.32-1,1.61-.75,1.22-.95,1-.56.85-.38.85-.1.94-.56,3.4-1,1.8-.28,2.17-.28,1-.19,1.22-.1,2.08-.18,1.89.09h.85l.66.09,3.3.29.57.19h.75l.95.18.85.19,1.13.19,2.45.95,1,.56.85.38,1.22.76,2.36,1,1.33,1.23,2.07,1.61,1.8,1.88,1.6,2.27.85,1.6-.19,2.84-.19.56-.37.66-.76.66-1.7,1-1.79.66L275,66.87l-1.51-.66-1-.66-1-1-1.6-1.7-1.32-1.13-.85-.66-1.61-.85-1-.85-2.17-1L261.38,58l-2.54-.28-1.7-.09-2.55.09-2.27.19-1.89.09-2.83.57-2.73,1.23-1.14.66-1.51,1-1.89,1.7-.56,1.41-.38,1.13-.09,1.7.37,1.7.57,1.51.47.66.76.57,1.32,1,2,.75,2.93.85,1.79.38,1.13.28,1,.1,1.23.19.85.19,1,.47h.66l.94.09h1.89l1.13.29,1.61.28,1.89.47.94.28.94.1.38.28,2.46.28L272,79.33l2.07.94,2,.85,1.6,1.23.57.57,1.32.94,1.41,1.6.57,1.14.57,1,.37.67.19.75.57,1.51.19,1.32.09.38.19.19.1,1.32v3.49l-.38,2.17-.38,1.51-.47,1.33-.47.94-.19.66-.66,1.13-.85,1.23-.76.85-.66.85-.47.47-.66.85-.85.85-1.13.76-1.61,1-.94.57-.66.38-.95.47-.94.38-.66.28-1.32.38-1.89.66-2.45.56-2.27.19-1.42.19-1.88.1h-3.69ZM232.22,66v-.19l-.19-.1-.19.19.09.1Zm1.79-.85.28-.47.19-.29-.09-.28-.38-.28-.19-.1.38-.37.57-.48.47-.37.38-.29-.1-.19-.38-.18-.09-.29.75-.38.29-.47.56-.56.66-.57.48-.85.56-.94.85-.38.57.19.09.37.29.1.28-.28.19-.29.19-.56-.1-.76-.47-.38-.75-.28-.67-.19-.28.1-.09.09-.19.09-.47.29-.76.38-.19.28-.09.38h-.29l-.28-.1-.47.19-.38.19-.28.28.09.38v.47l.1.66.47.38.09.28-.28.19-.57.19-.75.57-.95.94-.66.57-.28.38.38.37.19.57-.19.66-.19.47V65l.28.47.19.47.1.19Zm.1,2.92-.57-.28-.29-.38-.28-.09-.38.19.29.56.85.19ZM233,62.9l.1-.28.18-.09.1.09-.19.38Zm.66,40,.1-.19-.19-.19-.29.09v.19l.29.1Zm0-41.44.19-.1.1.19-.1.19h-.09Zm.76-2.93.09-.19h-.28v.19Zm1.13,4.91.1-.28h-.19v.28Zm.57,5.19.09-.19-.19-.09-.19.19.1.19Zm-.19-10.48.19-.47.37.1-.09.47Zm2.83,15.67-.09-.28-.29-.28-.09.19.09.28.29.19Zm.09-14.63.1-.47-.19-.09-.19.28-.09.47.19.1Zm1.33,16.43-.29-.29h-.37l-.1.19.28.19.29.09ZM243,56.48l.47-.18.19-.38.09-.38.38-.09.47.18.57.29.38.28v-.47l-.1-.66.19-.38.47-.09.29.19.18.37.29.38.19.19.19-.19.09-.28-.19-.66.1-.57.56.19.57.47h.47l.19-.28.09-.29h.19l.47-.09.38-.19.28.38h.67l.47-.28.94-.38.57.38.66.56h.47l.38-.09-.1-.29v-.47l.48-.19.56.19h.57l.56-.19.48.1.28.28.1.28h.09l.19-.37.19-.57.28-.09.19.47.09.47.38-.09.47-.19h.66l.95-.29.85-.18.56.47.48.28.56.09.66-.09h.38l.38.28.47.19.38-.19v-.47l-.38-.28-.57-.19-.56-.38L264,52.9l-.38.38-.28-.1-.19-.57-.1-.75-.09-.47h-.19l-.57.28-.75-.19L261.1,51l-.09-.09-1.14.75-.18.47v.47h-.19l-.19-.28v-.66l-.19-.75-.57-.38h-.66l-.56.19-.67.28-.47-.19v-.19l.19-.28v-.28h-.66l-.38.28v.57l-.09.66.38.47.28.09.19.19-.1.28-.56-.09-.57-.38-.28-1.32-.38.38-.47.28-.19-.56v-.38l-.47.09-.19.1-.66.19-1,.37-.47.38-.29.19-.56-.28L249.4,51l-.19-.28h-.29l-.28.37-.57.48-.37.09-.1-.09v.09l.19.19.38.57-.1.18-.47.1-.66-.19-.47-.19-.19-.09-.38.19h-.37l-.19.09-.66.85-1,.94-.47.1-.38-.19-.66-.28h-.38l-.18.37-.19.1-.19-.1-.57-.19-.75.1-.1.47.47.28h.57l.28-.09.19.09v1l.1.85.37.09Zm-2.74,2.46.09-.19-.18.09-.1.1Zm.09,18.41.1-.29-.1-.38h-.18l-.1.38.1.29Zm1.7,3.58-.19-.28h-.47v.19l.38.09ZM241.94,75l-.1-.19h-.18l-.1.09.1.28.09.19Zm.94-19.26-.28-.38-.09-.56.09-.1.38.38.28.38-.19.37Zm.85-2.64-.19-.48h-.19l-.18.1.09.19.28.38Zm-.28,25,.09-.19-.09-.09-.19.19v.09Zm1-21.43-.1-.19h-.28l.1.19Zm1,22.09-.1-.47.38-.57-.19-.19h-.28L245,78l-.09.66.47.28Zm-.19,2,.28-.37.19-.38-.19-.19-.38.38-.19.47.1.28Zm1.32,27.85.09-.57-.19-.09-.28.19.1.47Zm.47-30.77-.19-.19h-.19l.19.38Zm.19,3.21.09-.48-.09-.37H247l-.1.47.19.47Zm1.13-27.09.38-.19.28.19-.09.18-.28.1Zm.85,26.14-.38-.28-.28.28.47.29Zm.47,30,.38-.19-.28-.19-.47.1-.19.19.09.18Zm.85-30V79.8l-.19-.28-.18.19.09.37Zm1.7,1.61-.19-.57-.75-.47h-.57l-.09.28.28.47.66.29Zm-.85,28.13.19-.38h-.28l-.28.19.09.19Zm.19-26.53.1-.28v-.09l-.19.18v.19Zm.1-30.49.09-.28.19.19-.1.19Zm.47,62.49.19-.28-.29-.1-.28.19.09.19Zm.19-4,.28-.29-.09-.28.09-.28v-.1h-.09l-.19.19-.29.57-.09.47ZM253,79v-.19h-.28l-.09.19.19.19Zm-.18-25.67.37-.1.28.19-.47.09Zm.47,29.45.09-.19-.19-.1h-.37l.09.29.19.19Zm14.35,2.54.47-.66.37-.47-.09-.47-.19-.85-.09-.57h-.29l-.28.19-.66-.09-.57-.19V81.4h-.37l-.57.19-.38.57-.19.38-.28-.38-.19-.85-.28-.66-.66-.1-.47.19-.38.19-.1.29.38.56.28.29.19-.1v-.28l.1-.19.37.38.1.75-.38.57-.28-.1-.76-.66-.94-.66-.19-.38.38-.66.19-.66-.38-.09h-.76l-.56-.1-.29.19-.47.38-.37.28-.29.29-.75-.19-.76-.38-.28-.38-.19-.28-.47.28-.38.66-.28.19-.19-.28-.38-.19-.75.19h-.67l-.37.09V81l.47.37.57.1.56.38.38.47-.1.09h-.56l-.19.1.38.28.66.19.38-.09.09-.38V82l.47-.28h.76l.38.28.09.28-.38.1-.38.19v.28L257,83l.48.19.66.47.66.09.28-.28.09-.19.19-.09.29-.1.47.1.47-.1.57-.37.37.19v.56l.19.47H262l.19-.47.29-.19.56.1.19.09-.19.57v.38l.38-.1.28-.47.48-.57H265l.28.1.19.37.48.48h.47l.56.19.19.47-.09.37.19.19ZM254.4,110.1l-.28-.38H254l-.09.29.09.28.19.19.28.09Zm.38,1.51-.29-.19h-.37v.19l.37.09Zm1.41.66.1-.38-.47-.09-.19.28.19.29Zm0-3.11-.09-.1-.1.38.19.09Zm.47-28.7.29-.09v.09l-.29.09Zm.29-28.6.19-.28.38-.1.28.29.09.37h-.47ZM257.8,112l-.1-.19-.18.09-.1.19.19.1Zm-.1-2.08.1-.19h-.19l-.09.19.09.1Zm.29,1,.19-.1-.19-.09-.29.09-.09.1Zm.66-27.66v-.47l.19-.48.37-.28h.38l-.09.47-.29.57-.28.38Zm1.22,26,.1-.29-.28-.09-.29.19.1.37Zm0-28.7.19-.19.48.19v.38h-.38Zm.19,3.87v-.19h-.19v.19l.1.1Zm.66,27.47.1-.19-.28-.28-.38-.1-.19.19.19.28.38.29Zm-.56-59.19.19-.37.19.09v.1l-.19.56h-.19Zm.19,2.18.19-.19.28-.1.28-.19V54l-.38.09-.47.29v.38Zm1.69,57-.28-.47-.09-.66-.38-.38-.66.09-.09.19.09.19.28.38.57.56.47.19Zm-.66-59.37.1-.19.19.09v.19l-.19.09Zm.95,2.92v-.09l-.29-.1-.37-.09v.19l.28.19Zm.38,55.6.19-.38.28-.19.19-.09.09-.19-.28-.38-.47-.47-.19-.28-.38.28-.28.57.09.47.19.57.28.18Zm.85-2.55v-.09l-.29-.1v.19Zm1.41,2.36-.75-.19-.19.29.38.28.66.09Zm-.09-26.15v-.18l-.1-.1-.09.1.09.28ZM267,110.19l.48-.37.19-.1.37.19.29.1-.1-.67-.19-.75v-.28l.19-.1.57.76.28.28h.47l.57-.28.66-.1.66.1.47-.29.1-.47-.19-.47-.29-.38-.28-.47-.38-.66-.56-.66-.38.09.09.48v.47l-.47.47-.47.28-.66-.09h-.75l-.29.38-.28.47-.38.38-.28.47-.1.09-.47.1-.47-.1-.47.19-.19.47.56.47.76.1ZM265.44,83.1l.19-.28.19.1v.28l-.28.09Zm1.89-28.69-.09-.57-.29-.19-.37.19-.1.28.28.38.38.38Zm1.51.94.1-.19h-.38v.19l.09.19Zm4.34,30.58-.09-.47-.38-.47-.75-.66L271.2,84h-.66l-.66-.09-.28-.38-.19-.47.09-.38v-.38l-.37-.18-.29.47.1.66-.1.56-.09.29v.28l.28.57.57.19.66-.29.47-.09.19.28-.1.66V86l.66-.1.67.1.56.09Zm-4.05.38-.1-.09h-.09l-.1.09.1.1Zm-.29,22.37.19-.09v.19l-.19.09Zm1.8,1.7-.19-.19h-.29v.29l.29.09Zm0-2.36-.19-.37.37.09.19.38Zm.56-24.82-.19-.1h-.09v.1l.19.09Zm1.42,23.5.66-.38h.66l.09-.47-.09-.47.19.09.38.29.37.19.29-.19.66-.66.19-.47.09-.48.57-.47.85-.47.56-.57.1-.37-.19-.19-.57.28-.57.19v-.66l.1-.19.76-.38.18-.56v-.57l-.18-.19-.19-.38.28-.56.38-.29.28-.19v-.37l-.09-.19-.19-.1-.66-.66-.29-.09.19.38.47.28.1.19v.56l-.38.19-.57.19-.19.57v.56l-.28.48-.38.19-1.13.47h-.28l-.19.19v.28l.75-.1.76-.18.09.18-.28.48-.57.28-.75.28-.57.57-.37.19-.38.09v1.32l-.19.38-.28-.19-.57-.28-.38.09.1.29.09.47-.19.38-.19.19v.37l.29.38Zm-.29-23.31V83.2h-.18l-.1.28Zm.95,25.29-.28-.28h-.57l.28.28Zm1-22-.19-.28-.57-.19h-.38l.19.28.47.28.29.1Zm.09,17.46-.09-.09.09-.28.19.09.09.28-.09.1Zm1.23-43.89v-.19h-.29v.19Zm.09,25.67v-.09l-.19-.09-.09-.1v.1l.19.18Zm1.51,4-.19-.19h-.28V90l.28.1Zm2.17,5.19-.18-.38-.38.1.09.38.29.18Zm-.18,4.63.18-.1.1-.38-.1-.18-.18.09-.19.28v.29Z"/><path class="cls-2" d="M339.06,114.82l-.66-.09-.85.09-2.17-.19-1.88.1-1.23-.1-2.65.1h-2l-1.79-.1h-1.51l-1.32.19-1.51-.09-.48.09-2.07-.19h-2.83l-3.12-.09-3.4.09h-3l-1.51-.09-1.51-.85-1.13-1.89-.19-2.27v-6.7l-.09-2.92.09-2.18V94.81L302.16,93l-.1-2-.09-.94V88.77l.09-1.42V85.09L302,84.8l.09-.85L302,82.82V82l-.1-2.26.1-4,.09-2.64V71.49L302,68.76V62.62l-.19-1.6.09-1.23V58.66l.1-1.8v-1l.09-1.79.1-2.55.37-1.23.67-1,1-.66.76-.38,1-.19h2.73l4,.19H319l2.64-.1,2-.09,2.93-.1h6.13l2.08.29h2.08l1.51-.19,2.64.09,1.51.1,3.78-.19,1,.09,1.41-.09,1.51.19,1.42.56.75,1.14.57,1.89.19,2L353,55l-.56,1.7-1,1.32-1,.38-2.17.19-3.4.1-2,.09-.85-.09-3,.18h-4.44L331,58.75l-2.17-.09h-.95l-1.89.18-5,.1h-1.7l-2.08.09h-1.79l-1.7.48L313.39,61l-.09,1.6-.19.66v1.61l-.1,2.17.19,2.36-.09,2.45.47,2.17,1.13.66h.76l2.07.29L320,74.8h1.6l2,.19,2.08-.19,7.17-.1H338l1.41.1,1.61.47,1.13,1.13.38,1,.18.94.1.76.19,2.17-.29,2-.65,1.14-1.89.94h-5l-5.47.28-3-.09h-1l-3.87-.1-1.13.1-1.7-.1-2.27.1-1.13.19-1.23.37-.66.57L313.58,88l-.1,1.42L313.3,91v2.08l.09,1.42v1.79l-.09,1.51v2.55l.84,2.45,2.65,1.13h6.61l2.64-.09,2.64.09,5.38-.09,2-.19h5.67l1.13.19h1.79l2.93.09,2.36.19h1.23l.75.19.85.57.57.85.28,1.7-.09,2v1.13l-.19,1-.38,1.13-.57.76-.66.38-.94.28-4.72.47-2.45.28H341Zm-33.22-51v-.19l-.1-.1-.28-.09-.09.19.18.19Zm.38,14.06-.1-.28h-.28l.09.28Zm.18-5.1.1-.28-.1-.09h-.18l-.1.28.1.19Zm1.7-2.64.1-.66.28-.47.28-.38-.66-.38-.85-.75-.47-.66-.47-.19-.09.19.09.38.19.37-.19.38.09.19.48.09.28.29.19.56-.38.38-.47.28-.1.38.76.38.75.09Zm1.23,23-.09-.47-.66-.75-.38-.66.38-.29.47-.09.37-.1.19-.37-.19-.29-.56-.19-.66-.09h-.57l-.19-.19.29-.28.66-.19.47-.38.28-.19.19.1.47.28.47.09-.28-.28-.19-.56-.47-.57-.19-.47.1-.57-.1-.47.66-.47.19-.66-.09-.38-.38-.19-.1-.57.29-.19.28-.37-.19-.76-.28-.56h.28l.38.28h.38L311,82l.47-.28.38.28.19.28h.09v-.47L312,81.4l-.75-.18-1-.57-.47-.47-.19.09-.37-.19v-.75l.09-.66-.47-.29-.57-.09-.75.19-.76.09-.28.29.09.47.47.19.76-.29.66-.09.19.19-.09.19-.19.09-.29.19.1.47.56.28.29.19L309,81h-.19l-.56-.1-.57.1-.19.19.1.37V82l-.76.38-.09.19.56.28.66.1h.19l.1-.19.19-.29.28.19.19.38v.66l-.47.09-.95.38h-.56l-.29.19.1.28.37.48.38.66.1.28.47-.1.75-.75.29.28.09.38-.38.47-.94.57-.57.38.19.75-.28.29.28.09.47.19v.19l-1.32.19-.19.09-.09.38v.38l.47.37.47.57-.09.38h-.38l-.28.19.19.66.28.66.47.38,1.14.28.56.09Zm-2.17-17.37v-.28h-.28l-.19.1v.09l.19.19Zm-.1,1.7v-.28L307,77h-.28v.28l.19.28ZM307.35,66l.19-.1-.1-.47v-.28l-.28-.28V64.6l.28-.38.19-.09.28-.19.48-.38.19-.28.37-.75-.28-.38-.28-.19-.1-.19v-.19l.47.1.66.09.1-.19-.19-.28-1-.47v-.1l.29-.09.66-.29.18-.56L309,59.6l-.66.38-.85.37-.47.19h.19l.28.19v1l.29.38.18.19-.37.47-.48.28.1.1.57.28.18.19-.66.38-.28.18v.67l-.19.75.1.28.18.1Zm.85,8.3.09-.28.1-.47.19-.57-.1-.28-.19-.38.19-.19.28-.09.1-.47-.95-.29-.94.1-.09.28.18.19.19.38-.19.85-.28.47.1.28.56.47.57.29Zm0,21.53.19-.48V94.9l-.19-.56-.29-.29-.28.1-.38.47-.19.47.19.19.29.38.09.47.1.09Zm1.13-37.95.38-.47-.57-.38-1.23-.38h-.47v.38l.47.76.95.94.47.19Zm-1.6,1.42.18-.29-.18-.37h-.19l-.1.37.1.29ZM307.63,92l-.09-.19.28-.19.19.19-.1.28Zm.1,8.68v-.19l-.1-.09-.09.09v.19Zm.66-33.41.28-.57-.09-.1h-.19l-.29.48-.19.56.19.1Zm.66,9.62-.19-.66-.47-.28-.29.38.1.66.56.38Zm-.66.95-.19-.19-.1.28.19.19Zm0,21.71v-.1l-.1-.19-.19.1.1.19Zm.47-34.36.19-.19-.1-.28-.28-.29-.28.29v.37l.19.19Zm-.38-7.65v-.28h.28l.1.19-.1.19Zm1.23-1.6-.1-.19-.56-.28-.38-.1.28.57.57.28Zm-.66,15-.1-.29-.09.19.09.29Zm.28-2.55-.09-.1-.29.1.1.09Zm.28,5.47.1-.19h-.29l-.28.19.19.1Zm1.14,12.75-.29-.19-.37-.19-.1.19.38.28Zm7.55-3.87v-.48l.09-.47.29-.09.56.09.66-.09.47-1,.48.19.56.29.29-.1.09-.19-.28-.47-.19-.47.47.28.57.47h.18l.19-.37-.09-.38-.47-.38-.57-.09h-.38l-.19-.19.19-.38.48-.09h.75l.09-.1-.28-.28-.38-.1-.56.1h-.85l-.38-.19L320,78.1h-.1l.1.19.09.38.1.47.18.19-.09.28-.28.19-.76-.28-.47-.19-.28.38-.29.18h-.09l.19.29.28.28.28.19.1.19-.38.28h-.47l-.28-.28-.48-.1-.47.19h-.56l-.38-.28v-.28l.28-.1.28-.19-.18-.47-.29-.38-.38.29-.75.28-.47.09-.47.48-.19-.29.19-.47-.19-.66-.66-.76-.48-.28-.09.1.09.47-.28.47-.57.09-.37-.47-.38-.38-.19.19-.09.38v.38l.56,1.32h.29l.18-.28H312l.47.28.67.47.47.47v.1l.38.19.47.38h.19l.37-.29.57-.09,1.13.09.38.1.57.47.56.38Zm-6.33-30v-.19l-.28-.19-.09.19.18.19Zm1.7,1.41-.56-.47-.48-.19-.09.19.47.57.57.38Zm1.14.1-.19-.19.09-.38.38-.56.38-.29.28.29.28.66.47.19.29-.19.09-.19.38-.1.57.19.28.29.38-.19.47-.1.38-.19.66-1.32h-.57l-.57.1-.09.28-.28.28-.66.1-.57-.19-.28-.28-.48-.19-.28.09-.28.28-.38-.09-.28-.09-1,.47-.1.19.1.56.28.38.19.19Zm.28-2.27.19-.09.09-.19v-.19l-.28.1-.47.09-.38.1V52l.38.1Zm-.1,31-.18-.29-.19.1.19.28Zm.85-4.06-.19-.29-.37.19.19.28Zm.57,4-.19-.28-.28-.1-.19.19.38.19Zm1.23,24.73-.1-.19-.19.1.1.09Zm.19-28-.38-.19.09.28.29.19Zm.09-27.38-.09-.37-.29.09.1.38Zm.28,59.28.1-.56-.1-.57-.19.38-.09.75.09.19Zm1.14-1.6-.1-.19-.19.38.19.18Zm1.51-.29.09-.37-.09-.1-.38.1-.19.18.19.19Zm.94-55.22.85-.28.76-.47L323,53l-.48-.28-.66-.19h-.66l-.56.66-.29.94.48-.18.75-.38.28.28-.18.38-.19.28v.1l.19.09Zm-.09-2.92-.29-.29-.47-.09-.09.28.37.29Zm.66,2v-.19h.18v.19l-.09.09Zm.37,58.05-.19-.09-.09.19.19.09Zm.57-30.2-.38-.29h-.28l.38.29Zm-.09,28.41.19-.29-.19-.18-.38.28.09.28Zm2.07-28.7.19-.38.28-.18.29.28.47.28.38-.09.85-.85.47-.57v-.19h-.57l-.66.1-.28.38-.28.28-1.51-.76-.38-.37-.57-.48-.56-.19-.29.48-.09.56v.66l.28.19.57-.09.19.47.56.47Zm1.32-26.71V54l-.18-.19-.38-.28-.29-.47-.09-.48.28-.28.48.1.37.37.38.57.76.47.66.28.66-.09.85-.19.47-.38h.56l.67.29.37.19.19-.1.1-.19.37-.09.38.28.47.1.38-.1-.28-.56-.57-.67-.66-.18-.66-.1-.57.19h-.56l-.47-.28-.38-.19-.29.19-.09.56-.19.57-.28.28-.19-.09-.28-.57v-.66l-.19-.19-.29-.09-.37.28-.95-.28-.85-.66-.19-.19h-.18l-.19.09.09.38-.09.28-.29.29-.18.37-.29.19-.38-.37-.47-.38-.28.19.28.85.66.75.66.38,1,.19ZM323.68,79v-.28h.19l.19.19.09.37-.19.1Zm.47,30v-.38l-.09-.38-.29.38.1.47Zm2.45,1.79-.09-.38-.19-.47-.19-.75-.28-.29-.38.19v1l.1.56.47.29.47.09Zm-.37-3.3v-.19l-.19-.1-.1.1.1.19ZM328,51v-.19l-.28.1-.1.18.19.1Zm8.12,60.51-.29-.48-.09-.37.19-.19.38.09.47.1.75-.19.57-.38v-.38l-.09-.56v-.66l.18-.29.29-.09.38-.1.28-.19-.1-.47-.28-.09-.38.19-.94.09-.38.28-.47.19-.38.29-.09.28-.1.19h-.28l-.85-.57-.94-.38-.38.38-.47.19-.48-.38-.28-.66V107l-.19-.18-.37.18-.1.48v.37l-.28.76-.19.28-.94-.56-.57-.19-.28-.19L329,108H328l-.19.66v.66l-.09.48v.47l.47.66.47.38.28-.19.1-.66v-.57l.19-.19.19-.09.18.47.29.47h.47l.47.29.1.37H331l-.09-.47-.19-.57.09-.47.1-.19.56.57.66.47.47-.09h.67l.37.38.29.18.19-.09v-.28l-.29-.66-.66-.48-.47-.19-.28-.47.18-.37h.29l.19.18.38.1.66.09.66.76.47.94.09.57.29.38.37.28Zm-6.89-31-.1-.28h-.37l-.19.19.19.28.18.1Zm1.13-1.41V79l-.19.09v.19Zm5.19-26.34-.28-.56-.47-.38-.1.19.29.66.47.38Zm.19,54.09.28-.38h-.28l-.28.38Zm1.32,5.1-.28-.19-.28.09.28.19ZM337,53.28l-.1-.19-.28.09.09.19.19.09Zm1.22-.1V53L338,52.9l-.19.19.19.19Zm1.33-.09.28-.19v-.19h-.28l-.38.19.09.19Zm.75,57.2.19-.28.09-.67-.47-.47h-.56l-.1.57v.75l-.09.57.47.66.47.38Zm2.36.57.57-.29.38-1.13.18-.28.19-.48-.09-.47h-.57l-.57.19-.47-.47-.37-.57-.29.1-.38.09-.66-.19-.37.29v.56l.56.29.76-.1.47-.19.38.1-.1.56-.37.76-.19.66-.19.47.09.1.38.09Zm2.08-.29.09-.38.29-.94L345,109h-.19l-.38.47-.09.75.19.38Z"/><path class="cls-2" d="M369.26,115.76l-1.22-.28-1.7-.85-1.32-1-.95-1.13-.37-1.13v-1.7l.84-1.7.57-1.42.47-1,.57-1.13.85-2,.57-1.51,1.79-3.59.94-2.07.85-2.17,1.51-2.93.95-2.17.66-1.32.66-1.42.75-1.6,1.32-3.4,1.14-2,.75-2.07,1.32-2.83,1.51-3.5.85-1.88L384,64.32l1-2.17.47-1.42.85-1.6.66-1.32.19-.76.38-.94.47-1.32.66-.95.57-1.13.56-1,.38-.75.66-1.14,1.13-.94,2.36-.47h2.55l1.23.28,1,.94.66,1.23.56,1.13.95,2.17.94,2.08,1.8,3.49.56,1.51.66,1.23.57,1.7.75,1.7.48,1.32.66,1.32,1,2.36,1,2.08.66,1.7.67,1.13.37,1,.66,1.41.85,1.52.57,1.51.57,1.6.56.94.47,1.23.95,1.7.75,1.89,1.23,2.92,1.7,3.21L420.8,97l.66,1.42.38.84.38,1.23,1.13,2.27.85,1.79.47.76.85,1.79.66,2,.48,1.61-.38,2.07-1,1.23-1.89.94-3.3.85-2.17-.47-.85-.75-.95-1-.28-1.22-.85-1.8-1-2.17-.56-1-.85-1.89-1-2.17-.38-.85-.66-1.13-.85-1.51-.66-1.23-.94-.66-1.89-.19-2.36.1H392.67l-3.11-.1-2.46.19-1.32-.09-1.6.19-1.51.09-1.23.66-.56.85L379,103.4l-.95,1.7-.28,1-.47.94-.57,1.32L376,110l-.48,1.41-.94,1.51-1.13,1.7-1,.85-1.51.38Zm1.14-12-.19-.1h-.29v.1l.29.09Zm0,1.6-.19-.28L370,105l.28.38.1.09Zm.66,2.08-.19-.19v.19l.09.09Zm.47-3.59-.19-.28-.19-.1-.09.19.28.28Zm.47.94-.19-.37-.37.28.28.38Zm.66-5,.1-.19h-.29l-.28.1.19.09Zm-.19,9.16.1-.1-.19-.09-.09.09v.19Zm1.42-7.55.09-.57-.09-.19-.38.19-.19.57.29.47Zm-.09,3v-.1h-.29l-.09.1.19.09Zm.56-6.42.28-.19.19-.28-.09-.19-.47.09-.47.28v.19l.28.19Zm.95,1.41.37-.66-.19-.28h-.28l-.19.19-.38-.19-.47.19-.19.56.19.38.47.19Zm1.13-1.88.56-.38-.56-1-.85-.75-.47-.19-.19.28-.38.19-.19.19.57.19.66.28V97l.19.57Zm-1.7-4.25.09-.19h-.28v.19Zm1.13-.85-.09-.1-.19-.09-.1.09.19.1Zm1.51,3.3.1-.56.09-.66.28-.38v-.38l.1-.47.19-.57.09-.38.19-.37.57-.48.38-.47.09-.28.19-.09.47.47.38.19h.66l.85.09.56.28v.48l-.18.47.18.09.48-.28.56-.28.38-.1.19-.28-.1-.38-.18-.47v-.66l-.48-.57-.66-.19-.47.1-.38.47-.28.47h-.38l-.47-.47-.09-.38.19-.09.09-.29-.38-.47-.94-.66-.85-.38-.76.1-.56.19-.1.19L378,89l.1.47-.38.28-.57.1-.37-.1-.38.19-.1.28.57.19.85.1.47.09.1.19-.29.38-.56.47-.1.57v.47l-.28.47-.47.28-.47.1-.19.37.37.48h.48l.47.19v.18L377,95l-.09.47.19.28Zm-.56,3.78v-.19l-.19-.1-.19.19.19.19Zm1.51-3.59-.1-.09H378l-.09.09.19.1Zm3.3-9.63-.66-.66-.19-.38.19-.18.75.18.38-.37v-.57l-.19-.28-.37-.1-.66.19h-.67l-.56-.19-.47.19-.1.19.1.1.28.09.38.19v.19l-.1.28-.19.47-.56.47-.48.1.1.09.66.1,1.23.28.85.09Zm-2.55,2.83.38-.18.09.09-.18.38-.38.09Zm.29,3.5.18-.1-.09-.09h-.28l-.1.09.1.1Zm.56.85V93.2l-.38-.09h-.09l-.09.19.18.28Zm.38-10.95-.1-.19-.28.09-.09.19.19.1Zm3.68-1.8-.19-.66-.66-.47-.47-.09-.66.37-.76.29-.47.09-.28.19v.19l.38.19.84-.1.95-.28.66.19.19.28.09.1Zm-1.32,2.18.38-.57-.19-.28.19-.29-.1-.38-.19-.09-.28.09-.47.19h-.57l-.66-.09-.28.19v.19l.28.09.38.1.19.28.09.38.38.37Zm-1.23,9.53.1-.28-.29-.19-.47.09-.28.1.28.18.38.19Zm.19-13v-.19l-.19-.09-.19.19.19.09ZM382,78l.09-.19-.28-.1-.28.19.09.19Zm-.19,4.34.28.09v.1h-.28Zm3-2.93v-.28l-.47-.19-.76-.38-.28-.38-.19-.28-.28.1-.19.56v.29l.47.28,1.32.38Zm-2,10.76.09-.09h.19v.09l-.19.1Zm1.89-12,.47-.28-.19-.75-.85-.57-.47.09-.19.29.09.28.29.1h.28l.09.28-.09.28.19.28ZM384.37,83v-.28l-.19.09V83Zm.28-9.82V73l-.09-.09-.1.19.1.09Zm.19,1.61.19-.19.38-.29L386,74l.38-.38-.28-.37-.57-.1-.28.47-.47.48-.29.37.1.29Zm5.29,17.37.37-.48.66-.56.66-.29.1-.37-.19-.48-.66-.28-.38.1.1.18.19.1v.28l-.76.19L389,90.28l-.66-.29-.38.38-.56.38h-.57l-.66-.19-.66-.09-.38-.1-.28.29.09.66.48.56h.37l.19-.38.38-.37.47.19.66.28.76.09.47.1.19.09.09.19.48.19Zm-3.78-16.24.28-.57-.09-.28-.47-.09h-.38l-.47.28-.29.47.38.38.57.09Zm.94-2.08v-.56l.1-.38-.19-.57-.19-.47.19-.28.28-.19.38-.19.47-.28.38-.29.57-.09.28-.19.09-.19v-.09L389,70l-1-.28-.66-.47-.37-.19-.19.09v.29l-.29.37-.47.48.19.47.28.38-.66.37-.66.19-.09.19.38.28.75.48.47.47.19.47.19.28Zm-.37,16.33v-.09l-.29-.1h-.19l.1.19Zm-.1,2.46.1-.19v-.1l-.38.1-.1.19Zm.47-17.75V74.7H387l-.19.19.19.1Zm15.48,12.18.1-.1.28-.09.38-.85-.28-1.7-.57-1.41-2.08-3.69-.94-1.79-1.23-3-.75-1.79-.66-1.7-1-2.46-1.13-.94L394.09,69l-.76,2.36L391.73,75l-1.23,2.54-.85,2.36-.75,1.7L388,83.48l-.09.76-.19.85V86l.66.66,1.61.09h1.7l2.64.19,6.32.19ZM389,68.94l.19-.47V68l-.09-.19-.57.19-.38.38.1.38.37.28Zm.38-1.6.47-.38.1-.56.09-.48.19-.09.38-.1.28-.09.1-.19-.48-.09h-.56l-.57-.1-.38.1.38.94-.09.38-.48-.1-.28.1.09.47.29.28Zm1.23-3,.38-.47-.19-.19h-.38l-.38.28-.19.38.1.19.19.09ZM392,92.73v-.28l.66-.66.48-.29.28.38.28.19.29-.19.66-.09,1-.19.48-.38-.1-.09h-.56l-1.14-.38-.75-.47-.19-.19h-.28l-.1.28-.75.76-1.23.75-.09.66.75.38ZM392,64l-.09-.19-.19.09v.19l.09.09Zm1.89-5.2-.09-.18h-.19l.09.18Zm2.55-2.17v-.19l-.85-.09h-.75l.56.09.85.19Zm.38.95v-.19h-.19l-.1.19.1.09Zm.75,34.07v-.28h-.28l-.19.09.09.29Zm1.13-.09-.18-.1h-.1v.19l.19.1Zm2.65-25.39v-.29h-.1l-.09.29Zm1.13-1.14-.09-.18h-.1v.28Zm.85,5.48.28-.28-.09-.38-.85-.1-.28.29.56.47ZM402.87,69v-.1l-.1-.18-.18.09.09.19Zm1.23,6.61.94-.29.66-.19.57-.09.47-.09V74.8l-.28-.1-.38.19-.57.19L405,75,405,74.7l.37-.38.47-.37.1-.57v-.47l-.28-.47-.48-.57-.56-.09-.38.28-.38.19-.38-.47-.28-.57-.28.09v.48l.28.47.28.09.1.1-.28.47.09.47.47.47.29.38-.29.94-.28.66Zm0,2h-.29v.09l.19.1Zm.28-4-.19-.47v-.38l.09-.09.48.28.37.48-.09.18-.28.1Zm.09,6.42V80l-.19-.1-.09.1.09.09Zm3.87-.19.1-.28-.1-.38v-.37l-.19-.1-.37.1-.66-.29-.66-.38-.95-.09-.75.19.37.19.66.47,1,.76,1,.28ZM406.64,77l-.28-.47-.47-.57-.47-.19-.47.09-.1.48.28.37.66.19.76.19Zm-.47,3.68.38-.28-.38-.29h-.56l.09.57Zm.57,3.4-.19-.19-.28-.1-.19.19.19.29.37.09Zm1.51-1.7.56-.57v-.47l.1-.66v-.47l-.19.28-.19.57-.38.28-.47.28-.56.1-.48.19-.09.47.38.19Zm-1,6.13.09-.37-.28-.19-.28.38.19.28Zm1-11,.38-.66-.1-.28h-.38l-.28.19V77l-.09.38-.38.28-.28.19.37.19Zm-.57,9.07-.09-.29h-.29l.1.38Zm2.17,2.73.57-.09.28-.38-.19-.28-.09-.38.38-.75.28-.38.28-.1.19.29.38.09.19-.28-.28-.47-.85-.1-.85.19-.47.47-.29.47-.47-.09h-.76l-.66.09.95.29-.1.66v.66l.66.09Zm-1,1.7.19-.28.29-.38.47-.28.38-.1V89.9l-.47-.09-.95.28-.57.38v.28l.29.28Zm.38-5.76L409.1,85l-.47-.09h-.38v.19l.38.28Zm.85-.84.1-1.14V83l-.57-.09-.47.28-.47.94.37.1.67.28Zm-.47,2-.28-.29h-.48v.19l.48.29Zm1.89-.66-.1-.19v-.85l-.18-.19-.67.09-.28.48.19.37.38.19.56.1Zm7,18.5-.09-.38-.28-.57-.38-.47-.1-1.13v-1l.66-.09.76-.1.28-.19-.09-.19L419,100l-.66.09-.85-.28-.1-.47v-.28l-.37-.48-.38-.37-.76.09-.09-.38.66-.56.94-.1.38-.09-.09-.19-.76-.28-.75-.38h-.38l-.57.56h-.18l-.38-.37.09-.57.38-.57-.09-.56-.48-.57-.37-.47v-.38l.28-.09.28.09h.38l.28-.28-.09-.19-1.7-.57-.94.1H412l-.09-.19V92l.47-.1.47-.19.1-.28-.38-.28-.57-.19-.18-.19.28-.28.28-.19.1-.76-.48-.94-.66-.38-.09.47.19.66-.28.48.18.66v.66l-.66.19h-.37v.28l.28.47.85.38.75.38.19.28.66.47.57.47-.1.76-.18.85V96l.37.56.48.38.28.28v.1l-.28.28.28.09.09.19-.19.48V99l.1.57-.19.38v.37l.19.1.57-.47.56-.29.1.47.28.29.38-.1.28.1.28.28-.09.38h-.66l-.66-.1h-.38l-.09.19.66.29.75.28.19.09.09.1.19.28-.09.38h-.57l-.47-.1-.09.19.66.38.75.57.47.75.57.29ZM412,95.85l.48-.19-.1-.29h-.66l-.38.1v.19l.19.19ZM415,91.32l.38-.29-.57.1-.47.19v.09l.19.09Zm-.47,6.23.09-.19h.19l.29.19v.18h-.48Zm1.32-3-.19-.1-.09.1.19.09Zm.09-1.7.1-.1h-.1l-.18.1v.09Zm.29,2.17-.1-.19h-.19l.1.19Zm1.51,12.46-.29-.1-.09.19.28.1Zm.66-1.42.28-.09.1-.1-.1-.19-.38.1-.09.28Zm.75-4.44-.56-.28.28.47.47.29Zm.1,5.86.28-.38.29-.19.09-.19-.28-.19-.57.29-.38.47.1.28.28.1Zm1.13.85.19-.1-.09-.09h-.29l-.09.19Zm.66-2.46v-.19h-.28v.19Z"/><path class="cls-2" d="M464.69,114.91l-2.36-.09-1.79.09h-1.23l-1.51-.18-4,.09-1,.09-2.08-.09-3.3.19-2.08-.28-.95-.19-.84-.57-1-1.6-.29-2.74-.09-3,.19-3.21v-2.17l-.19-2.55-.19-3.21V89.05l.1-3.12-.1-2.07L441.85,81V78.29l.09-1.79-.09-2.65v-1.6l-.1-3,.1-2.27V65.73l.09-1.79V61.49l.19-2v-4L442,53.46l.18-1.41.57-1.8,1.6-1.41,2.08-.47,2,.09,1.33.1,3.77-.1h2.36l2.27.1,1.13-.1h3.59l1.13.19,1.6.09,2.93-.09,1.51-.19h6.23l4.34.47,2.46.66,1.22.38,4.25,2.08,1.13.94,1,1,.95,1,1,1.79,1.33,2.93.94,2.92.28,1.51v3.69l-.09,1.41-.76,2.83-.94,2.74-1,1.61L491,78.38l-.76,1.42.38.57,1.6,1,1.32,1.42,1.33,2.08,1,2.45,1,2.83.47,2,.38,1.79.1,1.7-.1,2.55-.75,2.83-.38,1.6-.76,1.7-.94,2.08-1.13,1.13-.95,1.51L491,110.67l-2.55,1.41-2,.85-1.41.38-2.46.75-2.45.38-1.23.29-1.41.09-.95.09-1.6.19-1.7-.09-2.45.09h-2.46ZM446,69.7l-.09-.28-.19-.19-.19.09.09.38.29.09Zm-.19,3.21-.19-.1-.09.1.28.09Zm3.78,11.14.09-.19-.09-.38.09-.47.29-.57.18-.75.19-.66.66-.29h.66l.29.38.85.38h.66l.47-.1.28-.18-.47-.19-.57-.19-.47-.1-.47-.37-.19-.29-.28-.47-.1-.66-.09-.57-.19-.19-.75.1-.66-.1.09-.37.19-.38v-.19h.09l.19-.28-.09-.29-.19-.09L450,76.4l-.48-.19-.75-.19-.66-.56-.1-.57L447.7,74l-.85-.75-.47-.1v.38l.56.66.29.38-.38.28-.47-.09-.29-.1h-.28l-.09.19.28.28.38.29.19.56-.1.66-.09.57-.19.38-.19.09v.19l.28-.09.48-.29.47-.18h.37l.19.28-.19.66-.75.66-.66.38.09.19h.85l.47.09v.28l-.37.29v.19l.09.28-.19.85-.28.75.47.29,1,.38.66.37.09.38.19.38Zm-.95-11.14.1-.57-.1-.56.19-.57.1-.57.18-.37-.09-.76-.47-.66-.47-.09-.76.37-.66.57-.09.28-.29,1.14-.19.47.38-.1.57-.28.47.19.28.38-.28.19-.28.37.28.57.57.28Zm-1.32-8.21v-.76l-.56-.09-.48.37.29.57.47.28.19.1Zm.95-2.74.56-.09.38-.1-.1-.38-.28-.37.1-.57.66-.76.28-.56-.28-.19-.48-.19-.28-.85V56.3l-.28-.19-.47.66-.29.94-.37.19-.48-.09-.18.47-.1.56.19.48.09.37v.19h.38l.38-.47.09-.47.19-.28h.29l.18.47.19.56-.09.48-.38.28-.47.28-.47.19h-.38l-.28.1-.1.18.29.29.18.47-.28.47.28.1Zm-.57,6.32.57-.37.28-.29.19-.37-.1-.76-.09-.66-.19-.66-.19-.38L448,65l-.28.47-.28.1-.48.09-.37.38.28.56.57.38.28.29-.38.47-.19.56Zm-.38,21.81.57-.38.66.1.28.18.28.38.19-.47-.09-.76-.57-.18-.66-.1-.75.66-.66.66.28.19Zm0-3.31-.09-.37h-.29l-.18.28.37.38Zm.28,7.84-.09-.38-.28-.38-.29-.09-.18.28.28.48.38.28Zm.19,4.25v-.19l-.37-.47-.38-.29-.19.19.28.57.47.28ZM449.4,86.6V85.46l-.38-.28-.75-.28-.48-.47-.47-.19-.28.09v.47l.19.47.56.38.85.66.57.47Zm-2-31.06-.1-.09-.19.09.1.09Zm0,20.77-.1-.1.1-.19.28.1v.19l-.1.09Zm.94,17.18.09-.29-.18-.37-.1-.76.1-.57-.19-.28-.38-.38v.1l.09.19-.19.37-.18.57.09.38.19.94.09.19.19.1Zm-.76-27.28.1-.19.19.09.09.19-.19.1Zm1.14,16-.38-.56-.09-.66-.1-.57-.19-.57-.19-.47-.19-.56.29-.29.56-.47.1-.66-.1-.38.19-.38.95-.09.66.28-.1.38h-.09l-.28.19v.38l-.29.37-.47,1v.85h.28l.29.1.09.28-.38.38-.19.38.29.28.19.38-.19.37-.38.1ZM448,101.51l-.09-.38h-.1l-.09.29.09.37.19.1Zm-.19-30.87v-.37l.19-.48.29-.18.28.09.19.38-.29.56-.47.19Zm.48,26.53.09-.47-.19-.66-.38.09v.66l.29.47Zm-.1-9.63v-.09l-.09-.1h-.19v.19Zm.94-24.16-.18-.19-.76-.29-.09.19.37.47.48.1Zm.67-7.93-.19-.48L449,54.6l-.57-.29h-.09l-.09.19.66.66.75.57Zm-.38,18.21.09-.37-.09-.1-.57.19-.38.19v.09l.48.19Zm-.19-5.57-.38-.18.28.28.38.19Zm.28-3.3-.19-.19h-.09l-.1.1.19.19Zm.29-2.64-.1-.19-.28-.09h-.19l.19.28.19.19Zm.19,7.08.09-.29-.19-.37-.28.19.09.47Zm.18-11.42v-.29h-.28l-.09.19.19.19Zm-.09,2.73-.09-.19-.1-.09v.19l.1.19Zm.28-4,.19-.38-.19-.09-.28.19-.09.28.09.19Zm-.09,10.1V66.3l-.28.19V67l.18.1Zm.19-11.61.56-.28-.19-.38-.37-.19-.19.19-.1.28-.09.38Zm-.38,24.73.28-.57.47.29-.18.56h-.29Zm1.13,2.36V82l-.09-.28-.1.19.1.28Zm1.32-27,.29-.28.09-.57-.38-.75-.37-.47-.29-.1-.37-.09-.19.09.28.85.28,1v.28Zm-.94,2.17v-.18l-.19.09.1.19Zm.47-1.51-.28-.09-.28.09V56l.28.1Zm-.56,24.36.09-.1h.28v.1l-.28.09Zm3.68-28.32-.1-.19h-.66l-.85.1-.38.09h-.37V52h.37l.38-.09,1.51.19Zm12.27,23.22,4.06.09H473l1.88-.18,3.21-.48,1.7-.66,1.8-1.41.94-1.23.85-1.42.28-2V65.45l-.47-1.51-.47-1.23-.85-1.13-2.08-1.23-2.26-.84h-1.61l-1.13-.1-4.81.1-3.69-.1h-2.35l-1.8-.19-2.64-.09-3,.19-1.7.28-.76.28-.37.76v1.51l-.1,1.41-.38,1.89.1,2.27v2.36l.28,1.7V73.1l.28.85.38.56.85.29.76.09,1.88.1h2.08l2,.09,2.93.09ZM454.4,55l.57-.85-.1-.84-.85-.57-.66-.1.1.19.47.48.19.47-.1.37-.09.48-.1.37v.38ZM471,104.15l2.27-.09,2.45-.28h1.61l1.79-.19,1.61-.1,1.51-.47.94-.57,1.23-1.13.94-1.51.38-.75.47-1,.19-1.61.19-1.88L486.4,93l-.47-1.52-.85-1.79-.94-1.13-.76-.66-.76-.47-.47-.29-1-.38-2.83-.47-3.49-.09-2.55-.1-1.13.1h-4.25l-1.23-.1-1.41.1h-1.89l-7,.09-1.33.38-.37.94.09,1.61.19,1.42v1.79l-.19,2.83-.19,3.59v2.07l.38,2.55.75.38.48.19,2,.09h3.49l2.93.1,2.26-.1,2.46.19Zm-16.23-24-.19-.38-.19.28.19.47Zm.94-25.11.1-.28.47-.38L457,54l-.28-.28-.66.37-.48.67v.28Zm1-2.83.1-.29-.29.1-.19.19.19.19ZM457,79.52l-.09-.19-.09.09.09.19Zm1.33-26.24-.19-.29h-.48v.1l.29.28Zm0,26.14.09-.28-.28.09-.19.19.09.1Zm1,29.55h-.19l-.09.09.09.1Zm.57,1.51v-.1l-.38-.19-.47-.09.19.28.38.19Zm4.91-55.13.28-.28V54.6l-.28-.66v-.57h.19l.19.28.28.38h2l.47-.57-.09-.75-.57-.57-.47-.19-.38.57-.47.57-.66-.19-.75-.1-1,.19-.38.29-.56.28-.29-.28.29-.38-.29-.57-.47-.28-.09.28.09.38-.85.38-1,.09-.38.1-.29.47.1.56.38.1.28-.29.38-.28.37.38.57.47.19-.38.09-.56.29-.19.56.56.48.57.37-.09.38.09.28.38.38.28Zm1,55.69.19-.28.56.1.76.18h.94l.95-.28.56-.47.19-.19.38.19.85.28.56.29.1.18.09-.09v-.19l-.37-.38-.19-.47.37-.38.76-.28.66-.38.57-.19.09.29-.38.47-.47.47.28.57.76.38.57-.29.85-.19,1,.38.38.19.19-.09.28-.29.47-.28.19-.66-.28-.66-.38-.29-.28-.66-.66-.47-.66-.38-.1.1-.09.47.09.47.48.29v.37l-.19.47-.1.29h-.09l-.38-.57-.57-.38-.84-.47-1.42.29-1.32.28-.38-.28-.28-.1-.29.28-.28.48-.57-.19-.47-.47h-.37l-.38.18-.48.19-.47.1-.37.09-.57.28-.38.29-.56.38-.48-.1-.66-.38-.94-.47-.47-.09-1,.47h-.57l-.47.09-.19.1-.09.28.09.47.38.19.19-.19.28-.19.57.1.37.28.19.1.19.19.47.09.48-.19.28-.09.57.19.75.37.47.19Zm-3.31-.66.29-.47.47-.19.38.19.19.47-.67.29ZM463.46,54l-.09-.19.19-.09.19.19-.19.18ZM465,108.4l.19-.28-.09-.19h-.29l-.28.28.1.19Zm1.7-53.61-.19-.1-.28.1.19.09Zm.47,55.78.19-.56.29-.1v.47l-.38.48Zm.95-2.83v-.28l-.29-.19-.09.19.09.28Zm1.13-54.09.19-.66-.28-.38-.29.19-.09.57-.09.47.18.1Zm.85,1.42.28-.47.38-.48.28.1.19.19.1.28h1.13l.94.19.67-.19.28-.28.47-.19.57-.19.19-.38-.1-.56-.28-.1-.29.1-.28.47L474,54l-.67.19-.56-.1-.57-.56-.38-.47.19-.1h.29l.37.19h.57l.28-.19-.19-.38-.66-.18-.75-.1-.76.1-.75.18-.38.57-.38,1-.28.57.28.28Zm.28-2.74.38-.56-.09-.19h-.47l-.57.47.28.47Zm-.28,55.41v-.09l-.19-.1-.09.19.19.09Zm4.34,2.08.1-.19h.09l.19.09.09.29-.18.09Zm.95-58.24-.29-.29h-.28l.09.48.38.18Zm.37,60-.09-.19-.28-.19-.19.19.28.19Zm0-56-.18-.28-.29.1v.09l.29.19Zm14.73,9.63.09-.56v-.48l.1-.09h-.19l-.38.09-.28-.28-.19-.66-.19-.47.38-.28.57.28.66.38.37-.1-.66-.38-.66-.66-.47-1.41.09-.29.1-.37.19-.38.19-.28-.1-.19h-.28l-.47-.19-.1-.57.19-.47-.28-.38h-.47l-.48-.09v-.85l-.56-.76-.29-.66-.09-.56-.28-.29-.38-.19-.1-.28h-.09V54l.09.19.1.38v.56l.19.47.09.48v.37h-.28l-.28-.28-.29-.75-.56-.85L485,54l-.28.19-.09.57-.1.47h-.37l-.48-.29-.19-.37-.66-.57-.75-.28-.38.19-.28.18-.38-.18-.09-.1-.19.19-.38-.09-.19-.29-.09-.47-.38-.38-.57-.28-.47-.19-.38.1-.28.28v.66l-.28.38-.57-.38-.57.38-.37.56-.1.19v.1h.1l.09-.29h.47l.66.48.1.56.09.38.28.09.19-.28.29-.38.19-.28-.29-.57.29-.28.66.19.19.57v.66l.28.28H480v-.57l.1-.09.47.09.94-.19h1.13l.67.85.28.66h.19l.28-.28.66-.38.76-.09.19.75.37,1,.29.57.09.38h.19l.09-.57.29-.66.19-.09.18.09.1.66.09.47.1.38v.47l-.1.29-.37.28-.48.19v.28l.48.19.66.28.28.57.28.66.29.28.09.29-.28.37.19.66.47.57.38.09-.1.19-.75.38-.38.1.47.28.85.19ZM476.87,52.52l.37-.28-.18-.57-.38-.47-.19.28-.1.66-.09.29.09.09Zm-.19,56.82.09-.18.19.09v.09l-.09.1Zm1.32,2-.66-.29-.19.1.47.38.57.18Zm2.93.37-.19-1.32.85-.09h.94V110l-.09-.19-.38-.66-.19-1h.38l.47.38.66.09.47-.28v-.28l-.47-.66-.57-.48h-.19l-.37.29-.57.47-1.32.19-1.13.09-.29.38-.18.38.18.38.29.28.75.57-.09.18-.38.1-.47.28-.1.38.38.28.76.19.75.38Zm-1.8-55.12v-.19h-.28v.19Zm.47,22.75-.28-.1-.28.19.28.1Zm.85,29.73H480l-.47-.09v-.29l.19-.28h.47l.57.19.28.19-.09.28-.29.1Zm.48-31v-.38l-.48.19-.18.38.28.09Zm.56,1.61v.18l.38.19Zm1.42-22.66-.1-.19-.09-.56-.47-.57-.29-.1-.09.19.47.57.47.66Zm.56,20.2-.09-.19h-.19v.19Zm1.8,33.13-.1-.28-.37-.38-.19-.38.19-.28.47-.19.56-.09.19-.38-.09-.28-.47-.1-.38-.28.09-.28.19-.19-.09-.19-.38-.19-.47.28v.48l.09.37-.09.38-.28.19-.19.28.37.47.57,1,.28.19ZM484.89,77l.09-.19-.09-.47-.28-.66-.1-.29-.19-.09-.28.28.28,1,.38.56Zm-.19-23.69-.09-.19-.19-.1v.29l.09.18Zm.38,3.58v-.19l-.19-.09-.19.09.19.19Zm1,16.14-.1-.28-.19-.19-.09.19.19.28Zm.19,1.61.28-.29-.38-.09-.47.28.09.29Zm1.13,32.47.19-.57v-.19l-.1-.37-.28-.38H487l-.19.28-.19.19-.38-.09-.28.28.09.66.38.47.57.19ZM488,72l.48-.38-.19-.66-.47-.48h-.29l-.37.19-.1.19.28.29v.37l-.28.19-.19.1.19.28.47.09Zm-.37-10-.47-.38-.1.38.57.38Zm.47,11.7.76-.47.28-.75-.19-.76-.09.19-.29.76-.85.28-.66.09v.29l.1.37.28.1Zm-.47,29.64-.19-.09-.1.09.19.1Zm.47,4.72,1-1-.19-.47-.47-.28-.19.09.19,1-.38.28h-.57l-.09.28.28.48Zm1.7-3.58L490,104l.28-.18v-.19l-.38-.57-.28-.47-.19-.28h-.28l-.19.37.09.48.1.37-.28.29-.95-.38-.09.19.94.66.94.47Zm-1.32-35.5.19-.47.37-.19.76-.19.85-.09h.66l-.1-.47-.47-.28-.28.18-.19-.09.1-.47.28-.38V66.3l-.19-.28h-.38l-.56.09-.57.29-.09.56.18.38v.38l-.18.37-.76.57.09.38Zm1.32,36.53v-.37l-.47-.19-.76.09-.47-.09.09.28.48.47.37.19Zm.75-34.54.38-.38.1-.38-.29-.19-.37.19-.67.19-.47-.28v-.76l-.19-.19-.47.1-.28.28-.1.28.38.57.85.76.66.09Zm-2.17-11,.19-.19.29-.1L489,60l-.18.19h-.29Zm.1-1.51v-.19l.09-.1.19.1.19.28-.19.1Zm2.26,41.91-.28-.38-.28-.09v.37l.28.29Zm1.42,3.3v-.47l-.19-.28-.19-.19-.47-.1-.47-.19v-.18l.37-.29,1-.47.85-.28.1-.19-.57-.19-.94-.09-.66-.1-.29.28-.19.38-.18.76v.56l.56.57.1.19.28.38.47.09Zm1-6-.1-.47-.75-.38-1-.09-.57.47.29.47h.66l.56-.19.57.19.28.19Zm-1,1.42-.47-.48-.76-.28-.19.38.47.47.57.19.57.09Zm-.66-8.4-.29-.19h-.28l.1.28.37.19Zm.09,3.68.29-.1-.38-.09-.38.09v.1Zm.57-1.89-.19-.19-.09.09.18.19Zm.19-27.75v-.29l-.19.1-.1.28.19.1Zm.75,26.9.1-.38-.29.1-.28.37.19.19ZM493,67.81l.09-.19-.09-.19-.29.1v.28Z"/><path class="cls-2" d="M517.07,114.35l-1.22-.66-.67-1.32-.47-1.7-.09-2,.09-2.07-.09-1.89.19-1.42-.1-2.45V92.26l-.19-1-.09-2.08V83.29l.09-2.64V78.86l.19-2.08.1-2.08.18-2.45-.18-2.46.18-2V63.47l-.18-1.32V59.41l-.1-2.36V51.86l.38-1.51.28-.66.48-.66.66-.38,1.13-.28,1.23-.1,1.22.19h1.8l1.51-.09,1,.37.57.57.47.85.19.66.1,1.51.09,1.89v1.41l.19,2.08v1.51l-.19,1.89-.09,1.6v5.95l.09,2.08.19,1.79.09,1.7.1,2.83.09,2.08-.09.66.09,1,.1,1.79-.1,1.8v.84l-.09.85.09.66-.19,1.89v1.7L526,93.58l-.28,2.08v2.17l.09,1.6.28,2.27v.75l.1.85.56.76.48.19h4.15l2.08.09.85-.09.94.09,1.51.1,1.89.09h2l1.51-.28,1.79-.1h1.7l1.42.1H549l1.13.19h1.7l2.26-.29h2.27l1.42.1h1.32l1.22.28,1,.66,1,1.23.19.66v4.25l-.19.94-.28.66-.76.66-1.6.85-1.32.19-1.61-.09H551.9l-1.6.28-1.23-.09h-5.38l-1.41-.1-5.57.19H518.49Zm4.72-36.06.38-.66v-.95l-.47.19-.57.29L521,77l.28-.47.28-.57-.19-.47-.09-.57.19-.38.38-.09.28-.1-.19-.75-.57-.85-.56-.09-.29-.19L521,72l.37-.29-.18-.19-.57.1-.47.09-.38-.47-.38-.66-.19-.28-.19.28-.28.75-.09.67.09.56.28,1,.38.85-.38.38-.56.37-.29.38.48.28.56.48.38.37H520l.28.1.1.09-1,.76.1.28.37.1.48-.19h.56l.19.28-.09.38.19.19Zm-2.17,11.89.09-.37-.56-.38-.66-.19-.19.09.09.29.38.47.47.28Zm1.79-19.63.38-.38-.09-.56-.38-.48.28-.47.66-.28.19-.19-.19-.38.1-.38.09-.18-.09-.1-.38-.09h-.47l-.38-.29-.28-.28-.1-.19.29-.19.94.19.19-.19-.1-.38V65l-.18-.94-.38-.66.19-.57.19-.47h.94v-.29l-.57-.28-.75-.28-.57-.38-.38-.28.38-.66.85-.48.1-.18-.29-.19-.37-.19-.48-.19h-.56l-.48.38-.18.56-.19,1.23-.29,1.32-.18.38.47.28.47.38.38.28.56.19h.38l.1.19-.1.28-.28.19-.47.29L520,65l-.38-.28-.38-.38-.47.19-.19.75.57.47.56.19-.09.38-.09.47.47.29.38.19.09.37-.19.47h-.75l-.29.19-.28.48v.75l.38.57.28-.1h.28l.38.38.47.28ZM519,85.46v-.19l-.38.1v.09Zm.09-17.84-.28-.47v.38l.28.38Zm1.33,17.94.37-.19.76-.1.75-.18.1-.1-.29-.38-.37-.85-.19-.94-.19-.47.19-.28.28-.29-.19-.28-.19-.57.48-.28.85-.1.18-.28-.47-.47v-.38l-.09-.19h-.66l-.66.1-.1-.29-.94-.28-1.13.1v.28l.18.09.19-.09.29.19.18.38-.28.56-.09.76.19.37.66.19.28.19h-.28l-.48.57-.28.57.19.37v.38l-.28.19-.38.19v.09l.38.19.85-.28.75-.38v.57l-.47.66-.47.19-.1.28.1.19Zm1.22,3.87.57-.47-.1-.1-.37-.19-.19-.56-.1-1,.19-.38.38-.09h.57l.37-.28-.18-.29-.48-.09-.75.09h-1.32l-.19.19-.19.38-.38.57-.28.66-.19.56.28.19.76.19.66.28.28.38Zm-2.36-13.88.38-.28.38-.19-.1-.66v-.76l.66.19.38.76-.19.75-.66.38-.75.19Zm1.23,18.79.66-.38.19-.47-.47-.29h-.76l-.47.29-.28.47-.1.38Zm-1.13-21.71.28-.1.09.1-.09.18h-.28ZM521,92.07l.09-.47-.19-.28-.19-.38-.19-.28-.28-.1-.57.66-.37.66.19.19.94.19.28.19Zm-1.33,7.74-.09-.19-.19-.09v.19l.19.19ZM521,97.36v-.57l-.19-.28-.19-.66-.1-.57-.56.09-.38.38.09.47.19.66.19.48-.09.19-.29.18.57.1Zm-1-34.93-.29-.56.29-.19.38.09.09.47v.47ZM519.9,88l.19-.47.38-.47.28.09.1.19-.29.47-.28.38h-.19Zm1.33-30-.19-.18-.1-.38-.19-.28-.47-.1-.28.19v.28l.47.19.47.1.1.28.19.09Zm-.67,41-.18-.38-.29-.09v.38l.29.19Zm.57-42.85.1-.29-.19-.28-.1-.28h-.19l-.37.47-.19.47.56.1Zm-.57,44.74v-.28h-.18l-.19.19.19.18Zm.19-20.77.19-.09.19.19-.09.19h-.29Zm.85-25.86V54l-.19.09-.09.1.09.09Zm.76,3.21-.29-.28h-.37l-.1.18.38.19.47.29Zm0,3.49-.1-.38-.19-.19-.18.19-.1.29.28.09Zm.75,10.57-.28-.19h-.38l.29.19Zm-.28-7.74-.09-.09-.19.09.19.1ZM523.11,83l-.09-.38-.28-.28-.1.19.1.38.18.18Zm2.17,26.05v-.19l-.28-.09-.09.09.18.19Zm5.2,3-.19-.38-.29-.18.1.28.19.38Zm1.79-1.89.09-.18-.19-.19h-.28l-.09.19.09.28Zm1.32.1.47-.28.66-.29.38.1.57.37.47-.09.19-.38-.1-.56.38-.29.47.1-.09-.29-.38-.37h-.56l-.38.37-.38.29h-.66l-.76-.38-.37.19-.38.56.09.57.19.38Zm5,.75,1.14-1.13.47-.38-.19-.28-.66-.28-1,.19-.66.66-.28.56.1.38.28.28.47.1Zm1.51.48v-.19l-.09-.1-.1.1.1.19Zm.67-3,.09-.1-.19-.19-.28.1.09.19Zm.37,2.26.1-.47.19-.38.37-.19.29-.19-.1-.19-.09-.47.28-.47.38-.47-.1-.38-.75.47-.47,1.23-.19.85-.19.38.19.28Zm1.7-.28.1-.29-.29-.09-.19.19.1.28Zm1.23-.47.38-.67.09-.56-.19-.28-.28-.48-.38-.28-.19.57.1,1.13.28.66Zm1.6-.48v-.28l-.28-.09-.19.09v.38l.28.09Zm1,.76.66-.47.38-.29-.19-.37-.57-.38-.28-.38.1-.47-.29-.28-.66.18-.19.38.19.38.19.66-.09.85v.57l.28.09Zm2.93.09-.1-.56h-.47l-.28.47.38.28.37.1Zm-.19-1.79-.38-.76-.19.1.19.47.29.38Zm1.13,1,.1-.29-.1-.37v-.38l.38-.47.19-.38-.1-.19-.47.19-.38,1,.1.85Zm3.21.38-.09-.48.09-.47v-.38l-.19-.47-.19-.28-.28-.1-.38.57-.28.47-.28-.19h-.29l-.09.48.19.47.28-.1.19-.28.28-.19.29.28v.38l.09.38.38.09Zm-.75,1.6-.1-.19h-.19l.1.19Zm1.7-2.74v-.28l-.19-.19-.29.28.1.29Z"/><path class="cls-2" d="M608.34,116h-1.6l-1.42-.09-1.88-.29h-2.36l-1.7-.37-1-.29-1.22-.28-1.7-.66-2.27-.85-1.89-1-.94-.47-1-.66-1.23-.66-.84-.66-.95-.57L585,107.83l-1.6-1.41-1-1-3.4-4.06-1.32-2.55-1.14-2.07-1.22-2.17-.57-2.08-.47-1.23L573.8,89l-.38-1.89-.09-1.14-.29-1.6L573,83,573,81.4V78.67l.29-1.8.18-1.7.76-2.36.28-1.51.76-2.17.94-2.45.85-1.32.94-2.08,1.8-2.83,1.6-2.17.95-.85.66-.85.94-1,1-.94.75-.38,1-1,2.55-1.41,2.26-1.14,2.65-1.22,2-.57,1.23-.57,2.54-.85,2.36-.37,1.51-.29,2.27.1,3.3-.1,2.27.19h1l1.7.28,1.88.48,1.23.28.85.38,1.42.47,1.32.47,1.32.66,1.51.85,2,1,2.65,1.7,2,1.6,2,1.89,2.36,2.83,1.51,1.8.66.94.57,1.13.66,1,.85,1.7.94,2.17.57,1.88L641.1,72l.19.84.38,1.23.47,2.36.19,1.51v1.32l.09,1.51-.19,1.61L642,84.8l-.19,1.51-.09,1.51-.28,1.89-.29,1.13-.37,1.61L640,94.71l-.76,2.08-.85,1.79-.66,1.14-.47.94-.76.94-.66.85-.56.85-.38.66-.57.67-1,1-1.22,1-.85.85-.66.56-.85.66-.76.66-.94.57-.66.57-1.13.75-1.89,1-2.08,1.23-1.6.66-1,.38-2,.66-2.36.66-2,.28h-2.73Zm-31.9-29.83-.09-.47h-.1v.47l.1.1Zm.85-4.05.09-.19-.18-.19-.38-.1-.1.29.29.28Zm1.13-.85.66-.38.95-.29,1-.47.56-.47-.19-.09-.47.09-.94.28-.76.1-.09-.19.19-.28.66-.1.38-.19-.19-.28-.38-.09-.38-.19v-.38l.28-.28.29-.19v-.47l-.57-.57.19-.66,1-.38.47-.28v-.29l-.47.1h-.47l-.19-.19.09-.28.1-.38L580,74l-.29-.28.29-.28h.75l1,.18h.66l.19-.18-.48-.38-.75-.1-.38.1-.28-.1-.1-.09-.09-.19.19-.28.94-.38.1-.28-.1-.19-.56.09-.66-.09-.29-.47.1-.67.28-.56h.38l.09.19.28.37.38-.18-.09-.85-.1-.48.29-.18.19-.1-.38-.47-.47-.47-.19-.1-.76.1-.66.19V68l.57.19.56.38V69l-.47.57-.47.37-.47.66-.38.57-.47-.09H578l-.09.28.76.75.18.38.19.19.1.19-.1.47V74l.19.37-.09.19h-.57l-.57.29-.28.37.1.29h.37l.57-.1v.29l-.47.47-.38.28-.28.19-.19.09-.38.1V77l.38.56.09.66.29.19.37.19V79l-.09.38.19.29V80l-.47.19-.66.09-.1.28.19.19.75.57Zm1.61,4,.09-.28-.19-.19h-.66l-.38-.1-.37-.56-.76-.47-.38.09.48.76.56.66.29.09.94.09Zm-2.27-7.83-.28-.48.09-.19h.19l.47.38v.47Zm2.36,6.41v-.47l-.28-.28-.29-.57.1-.47.47-.09.29-.19-.29-.29H579l-.85.57v.66l.38.66.66.66.56.19Zm-.94,2.74.09-.38-.66-.19-.47.29v.38l.38.09Zm.09,2.74-.09-.85L579,88l-.28-.09-.29.09-.19.29.38.75.47.57ZM579,77.91v-.19h.38l.18.19-.18.19Zm.66,12.84.19-.47-.29-.38-.37.38v.56l.09.1Zm1.32.85v-.19h-.19l-.28.19v.09l.28.1ZM582.76,68l.19-.38,1.32-.37v-.38l-.09-.19-.28.28h-.57l-.94-.19-.57-.66-.47-.38L581,66l.66.94.76,1,.19.28Zm-1.32,14.82-.09-.09h-.19l-.09.19.18.09Zm.19-18.5-.09-.19-.19-.09-.19.09.09.28.29.1Zm1,1.6.18-.37.48-.19.28-.29-.28-.28-.85.19-.66.47.37.47Zm2.64-.47-.28-.28-.19-.28v-.38l-.29-.47-.56-.66-.47-.57-.57.28-.38.38v.28l.85.38.85.28v.48l.09.47.67.28ZM611.55,105l1.23-.09.57-.1.47-.28.38-.19,1.23-.19,1.22-.56,1.13-.38,1.8-.94,1.89-1.23,2.45-1.8,1.42-1.51.47-.56.75-1.13,1.42-1.8,1.89-2.83.56-2.08.38-1.79.28-2.08.19-2.54.19-1.33-.19-2.45-.66-3.4L630,73.57l-.94-2L628.55,70l-.57-1-.76-1.51L626.09,66l-.66-.85-1-1-3.21-2.55-3-1.79L616.37,59l-2-.56-.76-.19-1.23-.38-1.6-.38h-5.19l-1.42.29-1.7.18-2.17.67L597.21,60l-5.29,3L591,64l-.76.94-.57.47-1.13,1.61-.85,1.6-.47.66-.38,1-.66,1.23-.56,1.51-.48,1.51-.18,1.32L584.46,78l-.19,2.36.1,1.13.09,1.32.19,1.51v1.42l.1.47.28,1,.38,1.7.28,1.41,1.13,2.08,2.27,3.4,1.79,2.26.66.76,1.51,1.32,1.89,1.23.66.37.38.19,1.7,1,2,.94,1.61.47,2.64.47,2.64.38,2.27.1Zm-25.2-41.44.1-.18L586,62.9l.1-.19.38-.09.66-.28.37-.38-.37-.57-.48-.56-.37-.1-.47-.28-.48-.38L585,60l-.19.09.1.66.28.57.28.19.19.19-.09.28-.57-.09-.47-.19-.19.19.19.56.38.76.75.37Zm-.47-2.17.38-.09.09.19-.38.09Zm2.45-2.26v-.19l-.75-.38-.85-.09-.19.47.85.28Zm-.75,1.32.38-.19-.1-.28-.38-.1-.28.19-.09.19.09.19Zm1.23-3.4.18-.38.1-.09-.19.09-.28.19v.29Zm1.32,2.83-.57-.19-.38.29.57.19Zm0-1.13-.48-.57-.37-.19.37.57.48.28Zm.66-.76.09-.28-.28-.28-.47-.19h-.29l.19.38.57.56Zm-.28-1.88-.1-.19-.19-.1.1.29Zm2.07,2.07-.09-.47-.29-.38-.28-.56V56.3l.19-.1.19.19.19.47.66.47.66.19.19-.19v-.28l-.29-.66-.66-.57-.94-.28-.66-.09-.19.66-.09.94.18.66.38.28.47.29Zm2.55-.75-.19-.76.47-.28.38-.28-.19-.48h-.28l-.38.29-.28-.29.09-.37h.47l.19-.19v-.66l-.19-.57-.28-.09-.19.19-.19.37-.37.19-.29.57.19.94.47,1,.38.56Zm-.19,50.12v-.09l-.19-.1h-.09l.09.19Zm3.4-51.82.19-.38.19-.47.37-.28.19-.1v-.19l-.28-.19-.28-.37.09-.38-.09-.38-1.42-.94h-.09V53l.28.38.47.47v.66h-.38l-.75-.47-.66-.28-.28.09v.47l.47.57.85-.09.56-.1.19.1v.28l-.09.28-.19.28.28.19Zm-2,52.86.28-.19-.19-.09h-.38l-.18.09.09.19Zm.28-52.48v-.38h-.19v.47Zm.19,51,.09-.1-.09-.18h-.19l-.19.18.19.19Zm.09,3.11.1-.37-.38.19-.19.28.19.09Zm.1-58.42-.1-.1h-.19v.19l.19.09Zm2,58.9.09-.29-.09-.19-.19.1-.19.19.19.19Zm1-56.07.19-.48.09-.75.1-.57.47-.19h.66l.28.38.1.47.19.1.18-.38.19-.28.29.09.28.29h.19l.28-.38.38-.47-.1-.48-.18-.18h-.29l-.28.09-.28-.19v-.38l-.19-.28-.38-.09-.19.37-.47.48-.76.18h-.18l-.29.1-.47.09-.19,1,.19,1.13.09.38Zm.75,54.56-.09-.1h-.28v.1l.19.09Zm.76-54.28V54.6h-.28l-.19.19.19.18Zm.38-4.15-.19-.1-.19.1v.09l.19.1Zm1.7,59.75v-.19l-.57-.19-.28.19.37.19.38.09Zm-.48-1.61.1-.09-.1-.19-.09.09v.19Zm1.7,3.21-.19-.09-.09.19.19.09Zm.85-59.84.19-.57-.28-.19-.57.29-.09.66.47.28Zm5.48,59.56-.1-.57-.19-.66-.37-.66-.95-.19-.85.19-.47.19H608l-.19.09-.28.1-.48.09-.56-.19-.29-.37-.09-.29-.19-.09-.28.19-.19.28.09.19-.09.38-.38.28.1.38.56.19.29-.19.37-.19.47.19h1.51l.38-.1.38-.37.38-.19.19.09V111l.47.47.85.47Zm-4.06-59.28L607,52l-.19-.47h-.28l.1.57.28.66Zm.66,56.26-.19-.1v.19l.28.1Zm.38-57.39V51.2l-.19-.1v.19l.09.19Zm.47-1.42-.1-.19h-.09l.09.29Zm1.51,1.13h-.38v.29l.38.09ZM614.39,111l-.19-.75-.29-.66-.18-.19-.29-.1-.19.19.1.38.09.28-.19.1-.47-.28-.56-.67-.76-.37-.47-.19-.19-.28-.09-.19-.29.19.38.37.28.47.47.38.38.57.47.47,1,.28.85.29Zm-2.74,1.23-.1-.09h-.18l-.1.09.19.1Zm1.23-3.49-.1-.28h-.19l-.09.09.19.19Zm2.73,1.51.85-.19.85-.76v-.84l-1.13-.67h-.38l.1.57.09.47-.19.19-.47-.19H615l-.19.66v.66l.38.19Zm.95,1.89.09-.57-.28-.47-.19.38.09.47.1.28Zm.28-58.24.1-.19h-.29v.19Zm3.4,55.78.57-.85.47-.66.19-.19.56.19.57.1v-.1l-.19-.28-.28-.28.19-.38.47-.19.19-.1v-.18l-.57-.1-.66-.09-.28.09-.38.28-.47.19-.38-.19v-.37l.09-.47-.19-.29h-.28l-.09.38-.1.28-.19.19-.09.38.38.57.37.28.38.09-.09.38-.76.1L619,108l-.47-.19-.28.29v.38l.09.09v.19l.28.47.57.28h.38l.28.19Zm-1.61.57-.09-.19h-.28v.19l.18.09ZM620.05,56l-.1-.09-.28-.1.1.19Zm.28-1.89h-.28l.28.19Zm.76.85-.1-.37h-.18l.09.37Zm.85-1.79h-.19l.09.1.19.09Zm2.74,55v-.47l-.1-.94V106H625l.28-.09.19-.66v-.66l-.19-.48-.28-.09-.38.66-.28.75h-.47l-.85-.28-.38-.19-.19.1-.09.09.28.28.75.67.48.66.09.37-.09.57.19.66.47.1Zm-1.61-54.37v-.19l-.19-.09-.09.19.19.19ZM623,57.9l.18-.28-.28.19-.09.28Zm5.19,46.82-.19-.57-.66-.47-.38-.28-.75-.66-.76-.47-.19.09v.38l.29.47.28.38.09.37v.19l.1.19.37.1.29-.29.19-.47.28.19.28.47.19.47.28.29Zm-1.8,2.83v-.38l-.56-.47-.47-.19.37.66.48.48ZM626,59.69l-.29-.09-.18.09.28.1Zm.47,45.41-.19-.1h-.19l.1.29.28.09Zm.85-4.06.19-.19-.29-.09-.28.09.1.19Zm.09,5.94-.19-.28-.18-.19h-.1l.19.29.19.18Zm0-46.15.1-.19-.1-.19h-.19l-.18.09.09.29Zm.19,42.1v-.19l-.28-.19-.19.09.19.29Zm.57-4.44-.1-.19-.09-.09v.19l.09.18Zm2.36,3.78-.1-.29-.09-.38.19-.28.09-.19-.09-.37-.38-.38-.66-.19-1.42-.28.1.37.47.38.47.19.1.28.09.57.66.57Zm-1.8-43.33.29-.28v-.19l-.1-.1h-.37l-.38.38.09.28Zm0,1.51.48-.19.09-.19-.38-.09h-.47l-.28.19.09.28Zm0,41.15-.18-.18-.29.09v.19l.19.09Zm0-38.79-.09-.38-.19-.28h-.09l.09.47.1.28Zm.67,1.51V64h-.19v.28l.09.19Zm.84,39.46-.09-.38-.38-.38h-.47l-.09.19.37.47.48.28Zm-.75-4.25v-.29l.09-.18.19-.1-.09-.09-.19.09-.19.28v.29Zm.94-2.65-.19-.28-.28-.19h-.19l-.28.19.47.28Zm2.36,1.52.1-.48.37-.09.38.09h.29l.09-.19-.09-.18-.38-.38-.38-.57L632.7,96l-.47-.19H632v.37l.28.48.28.28-.09.19-.76-.1-.09.29v.37l-.09.19-.29-.09-.47-.47-.75-.1-.1.57.76.38.66.28.66.38.56.09Zm-1.88-3,.84-.18.57-.1-.19-.28-.56-.1-.66.1-.48.19-.09.19.09.18ZM630.81,63v-.29h-.28l-.1.19.29.19Zm1.42,37.28-.19-.47-.47-.47-.48.09-.37.1.28.38.75.37Zm.09-38.6.1-.19-.19.09-.19.19.09.1Zm-.09,4.15.09-.19h-.19l-.09.19Zm.19,36,.09-.19h-.19l-.09.1.09.09Zm2.26-6,.57-.75v-.38l-.38-.09-.28-.19v-.29l.19-.28v-.19l-.19-.19h-.38l-.57.38-.47.19-.38.09-.28.48.28.66.76.75.66.28Zm2.46-2.07.09-.29-.09-.47v-.28l-.29-.1-.28.29-.28-.19-.76-.47-.75-.19-.38.09H634v-.28l.85-.29,1-.09.38-.47.09-.66-.38-.57-.56-.09-.29.19v.75l-.19.1-.47-.1-.47-.28-.47-.19-.38.19v.28h.57l.47.19-.09.28-.86.85-.47.29-.19.18v.48l.29.47.28-.1.28-.37.38-.29.76.19,1,.47.37.38.47.19Zm-3.59-25,.09-.09-.19-.19-.28-.1-.09.19.18.19Zm.75,5.1-.09-.1h-.28v.19ZM633.93,95l.09-.19h.19l.09.19v.19h-.18Zm.94-23.79.09-.47h-.47l-.37.19v.19l.37.18Zm-.09,2.08-.1-.1-.09.29.09.09Zm2.73,6-.28-.29-.38-.18-.19-.29-.37-.28-.85.09-.66.29v.19l.37.18H636l.76.57.56.1Zm-1.79-4.16.19-.47.19-.09h.28v-.1h-.57l-.37-.09-.38.09-.1.38.38.38.19.09Zm1.13,13.31-.09-.66-.57.19-.19.19-.19-.09-.09-.38-.38-.28H635l.19.66.38.66L636,89Zm-1.41-15.85.56-.48.1-.37h-.38l-.57.56-.09.47Zm.09,26.24v-.19l-.09-.1-.19.1.09.19Zm2.64-11.52.19-.47.19-.28.28-.48-.18-.85-.48-.66-.37-.18H637l-1-.1-.66.1v.84l.19.66.38.38.19.38.47.38H637l.19-.19.28-.1.28.38.19.38.19.19Zm-1-10.1V77l-.38-.29-.47-.66-.29-.47-.28-.09-.09.47.37.94.38.57.47.09Zm-.48,3.59.19-.38-.09-.19-.57.19-.47.38.09.19.38.09Zm1.14,2.83.18-.38-.37-.47-.66-.47-.19-.66h-.47l-.38.28.38.57.75.66.57.47Zm-1.7,2.45.28-.19h.09l.19.19-.37.19Zm.37-18.78-.18-.09-.1.18.19.1Zm.29,16.42-.19-.09-.1.19.19.09Zm.66,1.8.09-.47.38.18.38.38-.19.38-.47.09Zm.75,3.49.1-.19-.1-.09-.28.09v.19Zm1-8.12v-.38l-.28-.28-.1.28.1.48Z"/><path class="cls-2" d="M689.14,116h-1.61l-1.41-.09-1.89-.29h-2.36l-1.7-.37-.94-.29-1.23-.28-1.7-.66-2.26-.85-1.89-1-.95-.47-1-.66-1.23-.66-.85-.66-1-.57-1.32-1.23-1.6-1.41-1-1-3.4-4.06-1.32-2.55-1.13-2.07-1.23-2.17-.57-2.08-.47-1.23L654.59,89l-.38-1.89-.09-1.14-.28-1.6-.1-1.32.1-1.61V78.67l.28-1.8.19-1.7.75-2.36.29-1.51.75-2.17.94-2.45.85-1.32,1-2.08,1.79-2.83,1.61-2.17.94-.85.66-.85.94-1,1-.94.75-.38,1-1,2.55-1.41,2.27-1.14L675,49.41l2-.57,1.23-.57,2.55-.85,2.36-.37,1.51-.29,2.26.1,3.31-.1,2.26.19h1l1.7.28,1.89.48,1.22.28.85.38,1.42.47,1.32.47,1.32.66,1.51.85,2,1,2.65,1.7,2,1.6,2,1.89,2.36,2.83,1.51,1.8.66.94.57,1.13.66,1,.85,1.7.94,2.17.57,1.88.47,1.52.19.84.38,1.23.47,2.36.19,1.51v1.32l.09,1.51L723,82.35l-.19,2.45-.19,1.51-.1,1.51-.28,1.89L722,90.84l-.38,1.61-.85,2.26L720,96.79l-.84,1.79-.67,1.14-.47.94-.75.94-.66.85-.57.85-.38.66-.56.67-1,1-1.23,1-.85.85-.66.56-.85.66-.75.66-1,.57-.66.57-1.13.75-1.89,1L703,113.5l-1.6.66-1,.38-2,.66-2.36.66-2,.28h-2.74ZM657.23,86.12l-.09-.47H657v.47l.1.1Zm.85-4.05.1-.19-.19-.19-.38-.1-.09.29.28.28Zm1.14-.85.66-.38.94-.29,1-.47.56-.47-.18-.09-.48.09-.94.28-.75.1-.1-.19.19-.28.66-.1.38-.19L661,79l-.38-.09-.38-.19v-.38l.29-.28.28-.19v-.47l-.57-.57.19-.66,1-.38.47-.28v-.29l-.47.1H661l-.19-.19.09-.28.1-.38-.19-.38-.28-.28.28-.28h.76l.94.18h.66l.19-.18-.47-.38-.76-.1-.38.1-.28-.1-.09-.09-.1-.19.19-.28.94-.38.1-.28-.1-.19-.56.09-.66-.09-.29-.47.1-.67.28-.56h.38l.09.19.29.37.37-.18-.09-.85-.09-.48.28-.18.19-.1-.38-.47-.47-.47-.19-.1-.76.1-.66.19V68l.57.19.57.38V69l-.48.57-.47.37-.47.66-.38.57-.47-.09h-.28l-.1.28.76.75.19.38.19.19.09.19-.09.47V74l.19.37-.1.19h-.57l-.56.29-.28.37.09.29H659l.56-.1v.29l-.47.47-.38.28-.28.19-.19.09-.38.1V77l.38.56.1.66.28.19.38.19V79l-.1.38.19.29V80l-.47.19-.66.09-.1.28.19.19.76.57Zm1.6,4,.09-.28-.18-.19h-.66l-.38-.1-.38-.56-.75-.47-.38.09.47.76.57.66.28.09.94.09Zm-2.26-7.83-.29-.48.1-.19h.19l.47.38v.47Zm2.35,6.41v-.47l-.28-.28-.28-.57.09-.47.47-.09.29-.19-.29-.29h-1.13l-.85.57v.66l.38.66L660,84l.57.19ZM660,86.5l.1-.38-.67-.19-.47.29v.38l.38.09Zm.1,2.74-.1-.85-.19-.38-.28-.09-.28.09-.19.29.37.75.48.57Zm-.29-11.33v-.19h.38l.19.19-.19.19Zm.66,12.84.19-.47-.28-.38-.38.38v.56l.1.1Zm1.32.85v-.19h-.18l-.29.19v.09l.29.1Zm1.8-23.6.19-.38,1.32-.37v-.38l-.1-.19-.28.28h-.57l-.94-.19-.57-.66-.47-.38-.38.29.66.94.76,1,.19.28Zm-1.32,14.82-.1-.09H662l-.09.19.19.09Zm.18-18.5-.09-.19-.19-.09-.19.09.1.28.28.1Zm1,1.6.19-.37.47-.19.28-.29-.28-.28-.85.19-.66.47.38.47Zm2.64-.47-.28-.28-.19-.28v-.38l-.28-.47-.57-.66-.47-.57-.57.28-.38.38v.28l.85.38.85.28v.48l.1.47.66.28ZM692.35,105l1.22-.09.57-.1.47-.28.38-.19,1.23-.19,1.23-.56,1.13-.38,1.79-.94,1.89-1.23,2.45-1.8,1.42-1.51.47-.56.76-1.13,1.41-1.8,1.89-2.83.57-2.08.37-1.79.29-2.08.19-2.54.18-1.33-.18-2.45-.67-3.4-.66-2.17-.94-2L709.34,70l-.57-1L708,67.43,706.88,66l-.66-.85-1-1L702,61.58l-3-1.79-1.8-.76-2-.56-.76-.19-1.22-.38-1.61-.38H686.4l-1.42.29-1.69.18-2.18.67L678,60l-5.29,3-.94,1L671,65l-.56.47-1.13,1.61-.85,1.6-.48.66-.37,1L667,71.59l-.57,1.51-.47,1.51-.19,1.32L665.26,78l-.19,2.36.09,1.13.1,1.32.19,1.51v1.42l.09.47.28,1,.38,1.7.28,1.41,1.14,2.08,2.26,3.4,1.8,2.26.66.76,1.51,1.32,1.88,1.23.66.37.38.19,1.7,1,2,.94,1.61.47,2.64.47,2.64.38,2.27.1ZM667.14,63.56l.1-.18-.47-.48.09-.19.38-.09.66-.28.38-.38-.38-.57-.47-.56-.38-.1-.47-.28-.47-.38-.29-.09-.19.09.1.66.28.57.28.19.19.19-.09.28-.57-.09-.47-.19-.19.19.19.56.38.76.75.37Zm-.47-2.17.38-.09.09.19-.37.09Zm2.46-2.26v-.19l-.76-.38-.85-.09-.19.47.85.28Zm-.76,1.32.38-.19-.09-.28-.38-.1-.29.19-.09.19.09.19Zm1.23-3.4.19-.38.09-.09-.19.09-.28.19v.29Zm1.32,2.83-.57-.19L670,60l.56.19Zm0-1.13-.47-.57-.38-.19.38.57.47.28Zm.66-.76.1-.28-.29-.28-.47-.19h-.28l.19.38.56.56Zm-.28-1.88-.1-.19-.19-.1.1.29Zm2.07,2.07-.09-.47-.28-.38-.29-.56V56.3l.19-.1.19.19.19.47.66.47.66.19.19-.19v-.28l-.28-.66-.66-.57-1-.28-.66-.09-.19.66-.09.94.19.66.37.28.48.29Zm2.55-.75-.19-.76.48-.28.37-.28-.19-.48h-.28l-.38.29-.28-.29.1-.37H676l.19-.19v-.66l-.19-.57-.29-.09-.18.19-.19.37-.38.19-.28.57.18.94.48,1,.37.56Zm-.19,50.12v-.09l-.18-.1h-.1l.1.19Zm3.4-51.82.19-.38.19-.47.38-.28.19-.1v-.19l-.29-.19-.28-.37.09-.38-.09-.38-1.42-.94H678V53l.28.38.48.47v.66h-.38l-.76-.47-.66-.28-.28.09v.47l.47.57.85-.09.57-.1.19.1v.28l-.1.28-.19.28.29.19Zm-2,52.86.28-.19-.19-.09h-.37l-.19.09.09.19Zm.28-52.48v-.38h-.19v.47Zm.19,51,.1-.1-.1-.18h-.19l-.19.18.19.19Zm.1,3.11.09-.37-.38.19-.19.28.19.09Zm.09-58.42-.09-.1h-.19v.19l.19.09Zm2,58.9.1-.29-.1-.19-.19.1-.18.19.18.19Zm1-56.07.19-.48.09-.75.1-.57.47-.19h.66l.28.38.1.47.19.1.19-.38.19-.28.28.09.28.29H684l.28-.38.38-.47-.09-.48-.19-.18h-.28l-.29.09-.28-.19v-.38l-.19-.28-.38-.09-.19.37-.47.48-.75.18h-.19l-.29.1-.47.09-.19,1,.19,1.13.1.38Zm.76,54.56-.1-.1h-.28v.1l.19.09Zm.75-54.28V54.6h-.28l-.19.19.19.18Zm.38-4.15-.19-.1-.19.1v.09l.19.1Zm1.7,59.75v-.19l-.57-.19-.28.19.38.19.37.09Zm-.47-1.61.09-.09-.09-.19-.1.09v.19Zm1.7,3.21-.19-.09-.1.19.19.09Zm.84-59.84.19-.57-.28-.19-.57.29-.09.66.47.28ZM692,111.8l-.09-.57-.19-.66-.38-.66-.94-.19-.85.19-.48.19h-.28l-.19.09-.28.1-.47.09-.57-.19-.28-.37-.1-.29-.19-.09-.28.19-.19.28.1.19-.1.38-.38.28.1.38.56.19.29-.19.38-.19.47.19h1.51l.38-.1.37-.37.38-.19.19.09V111l.47.47.85.47Zm-4.06-59.28-.09-.57-.19-.47h-.29l.1.57.28.66Zm.66,56.26-.19-.1v.19l.29.1ZM689,51.39V51.2l-.19-.1v.19l.1.19Zm.47-1.42-.09-.19h-.1l.1.29Zm1.51,1.13h-.38v.29l.38.09ZM695.18,111l-.19-.75-.28-.66-.19-.19-.28-.1-.19.19.09.38.1.28-.19.1-.48-.28-.56-.67-.76-.37-.47-.19-.19-.28-.09-.19-.29.19.38.37.29.47.47.38.38.57.47.47.94.28.85.29Zm-2.74,1.23-.09-.09h-.19l-.1.09.19.1Zm1.23-3.49-.1-.28h-.18l-.1.09.19.19Zm2.74,1.51.85-.19.85-.76v-.84l-1.14-.67h-.38l.1.57.09.47-.19.19-.47-.19h-.37l-.19.66v.66l.37.19Zm.94,1.89.1-.57-.29-.47-.19.38.1.47.09.28Zm.28-58.24.1-.19h-.28v.19Zm3.4,55.78.57-.85.47-.66.19-.19.57.19.56.1v-.1l-.19-.28-.28-.28.19-.38.47-.19.19-.1v-.18l-.57-.1-.66-.09-.28.09-.38.28-.47.19L701,107v-.37l.1-.47-.19-.29h-.29l-.09.38-.09.28-.19.19-.1.38.38.57.38.28.37.09-.09.38-.75.1-.67-.48-.47-.19-.28.29v.38l.09.09v.19l.29.47.56.28h.38l.28.19Zm-1.6.57-.1-.19h-.28v.19l.19.09ZM700.84,56l-.09-.09-.28-.1.09.19Zm.29-1.89h-.29l.29.19Zm.75.85-.09-.37h-.19l.09.37Zm.85-1.79h-.19l.1.1.19.09Zm2.74,55v-.47l-.1-.94V106h.38L706,106l.19-.66v-.66l-.19-.48-.28-.09-.38.66-.28.75h-.47l-.85-.28-.38-.19-.19.1-.09.09.28.28.76.67.47.66.09.37-.09.57.19.66.47.1Zm-1.61-54.37v-.19l-.19-.09-.09.19.19.19Zm-.09,4.06.19-.28-.29.19-.09.28ZM709,104.72l-.19-.57-.66-.47-.38-.28-.75-.66-.76-.47-.19.09v.38l.29.47.28.38.09.37v.19l.1.19.38.1.28-.29.19-.47.28.19.29.47.18.47.29.29Zm-1.79,2.83v-.38l-.57-.47-.47-.19.38.66.47.48Zm-.38-47.86-.28-.09-.19.09.28.1Zm.47,45.41-.19-.1h-.19l.1.29.28.09Zm.85-4.06.19-.19-.28-.09-.29.09.1.19Zm.1,5.94-.19-.28-.19-.19h-.1l.19.29.19.18Zm0-46.15.09-.19-.09-.19H708l-.19.09.09.29Zm.18,42.1v-.19l-.28-.19-.19.09.19.29Zm.57-4.44-.09-.19-.1-.09v.19l.1.18Zm2.36,3.78-.09-.29-.1-.38.19-.28.09-.19-.09-.37-.38-.38-.66-.19-1.41-.28.09.37.47.38.47.19.1.28.09.57.66.57Zm-1.79-43.33.28-.28v-.19l-.09-.1h-.38l-.38.38.1.28Zm0,1.51.47-.19.09-.19-.37-.09h-.48l-.28.19.1.28Zm0,41.15-.19-.18-.28.09v.19l.18.09Zm0-38.79-.1-.38-.19-.28h-.09l.09.47.1.28Zm.66,1.51V64H710v.28l.09.19Zm.85,39.46-.1-.38-.37-.38h-.48l-.09.19.38.47.47.28Zm-.76-4.25v-.29l.1-.18.19-.1-.1-.09-.19.09-.19.28v.29Zm1-2.65L711,96.6l-.29-.19h-.18l-.29.19.47.28Zm2.36,1.52.09-.48.38-.09.38.09h.28l.09-.19-.09-.18-.38-.38L714,96.6l-.47-.56-.47-.19h-.19v.37l.28.48.29.28-.1.19-.75-.1-.1.29v.37l-.09.19-.28-.09-.48-.47-.75-.1-.1.57.76.38.66.28.66.38.57.09Zm-1.89-3,.85-.18.56-.1-.18-.28-.57-.1-.66.1-.47.19-.1.19.1.18ZM711.6,63v-.29h-.28l-.09.19.28.19ZM713,100.28l-.19-.47-.47-.47-.47.09-.38.1.28.38.76.37Zm.09-38.6.1-.19-.19.09-.19.19.1.1ZM713,65.83l.09-.19h-.18l-.1.19Zm.19,36,.09-.19h-.19l-.09.1.09.09Zm2.26-6L716,95v-.38l-.38-.09-.28-.19v-.29l.19-.28v-.19l-.19-.19H715l-.56.38L714,94l-.37.09-.29.48.29.66.75.75.66.28Zm2.46-2.07.09-.29-.09-.47v-.28l-.28-.1-.29.29-.28-.19-.76-.47-.75-.19-.38.09h-.38v-.28l.85-.29,1-.09.38-.47.09-.66-.38-.57-.56-.09-.28.19v.75l-.19.1-.48-.1-.47-.28-.47-.19-.38.19v.28h.57l.47.19-.09.28-.85.85-.47.29-.19.18v.48l.28.47.28-.1.29-.37.37-.29.76.19,1,.47.37.38.48.19Zm-3.59-25,.1-.09-.19-.19-.29-.1-.09.19.19.19Zm.76,5.1-.1-.1h-.28v.19ZM714.72,95l.09-.19H715l.1.19v.19h-.19Zm.94-23.79.1-.47h-.48l-.37.19v.19l.37.18Zm-.09,2.08-.1-.1-.09.29.09.09Zm2.74,6L718,79l-.37-.18-.19-.29-.38-.28-.85.09-.66.29v.19L716,79h.84l.76.57.57.1Zm-1.8-4.16.19-.47.19-.09h.28v-.1h-.56l-.38-.09-.38.09-.09.38.37.38.19.09Zm1.14,13.31-.1-.66L717,88l-.19.19-.18-.09-.1-.38-.38-.28h-.37l.19.66.37.66.47.19Zm-1.42-15.85.56-.48.1-.37h-.38l-.56.56-.1.47Zm.09,26.24v-.19l-.09-.1-.19.1.09.19ZM719,87.35l.19-.47.18-.28.29-.48-.19-.85-.47-.66-.38-.18h-.76l-1-.1-.66.1v.84l.19.66.38.38.19.38.47.38h.38l.19-.19.28-.1.28.38.19.38.19.19Zm-1-10.1V77l-.38-.29-.47-.66-.29-.47-.28-.09-.09.47.37.94.38.57.48.09Zm-.47,3.59.19-.38-.1-.19-.57.19-.47.38.1.19.37.09Zm1.13,2.83.19-.38-.38-.47-.66-.47-.19-.66h-.47l-.38.28.38.57.75.66.57.47Zm-1.7,2.45.28-.19h.1l.19.19-.38.19Zm.38-18.78-.19-.09-.1.18.19.1Zm.28,16.42-.19-.09-.09.19.19.09Zm.66,1.8.1-.47.37.18.38.38-.19.38-.47.09Zm.76,3.49.09-.19-.09-.09-.29.09v.19Zm1-8.12v-.38l-.28-.28-.09.28.09.48Z"/><path class="cls-2" d="M742.18,114.63l-1.89-.94-.85-1.8-.09-2.07-.19-1v-1.89l.19-1.7-.1-1.89-.09-2.07.09-1.8L739.07,97V94.43l.09-1.32L739,90.56l.1-3.21V85.84l-.19-2.64V79.61l.09-1.23.1-2.64V72.06l-.1-3.78V62.62l.1-1.23V56.58l-.1-2.17-.19-1.89v-1.6l.19-.76.66-1,.76-.56,1.79-.29,1.89-.19h.66l1.42-.09,1.69.28.76.47.66.67.66,1.41,1,1.61,1.13,2.07,1,2.27,1.7,2.92L756.06,62l1.13,2.45L759,68l1.14,1.89,1,2.36,1,1.79.47.95.48.84L763.7,77l.95,2.26L766,81.59l.94,1.89.57,1.23.47.94.66,1.13,1,2,1,2.17.94,1.41.85,1.61.47,1.23.57.28.47-.28.66-1,.66-1L776,92l1.14-2.36,1-2.08.57-1.23.76-1.13.56-.66.29-.76.28-.84.94-1.42.66-1.42.57-.85.85-1.6.94-2,.85-1.8.85-1.88.85-1.7.95-1.42,1-2.27,1.23-2.26,1.13-2.55,1.42-2.83.85-1.79.28-1,.76-1.32.38-1.14.94-1.88,1.41-2.27,1.14-.76,1.13-.37L804,48l1.7.19,1.51.56.56.85.19.66.19,1.52V61.3l-.09,2,.09,2.17V74l.1,2.36v1.32l-.1,2,.29,2.83-.1,2.27.19,2.92v7.18l-.09,2.36v1.51l-.1,1.23.1,2.07.09,1.89-.09,2.45.09,2.84-.19,2.07-.47,1.7-.57.66-.94.57-.76.28-1.13.29-1.6-.1h-1.23l-.95-.19-.94-.28-1.13-.57L797.4,111l-.28-2.93.09-2v-3.11l-.09-4V91.13L796.83,88l.19-2.08v-1.5l.1-2.08v-1.8l-.1-1V77.06l-.09-.28-.28-.19-.19.19-.48.66-.28.85L795,79.42l-.47,1-.57.94-.66,1.32-.85,1.89-.94,2.08-1,1.51-.94,1.6-.85,1.7-.66,1.42-1,1.88-1.42,2.65-.66,1.6-.66,1.8L783.05,103l-.47,1.13-.47.66-.38.85-.47.76-.38.75-1,2L779,111l-.19.57-.84,1.22-1.7,1.23-1.23.19-1.13.09-1.32.1-1.33-.1-1-.47-1-1.41L768,110l-.75-1.42-.76-1.7-1-2.26-1-1.7L764,101.6l-.38-.84-.47-1-2-3.3-.47-.66-.94-2.08-1-2-.47-1-1-1.6-1.13-2.64-.94-1.89-.66-1.51-1.14-1.89-1.13-2.45-1.13-2.08-.66-.76-.29.29v1.41l-.09,2.17V81.5l.09.75v1.23l-.09,1.42.19,2.73v1.89l-.1,3.59-.09,1.51v4.06l.09,2.26-.09,1.61.19,1.7v1.32l.19,2.08v1.69L750.2,112l-.28,1-.94,1.22-3.12.85h-2.08Zm.76-16.33.18-.38-.37-.19-.38.29v.38l.19.09Zm2.92-1.51-.19-.38-.19-.28v-.19l.38-.09.29-.19.09-.38-.47-.28-.66.09-.38.28-.19-.28.09-.66.66-.57.86-.75.66-.57.09-.37-.38.09-.56-.09-.29-.38.1-.29.38-.37v-.38l-.19-.28.09-.29v-.37l-.76-.57.1-.94.57-.67.47-.09.28-.28-.09-.38-.47-.47-.29-.48.1-.66.19-.75-.38-.76-.57-.56.38-.57.57-.66.28-.28-.38-.1-.38.1L744,80.55l-.28.38v.85l.94.38v.19l-.47.09-.66.29v.37l.47.19.38.29-.09.18-.76.1-.75.19v.28l.19.1,1.6.09.38-.09h.37l.1.18-.28.19-.66.29-.19.37.09.38L744,86h-1.13l-.09.19.85.47.18.19.19.47.38.85.19.76-.09.37.18.85.1.95-.38.19-.38-.1-.47.38-.28.28-.38.1-.28.37.38.19.66.1.37.75v1l-.19.85-.09.47,1.7,1.13.38.19Zm-.85,4.53.19-.66-.38-.47h-.94V100l.19-.19.75-.19.95-.19.19-.09.09-.38L746,98.4h-.57l-.66-.1-.28-.57.09-.28-.09-.38-.19-.28-.48.47-.28.66-.19.29v.19l.19.37.19.29-.09.37-.38.48-.19.37v.29l.19.19.09.28.66.28Zm-1.32-11.7v-.48h-.19l-.19.19v.48l.19.28Zm1.89,14.06-.1-.38-.19-.47-.37-.56h-.85l-.57.28.47.66.85.66.57.09Zm-1.13,2,.09-.75-.28-.66-.38.19-.19.66v.56l.38.19Zm-.19-25.95.09-.19h-.19l-.19.09.1.19Zm1.41-.85.19-.57v-.76l-.38-.18h-.56l-.38-.1-.28.28-.19.38.56.57.76.47ZM744.45,61.3l-.1-.1-.19.1.1.09Zm.47,14.44.37-.66-.09-.28-.19-.1-.47.76-.19.28V76l.1.1Zm-.47,16.14.09-.28.19.09V92h-.19Zm0,1.14.37-.29.38.1-.28.28Zm.37,13.68v-.28h-.19v.28Zm.1,2.27v-.29l-.1-.18-.09.18V109Zm-.1-21.62v-.28l.29-.19.37.09.19.38-.38.19Zm.47-7.27.19-.19V79.8l-.28.09-.09.19Zm.48-7.93v-.28h-.29l-.09.19.09.19Zm.38,3.87v-.19l-.19-.09-.29.28.19.1Zm.09,25.77.28-.19-.09-.18-.19.09-.19.28Zm.28-38.13.1-.28-.19-.19-.28.19v.28l.18.09Zm-.09,41.91-.19-.19h-.09v.19l.18.19Zm0-31.43.09-.1V74h-.28v.19Zm.38,23.22.09-.29-.28-.09h-.19v.28l.19.19Zm.37-17.18-.28-.29-.28.29-.1.37.47.1Zm-.37,7.64-.1-.09v.19l.19.09Zm4-21.8v-.38l-.38-.28-.19.09.19.57Zm.94,3.59.19-.1-.19-.09-.28.09v.1Zm2.17-3V66.3l-.37-.09-.19.19.19.18Zm1.23,5.57v-.37h-.37l.18.37Zm3.4,8.59v-.19h-.19l-.09.1.19.09Zm2.83,1.8-.09-.19-.19-.1-.09.29.18.09Zm.76,6.23-.1-.29-.19.1.1.28.09.1Zm5.19,10.57v-.1l-.1-.09-.09.09v.19Zm1.41,1.89.19-.19-.09-.1-.19.1-.09.19Zm4,4.72-.19-.19-.19.09.1.19Zm2.74-1.61v-.09l-.29-.1-.18.1v.09l.18.1Zm2.07-2-.09-.09-.1.09.1.19Zm.66-2.55.29-.28-.1-.1-.37.1-.38.19.19.19Zm.38-2.45v-.19l-.19.09v.19Zm.47,5.38-.37-.1-.19.38.37.1Zm4.53-7.93v-.38L783,94l-1.32-.76-.47-.47-.29-.19h-.09v.19l.28.76.38.66.56.19,1.14.66ZM782.3,91l.09-.28-.09-.28-.29.19.1.37Zm.94-1.51-.09-.19-.19.19.19.19Zm.38,3.31-.19-.29-.19-.09-.09.19.19.28Zm.75-1.33-.09-.47-.28-.09-.29.28.29.47Zm1.7-4.81-.28-.19-.66-.19-.57-.09-.09.28L785,87l.75.1Zm-.85,2.08.1-.19-.38-.28h-.47l.09.37.38.19Zm0,2-.28-.28-.19.09.29.28Zm1.51-6.51.1-.38-.28-.38-.48-.19-.19-.37-.28-.19-.28.19.09.37.47.19.29.1.19.47.28.28Zm.38,2.26.38-.28-.28-.19-.38-.38-.19-.38-.28-.09-.1.19.29.38.09.37-.38.29.19.28Zm1.7-4.43-.66-.85-.57-.76v-.85h-.19l-.37.47-.1.66.38.48.66.66.38.47.28.19Zm-.38,2.73v-.47l-.19.28v.48Zm1.8-6.51.37-.19.29-.09.19.28.28.19.19-.19-.1-.19-.28-.09-.19-.1-.19-.19-.66-.19-.75-.09h-.29l-.28.09-.28.19v.1l.28.09.38.28.47.29Zm-1.33,1.89.19-.19L789,79.8l-.28.19v.19Zm1.8-3.31.38-.09-.1-.38-.38-.28-.66.09-.56.29-.19.18.66.19Zm-.47,2.93.28-.19v-.28l-.09-.1-.38.29-.19.37Zm2.36-4.72.28-.09.28-.19.19-.57-.09-.47-1.14-.38-.37.19-.76.28-.19.38.19.28v.19l-.19.38L791,75h.38l.75.18Zm1.79-2.36.19-.75-.19-.67h-.19l-.19.19-.66.38-.66.19.28-.94-.18-.29h-.29l-.38.29-.75.37.28.48.66.56h.48l.37.1.57.28.38.09Zm-1.23,3.49-.66-.28L792,76v.19l.09.1.67.09Zm-.85-1.89.19-.28h.19l.19.19-.09.38-.29.09Zm1.32-5.85-.09-.28-.19.09.1.29Zm1.8,2.46.09-.19-.28-.19-.19-.47.28-.47.38-.29.1-.38-.1-.37-.66.28-.57.57-.47.37-.28.38.19.38.19.19.37.09.57.1Zm-.95,2.36-.09-.1h-.19v.1l.19.09Zm.1-7.84-.28-.09v.19l.28.09Zm.66,2.27-.09-.19-.29-.1-.28.1v.19l.38.19Zm.85-1,.09-.37-.09-.76-.1-.47-.28.19-.28.56.09.66.29.29L796,67Zm-.19,5.38.19-.09L796,72l-.18-.1-.1.19.1.09Zm2.36-8.68-.09-.38-.38-.28-.57-.1-.28-.18h-.38l-.28.09v.19l.19.19.37.47.76.19Zm-.76,4-.37-.28h-.19v.19l.47.28Zm0-2.73v-.19l-.18.09v.19l.09.1Zm.85,2.83-.28.09v.19l.28.1Zm.29-6.51-.1-.1-.19.28.1.1Zm4.25,6.41.28-.47.28-.38V66.3l-.28-.47.09-.19.38-.28.1-.38-.29-.09-.28.28-.1.28h-.18l-.67-1-.47-1-.09-.38-.38-.1-.47-.09-.57-.47-.56-.38-.48.19-.19.47.1.38.19.19.57.28.37.38L800,64l-1.51-.1-.19.28.19.19.19-.09.28.19.1.56v.57l.38-.19.75-.85.76-.38.47.38.38.47.28.38.19.47.19.85.19.66Zm-4.35-9.53.38-.19v-.09l-.47.19v.09Zm.57,10.57-.19-.28-.38.47.19.28Zm.28,3.21.1-.09-.19-.1-.19.1.09.09Zm.57-3.3.28-.19v-.28l-.19-.19-.56.09-.1.28.29.29Zm.66,1.6.28-.47h-.66l-.66.38v.19l.47.09Zm-.09,3v-.09h-.19l-.19.09.19.1Zm.28-7.17.09-.38-.09-.19-.28-.09-.19.28.09.38Zm0,5.66-.19-.19v.19l.19.19Zm.94-11.89.1-.19-.47-.47-.38-.19-.19.28.19.57.47.19Zm-.19,7.08.1-.57-.57.29-.28.47.19.19Zm-.18,7.55-.1-.38h-.38l-.09.19.28.28Zm.94-2.26.38-.57-.48-.1-.84.29-.38.28.19.28.47.1Zm-.85,11.51-.09-.19-.19.1.09.19Zm.19-24.82v-.19h-.1l-.18.09.09.19Zm.94,20.86.57-.76.09-.66-.37.09-.38.38L802,79l-.57.09-.09.29.47.28Zm-.75,2-.1-.19-.19-.09-.09.18.28.19Zm-.1-20.11-.09-.19-.1.1v.19Zm.19,15.2V76.4h-.28l-.1.19.29.09Zm0-14.44V62l-.19.09v.19Zm.85,20.58.19-.48.19-.56V81.5l-.66.38-.57.56.1.29.47.09Zm-.28-7.93.09-.48L802.5,74l-.29.19-.09.38.19.19Zm.56-5.57.48-.1.37.19.48-.09.37-.29-.19-.18-.47.09-.47.19-.28-.19-.29-.09-.47.09-.19.09v.38l.19.19Zm-.28-11.71-.09-.19h-.19l.09.19Zm.1,27.09v-.28l-.1-.19-.09.29.09.18Zm0,2.84.09-.1-.09-.09-.19.09v.1Zm.66-11.62.19-.47-.67.1-.28.37.1.29Zm-.48,4.44-.18-.09v.19l.09.09Zm.1,26.15v-.19h-.28v.19Zm.09-46.82h-.19l-.09.19.09.19Zm0,40.12.19-.38-.28.09-.19.38Zm.1-36.63V62.9h-.1l-.19.1.1.19Zm.47,11.33.38-.66.19-.47.09-.19-1.32-.19-.1.19.1.28.38,1.23Zm.66-2.45v-.1l-.28-.47-.38-.38-.38.28.29.57.56.19Zm-.38,8.68.38-.38.09-.38-.37.1-.47.38v.28Zm.38-23,.19-.38-.28-.09-.48.28.19.38Zm0,6.23v-.38l-.19-.28h-.19l-.19.28v.38l.29.09Zm0,26.43v-.1l-.28-.09H804l.09.19Zm.28-11.8.57-.57-.09-.19h-.67l-.28.47-.09.48.19.09Zm-.09-1.89.19-.19-.19-.09h-.38v.28ZM804.86,93l-.1-.19h-.19l.1.19Zm.56-22.57-.28-.18-.09.18.37.19Z"/><path class="cls-2" d="M245.21,168l-.81,0h-.85l-.56,0h-1l-.81,0h-2l-.49,0H235.1l-.53-.08-.76.08H233l-1,0-.93,0-.73,0-1.18-.12-1-.21-.16-.36-.08-.49,0-.93.12-1v-3.4l0-1.82,0-.93-.08-1.45.08-.81v-.85l0-.77v-6.06l0-1.3v-1l.08-.81,0-.4,0-.45v-.89l0-1.29-.08-1.26.08-1,.08-.4.13-.2.32-.17h.73l1.09.17.4.48v.45l0,.44,0,.73,0,1v2.22l0,.89.08,1.22v1l-.08.48,0,.61v1.13l0,1.62v1.7l0,.69,0,1.25-.08,1.09.08,1.3v3.76l0,.73,0,1,0,.85.24.52.25.16.2.09,1,.12h1.58l1.09-.08.65,0,.64,0,.69,0H238l1.26,0,.72,0,1.38,0,3,0h.89l.93,0h.45l.48,0,.37.12.2.12.24.4,0,.37,0,.56,0,.73-.16.2-.24.21-.81.08-.89,0Z"/><path class="cls-2" d="M260.59,168.32l-1.06-.36-.89-.37-.48-.32-.45-.16-.28-.2-.52-.37-.61-.36-.29-.25-.44-.44-.32-.4-.29-.29-.52-.89-.65-1-.36-.93-.25-.89-.24-.85-.2-1.54-.08-1.41.12-.69,0-.44.08-.41.16-.85.45-1.25.64-1,.53-.73.77-.89,1.25-1.05,1.18-.81,1.17-.61.93-.32.73-.16.85-.17,1.21-.12.69,0,1.05,0,.65.09.68.12,1.7.77.73.48.57.32.36.33.69.52.52.49.53.61.85,1.29.61,1.46.28.89,0,.52.08,1.09-.2,1.06-.16.36-.21.16-.28.16-.77.21-.93-.09H269l-2.47,0-1.17,0h-1.42l-1.13-.08-.77.08H259.9l-.93-.12-2.11.16-.44.21-.24.24-.17.44,0,.41.2.85.28.69.57,1.09.44.6.2.29.45.4.48.37.41.24.69.4,1.17.57,1.62.24.72,0,1.3-.12,1.25-.44,1-.49.81-.48.81-.57.53-.57.69-.32.52.08.57.28.56.49.17.4v.49l-.25.4-.65.73-.89.77-.88.65-.77.44-.81.37-.81.28-.85.24-1.17.16h-1.66Zm-1.82-12.42,1.05,0,.85-.12h1l1.37.08h1.34l2.22.08h.85l.36,0h.53l.53,0,.36,0,.16-.12.12-.16v-.24l-.16-.57-.2-.65-.2-.36-.49-.61-.69-.68-1.05-.81-.72-.37-.77-.32-1.18-.28-1-.08h-.89l-.89.2-1.29.4-.65.29-1.25.84-.73.77-.28.33-.29.44-.36.73-.08.48.16.49.45.28,1.13.08Z"/><path class="cls-2" d="M298.53,167.51l-.36-.4-.21-.37-.36-.6-.24-.57-.45-.85-.64-1.33-.77-1.54-.33-.57-.48-.93-.61-1.25-.48-.93-.45-1-.52-1-.53-1.14-.32-.72-.49-1.05-.44-.77-.49-1-.36-.89-.29-.57-.12-.57.24-.44.33-.24.65-.29.48-.16.45.08.4.33.28.52.57,1.17.36.77.49,1,.44.81.37.73.48,1.09.61,1.17.44,1,.29.64.32.65.65,1.33.32.73.49,1,.32.53.24.52.37.41.4,0,.29-.2.36-.65.44-1,.41-.89.56-1,.29-.65.69-1.37.56-1,.45-.81.48-1.1,1.22-2.38.36-.73.48-1,.45-1,.28-.41.33-.24.44,0,.45.2.56.21.53.4.16.36,0,.33-.08.32-.2.41-.37.64-.24.45-.36.85-.29.6-.73,1.26-.84,1.7-.37.68-.36.73-.2.53-.33.65-.56,1.17-.37.85-.4.77-.41.8-.32.61-.2.45-.21.36-.16.36-.6,1.1-.25.44-.28.37-.4.84-.41.65-.4.33h-.77Z"/><path class="cls-2" d="M320.94,168.32l-1.05-.36-.89-.37-.48-.32-.45-.16-.28-.2-.53-.37-.6-.36-.29-.25-.44-.44-.33-.4-.28-.29-.52-.89-.65-1-.37-.93-.24-.89-.24-.85-.2-1.54-.08-1.41.12-.69,0-.44.08-.41.16-.85.44-1.25.65-1,.53-.73.77-.89,1.25-1.05,1.17-.81,1.18-.61.93-.32.72-.16.85-.17,1.22-.12.68,0,1.06,0,.64.09.69.12,1.7.77.73.48.56.32.37.33.69.52.52.49.53.61.85,1.29.6,1.46.29.89,0,.52.08,1.09-.2,1.06-.17.36-.2.16-.28.16-.77.21-.93-.09h-1.25l-2.47,0-1.17,0H324.3l-1.13-.08-.77.08h-2.14l-.93-.12-2.11.16-.44.21-.25.24-.16.44,0,.41.2.85.29.69.56,1.09.45.6.2.29.45.4.48.37.41.24.68.4,1.18.57,1.61.24.73,0,1.3-.12,1.25-.44,1-.49.81-.48.81-.57.52-.57.69-.32.53.08.56.28.57.49.16.4v.49l-.24.4-.65.73-.89.77-.89.65-.77.44-.8.37-.81.28-.85.24-1.18.16H323Zm-1.82-12.42,1.05,0,.85-.12h1l1.38.08h1.33l2.23.08h.85l.36,0h.53l.52,0,.37,0,.16-.12.12-.16v-.24l-.16-.57-.2-.65-.2-.36-.49-.61-.69-.68-1.05-.81-.73-.37-.77-.32-1.17-.28-1-.08h-.89l-.89.2-1.29.4-.65.29-1.25.84-.73.77-.29.33-.28.44-.36.73-.08.48.16.49.44.28,1.14.08Zm4-11-.73-.28-.73-.53-.24-.52-.08-.45.2-.4.44-.53,1.26-1.21.4-.49.41-.32.44-.48.65-.53.57-.45.6-.56.73-.53.4,0,.33.2.93.94.2.52-.2.65-.57.6-.93,1-.44.48-.93.93-.69.73-.65.73-.6.44-.29.12Z"/><path class="cls-2" d="M347.48,177.62l-.85-.28-.57-.08-.84-.32-.89-.37-.53-.36-.57-.33-.44-.32-.65-.49-.48-.48-.33-.44-.28-.45-.16-.4.12-.45.2-.4.61-.41.64-.08.65.12,1,.77,1.18,1,.89.49.68.32,1.3.24,1.45.12,1.1-.08.8-.2.61-.28.69-.41.52-.4.45-.36.65-.81.6-.89.25-.89.16-.45,0-.56.12-.69,0-.93.12-1.13,0-.73-.24-.37L355,166l-.4.28-.65.48-.61.37-.76.36-.77.33-.69.24-.81.2-.44,0-.53.12-1.37.08-1.38-.12-.77-.12-1.54-.48-.64-.37-1.3-.69-.89-.64-.56-.61-.61-.61-.53-.68-.6-1.06-.37-.6-.4-1-.28-1.38-.17-.89-.08-.89,0-.81.12-1.25.24-1,.16-.69.2-.53.45-.89.4-.52.53-.77.81-.93.68-.65.65-.52.61-.45,1.17-.6.85-.33.49-.2.8-.2.9-.21.88-.08h.65l.65.08.53.09.68.08.69.2.89.24.65.24,1.29.65,1,.69.53.28.24,0,.16-.52.2-.93.77-.41h.85l.69.12.32.61v.69l0,.36V159l0,1.17v.57l0,.73v1l.08.81-.08,1.65V166l0,.44v.65l0,.77,0,.93-.08.81-.12.6-.24.93-.45,1.22-.52,1.13-.61.89-.77.77-1,.81-1.17.89-1,.36-.61.2-1.21.24-.93,0h-1.38Zm1.13-11.85.77-.08,1.09-.24.77-.28.85-.49.61-.36.93-1.1.65-.8.16-.29.36-.69.53-1.21.24-1.17.08-.77,0-.69V157l-.12-.69-.12-.53-.16-.28L355,155l-.28-.64-.44-.77-.57-.69-.61-.65-1-.68-1.29-.57-1.7-.49-.61,0-.89,0-1.09.17-1.09.32-.81.32-.81.61-1.17,1-.81,1-.37.53-.16.48-.16.53-.16.48-.12.61,0,.77-.08.89.16,1.09.12,1,.2.65.37.73.77,1.29.92,1,1,.73,1.41.77,1,.24.85.08Z"/><path class="cls-2" d="M373.29,168.32l-1.05-.36-.89-.37-.49-.32-.44-.16-.28-.2-.53-.37-.61-.36-.28-.25-.45-.44-.32-.4-.28-.29-.53-.89-.64-1-.37-.93-.24-.89-.24-.85-.21-1.54-.08-1.41.12-.69,0-.44.09-.41.16-.85.44-1.25.65-1,.53-.73.76-.89,1.26-1.05,1.17-.81,1.17-.61.93-.32.73-.16.85-.17,1.21-.12.69,0,1,0,.65.09.69.12,1.7.77.73.48.56.32.37.33.68.52.53.49.52.61.85,1.29.61,1.46.28.89,0,.52.09,1.09-.21,1.06-.16.36-.2.16-.28.16-.77.21-.93-.09H381.7l-2.46,0-1.18,0h-1.41l-1.14-.08-.76.08H372.6l-.93-.12-2.1.16-.45.21-.24.24-.16.44,0,.41.2.85.28.69.57,1.09.45.6.2.29.44.4.49.37.4.24.69.4,1.17.57,1.62.24.73,0,1.29-.12,1.26-.44,1-.49.81-.48.81-.57.52-.57.69-.32.53.08.56.28.57.49.16.4v.49l-.24.4-.65.73-.89.77-.89.65-.77.44-.81.37-.81.28-.85.24-1.17.16h-1.66Zm-1.82-12.42,1,0,.85-.12h1l1.38.08h1.33l2.23.08h.85l.36,0H381l.52,0,.37,0,.16-.12.12-.16v-.24l-.16-.57-.21-.65-.2-.36-.48-.61-.69-.68-1.05-.81-.73-.37-.77-.32-1.17-.28-1-.08h-.89l-.89.2-1.3.4-.64.29-1.26.84-.73.77-.28.33-.28.44-.37.73-.08.48.17.49.44.28,1.13.08Zm4-11-.72-.28-.73-.53-.24-.52-.09-.45.21-.4.44-.53L375.6,141l.4-.49.4-.32.45-.48.65-.53.56-.45.61-.56.73-.53.4,0,.33.2.93.94.2.52-.2.65-.57.6-.93,1-.45.48-.93.93-.68.73-.65.73-.61.44L376,145Z"/><path class="cls-2" d="M397.12,168.52l-1.05-.16-.81-.24-.89-.57-1.05-1.17-.41-.65-.08-.24-.16-.65-.16-.93-.08-1.21v-1.09l0-.61,0-.53v-.28l0-1.09,0-1.5-.08-.77,0-1-.09-1.33v-.85l.05-.77v-.77l-.13-.6-.32-.37-.69-.08-.56.08-.45-.08-.36-.53-.08-.52,0-.57.12-.44.24-.33.28-.16,1.1,0,.56-.12.33-.61.12-.64v-2.75l.16-1.54.12-.28.53-.13.68,0,.57,0,.61.25.16.48,0,.89v.73l0,1.7v1.05l.12.49.32.28.65.16h2l.73.16.28,0,.29.29.12.52,0,.41v.68l-.16.41-.33.24-.68.08-1.06,0-1,0h-.6l-.33.16-.24.29-.08.56-.08.53,0,1v1.66l0,1.25-.08,1.38,0,1.86v2.67l.12,1.25.12.57.28.48.33.37.16.16.89.24h1.09l.93-.32.77-.49.4-.2.69-.2.77.16.49.28.24.37,0,.6-.24.73-.81.77-.93.61-.81.28-.65.2-.4,0-.73.08Z"/><path class="cls-2" d="M414.63,168.44l-1.25-.2-1.29-.36-.89-.37-.41-.24-.81-.45-.48-.44L409,166,408.2,165l-.4-1.17-.16-.69-.13-.68v-1.1l.33-1.29.4-.89.29-.4.44-.57.65-.65.52-.32.81-.45,1-.32,1.38-.2.77-.08.76,0h.81l2.15.08.77-.08,1,0,1.86-.41.68-.2.17-.16.12-.53-.12-.61-.25-.64-.2-.49-.32-.52-.73-.73-.44-.37-.73-.4-1.22-.45-1.17-.12-.81,0-.36.08-.69.13-.93.28-1.13.65-.65.44-.85.69-.6.61-.73.24-.41-.08-.48-.24-.69-.61-.24-.57,0-.32.44-.65.49-.57.93-.68,1.61-1,.94-.41.8-.24,1.06-.28,1.33-.17h.81l.61,0,1.09.08,1.46.41,1.65.77.93.65.37.44.48.49.45.72.44.85.61,1.82.16,1.34V156l.08.65,0,1.17v2.47l-.08.89V162l-.08.93v2.59l-.2,2-.12.29-.29.08h-.77l-.93-.08-.44-.21-.12-.48-.08-.49-.12-.24-.13,0-.4.36-.49.41-.56.36-.69.29-.52.24-.69.2-.81.16-1.5,0Zm1.26-2.83.56,0,.85-.12.73-.12.69-.2,1.17-.49.53-.44.64-.85.29-.49.36-.85.41-1.21.12-1,0-.69-.21-.45-.6-.12-2.15.25-.48.08h-4.13l-1.17.08-1,.2-.73.4-.44.49-.37.57-.28.84,0,.81v.45l.12.44.24.73.41.49.52.4.57.33,1,.28,1,.16.65.08Z"/><path class="cls-2" d="M434.25,167.84l-.36-.69,0-1.42,0-.93,0-1.33v-1l.12-.81v-.53l0-1v-1.62l0-1.49,0-.77,0-.65,0-.65v-.72l0-1.06-.08-1.09v-2.42l.08-.69,0-.73v-.69l0-1.29v-2.71l0-1.22v-.52l0-.77,0-.89.24-.44.57-.25.81-.08.81.16.36.33.12.36.08,1v1.78l-.08.41,0,.32.09.53L437,145l0,1.1v2.67l0,.64,0,1.05.05,1v2.47l-.05,1,.05.89-.05.93,0,.61.09.77-.05.44.05,1L437,161l0,1V167l-.12.6-.28.25H435.1l-.52,0Z"/><path class="cls-2" d="M459,143.41l-.69-.29-.28-.32-.28-.69v-.89l.12-.4.36-.53.61-.44.36-.08.49-.08.65.12.48.32.49.57.2.76v.45l-.2.61L461,143l-.28.28-.69.29Zm-.08,24.39-.48-.25-.21-.32,0-.89v-.85l0-1.13-.08-1v-3.77l0-1.78-.08-1.37,0-1.29v-.93l0-1.74v-1.3l0-.81,0-1.05.21-.85.24-.08.48,0h.65l.45.08.52.12.37.81V157l-.05,1.74.05,1.49v2.15l0,1.57v1.66l-.09,1.3-.12.6-.16.2-.32.17-.77,0Z"/><path class="cls-2" d="M484.9,167.8l-.24-.21-.12-.44v-1.09l0-1.7,0-.93v-5.91l-.25-2.34-.24-1-.16-.33-.37-.89-.93-1.21-.85-.53-.84-.4-1.14-.2-.85-.09-.85.09-.76,0-.41.12-.77.12-1.09.4-.48.33-.57.68-.49.69-.28.85-.24,1,0,.41-.16.73-.13,1.17,0,.56v.69l0,.81v.53l-.08.72v3.85l.08,1.74,0,1-.12.28-.6.24-1,.17-.81-.09-.25-.28-.08-.32,0-.85-.08-1.38,0-1.17.12-1.21v-.81l-.08-1.58v-1.33l0-1.3v-4.25l.08-1.41.08-1.34v-1.25l.25-.61.4-.12h.85l.93.08.24.25.08.4.13.36.16,0,.48-.32.45-.32.48-.25.77-.24,1.5-.44.6-.13.69-.08,1.22,0,.93.21.72.08,1.82.6.81.41.69.4.89.73.69.73.6.89.49,1.29.36,1.38.21,1,.08.69v.44l0,.89,0,.73V160l0,1.21-.08.69v.89l0,1,0,.57v.89l0,.77,0,1-.13.44-.24.37-1,.12Z"/><path class="cls-2" d="M501.57,168.28l-1.05-.16-1-.32-.89-.29-1.14-.65-1-.56-.52-.41-.81-.72-.65-.85.08-.61.24-.4.45-.45.56-.2.57,0,.37.2.48.53.81.68,1.13.65,1.13.49.89.24.65.12.73.08.48,0,.81,0,.69-.12.24-.08.61-.08.65-.2.44-.21.37-.2.32-.32.4-.28.41-.69.24-.93-.12-1-.48-.93-.45-.33-1.17-.4-1.14-.2h-.6l-.45-.13-1.49-.24-.93-.12-1.7-.36-.49-.12-.69-.21-.6-.2-.37-.16-.64-.32-.73-.45-.61-.73-.64-1.13-.21-.77-.08-.28V153.4l.08-.37.12-.56.37-.89.77-1.18.85-.81.93-.68,1.53-.69.81-.2,1-.21h2.27l.93.13.77,0,1,.24.73.2.89.41.76.52,1.14.89.68.81.25.53-.08.4-.17.32-.36.33-.65.32-.64.12-.57-.16-.4-.44-.37-.41-.4-.32-.53-.29-.89-.36-.61-.2-.56,0-1.38-.2h-1l-.81,0-.89.16-.6.24-.61.45-.52.4-.33.36-.36.73-.16,1v.49l.28.56.48.53.25.16.76.29,2.19.44,1.05.16.45.12.76,0,.57.08.53.05h.4l.81.16,1.74.44,1.33.73.65.45.28.4.37.44.16.45.12.48.24,1.18.08,1.29-.2.93-.24.73-.36.57-.57.76-.53.57-.6.41-1.14.56-1.78.53-1.57.32-1.18,0Z"/><path class="cls-2" d="M520.3,177.58h-.69l-.48-.12-.29-.48-.08-1.1v-.76l0-1.62v-2.15l0-1.41,0-1v-1.66l0-1.5,0-1.78V162.5l0-1.62,0-1.7v-3l0-1.54v-3l0-1.38,0-.93.16-.56.24-.25,1.05-.08,1,.08.25.41.16.56.12.49.24.2.28-.12.85-.57,1.3-.68.68-.25.65-.28,1-.28.61-.12.77-.05,1.09-.08.81.08.69.05.81.16,1.13.28.81.32.6.29,1.22.81.56.48.77.77.29.36.36.57.57.81.44.77.37.6.24.49.24.81.12.69.08.52,0,1.38-.08,1.45-.28,1.3-.33.85-.36.93-.73,1.33-1,1.26-.77.84-.36.29-.32.28-.73.45-1,.56-1.38.49-1.13.2-.32.08-.73,0h-1.94l-.89-.2-1.14-.24-.84-.29-.57-.28-.53-.2-.6-.33-.81-.72-.61-.45-.28.12-.12.53v.93l-.08,1.33v2.07l0,1.41,0,1.3v.56l.08.61v1.78l-.25,1.13-.56.2Zm10-11.93.93-.2.89-.28,1.46-.69.4-.24.45-.29.84-1,.53-.85.2-.4.2-.45.25-.6.24-.81.08-1.14v-1.37l-.16-1.09-.16-.65-.33-.77-.81-1.33-.64-.81-1-.89-.81-.49-.41-.2-1-.28-1.62-.29-1.45.13-1.05.28-1,.28-.69.33-.77.44-.89.81L523,154l-.49,1-.28.65-.2.85-.12.73,0,1.17V159l.12.6.24.93.41,1,.56.84.61.85.89.85.56.45.33.2.48.28.53.25.77.28.77.08.93.08Z"/><path class="cls-2" d="M547.44,143.41l-.68-.29-.29-.32-.28-.69v-.89l.12-.4.36-.53.61-.44.36-.08.49-.08.65.12.48.32.49.57.2.76v.45l-.2.61-.28.44-.29.28-.69.29Zm-.08,24.39-.48-.25-.21-.32,0-.89v-.85l0-1.13-.08-1v-3.77l0-1.78-.08-1.37,0-1.29v-.93l0-1.74v-1.3l0-.81,0-1.05.21-.85.24-.08.48,0h.65l.45.08.52.12.37.81V157l0,1.74,0,1.49v2.15l0,1.57v1.66l-.08,1.3-.13.6-.16.2-.32.17-.77,0Z"/><path class="cls-2" d="M558.69,167.63l-.4-.32-.13-.93,0-1.78v-2.55l-.12-1.49.12-1.3,0-1.5v-.85l-.09-1.29v-2.3l0-.49v-.93l.08-1.54,0-1.17.16-.44.24-.25.28-.12.41,0,.4,0,.45.08.56.24.25.41.08.24.12.08.2,0L562,149l.64-.41.69-.32,1-.36,1.38-.17,1.57.08,1.62.37,1.26.61.85.6.56.61.12.36-.08.49-.36.52-.53.45-.68,0-.53-.24-.93-.53-1.21-.44-1-.17-.69,0-.81.13-.89.24-1,.69-.73.8-.37.73-.24.65-.32,1.42-.16,1.21.08,1.29v1.62l-.08,1.78,0,1.17,0,1.14v3.76l-.16.36-.37.2-.28.08-.53,0-.52,0Z"/><path class="cls-2" d="M584.05,168.32l-1-.36-.89-.37-.48-.32-.45-.16-.28-.2-.53-.37-.6-.36-.29-.25-.44-.44-.33-.4-.28-.29-.53-.89-.64-1-.37-.93-.24-.89-.24-.85-.2-1.54-.09-1.41.13-.69,0-.44.08-.41.16-.85.44-1.25.65-1,.53-.73.77-.89,1.25-1.05,1.17-.81,1.18-.61.93-.32.72-.16.85-.17,1.22-.12.68,0,1.06,0,.64.09.69.12,1.7.77.73.48.56.32.37.33.69.52.52.49.53.61.85,1.29.6,1.46.29.89,0,.52.08,1.09-.2,1.06-.17.36-.2.16-.28.16-.77.21-.93-.09h-1.25l-2.47,0-1.17,0h-1.42l-1.13-.08-.77.08h-2.15l-.93-.12-2.1.16-.44.21-.25.24-.16.44,0,.41.2.85.29.69.56,1.09.45.6.2.29.45.4.48.37.41.24.68.4,1.18.57,1.61.24.73,0,1.3-.12,1.25-.44,1-.49.81-.48.81-.57.52-.57.69-.32.53.08.56.28.57.49.16.4v.49l-.24.4-.65.73-.89.77-.89.65-.77.44-.81.37-.8.28-.85.24-1.18.16h-1.65Zm-1.82-12.42,1,0,.85-.12h1l1.38.08h1.33l2.23.08h.85l.36,0h.53l.52,0,.37,0,.16-.12.12-.16v-.24l-.16-.57-.2-.65-.21-.36-.48-.61-.69-.68-1.05-.81-.73-.37-.77-.32-1.17-.28-1-.08h-.89l-.89.2-1.29.4-.65.29-1.26.84-.72.77-.29.33-.28.44-.36.73-.08.48.16.49.44.28,1.13.08Zm4-11-.73-.28-.73-.53-.24-.52-.08-.45.2-.4.44-.53,1.26-1.21.4-.49.41-.32.44-.48.65-.53.57-.45.6-.56.73-.53.4,0,.33.2.93.94.2.52-.2.65-.57.6-.93,1-.44.48L589,143l-.69.73-.65.73-.6.44-.29.12Z"/><path class="cls-2" d="M623.58,168.64l-1.3-.08-.77-.2-.72-.24-.69-.24-1.54-.73-.53-.41-.64-.44-.57-.41-1.21-1.21-.29-.48-.28-.33-.48-.81-.49-1.17-.2-.77-.08-.36-.08-.41,0-.36,0-.45-.13-.8,0-1.34.17-1.21.28-1.26.28-.68.73-1.46.57-.81.36-.4.45-.45.72-.69.77-.64.69-.49.89-.48,1.9-.69.93-.24.93-.09.69,0,.89.13.81.08,1.78.4.85.37.93.48,1,.65.73.52.32.17.12-.21,0-.48,0-.57,0-.69,0-1.25,0-1.33v-.89l.08-1v-.81l0-1.62v-1.3l.16-.64.41-.25.6-.08h.77l.77.21.2,1,.09,1.21,0,.77,0,.4,0,.73,0,1v.69l-.13.85v3.15l0,1.06V152l0,.77v.81l0,1.17v.61l0,.77,0,1.37-.08,1.62V162l0,.93,0,.77.08.61-.08.81.12.8-.08.77-.08.53,0,.2-.28.24-.85.17-.53,0-.36,0-.45-.17-.2-.44,0-.57,0-.32-.12-.2h-.24l-.37.28-.68.49-.93.56-1.22.53-.69.2-.76.24-.69.08-.85.16Zm.93-2.79.76-.12.77-.2.93-.36.77-.41.85-.61.89-.76.77-1.06.36-.76.41-1.1.24-1.33,0-.81-.16-1.7-.2-.69-.29-.89-.48-.89-.61-.8-.65-.65-.68-.57-1.05-.6-.85-.37-.49-.16-.77-.16-.56-.16-.53-.08-.65-.05-.77.13-.93.2-.89.36-.8.41-.41.24-.52.4-.93,1-.57.68-.37.65-.4,1-.2.77-.24,1,0,1.29.24,1.3.24.93.16.57.25.52.32.57.57.85,1.21,1,.48.24.89.49.65.24,1.09.32.61.12Z"/><path class="cls-2" d="M649,168.32l-1.05-.36-.89-.37-.49-.32-.44-.16-.28-.2-.53-.37-.61-.36-.28-.25-.45-.44-.32-.4-.28-.29-.53-.89-.64-1-.37-.93-.24-.89-.24-.85-.21-1.54-.08-1.41.12-.69.05-.44.08-.41.16-.85.44-1.25.65-1,.53-.73.76-.89,1.26-1.05,1.17-.81,1.17-.61.93-.32.73-.16.85-.17,1.22-.12.68,0,1,0,.65.09.69.12,1.7.77.73.48.56.32.37.33.68.52.53.49.52.61.85,1.29.61,1.46.28.89,0,.52.09,1.09-.21,1.06-.16.36-.2.16-.28.16-.77.21-.93-.09h-1.26l-2.46,0-1.18,0h-1.41l-1.14-.08-.76.08h-2.15l-.93-.12-2.1.16-.45.21-.24.24-.16.44,0,.41.2.85.28.69.57,1.09.45.6.2.29.44.4.49.37.4.24.69.4,1.17.57,1.62.24.73,0,1.29-.12,1.26-.44,1-.49.81-.48.81-.57.52-.57.69-.32.53.08.56.28.57.49.16.4v.49l-.24.4-.65.73-.89.77-.89.65-.77.44-.81.37-.81.28-.85.24-1.17.16H651Zm-1.82-12.42,1.05,0,.85-.12h1l1.38.08h1.33l2.23.08h.85l.36,0h.53l.52,0,.37,0,.16-.12.12-.16v-.24l-.16-.57-.21-.65-.2-.36-.48-.61-.69-.68-1-.81-.73-.37-.77-.32-1.17-.28-1-.08h-.89l-.89.2-1.3.4-.64.29-1.26.84-.73.77-.28.33-.28.44-.37.73-.08.48.17.49.44.28,1.13.08Z"/><path class="cls-2" d="M680.86,167.84l-.36-.69,0-1.42,0-.93,0-1.33v-1l.13-.81v-.53l0-1v-1.62l0-1.49,0-.77,0-.65,0-.65v-.72l0-1.06-.08-1.09v-2.42l.08-.69,0-.73v-.69l0-1.29v-2.71l0-1.22v-.52l0-.77,0-.89.24-.44.57-.25.81-.08.8.16.37.33.12.36.08,1v1.78l-.08.41,0,.32.08.53-.08.64,0,1.1v2.67l0,.64,0,1.05,0,1v2.47l0,1,0,.89,0,.93,0,.61.08.77,0,.44,0,1-.08,1.5,0,1V167l-.12.6-.29.25h-1.41l-.53,0Z"/><path class="cls-2" d="M697.69,168.44l-1.26-.2-1.29-.36-.89-.37-.4-.24-.81-.45-.49-.44L692,166l-.77-1.06-.41-1.17-.16-.69-.12-.68v-1.1l.32-1.29.41-.89.28-.4.45-.57.64-.65.53-.32.81-.45,1-.32,1.37-.2.77-.08.77,0h.81l2.14.08.77-.08,1,0,1.86-.41.69-.2.16-.16.12-.53-.12-.61-.24-.64-.2-.49-.33-.52-.72-.73-.45-.37-.73-.4-1.21-.45-1.17-.12-.81,0-.37.08-.68.13-.93.28-1.14.65-.64.44-.85.69-.61.61-.73.24-.4-.08-.49-.24-.69-.61-.24-.57,0-.32.45-.65.48-.57.93-.68,1.62-1,.93-.41.81-.24L698,148l1.33-.17h.81l.61,0,1.09.08,1.46.41,1.66.77.93.65.36.44.49.49.44.72.45.85.6,1.82.16,1.34V156l.09.65,0,1.17v2.47l-.08.89V162l-.09.93v2.59l-.2,2-.12.29-.28.08h-.77l-.93-.08-.45-.21-.12-.48-.08-.49-.12-.24-.12,0-.41.36-.48.41-.57.36-.68.29-.53.24-.69.2-.81.16-1.49,0Zm1.25-2.83.57,0,.85-.12.73-.12.68-.2,1.17-.49.53-.44.65-.85.28-.49.37-.85.4-1.21.12-1,0-.69-.2-.45-.61-.12-2.14.25-.49.08h-4.12l-1.18.08-1,.2-.72.4-.45.49-.36.57-.29.84,0,.81v.45l.12.44.25.73.4.49.53.4.56.33,1,.28,1,.16.64.08Z"/><path class="cls-2" d="M744.61,168l-.81-.12-.56-.17-.25-.56,0-.69.08-.73v-1.25l0-1.62v-2.18l0-1.1v-.76l0-1,0-.44-.08-.73-.12-1.25-.2-.93-.2-.57-.16-.56-.29-.57-.52-.77-.49-.57-.65-.36-1.21-.32-1.17-.12h-.89l-1,.16-1,.24-.89.36-.65.57-.4.73-.53,1.09-.24,1.13-.12.73-.13,1.09-.12,1.62v3.48l.12,1.5v2.26l-.08.93,0,.77-.08.28-.24.25-1.09.16-1-.08-.21-.13-.12-.84,0-.73v-1.34l0-1.45v-1.9l0-1.06v-1.69l0-1.06,0-1.13,0-.69.08-.89v-3.72l0-1.33V149l.29-.45.44-.12h1l.41.08.44.12.24.41.17.28.24,0,.36-.24.45-.37.85-.4,1.25-.28,1-.12.85-.09.89.09.81,0,.69.16.85.24,1.05.45.53.2.44.36.81.69.52.48.49.21.36-.21.33-.32.56-.52.73-.53.69-.36.57-.29.44-.2.53-.16,1.13-.29.89-.12H752l.89.08,1.18.33.76.32.69.37.93.6.69.61.61.61.48.56.29.49.36.81.2.48.32,1.54v.36l.13.77,0,1.34v2.46l0,.73,0,.93v.77l0,1,0,.69v.61l0,.76v1.1l-.13,1.21-.36.44-.32.09-.69.12-.73-.12-.32-.21-.12-.32-.09-.57,0-.73-.09-1.09v-4.16l0-.45,0-.48v-1l0-1.1,0-1v-.73l0-.68-.24-1-.16-.57-.12-.32-.25-.53-.64-.85-.57-.48-.52-.25-1-.36-1.22-.28-1.09-.05-1.46.41-.48.28-.69.37-.73.6-.44.57-.37.73-.36,1.09-.2,1.13-.16,1.17v2.63l.08.57v2.47l0,.73,0,.72,0,1.18v.72l0,1.06,0,.48-.29.41-.4.12Z"/><path class="cls-2" d="M774,168.32l-1-.36-.89-.37-.48-.32-.45-.16-.28-.2-.53-.37-.6-.36-.29-.25-.44-.44-.33-.4-.28-.29-.52-.89-.65-1-.37-.93-.24-.89-.24-.85-.2-1.54-.08-1.41.12-.69,0-.44.08-.41.16-.85.44-1.25.65-1,.53-.73.77-.89,1.25-1.05,1.17-.81,1.18-.61.93-.32.72-.16.85-.17,1.22-.12.68,0,1.06,0,.64.09.69.12,1.7.77.73.48.56.32.37.33.69.52.52.49.53.61.85,1.29.6,1.46.29.89,0,.52.08,1.09-.2,1.06-.17.36-.2.16-.28.16-.77.21-.93-.09h-1.25l-2.47,0-1.17,0h-1.42l-1.13-.08-.77.08h-2.14l-.93-.12-2.11.16-.44.21-.25.24-.16.44,0,.41.2.85.29.69.56,1.09.45.6.2.29.45.4.48.37.41.24.68.4,1.18.57,1.61.24.73,0,1.3-.12,1.25-.44,1-.49.81-.48.81-.57.52-.57.69-.32.53.08.56.28.57.49.16.4v.49l-.24.4-.65.73-.89.77-.89.65-.77.44-.8.37-.81.28-.85.24-1.18.16h-1.65ZM772.2,155.9l1,0,.85-.12h1l1.38.08h1.33l2.23.08h.85l.36,0h.53l.52,0,.37,0,.16-.12.12-.16v-.24l-.16-.57-.2-.65-.2-.36-.49-.61-.69-.68-1-.81-.73-.37-.77-.32-1.17-.28-1-.08h-.89l-.89.2-1.29.4-.65.29-1.25.84-.73.77-.29.33-.28.44-.36.73-.08.48.16.49.44.28,1.14.08Z"/><path class="cls-2" d="M793.32,167.63l-.4-.32-.12-.93,0-1.78v-2.55l-.12-1.49.12-1.3,0-1.5v-.85l-.08-1.29v-2.3l0-.49v-.93l.08-1.54,0-1.17.16-.44.24-.25.28-.12.41,0,.4,0,.45.08.56.24.25.41.08.24.12.08.2,0,.57-.36.64-.41.69-.32,1-.36,1.38-.17,1.57.08,1.62.37,1.26.61.85.6.56.61.12.36-.08.49-.36.52-.53.45-.68,0-.53-.24-.93-.53-1.21-.44-1-.17-.69,0-.81.13-.89.24-1,.69-.73.8-.36.73-.25.65-.32,1.42-.16,1.21.08,1.29v1.62l-.08,1.78,0,1.17,0,1.14v3.76l-.16.36-.37.2-.28.08-.53,0-.52,0Z"/></g></g></svg>