<svg xmlns="http://www.w3.org/2000/svg" viewBox="0 0 893.23 74.42"><g id="Calque_2" data-name="Calque 2"><g id="Calque_1-2" data-name="Calque 1"><path d="M839.68,18.48v53h-7.49V0l53.64,56.14V2.93h7.4V74.42Z"/><path d="M748.24,72.79c-20,0-36.11-15.81-36.08-35.51S728.41,1.62,748.23,1.61s36.07,16.07,36.13,35.65S768.25,72.78,748.24,72.79Zm.08-7.08a28.49,28.49,0,1,0-28.57-28.28A28.66,28.66,0,0,0,748.32,65.71Z"/><path d="M91.27,2.86h7.46v3q0,19.37,0,38.72c0,1.77,0,3.55.14,5.32.52,7.7,4,12.42,10.83,14.76s14.77.37,19.31-4.75c3.2-3.62,3.71-8,3.71-12.61q0-20.61,0-41.24V2.89h7.56c0,.61.13,1.14.13,1.67,0,14.5.06,29,0,43.49-.07,11.34-5.28,19.16-15.07,23a26.19,26.19,0,0,1-28.41-6.18c-4.41-4.64-5.8-10.33-5.81-16.49q0-21.6,0-43.2C91.09,4.44,91.2,3.71,91.27,2.86Z"/><path d="M403.79,30.19h26.84v7.14h-26.9V64.51h27.78v7a12.48,12.48,0,0,1-1.39.15H396V2.94h35.49V9.68H403.79Z"/><path d="M345.88,56.84a61.24,61.24,0,0,1-.11,8,4.84,4.84,0,0,1-2.3,2.75c-20.58,12.65-47.87,1.11-53.41-22.52-3.17-13.54,2.42-28,14.09-36.58a35.68,35.68,0,0,1,38.63-2.2c2.25,1.32,3.51,2.75,3.15,5.49a46.23,46.23,0,0,0-.05,5.84C337.81,10.49,329,7.1,318.59,9.51a27.26,27.26,0,0,0-16.3,11.15,28.28,28.28,0,0,0,3.62,37.28C314.75,66.38,330.26,70.39,345.88,56.84Z"/><path d="M243.27,17.38c-16.55-11.64-31-11.24-41.66.87a28.25,28.25,0,0,0,.36,38.3c10.76,11.78,25.26,12,41.28.47,0,2.91.12,5.57-.08,8.21,0,.7-1,1.51-1.67,2C221,80.77,191.82,68.47,187.34,44.1,184.61,29.26,189.74,17,202,8.34c12-8.48,25-9.12,38.1-2.09,2.4,1.28,3.7,2.85,3.23,5.73A36.87,36.87,0,0,0,243.27,17.38Z"/><path d="M478.34,55.05l7.21-2c.42,1.27.74,2.42,1.17,3.52,2.35,6.07,7.82,9.61,14,9.08a13.73,13.73,0,0,0,12.62-10.92c1-4.86-.44-9-4.55-11.79a85.57,85.57,0,0,0-9.36-5c-3-1.53-6.11-2.83-9-4.53-6.1-3.56-9.29-8.86-8.45-16.07.88-7.48,5.31-12.2,12.25-14.57,9.75-3.33,20,.75,24.39,9.66-1.85,1.2-3.73,2.4-5.77,3.71-.88-1.13-1.67-2.25-2.57-3.27A12.39,12.39,0,0,0,493.1,11.6c-4.93,4.28-4.8,11.1.45,14.91a44.86,44.86,0,0,0,6.59,3.65c3.76,1.88,7.65,3.49,11.34,5.5,14.46,7.9,10.81,24.73,2.71,31.76C501.43,78.49,482.32,72.14,478.34,55.05Z"/><path d="M40.26,12.43l-5.71,3.71c-.71-1-1.33-1.84-2-2.69a12.4,12.4,0,0,0-16.84-2.51C9.92,15,9.78,22.69,15.57,26.72A58.14,58.14,0,0,0,23,30.66c3.34,1.67,6.84,3,10.07,4.9C44.22,42,46.48,55.43,38,65.23c-6.12,7-14,9.11-22.87,6.69C6.78,69.64,2.14,63.65,0,55.09L7.24,53c.49,1.38.88,2.7,1.4,4a13.53,13.53,0,0,0,14.82,8.55A13.73,13.73,0,0,0,35.23,53.71c.53-5-1.31-8.9-5.55-11.41-3.44-2-7.18-3.57-10.74-5.41a67.7,67.7,0,0,1-8.56-4.74A16.24,16.24,0,0,1,9.15,6.63C18.72-2,35.36,1,40.26,12.43Z"/><path d="M606.58,12.29l-5.93,3.84c-.73-.95-1.41-1.9-2.15-2.81A12.42,12.42,0,0,0,581.63,11c-5.61,4.11-5.75,11.65-.06,15.61a69.08,69.08,0,0,0,8.66,4.54c3,1.51,6.14,2.77,9,4.47,10.53,6.16,13.1,18.29,5.91,28.16-5.36,7.36-12.86,10.13-21.69,8.64s-14.34-7.11-17-15.62a5.76,5.76,0,0,1-.2-1.1,3.3,3.3,0,0,1,.16-.77l6.5-1.83c1.4,2.68,2.39,5.35,4,7.53a13.17,13.17,0,0,0,15.66,4,13.39,13.39,0,0,0,8.67-13.41,10.8,10.8,0,0,0-5.73-9.09c-3.47-2-7.2-3.53-10.76-5.38a66.42,66.42,0,0,1-8.75-5,15.82,15.82,0,0,1-4-21.5c4.1-6.44,10.38-9,17.75-8.68S602.71,5.66,606.58,12.29Z"/><path d="M657.66,2.84H665V71.46h-7.29Z"/></g></g></svg>