<svg xmlns="http://www.w3.org/2000/svg" viewBox="0 0 326.25 226.67"><g id="Calque_2" data-name="Calque 2"><g id="Calque_1-2" data-name="Calque 1"><path d="M173.14,226.51c-16.33,0-32.66,0-49,0-1.44,0-3.89,1-4.07-1.46-.22-3,2.49-1.83,4.08-2.1,1.14-.19,2.33-.14,3.49-.27,12.38-1.39,16.14-7.24,12.29-19.16-4.55-14.1-9.22-28.16-13.64-42.3-1-3.15-2.24-4.53-5.83-4.51q-33.48.28-67,0c-3.49,0-4.92,1.17-5.94,4.4C43.3,174.55,38.75,188,34.3,201.38c-.36,1.1-.74,2.21-1,3.33-2.74,10.29.1,15,10.63,17.19,3.07.63,6.27.67,9.41,1,1.36.15,3.27-.51,3.21,2-.05,2.15-1.75,1.62-2.94,1.62q-25.23,0-50.47,0c-1.22,0-3,.48-3.1-1.53-.16-2.34,1.75-2,3.17-2.07,14.65-.94,23.33-9.07,27.76-22.65Q57.28,119.56,83.87,39c1.33-4-.09-7.14-1.17-10.56-4.38-14-13-23-28.4-24-1.31-.09-2.89.07-2.89-1.88S53.08.76,54.32.76C75.15.74,96,.61,116.79.84c6.34.07,10.62,4.21,14.07,9.22,5,7.27,7.16,15.72,9.85,23.92q27,82.31,53.86,164.69c4.7,14.48,13.36,23.53,29.22,24.23,1.31.06,2.87-.12,2.73,1.94-.16,2.48-2.14,1.62-3.41,1.63C206.45,226.53,189.79,226.51,173.14,226.51ZM87.28,41.7a15.28,15.28,0,0,0-1.41,2.12Q68.49,96.67,51.07,149.49c-1.14,3.43-.39,4.2,3.11,4.17,21.48-.13,42.95-.17,64.43,0,4.47.05,4.82-1.15,3.52-5-6.13-18.3-12-36.69-18-55C98.62,76.55,93.06,59.48,87.28,41.7Z"/><path d="M292.35,225.65c-9,0-18-.28-27,.09-7.05.29-12.13-2.68-16.41-7.83-4.53-5.44-7.41-11.83-10.56-18.07C226,175.32,214.08,150.57,201,126.42c-3.11-5.76-1.81-8.41,1.49-12.54q35.1-43.9,69.91-88a40.69,40.69,0,0,0,5.37-8.39c2.65-5.83,1.13-9.65-4.82-11.84a38.89,38.89,0,0,0-13.76-2.12c-1.24,0-2.95.39-3-1.63S257.71,0,259.05,0h51c1.15,0,2.47-.08,2.62,1.56.2,2.08-1.37,2-2.68,1.94-11-.32-19,5.19-25.55,13.34C269,36.05,253.61,55.32,238.11,74.48c-1.67,2.06-1.53,3.64-.43,5.82q32,63.32,63.81,126.69c4.58,9.13,10.64,15.68,21.78,15.3,1.26,0,3-.23,3,1.72,0,2.49-2.16,1.58-3.41,1.59C312.68,225.68,302.52,225.65,292.35,225.65Z"/></g></g></svg>