<svg xmlns="http://www.w3.org/2000/svg" viewBox="0 0 681.92 147.9"><defs><style>.cls-1{font-size:116.88px;fill:#a0b353;font-family:Omnes-Regular, Omnes;}.cls-2{letter-spacing:-0.02em;}.cls-3{letter-spacing:-0.01em;}.cls-4{letter-spacing:0.01em;}.cls-5{fill:#5d833d;}</style></defs><g id="Calque_2" data-name="Calque 2"><g id="Calque_2-2" data-name="Calque 2"><text class="cls-1" transform="translate(0 121.02)"><tspan class="cls-2">E</tspan><tspan class="cls-3" x="64.99" y="0">v</tspan><tspan x="119.1" y="0">e</tspan><tspan class="cls-4" x="181.17" y="0">r</tspan><tspan x="221.84" y="0">Shape</tspan></text><path class="cls-5" d="M586.07,129.44c29.62-19.5.66-74.16-19.4-85-6.92,32.47-19,62.06,14.72,86.56,1.42-6.81-4.73-58.51-8.42-64.76,0,0,9.82,25,10.72,34.39C585,113.74,586.07,129.44,586.07,129.44Z"/><path class="cls-5" d="M596.62,66.52a45.29,45.29,0,0,1,13,27.75c8.56-8.38,48.32-55.84,53.12-62.33-3.62,6.6-41,61.72-53.08,70.67-.2,7.37-6.19,23.73-15.86,31.41,63.31,12.35,93.59-91.45,87.36-134C663.33,5.48,612.18,43.15,596.62,66.52Z"/></g></g></svg>