<svg xmlns="http://www.w3.org/2000/svg" viewBox="0 0 57.77 57.21"><defs><style>.cls-1,.cls-2{fill:none;stroke-miterlimit:10;}.cls-1{stroke:#99ab3e;}.cls-2{stroke:#838e34;}.cls-3{fill:#838e34;}</style></defs><g id="Calque_2" data-name="Calque 2"><g id="Calque_1-2" data-name="Calque 1"><line class="cls-1" x1="27.9" y1="0.32" x2="27.9" y2="27.9"/><line class="cls-1" x1="47.4" y1="8.4" x2="27.9" y2="27.9"/><line class="cls-1" x1="8.4" y1="47.4" x2="27.9" y2="27.9"/><line class="cls-1" x1="0.32" y1="27.9" x2="27.9" y2="27.9"/><line class="cls-1" x1="8.4" y1="8.4" x2="27.9" y2="27.9"/><line class="cls-1" x1="21.85" y1="0.32" x2="27.9" y2="7.47"/><line class="cls-1" x1="33.94" y1="0.32" x2="27.9" y2="7.47"/><line class="cls-1" x1="4.13" y1="43.12" x2="13.45" y2="42.34"/><line class="cls-1" x1="0.32" y1="21.85" x2="7.47" y2="27.9"/><line class="cls-1" x1="12.67" y1="4.13" x2="13.45" y2="13.45"/><line class="cls-1" x1="43.12" y1="4.13" x2="42.34" y2="13.45"/><line class="cls-1" x1="0.32" y1="33.94" x2="7.47" y2="27.9"/><line class="cls-1" x1="4.13" y1="12.67" x2="13.45" y2="13.45"/><line class="cls-2" x1="57.77" y1="27.87" x2="45.95" y2="27.87"/><line class="cls-2" x1="49.17" y1="48.62" x2="40.82" y2="40.26"/><line class="cls-2" x1="28.42" y1="57.21" x2="28.42" y2="45.4"/><path class="cls-3" d="M28.42,27.87,19.9,36.39A12.06,12.06,0,0,0,37,19.34Z"/></g></g></svg>