<svg xmlns="http://www.w3.org/2000/svg" viewBox="0 0 27.63 95.21"><defs><style>.cls-1,.cls-3{fill:none;}.cls-1{stroke:#99ab3e;stroke-miterlimit:10;}.cls-2{fill:#99ab3e;}.cls-3{stroke:#fff;stroke-linecap:round;stroke-linejoin:round;}</style></defs><g id="Calque_2" data-name="Calque 2"><g id="Calque_1-2" data-name="Calque 1"><path class="cls-1" d="M13.5.5h1A11.66,11.66,0,0,1,26.13,12.12l1,14.72a11.61,11.61,0,0,1-5,9.52c-2.26,1.58-4.69,4.1-4.69,6.87l1,47.75c0,1.64-2.18,3.73-4.44,3.73h-.38c-2.27,0-4.45-2.09-4.45-3.73l1-47.75c0-2.77-2.42-5.29-4.69-6.87a11.61,11.61,0,0,1-5-9.52l1-14.72A11.66,11.66,0,0,1,13.12.5h1"/><rect class="cls-2" x="5.19" y="5.51" width="17.26" height="28.97" rx="8.63"/><rect class="cls-2" x="12.57" y="73.97" width="2.49" height="16.4" rx="1.24"/><path class="cls-3" d="M13.1,10S19,9.64,19,15.15"/></g></g></svg>