<svg xmlns="http://www.w3.org/2000/svg" viewBox="0 0 62.67 63.51"><defs><style>.cls-1{fill:none;stroke:#99ab3d;stroke-miterlimit:10;}.cls-2{fill:#99ab3d;}</style></defs><g id="Calque_2" data-name="Calque 2"><g id="Calque_1-2" data-name="Calque 1"><rect class="cls-1" x="28.03" y="10.27" width="1.91" height="13.21" rx="0.96"/><rect class="cls-1" x="40.58" y="18.94" width="2.54" height="16.37" rx="1.27" transform="translate(33.56 -22.05) rotate(47.49)"/><rect class="cls-2" x="13.54" y="41.77" width="7.85" height="7.85" rx="1.7"/><rect class="cls-1" x="40.52" y="30.98" width="7.09" height="10.09" rx="3.54"/><rect class="cls-1" x="17.56" y="25.21" width="12.77" height="4.61" rx="2.31" transform="translate(9.19 -5.84) rotate(17.16)"/><rect class="cls-1" x="47.67" y="21.18" width="19.37" height="4.61" rx="2.31" transform="translate(59.98 -38.44) rotate(70.15)"/><rect class="cls-1" x="9.33" y="54.33" width="18.45" height="5.42" rx="2.71" transform="translate(31.01 -1.64) rotate(30)"/><rect class="cls-1" x="50.79" y="23.49" width="1.36" height="10.09" rx="0.5"/><rect class="cls-2" x="4.32" y="17.53" width="1.36" height="10.09" rx="0.5" transform="translate(-5.58 2.02) rotate(-14.74)"/><rect class="cls-1" x="23.94" y="42.57" width="4.32" height="12.69" rx="0.99"/><rect class="cls-1" x="34" y="11.29" width="14.49" height="5.43" rx="1.18" transform="translate(5.97 -11.55) rotate(17.16)"/><rect class="cls-1" x="40.92" y="44.31" width="13.36" height="1.88" rx="0.72" transform="translate(-16.96 57.26) rotate(-54.09)"/><rect class="cls-1" x="11.3" y="34.4" width="23.68" height="5.17" rx="2.59"/><rect class="cls-2" x="29.94" y="47.42" width="4.02" height="15.06" rx="2.01"/><rect class="cls-2" x="51.2" y="35.42" width="10.99" height="2.49" rx="0.55"/><rect class="cls-1" x="19.41" y="9.31" width="5.62" height="12.01" rx="2.58"/><rect class="cls-2" x="3.17" y="36.67" width="6.57" height="10.95" rx="3.29"/><rect class="cls-1" x="11.12" y="14.44" width="1.55" height="19.14" rx="0.78" transform="translate(10.33 -2.74) rotate(23)"/><rect class="cls-1" x="38.26" y="41.51" width="1.55" height="19.14" rx="0.78" transform="translate(-16.23 18.23) rotate(-21.89)"/><rect class="cls-1" x="19.81" y="0.5" width="22.03" height="6.65" rx="1.8"/><rect class="cls-2" x="50.56" y="39.28" width="7.28" height="19.95" rx="3.64" transform="translate(39.19 -22.43) rotate(35.91)"/><rect class="cls-2" x="10.16" y="9.31" width="7.31" height="4.12" rx="2.06"/><rect class="cls-2" x="43.11" y="7.96" width="11.33" height="2.7" rx="1.16" transform="translate(11.19 -23.14) rotate(30)"/><rect class="cls-2" x="32.56" y="19.24" width="7.54" height="6.27" rx="1.68" transform="translate(-5.72 15.15) rotate(-21.89)"/><rect class="cls-1" x="13.13" y="29.13" width="3.12" height="3.12" rx="0.31"/><rect class="cls-1" x="1.62" y="29.18" width="3.59" height="6.88" rx="1.8" transform="translate(-16.23 58.9) rotate(-137.26)"/></g></g></svg>