<svg xmlns="http://www.w3.org/2000/svg" viewBox="0 0 28.21 38.54"><defs><style>.cls-1{fill:#99ab3e;}.cls-2,.cls-3{fill:none;stroke-miterlimit:10;}.cls-2{stroke:#99ab3e;}.cls-3{stroke:#99ab3d;}</style></defs><g id="Calque_2" data-name="Calque 2"><g id="Calque_1-2" data-name="Calque 1"><ellipse class="cls-1" cx="14.11" cy="2.79" rx="14.11" ry="2.79"/><path class="cls-2" d="M27.68,2.79l-.4,11.11-3,20.91a2.85,2.85,0,0,1-2.71,2.56l-1.11.18a40.72,40.72,0,0,1-12.66,0l-1.12-.18A2.85,2.85,0,0,1,4,34.81L1,13.9.55,2.79"/><path class="cls-3" d="M15.49,2.83A21,21,0,0,0,9.63,10c-2.1,4.38,2.62,9.34,2.62,9.34"/><path class="cls-1" d="M12.67,19.24l-.67.57a1,1,0,0,0-.33.63l-.08.77a1,1,0,0,0,.23.74l1.66,1.93a1,1,0,0,0,1.38.1l1.51-1.3a1,1,0,0,0,.1-1.38l-1.66-1.93a1,1,0,0,0-.7-.34l-.76,0A.93.93,0,0,0,12.67,19.24Z"/></g></g></svg>