<svg xmlns="http://www.w3.org/2000/svg" viewBox="0 0 21.77 47.07"><defs><style>.cls-1{fill:#99ab3e;}.cls-2{fill:none;stroke:#99ab3e;stroke-miterlimit:10;}</style></defs><g id="Calque_2" data-name="Calque 2"><g id="Calque_1-2" data-name="Calque 1"><path class="cls-1" d="M15.75,3.28V3.22a.93.93,0,0,1,.95-.94.9.9,0,0,1,.92.94v0a.94.94,0,0,1-.95.95A.9.9,0,0,1,15.75,3.28Zm1.53,0V3.22a.6.6,0,0,0-.6-.61.59.59,0,0,0-.6.61v0a.61.61,0,0,0,.61.62A.58.58,0,0,0,17.28,3.28Z"/><path class="cls-1" d="M20.21,2.29a2,2,0,0,1,1.12.32.74.74,0,0,1,.37.52.37.37,0,0,1-.36.35,1.29,1.29,0,0,0-1.12-.62,1.37,1.37,0,0,0-1.37,1.49,1.38,1.38,0,0,0,1.38,1.49,1.16,1.16,0,0,0,1.14-.69s.4,0,.4.34a.82.82,0,0,1-.4.57,2,2,0,0,1-1.18.35,1.93,1.93,0,0,1-2-2A2,2,0,0,1,20.21,2.29Z"/><circle class="cls-1" cx="8.46" cy="38.61" r="5.63"/><path class="cls-2" d="M12,31.47V4A3.5,3.5,0,1,0,5,4V31.47a8,8,0,1,0,7,0Z"/><rect class="cls-1" x="6.6" y="9" width="3.72" height="28.63" rx="1.48"/></g></g></svg>