<svg xmlns="http://www.w3.org/2000/svg" viewBox="0 0 73.6 43.76"><defs><style>.cls-1{fill:none;stroke:#99ab3e;stroke-miterlimit:10;}.cls-2{fill:#99ab3e;}</style></defs><g id="Calque_2" data-name="Calque 2"><g id="Calque_1-2" data-name="Calque 1"><path class="cls-1" d="M20.38,19.6A29.31,29.31,0,0,0,9.11,34.46"/><path class="cls-1" d="M64.77,35.35A29.33,29.33,0,0,0,53.22,19.6"/><circle class="cls-1" cx="36.8" cy="14.55" r="7.67"/><path class="cls-2" d="M73.6,43.76a7.66,7.66,0,0,0-15.2,0Z"/><path class="cls-2" d="M15.19,43.76A7.66,7.66,0,0,0,0,43.76Z"/><rect class="cls-2" x="36.21" width="1.18" height="4.72" rx="0.59"/><rect class="cls-2" x="44.83" y="3.57" width="1.18" height="4.72" rx="0.59" transform="translate(17.5 -30.38) rotate(45)"/><rect class="cls-2" x="48.4" y="12.19" width="1.18" height="4.72" rx="0.59" transform="translate(63.54 -34.44) rotate(90)"/><rect class="cls-2" x="44.83" y="20.81" width="1.18" height="4.72" rx="0.59" transform="translate(93.92 7.44) rotate(135)"/><rect class="cls-2" x="36.21" y="24.38" width="1.18" height="4.72" rx="0.59" transform="translate(73.6 53.49) rotate(180)"/><rect class="cls-2" x="27.59" y="20.81" width="1.18" height="4.72" rx="0.59" transform="translate(31.72 59.49) rotate(-135)"/><rect class="cls-2" x="24.02" y="12.19" width="1.18" height="4.72" rx="0.59" transform="translate(10.05 39.16) rotate(-90)"/><rect class="cls-2" x="27.59" y="3.57" width="1.18" height="4.72" rx="0.59" transform="translate(4.06 21.66) rotate(-45)"/></g></g></svg>