<svg xmlns="http://www.w3.org/2000/svg" viewBox="0 0 194.94 115.58"><defs><style>.cls-1{fill:#1d1d1b;}</style></defs><g id="Calque_2" data-name="Calque 2"><g id="Calque_1-2" data-name="Calque 1"><path class="cls-1" d="M97.78,9.84c12.6,0,18.62,1.12,24.63,2.4l.44.09L97.78,0,72.7,12.33l.44-.09C79.14,11,85.18,9.84,97.78,9.84Z"/><polygon class="cls-1" points="75.85 59.22 95.37 48.11 77.15 38.39 75.85 59.22"/><path class="cls-1" d="M116.84,14.15A95.67,95.67,0,0,0,99.29,12.8V45.89l19-10.57Z"/><polygon class="cls-1" points="118.4 38.39 100.18 48.11 119.7 59.22 118.4 38.39"/><path class="cls-1" d="M96.26,12.8a95.67,95.67,0,0,0-17.55,1.35L77.26,35.32l19,10.57Z"/><polygon class="cls-1" points="96.26 50.04 77.66 59.89 96.26 59.89 96.26 50.04"/><polygon class="cls-1" points="99.28 50.04 99.28 59.89 117.89 59.89 99.28 50.04"/><path class="cls-1" d="M55.2,72.29H50.76V87H55.2a7.36,7.36,0,1,0,0-14.72ZM55,85.56H52.36V73.74H55a5.76,5.76,0,0,1,6.11,6C61.15,83.09,58.66,85.56,55,85.56Z"/><path class="cls-1" d="M72.47,72.08a7.58,7.58,0,1,0,7.34,7.59A7.33,7.33,0,0,0,72.47,72.08Zm0,13.65a6.09,6.09,0,1,1,5.69-6.06A5.75,5.75,0,0,1,72.47,85.73Z"/><polygon class="cls-1" points="96.83 87.01 96.83 72.16 96.2 72.16 90.09 80.28 90.03 80.28 83.88 72.16 83.17 72.16 83.17 87.01 84.73 87.01 84.73 75.74 89.94 82.47 90.16 82.47 95.25 75.82 95.25 87.01 96.83 87.01"/><path class="cls-1" d="M99.25,87h1.67l1.82-4.35h6.34L110.9,87h1.66l-6.29-14.82h-.7Zm6.67-11.9,2.55,6.12h-5.13l2.56-6.12Z"/><rect class="cls-1" x="115.01" y="72.29" width="1.6" height="14.72"/><polygon class="cls-1" points="132.85 72.29 131.27 72.29 131.27 83.7 131.22 83.7 121.72 72.21 120.97 72.21 120.97 87.01 122.52 87.01 122.52 75.45 122.57 75.45 132.16 87.1 132.85 87.1 132.85 72.29"/><polygon class="cls-1" points="145.82 85.56 138.8 85.56 138.8 80.26 144.84 80.26 144.84 78.85 138.8 78.85 138.8 73.74 145.58 73.74 145.3 72.29 137.2 72.29 137.2 87.01 145.51 87.01 145.82 85.56"/><polygon class="cls-1" points="11.98 93.61 15.21 97.44 15.3 97.44 15.3 92.65 0 92.65 0 97.44 0.09 97.44 3.32 93.61 5.92 93.61 5.92 108.63 4.24 110.06 4.24 110.2 11.07 110.2 11.07 110.06 9.38 108.63 9.38 93.61 11.98 93.61"/><path class="cls-1" d="M21.22,98.47c-3.41,0-6.57,2.3-6.57,6.09a5.92,5.92,0,0,0,6.25,5.87c3.41,0,6.57-2.29,6.57-6.06A5.93,5.93,0,0,0,21.22,98.47Zm.17,11.21c-2.11,0-3.19-2.92-3.19-5.78,0-2.55.8-4.68,2.56-4.68,2.17,0,3.18,2.93,3.18,5.64S23,109.68,21.39,109.68Z"/><path class="cls-1" d="M41.82,98.66l-5.2,0v.14l1.83,1.31V108a5.58,5.58,0,0,1-2.48.73c-1.55,0-2.09-.77-2.09-2.6V98.66l-5,0v.14l1.69,1.31V106c0,3,.51,4.38,3.3,4.38a8.23,8.23,0,0,0,4.63-1.55l.09,0v1.45H43.5v-.14l-1.68-1.38Z"/><path class="cls-1" d="M49.47,100.93h0V98.71H44.51v.14l1.68,1.54v8.31l-1.68,1.36v.14h7.16v-.14l-2.13-1.36v-6a2,2,0,0,1,1.24-2l3.06,1.75h.1v-4A5.22,5.22,0,0,0,49.47,100.93Z"/><path class="cls-1" d="M72.77,109.31a8.48,8.48,0,0,1-1.82.23c-4.17,0-6-4.12-6-8.35,0-4.75,2.55-7.84,6-7.84a5.58,5.58,0,0,1,1.83.28l4,4.35h.09V93.54a14.67,14.67,0,0,0-5.78-1.13c-4.23,0-9.87,2.76-9.87,8.92,0,5.94,4.51,9.1,9.5,9.1A15.76,15.76,0,0,0,77,109.35v-4.47l-.1,0Z"/><path class="cls-1" d="M90.16,104c0-3.18-.44-5.5-4.7-5.5-1.66,0-3.28.12-5.06.24v4.16h.1l3.15-3.65h.29c2.22,0,2.85,1,2.85,3.75v.39L80.52,105a3.84,3.84,0,0,0-.91,2.44,3.12,3.12,0,0,0,3.44,3,5.43,5.43,0,0,0,3.83-1.78v1.55h5v-.14l-1.68-1.36Zm-3.37,4.1a2.93,2.93,0,0,1-1.9.84,1.79,1.79,0,0,1-1.89-2,2.75,2.75,0,0,1,.49-1.57l3.3-1.42Z"/><path class="cls-1" d="M114,102.92c0-3-.45-4.35-3.28-4.35a8.64,8.64,0,0,0-4.89,1.66l-.16.11c-.35-1.21-1.2-1.77-3-1.77a8.74,8.74,0,0,0-4.77,1.59V98.71h-5v.14l1.68,1.78v8.12l-1.68,1.31v.14H99.5v-.14l-1.69-1.31V101a6,6,0,0,1,2.81-.73c1.43,0,1.92.75,1.92,2.58v5.92l-1.69,1.31v.14h6.72v-.14l-1.69-1.31v-5.83a15.22,15.22,0,0,0-.09-1.9,5.93,5.93,0,0,1,2.9-.77c1.45,0,1.92.75,1.92,2.58v5.92l-1.68,1.31v.14h6.71v-.14L114,108.75Z"/><path class="cls-1" d="M125,98.47a6.42,6.42,0,0,0-3.58,1.41V98.59h-5v.14l1.69,1.76v13.62l-1.69,1.33v.14h7.09v-.14l-2.06-1.36V110.2h1.94c3.33,0,6.63-1.83,6.63-6.39C130.06,101.07,128.65,98.47,125,98.47Zm-1.59,10.81a4.27,4.27,0,0,1-1.92-.53v-8.22a5,5,0,0,1,1.94-.49c2.06,0,3.19,1.55,3.19,4.31C126.62,107.27,125.26,109.28,123.41,109.28Z"/><path class="cls-1" d="M142.81,104c0-3.18-.45-5.5-4.7-5.5-1.67,0-3.28.12-5.06.24v4.16h.09l3.16-3.65h.28c2.23,0,2.86,1,2.86,3.75v.39L133.17,105a3.84,3.84,0,0,0-.91,2.44,3.12,3.12,0,0,0,3.44,3,5.43,5.43,0,0,0,3.83-1.78v1.55h5v-.14l-1.68-1.36Zm-3.37,4.1a2.93,2.93,0,0,1-1.9.84,1.79,1.79,0,0,1-1.89-2,2.75,2.75,0,0,1,.49-1.57l3.3-1.42Z"/><path class="cls-1" d="M158.79,103c0-3.3-.93-4.42-3.37-4.42-1.36,0-2.69.49-4.89,1.64l-.07,0V98.71h-5v.14l1.68,1.73v8.17l-1.68,1.31v.14h6.72v-.14l-1.69-1.31v-7.7l.07,0a7.06,7.06,0,0,1,2.86-.77c1.54,0,2.05.77,2.05,2.6v5.9l-1.68,1.31v.14h6.72v-.14l-1.69-1.31Z"/><path class="cls-1" d="M173.25,103.43c-.58-3.25-2.48-5-5.36-5a5.81,5.81,0,0,0-6,6.13,5.58,5.58,0,0,0,5.75,5.83,7.12,7.12,0,0,0,5.27-2.27v-.3a6,6,0,0,1-2.95.75,4.22,4.22,0,0,1-4.47-3.59l6.81-1.4Zm-7.81,1.06a8.44,8.44,0,0,1-.1-1.36c0-2.18.8-3.93,2.41-3.93,1.15,0,1.81,1.5,2,3.77Z"/><path class="cls-1" d="M179.57,106.8V99.71h3.7v-1h-3.7V95.55h-.4l-2.95,3.16h-1.8v1h1.8v6.7c0,2.27.45,4,3.16,4a6,6,0,0,0,4.07-1.75v-.36a6,6,0,0,1-2,.45C180.09,108.77,179.57,108.18,179.57,106.8Z"/><path class="cls-1" d="M192.53,103.71,190,102.47c-1.56-.72-2.1-1.24-2.1-2s.68-1.27,1.68-1.27a6,6,0,0,1,1,.12l3.37,3.14H194V98.82a22.62,22.62,0,0,0-4.19-.35c-2.41,0-4.54,1.22-4.54,3.4,0,1.47.73,2.38,2.55,3.25l2.41,1.12c1.48.68,2,1.38,2,2,0,.93-.75,1.52-2.22,1.52a9,9,0,0,1-1.41-.12l-3.25-3.44h-.09v4a38.44,38.44,0,0,0,4.37.3c2.44,0,5.31-.84,5.31-3.77C194.94,105.24,194.08,104.44,192.53,103.71Z"/></g></g></svg>